<?xml version="1.0" encoding="utf-8"?>
<!-- Generator: Adobe Illustrator 16.0.0, SVG Export Plug-In . SVG Version: 6.00 Build 0)  -->
<!DOCTYPE svg PUBLIC "-//W3C//DTD SVG 1.1//EN" "http://www.w3.org/Graphics/SVG/1.1/DTD/svg11.dtd">
<svg version="1.1" id="图层_1" xmlns="http://www.w3.org/2000/svg" xmlns:xlink="http://www.w3.org/1999/xlink" x="0px" y="0px"
	 width="32px" height="32px" viewBox="0 0 32 32" enable-background="new 0 0 32 32" xml:space="preserve">
<title>预定</title>
<desc>Created with Sketch.</desc>
<g>
	<path d="M24.001,19.132c0.587-0.001,1.077-0.446,1.135-1.03l1.101-11.159c0.151-1.537-0.314-2.99-1.312-4.09
		c-0.999-1.103-2.402-1.71-3.951-1.71H9.16c-3.093,0-5.856,2.501-6.159,5.576L1.192,25.058c-0.152,1.537,0.314,2.989,1.312,4.091
		c0.999,1.103,2.402,1.709,3.951,1.709h7.265c0.606,0,1.107-0.473,1.141-1.078l0.405-7.143c0.109-1.921,1.765-3.487,3.692-3.492
		L24.001,19.132z M12.981,19.873c-0.213,0.204-0.497,0.317-0.791,0.317c-0.019,0-0.037,0-0.056-0.001
		c-0.313-0.016-0.607-0.159-0.812-0.397l-4.571-5.334c-0.411-0.479-0.355-1.201,0.124-1.611c0.479-0.411,1.2-0.355,1.611,0.124
		l3.785,4.416l8.271-7.926c0.457-0.438,1.18-0.42,1.616,0.035c0.437,0.456,0.421,1.179-0.034,1.616L12.981,19.873z"/>
	<path d="M30.465,6.864c-0.629-0.072-1.192,0.383-1.262,1.01L28.017,18.6c-0.206,1.942-1.962,3.522-3.913,3.522h-4.675
		c-0.615,0-1.12,0.487-1.143,1.103l-0.229,6.45c-0.021,0.63,0.472,1.16,1.103,1.183c0.014,0,0.027,0,0.041,0
		c0.612,0,1.119-0.485,1.142-1.103l0.189-5.348h3.571c3.085,0,5.86-2.497,6.186-5.561l1.186-10.721
		C31.544,7.498,31.092,6.934,30.465,6.864z"/>
</g>
</svg>
