<?xml version="1.0" encoding="UTF-8" standalone="no"?>
<svg width="48px" height="48px" viewBox="0 0 48 48" version="1.1" xmlns="http://www.w3.org/2000/svg" xmlns:xlink="http://www.w3.org/1999/xlink">
    <!-- Generator: Sketch 39.1 (31720) - http://www.bohemiancoding.com/sketch -->
    <title>相机1 @2x </title>
    <desc>Created with Sketch.</desc>
    <defs>
        <path d="M19,27 C24.5228475,27 29,22.5228475 29,17 C29,11.4771525 24.5228475,7 19,7 C13.4771525,7 9,11.4771525 9,17 C9,22.5228475 13.4771525,27 19,27 Z" id="path-1"></path>
        <mask id="mask-2" maskContentUnits="userSpaceOnUse" maskUnits="objectBoundingBox" x="0" y="0" width="20" height="20" fill="white">
            <use xlink:href="#path-1"></use>
        </mask>
    </defs>
    <g id="icon-24/48/72" stroke="none" stroke-width="1" fill="none" fill-rule="evenodd">
        <g id="all" transform="translate(-984.000000, -516.000000)"></g>
        <g id="相机1-@2x-">
            <g id="相机" transform="translate(5.000000, 8.000000)">
                <path d="M3.99480279,4.00021765 C1.78458691,3.99859359 0,5.78763877 0,7.99615542 L0,28.0011269 C0,30.2073643 1.78853413,32 3.99480279,32 L34.0051972,32 C36.2154131,32 38,30.2049389 38,27.9906187 L38,8.03385102 C38,5.81530059 36.2114659,4.02315554 34.0051972,4.02153438 L28.0071379,4.01712703 L26.7421294,1.74025659 C26.2124056,0.786814497 24.8787276,0 23.7728007,0 L13.3762808,0 C12.2746971,0 10.94094,0.779139415 10.4069521,1.74025659 L9.14964201,4.00327061 L3.99480279,4.00021765 Z" id="Oval-26-Copy" fill="#4A4A4A"></path>
                <use id="Path" stroke="#FFFFFF" mask="url(#mask-2)" stroke-width="4" xlink:href="#path-1"></use>
                <polygon id="Shape" fill="#FFFFFF" points="34 10 34 8 30 8 30 10"></polygon>
            </g>
        </g>
    </g>
</svg>