<svg xmlns="http://www.w3.org/2000/svg" width="100" height="100" viewBox="0 0 100 100">
    <path fill-rule="evenodd" clip-rule="evenodd" fill="#040000" d="M93.744 19.55c.02.593-.073 1.234-.322 1.924L85.25 48.5c-.2.434-.416.792-.643 1.116-.102.154-.218.296-.34.436-.055.063-.108.135-.166.194-.112.114-.237.214-.364.315-.098.08-.193.168-.295.235-.083.055-.175.095-.263.144-.14.077-.277.16-.426.222-.187.08-.386.134-.587.186-.052.014-.1.034-.153.046-.11.024-.227.034-.34.05-.26.04-.528.07-.81.082L47.114 55.4c-.278.062-.566.1-.863.1-2.21 0-4-1.79-4-4s1.79-4 4-4l31.514-3.618L83.812 23.5H38.48v-.023c-.078.005-.15.023-.23.023-2.21 0-4-1.79-4-4s1.79-4 4-4h51.195c2.377 0 4.305 1.79 4.305 4 0 .017-.006.033-.006.05zM36.25 63.5h42c2.363 0 4 1.646 4 4s-1.6 4-4.3 4H33.24c-2.39-.006-4.382-1.69-4.87-3.934-.005-.013-.017-.02-.022-.033l-.322-.96L16.25 16.5h-5c-2.364 0-5-1.646-5-4s1.916-4 4.28-4H19.13l.022.04c2.114.19 3.79 1.828 4.042 3.924l.056.036 13 51zm3 16c3.313 0 6 2.687 6 6s-2.687 6-6 6-6-2.687-6-6 2.687-6 6-6zm31 0c3.313 0 6 2.687 6 6s-2.687 6-6 6-6-2.687-6-6 2.687-6 6-6z"/>
</svg>
