<svg xmlns="http://www.w3.org/2000/svg" width="100" height="100" viewBox="0 0 100 100">
    <path fill-rule="evenodd" clip-rule="evenodd" fill="#040000" d="M93.744 19.55c.02.593-.073 1.234-.322 1.924L85.25 48.5c-.2.434-.416.792-.643 1.116-.102.154-.218.296-.34.436-.055.063-.108.135-.166.194-.112.114-.237.214-.364.315-.098.08-.193.168-.295.235-.083.055-.175.095-.263.144-.14.077-.277.16-.426.222-.187.08-.386.134-.587.186-.052.014-.1.034-.153.046-.11.024-.227.034-.34.05-.3.047-.614.076-.94.086l-46.54 3.892 2.06 8.078h42c2.363 0 4 1.646 4 4s-1.6 4-4.3 4H33.24c-2.39-.006-4.382-1.69-4.87-3.934-.006-.014-.017-.02-.022-.033-.19-.565-.32-.96-.32-.96L16.25 16.5h-5c-2.364 0-5-1.646-5-4s1.916-4 4.28-4H19.13l.02.04c2.115.19 3.793 1.828 4.044 3.924l.056.036.765 3h65.43c2.378 0 4.306 1.79 4.306 4 0 .017-.005.033-.006.05zM39.25 79.5c3.313 0 6 2.687 6 6s-2.687 6-6 6c-3.314 0-6-2.687-6-6s2.686-6 6-6zm31 0c3.313 0 6 2.687 6 6s-2.687 6-6 6c-3.314 0-6-2.687-6-6s2.686-6 6-6z"/>
</svg>
