<?xml version="1.0" encoding="UTF-8" standalone="no"?>
<svg width="32px" height="32px" viewBox="0 0 32 32" version="1.1" xmlns="http://www.w3.org/2000/svg" xmlns:xlink="http://www.w3.org/1999/xlink">
    <!-- Generator: Sketch 39.1 (31720) - http://www.bohemiancoding.com/sketch -->
    <title>关闭－4 @2x</title>
    <desc>Created with Sketch.</desc>
    <defs></defs>
    <g id="icon-16/32/48" stroke="none" stroke-width="1" fill="none" fill-rule="evenodd">
        <g id="all" transform="translate(-840.000000, -173.000000)"></g>
        <g id="关闭－4-@2x">
            <g id="Group" transform="translate(2.000000, 2.000000)">
                <circle id="Oval-322" fill="#AFB0B2" cx="14" cy="14" r="14"></circle>
                <path d="M8.29289322,9.70710678 L18.2928932,19.7071068 C18.6834175,20.0976311 19.3165825,20.0976311 19.7071068,19.7071068 C20.0976311,19.3165825 20.0976311,18.6834175 19.7071068,18.2928932 L9.70710678,8.29289322 C9.31658249,7.90236893 8.68341751,7.90236893 8.29289322,8.29289322 C7.90236893,8.68341751 7.90236893,9.31658249 8.29289322,9.70710678 L8.29289322,9.70710678 Z" id="Shape" fill="#FFFFFF"></path>
            </g>
            <path d="M20.2928932,10.2928932 L10.2928932,20.2928932 C9.90236893,20.6834175 9.90236893,21.3165825 10.2928932,21.7071068 C10.6834175,22.0976311 11.3165825,22.0976311 11.7071068,21.7071068 L21.7071068,11.7071068 C22.0976311,11.3165825 22.0976311,10.6834175 21.7071068,10.2928932 C21.3165825,9.90236893 20.6834175,9.90236893 20.2928932,10.2928932 L20.2928932,10.2928932 Z" id="Shape" fill="#FFFFFF"></path>
        </g>
    </g>
</svg>