<?xml version="1.0" encoding="utf-8"?>
<!-- Generator: Adobe Illustrator 16.0.0, SVG Export Plug-In . SVG Version: 6.00 Build 0)  -->
<!DOCTYPE svg PUBLIC "-//W3C//DTD SVG 1.1//EN" "http://www.w3.org/Graphics/SVG/1.1/DTD/svg11.dtd">
<svg version="1.1" id="图层_1" xmlns="http://www.w3.org/2000/svg" xmlns:xlink="http://www.w3.org/1999/xlink" x="0px" y="0px"
	 width="100px" height="100px" viewBox="0 0 100 100" enable-background="new 0 0 100 100" xml:space="preserve">
<path fill-rule="evenodd" clip-rule="evenodd" fill="#040000" d="M86.064,96.5H12.936c-5.211,0-9.436-4.225-9.436-9.436V13.936
	C3.5,8.725,7.725,4.5,12.936,4.5h73.129c5.211,0,9.436,4.225,9.436,9.436v73.129C95.5,92.275,91.275,96.5,86.064,96.5z M87.5,50.5
	c0-4.585-0.812-8.979-2.3-13.049c-0.002-0.006-0.004-0.012-0.006-0.017c-0.117-0.319-0.248-0.631-0.373-0.945
	c-0.103-0.26-0.199-0.523-0.308-0.78c-0.025-0.06-0.054-0.116-0.079-0.175C78.625,21.989,65.172,12.5,49.5,12.5l0,0
	c-0.001,0-0.001,0-0.001,0c-1.06,0-2.107,0.046-3.145,0.131c-0.355,0.029-0.702,0.089-1.055,0.127
	c-0.675,0.075-1.351,0.145-2.014,0.254c-0.432,0.071-0.853,0.173-1.278,0.258c-0.57,0.114-1.144,0.221-1.704,0.36
	c-0.467,0.116-0.921,0.261-1.381,0.394c-0.503,0.146-1.009,0.284-1.503,0.45c-0.489,0.164-0.965,0.354-1.444,0.537
	c-0.446,0.171-0.895,0.334-1.332,0.521c-0.504,0.215-0.994,0.453-1.486,0.688c-0.393,0.188-0.787,0.37-1.172,0.57
	c-0.515,0.268-1.014,0.558-1.514,0.848c-0.341,0.198-0.684,0.393-1.019,0.602c-0.52,0.323-1.023,0.666-1.526,1.014
	c-0.291,0.203-0.584,0.402-0.87,0.612c-0.52,0.382-1.024,0.781-1.523,1.188c-0.245,0.2-0.49,0.398-0.729,0.604
	c-0.516,0.442-1.015,0.899-1.506,1.368c-0.201,0.192-0.401,0.384-0.598,0.58c-0.504,0.503-0.992,1.021-1.468,1.551
	c-0.161,0.18-0.32,0.36-0.478,0.544c-0.487,0.563-0.957,1.141-1.411,1.733c-0.125,0.164-0.248,0.329-0.37,0.495
	c-0.463,0.626-0.908,1.264-1.333,1.917c-0.094,0.146-0.185,0.293-0.276,0.439c-0.433,0.685-0.845,1.382-1.233,2.096
	c-0.067,0.125-0.131,0.251-0.197,0.377c-0.395,0.743-0.768,1.498-1.112,2.271c-0.046,0.103-0.087,0.207-0.132,0.31
	c-0.35,0.801-0.676,1.611-0.971,2.439c-0.007,0.021-0.017,0.04-0.024,0.061l-0.085-0.006c-1.889,4.658-2.091,12.349-2.109,12.706
	c0.011,1.444,0.654,3.128,2.109,3.128c0.819,0,2.314-0.389,2.802-0.966l14.428-9.04c0,0,0.661-0.471,0.661-1.745
	c0-1.377-1.127-2.493-2.518-2.493l-6.937-0.968C26.688,27.891,37.221,20.5,49.5,20.5c16.568,0,30,13.432,30,30s-13.432,30-30,30
	c-10.772,0-20.184-5.702-25.474-14.229c-0.011-0.017-0.021-0.032-0.031-0.049c-0.048-0.077-0.102-0.151-0.149-0.229l-0.027,0.016
	c-0.74-0.937-1.872-1.549-3.158-1.549c-2.231,0-4.04,1.809-4.04,4.04c0,0.497,0.102,0.968,0.267,1.408l-0.042,0.023
	c0.034,0.057,0.071,0.112,0.107,0.168c0.03,0.07,0.074,0.131,0.107,0.199c0.2,0.51,0.489,0.975,0.882,1.346
	c1.277,1.903,2.726,3.68,4.317,5.317c0.015,0.016,0.029,0.032,0.045,0.048c0.489,0.502,0.994,0.988,1.511,1.463
	c0.061,0.057,0.12,0.113,0.182,0.169c0.484,0.439,0.98,0.863,1.486,1.277c0.104,0.085,0.207,0.171,0.312,0.255
	c0.478,0.382,0.965,0.751,1.46,1.109c0.146,0.106,0.292,0.211,0.439,0.314c0.469,0.33,0.946,0.649,1.431,0.959
	c0.187,0.119,0.375,0.235,0.563,0.352c0.461,0.282,0.926,0.556,1.399,0.819c0.228,0.126,0.457,0.248,0.688,0.37
	c0.45,0.238,0.902,0.47,1.362,0.69c0.269,0.128,0.54,0.249,0.812,0.372c0.438,0.196,0.875,0.39,1.32,0.57
	c0.31,0.125,0.624,0.24,0.937,0.357c0.423,0.158,0.845,0.315,1.273,0.459c0.352,0.117,0.708,0.221,1.063,0.328
	c0.405,0.122,0.809,0.247,1.219,0.355c0.396,0.105,0.798,0.193,1.199,0.285c0.383,0.088,0.763,0.183,1.149,0.259
	c0.449,0.089,0.904,0.157,1.359,0.229c0.35,0.057,0.697,0.122,1.051,0.168c0.531,0.07,1.07,0.114,1.607,0.162
	c0.287,0.025,0.569,0.063,0.858,0.082c0.831,0.055,1.669,0.084,2.514,0.084c0,0,0,0,0.001,0l0,0C70.486,88.5,87.5,71.486,87.5,50.5
	L87.5,50.5L87.5,50.5z M37,60.5c-2.485,0-4.5,1.791-4.5,4s2.015,4,4.5,4h8.5v4.91c0,1.707,1.791,3.09,4,3.09s4-1.383,4-3.09V68.5H61
	c2.485,0,4.5-1.791,4.5-4s-2.015-4-4.5-4h-7.5v-5H61c2.485,0,4.5-1.791,4.5-4s-2.015-4-4.5-4h-5.809
	c0.296-0.175,0.58-0.375,0.834-0.63l8.846-8.845c1.629-1.629,1.629-4.269,0-5.896c-1.628-1.629-4.269-1.629-5.896,0l-8.846,8.845
	c-0.254,0.254-0.457,0.535-0.631,0.829c-0.175-0.293-0.374-0.576-0.627-0.829l-8.846-8.845c-1.629-1.629-4.269-1.629-5.897,0
	c-1.628,1.628-1.628,4.268,0,5.896l8.847,8.845c0.254,0.255,0.538,0.455,0.834,0.63H37c-2.485,0-4.5,1.791-4.5,4s2.015,4,4.5,4h8.5
	v5H37z"/>
</svg>
