<svg xmlns="http://www.w3.org/2000/svg" width="100" height="100" viewBox="0 0 100 100">
    <path fill-rule="evenodd" clip-rule="evenodd" fill="#040000" d="M86.003 96H13.997C8.475 96 4 91.266 4 85.426v-70.85C4 8.733 8.475 4 13.997 4h72.006C91.523 4 96 8.734 96 14.575v70.85C96 91.266 91.524 96 86.003 96zM66 19c0-2.762-2.238-5-5-5H25c-2.76 0-5 2.238-5 5v34c0 2.762 2.24 5 5 5h36c2.762 0 5-2.238 5-5V19zm19.33 2h-6.897c-2.027 0-4.6 1.19-4.434 4v34c0 5.795-1.265 7-7 7H17c-2.028 0-4 1.98-4 4s1.643 4 3.67 4h7.356c-1.42.842-2.386 2.38-2.386 4.157 0 2.675 2.158 4.842 4.82 4.842 2.663 0 4.82-2.168 4.82-4.843 0-1.777-.963-3.315-2.385-4.157h36.567c-1.422.842-2.387 2.38-2.387 4.157 0 2.675 2.158 4.842 4.82 4.842 2.663 0 4.82-2.168 4.82-4.843 0-1.777-.963-3.315-2.385-4.157h1.983c4.73 0 9.79-5.223 9.79-9.76 0 0-.105-23.79-.105-33.24 0-2.203 3-2 3-2 2.027 0 4-1.98 4-4s-1.642-4-3.67-4zM56 50H30c-1.104 0-2-.896-2-2V24c0-1.104.896-2 2-2h6v8c0 3.313 2.687 6 6 6h1c3.313 0 6-2.687 6-6v-8h7c1.104 0 2 .896 2 2v24c0 1.104-.896 2-2 2z"/>
</svg>
