<?xml version="1.0" encoding="utf-8"?>
<!-- Generator: Adobe Illustrator 16.0.0, SVG Export Plug-In . SVG Version: 6.00 Build 0)  -->
<!DOCTYPE svg PUBLIC "-//W3C//DTD SVG 1.1//EN" "http://www.w3.org/Graphics/SVG/1.1/DTD/svg11.dtd">
<svg version="1.1" id="图层_1" xmlns="http://www.w3.org/2000/svg" xmlns:xlink="http://www.w3.org/1999/xlink" x="0px" y="0px"
	 width="32px" height="32px" viewBox="0 0 32 32" enable-background="new 0 0 32 32" xml:space="preserve">
<title>评论</title>
<desc>Created with Sketch.</desc>
<g id="Combined-Shape">
	<path d="M16,26c-0.134,0-0.268-0.026-0.396-0.081C15.238,25.761,15,25.399,15,25v-3.6h-1.298C9.455,21.4,6,17.946,6,13.7
		S9.456,6,13.703,6h4.594C22.544,6,26,9.454,26,13.7c0,2.479-1.202,4.814-3.218,6.261l-6.095,5.766C16.498,25.905,16.25,26,16,26z
		 M13.703,8C10.558,8,8,10.557,8,13.7c0,3.144,2.558,5.7,5.702,5.7H16c0.553,0,1,0.447,1,1v2.277l4.458-4.218
		c0.035-0.033,0.073-0.063,0.112-0.092C23.092,17.3,24,15.554,24,13.7c0-3.143-2.559-5.7-5.703-5.7H13.703z"/>
</g>
</svg>
