<?xml version="1.0" encoding="UTF-8" standalone="no"?>
<svg width="48px" height="48px" viewBox="0 0 48 48" version="1.1" xmlns="http://www.w3.org/2000/svg" xmlns:xlink="http://www.w3.org/1999/xlink">
    <!-- Generator: Sketch 39.1 (31720) - http://www.bohemiancoding.com/sketch -->
    <title>设置@2x</title>
    <desc>Created with Sketch.</desc>
    <defs></defs>
    <g id="icon-24/48/72" stroke="none" stroke-width="1" fill="none" fill-rule="evenodd">
        <g id="all" transform="translate(-136.000000, -925.000000)"></g>
        <g id="设置@2x">
            <g id="Rectangle-2928-+-Path-+-Path-4" transform="translate(2.000000, 2.000000)">
                <rect id="Rectangle-2928" fill="#76C1ED" x="0" y="0" width="44" height="44" rx="22"></rect>
                <path d="M14.9347567,12.2993611 C16.0904801,11.4561726 17.4025986,10.814506 18.8194329,10.4260404 C19.5503109,11.3827719 20.7030748,12 22,12 C23.2969252,12 24.4496891,11.3827719 25.1805671,10.4260404 C26.5974014,10.814506 27.9095199,11.4561726 29.0652433,12.2993611 C28.7713751,13.4766021 29.0146456,14.7728309 29.8370569,15.7884243 C30.6464872,16.7879875 31.8384622,17.2953273 33.0319847,17.2703992 C33.5898483,18.5699288 33.9248101,19.9877965 33.9887602,21.4758924 C32.8977857,21.9745266 32.0422043,22.9563557 31.7515105,24.2154889 C31.4590197,25.4824057 31.8036128,26.7476939 32.5755568,27.6757105 C31.8867014,28.9565647 30.9719497,30.0978925 29.884615,31.0463803 C28.8054442,30.4997513 27.4920037,30.4471965 26.3208878,31.018388 C25.161986,31.5836221 24.3985982,32.6347303 24.1563811,33.806779 C23.4568321,33.9337119 22.7361573,34 22,34 C21.2638427,34 20.5431679,33.9337119 19.8436189,33.806779 C19.6014018,32.6347303 18.838014,31.5836221 17.6791122,31.018388 C16.5079963,30.4471965 15.1945558,30.4997513 14.115385,31.0463803 C13.0280503,30.0978925 12.1132986,28.9565647 11.4244432,27.6757105 C12.1963872,26.7476939 12.5409803,25.4824057 12.2484895,24.2154889 C11.9577957,22.9563557 11.1022143,21.9745266 10.0112398,21.4758924 C10.0751899,19.9877965 10.4101517,18.5699288 10.9680153,17.2703992 C12.1615378,17.2953273 13.3535128,16.7879875 14.1629431,15.7884243 C14.9853544,14.7728309 15.2286249,13.4766021 14.9347567,12.2993611 Z" id="Path" fill="#FFFFFF"></path>
                <circle id="Path-4" fill="#76C1ED" cx="22" cy="22" r="4"></circle>
            </g>
        </g>
    </g>
</svg>