<?xml version="1.0" encoding="UTF-8" standalone="no"?>
<svg width="8px" height="10px" viewBox="0 0 8 10" version="1.1" xmlns="http://www.w3.org/2000/svg" xmlns:xlink="http://www.w3.org/1999/xlink">
    <!-- Generator: Sketch 48.2 (47327) - http://www.bohemiancoding.com/sketch -->
    <title>坐标</title>
    <desc>Created with Sketch.</desc>
    <defs></defs>
    <g id="6-1024-实时数据－全部门店" stroke="none" stroke-width="1" fill="none" fill-rule="evenodd" transform="translate(-420.000000, -1443.000000)">
        <g id="Group-8" transform="translate(215.000000, 1418.000000)" fill="#CCCCCC" fill-rule="nonzero">
            <g id="Group-28" transform="translate(205.000000, 24.000000)">
                <path d="M3.99717714,1 C1.79534228,1 0,2.77945691 0,4.96127509 C0,5.73199528 0.225829217,6.48004723 0.649259001,7.12042503 L1.43966126,8.10082645 L3.96330275,11 L6.84262526,7.74946871 C7.59350741,6.9957497 8,6.00968122 8,4.96127508 C7.99435428,2.77945691 6.20465774,1 3.99717714,1 Z M4,6.5 C3.17647059,6.5 2.5,5.82835821 2.5,5 C2.5,4.1716418 3.17647059,3.5 4,3.5 C4.82352941,3.5 5.5,4.17164179 5.5,5 C5.50000001,5.82089552 4.82352942,6.5 4,6.5 Z" id="坐标"></path>
            </g>
        </g>
    </g>
</svg>