<?xml version="1.0" encoding="utf-8"?>
<!-- Generator: Adobe Illustrator 16.0.0, SVG Export Plug-In . SVG Version: 6.00 Build 0)  -->
<!DOCTYPE svg PUBLIC "-//W3C//DTD SVG 1.1//EN" "http://www.w3.org/Graphics/SVG/1.1/DTD/svg11.dtd">
<svg version="1.1" id="图层_1" xmlns="http://www.w3.org/2000/svg" xmlns:xlink="http://www.w3.org/1999/xlink" x="0px" y="0px"
	 width="32px" height="32px" viewBox="0 0 32 32" enable-background="new 0 0 32 32" xml:space="preserve">
<title>团购入账</title>
<desc>Created with Sketch.</desc>
<path d="M16,0C7.164,0,0,7.164,0,16c0,8.836,7.164,16,16,16c8.836,0,16-7.164,16-16C32,7.164,24.836,0,16,0z M20.105,13.259
	c1.946,0,3.619,1.122,4.458,2.741h-1.035h-1.196h-1.688h-0.926h-0.925l0.299-1.965c0.068-0.446,0.452-0.776,0.904-0.776H20.105z
	 M15.543,24.686h-5.486c-0.455,0-0.841-0.334-0.905-0.785L7.436,11.885H6.857c-0.505,0-0.914-0.409-0.914-0.914
	s0.409-0.914,0.914-0.914h1.372h5.53l0.642-2.512c0.082-0.319,0.329-0.57,0.647-0.656l2.542-0.686
	c0.488-0.131,0.989,0.157,1.121,0.645s-0.157,0.99-0.645,1.121L16.04,8.515l-0.394,1.542h1.725h1.371
	c0.505,0,0.914,0.409,0.914,0.914s-0.409,0.914-0.914,0.914h-0.578L16.448,23.9C16.384,24.352,15.998,24.686,15.543,24.686z
	 M20.105,23.331h-1.363c-0.267,0-0.52-0.116-0.693-0.318s-0.251-0.47-0.211-0.733l0.121-0.794h6
	C23.041,22.604,21.665,23.331,20.105,23.331z M25.143,19.656h-0.211v0.001h-6.695l0.278-1.829h0.926h0.418h0.507h2.908h0.908h0.914
	h0.047c0.505,0,0.914,0.409,0.914,0.914S25.647,19.656,25.143,19.656z"/>
</svg>
