<?xml version="1.0" encoding="UTF-8" standalone="no"?>
<svg width="80px" height="80px" viewBox="0 0 80 80" version="1.1" xmlns="http://www.w3.org/2000/svg" xmlns:xlink="http://www.w3.org/1999/xlink">
    <!-- Generator: Sketch 39.1 (31720) - http://www.bohemiancoding.com/sketch -->
    <title>客服经理1@2x</title>
    <desc>Created with Sketch.</desc>
    <defs></defs>
    <g id="icon-40/80/120" stroke="none" stroke-width="1" fill="none" fill-rule="evenodd">
        <g id="all" transform="translate(-941.000000, -277.000000)"></g>
        <g id="客服经理1@2x">
            <rect id="Rectangle-2928" fill="#E6E6E6" x="0" y="0" width="80" height="80" rx="40"></rect>
            <g id="Group" transform="translate(11.000000, 13.000000)">
                <path d="M28.7006667,12.7393333 C28.7006667,12.7393333 29.7906667,0.769333333 34.4946667,0.769333333 C39.198,0.769333333 39.6893333,12.664 39.6893333,12.664 L28.7006667,12.7393333 L28.7006667,12.7393333 Z M17.7873333,12.7393333 C17.7873333,12.7393333 18.8773333,0.769333333 23.5813333,0.769333333 C28.2853333,0.769333333 28.776,12.664 28.776,12.664 L17.7873333,12.7393333 L17.7873333,12.7393333 Z" id="Fill-1" fill="#FFAAD0"></path>
                <path d="M28.3933333,13.0213333 L28.4006667,12.9473333 L17.48,13.0213333 L17.508,12.714 C17.5533333,12.2146667 18.6773333,0.489333333 23.5806667,0.489333333 C25.4946667,0.489333333 26.966,2.22866667 27.954,5.65733333 C28.38,7.13733333 28.6453333,8.69266667 28.8093333,9.96533333 C29.468,6.25666667 31.048,0.489333333 34.4946667,0.489333333 C39.4113333,0.489333333 39.9486667,12.156 39.9693333,12.6526667 L39.9813333,12.9426667 L28.3933333,13.0213333 L28.3933333,13.0213333 Z M23.5806667,1.05 C21.3253333,1.05 19.948,4.19466667 19.1893333,6.83266667 C18.5046667,9.214 18.1933333,11.6213333 18.0986667,12.4573333 L28.456,12.3866667 C28.4606667,12.346 28.4653333,12.3006667 28.4713333,12.254 C28.3973333,11.1473333 28.1486667,8.36 27.4153333,5.81333333 C26.5046667,2.65266667 25.2146667,1.05 23.5806667,1.05 L23.5806667,1.05 Z M29.034,12.268 C29.0386667,12.3413333 29.0426667,12.4033333 29.0453333,12.4573333 L39.3926667,12.3853333 C39.342,11.5693333 39.1513333,9.15733333 38.5813333,6.77533333 C37.9566667,4.164 36.74,1.05 34.4946667,1.05 C32.8706667,1.05 31.5046667,2.63866667 30.436,5.76933333 C29.566,8.318 29.1673333,11.1446667 29.034,12.268 L29.034,12.268 Z" id="Fill-2" fill="#C55D8C"></path>
                <path d="M50.8226667,31.0493333 C50.662,19.0473333 40.8853333,9.368 28.8453333,9.368 C16.8053333,9.368 7.02866667,19.0473333 6.868,31.0493333 L4.92466667,31.0493333 C5.10466667,17.9706667 15.7613333,7.424 28.8826667,7.424 C42.004,7.424 52.6606667,17.9706667 52.8406667,31.0493333 L50.8226667,31.0493333" id="Fill-3" fill="#636363"></path>
                <path d="M53.054,31.26 L50.6153333,31.26 L50.6126667,31.0526667 C50.5353333,25.2993333 48.2373333,19.9033333 44.1413333,15.8573333 C40.0413333,11.808 34.6093333,9.578 28.846,9.578 C23.082,9.578 17.65,11.808 13.55,15.8573333 C9.454,19.9033333 7.15533333,25.2993333 7.07866667,31.0526667 L7.076,31.26 L4.712,31.26 L4.71466667,31.0466667 C4.80266667,24.6613333 7.35533333,18.672 11.9033333,14.1826667 C16.4553333,9.68866667 22.4853333,7.21333333 28.8826667,7.21333333 C35.2806667,7.21333333 41.3106667,9.68866667 45.8626667,14.1826667 C50.41,18.672 52.9633333,24.6613333 53.0513333,31.0466667 L53.054,31.26 L53.054,31.26 Z M51.0293333,30.8393333 L52.6266667,30.8393333 C52.4873333,24.6453333 49.9846667,18.8433333 45.5673333,14.482 C41.094,10.066 35.1693333,7.634 28.8826667,7.634 C22.5966667,7.634 16.6713333,10.066 12.1986667,14.482 C7.78066667,18.8433333 5.27866667,24.6453333 5.13866667,30.8393333 L6.662,30.8393333 C6.792,25.0526667 9.12866667,19.6333333 13.2546667,15.5586667 C17.434,11.4306667 22.9706667,9.15733333 28.846,9.15733333 C34.7206667,9.15733333 40.2573333,11.4306667 44.4366667,15.5586667 C48.5626667,19.6333333 50.8993333,25.0526667 51.0293333,30.8393333 L51.0293333,30.8393333 Z" id="Fill-4" fill="#363636"></path>
                <path d="M2.12933333,33.0686667 C1.276,33.0686667 0.584666667,32.3946667 0.584666667,31.5633333 L0.584666667,30.088 C0.584666667,29.2566667 1.276,28.5826667 2.12933333,28.5826667 L2.90266667,28.5826667 L2.90266667,33.0686667 L2.12933333,33.0686667 L2.12933333,33.0686667 Z M55.6366667,33.0686667 L54.8633333,33.0686667 L54.8633333,28.5826667 L55.6366667,28.5826667 C56.4893333,28.5826667 57.182,29.2566667 57.182,30.088 L57.182,31.5633333 C57.182,32.3946667 56.4893333,33.0686667 55.6366667,33.0686667 L55.6366667,33.0686667 Z" id="Fill-5" fill="#709AA3"></path>
                <path d="M55.636,33.2786667 L54.6533333,33.2786667 L54.6533333,28.372 L55.636,28.372 C56.604,28.372 57.392,29.142 57.392,30.088 L57.392,31.5633333 C57.392,32.5093333 56.604,33.2786667 55.636,33.2786667 L55.636,33.2786667 Z M55.074,32.858 L55.636,32.858 C56.3726667,32.858 56.9713333,32.2773333 56.9713333,31.5633333 L56.9713333,30.088 C56.9713333,29.3733333 56.3726667,28.7926667 55.636,28.7926667 L55.074,28.7926667 L55.074,32.858 L55.074,32.858 Z M3.112,33.2786667 L2.12933333,33.2786667 C1.16133333,33.2786667 0.374,32.5093333 0.374,31.5633333 L0.374,30.088 C0.374,29.142 1.16133333,28.372 2.12933333,28.372 L3.112,28.372 L3.112,33.2786667 L3.112,33.2786667 Z M2.12933333,28.7926667 C1.39333333,28.7926667 0.794666667,29.3733333 0.794666667,30.088 L0.794666667,31.5633333 C0.794666667,32.2773333 1.39333333,32.858 2.12933333,32.858 L2.692,32.858 L2.692,28.7926667 L2.12933333,28.7926667 L2.12933333,28.7926667 Z" id="Fill-6" fill="#363636"></path>
                <path d="M5.89266667,36.582 C3.828,36.582 2.154,34.9086667 2.154,32.8446667 L2.154,29.1806667 C2.154,27.116 3.828,25.442 5.89266667,25.442 L7.762,25.442 L7.762,36.582 L5.89266667,36.582 L5.89266667,36.582 Z M51.8733333,36.582 L50.004,36.582 L50.004,25.442 L51.8733333,25.442 C53.938,25.442 55.6113333,27.116 55.6113333,29.1806667 L55.6113333,32.8446667 C55.6113333,34.9086667 53.938,36.582 51.8733333,36.582 L51.8733333,36.582 Z" id="Fill-7" fill="#565656"></path>
                <path d="M51.8733333,36.7926667 L49.794,36.7926667 L49.794,25.232 L51.8733333,25.232 C54.0506667,25.232 55.822,27.0033333 55.822,29.1813333 L55.822,32.844 C55.822,35.0213333 54.0506667,36.7926667 51.8733333,36.7926667 L51.8733333,36.7926667 Z M50.2146667,36.372 L51.8733333,36.372 C53.8186667,36.372 55.4013333,34.7893333 55.4013333,32.844 L55.4013333,29.1813333 C55.4013333,27.2353333 53.8186667,25.6526667 51.8733333,25.6526667 L50.2146667,25.6526667 L50.2146667,36.372 L50.2146667,36.372 Z M7.972,36.7926667 L5.89266667,36.7926667 C3.71533333,36.7926667 1.944,35.0213333 1.944,32.844 L1.944,29.1813333 C1.944,27.0033333 3.71533333,25.232 5.89266667,25.232 L7.972,25.232 L7.972,36.7926667 L7.972,36.7926667 Z M5.89266667,25.6526667 C3.94733333,25.6526667 2.36466667,27.2353333 2.36466667,29.1813333 L2.36466667,32.844 C2.36466667,34.7893333 3.94733333,36.372 5.89266667,36.372 L7.55133333,36.372 L7.55133333,25.6526667 L5.89266667,25.6526667 L5.89266667,25.6526667 Z" id="Fill-8" fill="#363636"></path>
                <path d="M35.476,50.942 C34.484,49.4973333 33.2566667,48.5446667 33.2566667,48.5446667 L24.3593333,48.5446667 C24.3593333,48.5446667 23.0133333,49.5893333 22.002,51.1506667 C21.6066667,51.7586667 22.4006667,53.1806667 24.2813333,53.1806667 L33.1166667,53.1806667 C35.112,53.1806667 35.928,51.6006667 35.476,50.942" id="Fill-9" fill="#F9A0CB"></path>
                <path d="M33.1166667,53.46 L24.2813333,53.46 C22.9646667,53.46 22.1426667,52.812 21.8126667,52.204 C21.576,51.768 21.5586667,51.318 21.7666667,50.9966667 C22.792,49.4146667 24.1313333,48.3673333 24.188,48.3226667 L24.2633333,48.264 L33.3526667,48.264 L33.4286667,48.3226667 C33.48,48.3633333 34.702,49.3193333 35.7073333,50.784 C35.946,51.1306667 35.9353333,51.6293333 35.6786667,52.1166667 C35.1573333,53.1073333 34.0133333,53.46 33.1166667,53.46 M24.4586667,48.8246667 C24.1693333,49.064 23.0773333,50.0066667 22.2366667,51.302 C22.146,51.4426667 22.1726667,51.6913333 22.3053333,51.936 C22.5586667,52.4026667 23.2106667,52.9 24.2813333,52.9 L33.1166667,52.9 C34.2346667,52.9 34.9166667,52.36 35.1826667,51.8546667 C35.3353333,51.5646667 35.36,51.268 35.2446667,51.1006667 C34.4273333,49.9093333 33.432,49.0506667 33.1573333,48.8246667 L24.4586667,48.8246667" id="Fill-10" fill="#C55D8C"></path>
                <path d="M27.6526667,52.8046667 C25.772,53.434 19.5206667,53.4113333 19.6493333,51.4606667 C19.778,49.5093333 23.014,47.6473333 23.014,47.6473333 C23.8926667,47.0426667 25.4826667,47.0506667 25.332,48.3953333 C25.2206667,49.38 24.584,49.9653333 24.584,49.9653333 C24.584,49.9653333 25.6533333,49.9206667 26.6026667,49.9653333 C29.2113333,50.088 29.5233333,52.1786667 27.6526667,52.8046667 M30.0393333,52.8046667 C28.168,52.1786667 28.4793333,50.088 31.088,49.9653333 C32.038,49.9206667 33.1066667,49.9653333 33.1066667,49.9653333 C33.1066667,49.9653333 32.4706667,49.38 32.36,48.3953333 C32.208,47.0506667 33.798,47.0426667 34.678,47.6473333 C34.678,47.6473333 37.9126667,49.5093333 38.042,51.4606667 C38.17,53.4113333 31.9186667,53.434 30.0393333,52.8046667" id="Fill-11" fill="#FFAAD0"></path>
                <path d="M33.2406667,53.452 C31.9133333,53.452 30.6526667,53.306 29.95,53.07 C29.462,52.9066667 29.0826667,52.6446667 28.8453333,52.32 C28.608,52.6446667 28.2293333,52.9066667 27.7413333,53.07 C27.0386667,53.306 25.778,53.452 24.4506667,53.452 C23.3393333,53.452 20.6533333,53.342 19.7033333,52.328 C19.46,52.068 19.348,51.77 19.3693333,51.442 C19.504,49.4006667 22.6266667,47.548 22.864,47.41 C23.2586667,47.142 23.776,46.982 24.2506667,46.982 C24.7073333,46.982 25.092,47.1306667 25.3333333,47.4006667 C25.4926667,47.5786667 25.6693333,47.9006667 25.61,48.4266667 C25.5513333,48.9506667 25.358,49.372 25.172,49.6693333 C25.318,49.6666667 25.4826667,49.6653333 25.6566667,49.6653333 C26.0086667,49.6653333 26.3313333,49.672 26.616,49.6846667 C27.752,49.738 28.4806667,50.142 28.8453333,50.6466667 C29.2106667,50.142 29.9386667,49.738 31.0753333,49.6846667 C31.36,49.672 31.6826667,49.6653333 32.034,49.6653333 C32.2086667,49.6653333 32.3733333,49.6666667 32.5186667,49.6693333 C32.3333333,49.372 32.14,48.9506667 32.0806667,48.4266667 C32.0213333,47.9006667 32.1986667,47.5786667 32.3573333,47.4006667 C32.5986667,47.1306667 32.9833333,46.982 33.4406667,46.982 C33.9153333,46.982 34.4326667,47.142 34.8266667,47.41 C35.0646667,47.548 38.1866667,49.4006667 38.3213333,51.442 C38.3433333,51.77 38.2306667,52.068 37.988,52.328 C37.038,53.342 34.3513333,53.452 33.2406667,53.452 M29.126,51.5166667 C29.1466667,51.954 29.5206667,52.3353333 30.128,52.5386667 C30.7673333,52.7526667 31.9886667,52.8913333 33.2406667,52.8913333 C35.3693333,52.8913333 37.032,52.5286667 37.5786667,51.9446667 C37.7133333,51.8006667 37.7733333,51.6486667 37.762,51.4793333 C37.7146667,50.76 37.152,49.9166667 36.1353333,49.0406667 C35.3393333,48.3553333 34.5453333,47.8953333 34.5373333,47.8906667 L34.518,47.878 C34.2173333,47.6713333 33.804,47.542 33.4406667,47.542 C33.1453333,47.542 32.9093333,47.624 32.7753333,47.7746667 C32.6553333,47.9086667 32.6093333,48.1073333 32.638,48.364 C32.7353333,49.2253333 33.292,49.7546667 33.298,49.76 L33.8506667,50.2766667 L33.0953333,50.2453333 C33.0906667,50.2453333 32.6186667,50.226 32.034,50.226 C31.6913333,50.226 31.3773333,50.2326667 31.1013333,50.2453333 C29.7793333,50.308 29.152,50.9086667 29.126,51.444 C29.1266667,51.4686667 29.1266667,51.4926667 29.126,51.5166667 M24.2506667,47.542 C23.8866667,47.542 23.474,47.6713333 23.1726667,47.878 L23.1533333,47.8906667 C23.1226667,47.9086667 20.046,49.7006667 19.9293333,51.4793333 C19.918,51.6486667 19.978,51.8006667 20.1126667,51.9446667 C20.6593333,52.5286667 22.3213333,52.8913333 24.4506667,52.8913333 C25.702,52.8913333 26.924,52.7526667 27.5633333,52.5386667 C28.1706667,52.3353333 28.5446667,51.954 28.5646667,51.5166667 C28.564,51.4926667 28.564,51.4686667 28.5646667,51.444 C28.5386667,50.9086667 27.912,50.308 26.5893333,50.2453333 C26.3133333,50.2326667 26,50.226 25.6566667,50.226 C25.072,50.226 24.6,50.2453333 24.5953333,50.2453333 L23.83,50.2773333 L24.394,49.7593333 C24.3986667,49.7546667 24.956,49.2253333 25.0526667,48.364 C25.082,48.1073333 25.0353333,47.9086667 24.9153333,47.774 C24.782,47.624 24.546,47.542 24.2506667,47.542" id="Fill-12" fill="#C55D8C"></path>
                <path d="M51.6326667,32.554 C51.168,21.9666667 45.208,10.17 28.9493333,10.0493333 L28.9493333,10.046 C28.9073333,10.046 28.866,10.048 28.824,10.048 C28.7826667,10.048 28.7413333,10.046 28.6993333,10.046 L28.6993333,10.0493333 C12.418,10.1693333 6.44866667,21.9666667 5.98333333,32.554 C5.50666667,43.3993333 15.59,48.9513333 28.6993333,49.0213333 L28.6993333,49.0226667 C28.7413333,49.0226667 28.7826667,49.022 28.824,49.022 C28.866,49.022 28.9073333,49.0226667 28.9493333,49.0226667 L28.9493333,49.0213333 C42.04,48.9513333 52.108,43.3986667 51.6326667,32.554" id="Fill-13" fill="#FFAAD0"></path>
                <path d="M28.9493333,49.3026667 L28.8233333,49.302 L28.4193333,49.3026667 L28.4193333,49.2986667 C20.0466667,49.206 13.3006667,46.9066667 9.404,42.814 C6.77066667,40.0466667 5.52533333,36.5913333 5.70333333,32.5413333 C5.966,26.5673333 7.91666667,21.118 11.1953333,17.196 C13.112,14.9046667 15.4793333,13.1126667 18.2313333,11.872 C21.1893333,10.538 24.616,9.83133333 28.4193333,9.772 L28.4193333,9.76866667 L28.6993333,9.766 C28.7233333,9.766 28.7473333,9.766 28.7706667,9.76666667 L28.8253333,9.76733333 L28.878,9.76666667 C28.902,9.766 28.9253333,9.766 28.9493333,9.766 L29.23,9.766 L29.23,9.772 C33.028,9.83133333 36.4493333,10.538 39.4026667,11.8726667 C42.1513333,13.1133333 44.5153333,14.9046667 46.4286667,17.1966667 C49.7033333,21.118 51.6506667,26.5673333 51.9126667,32.5413333 C52.0906667,36.5953333 50.8446667,40.0533333 48.21,42.8206667 C44.318,46.9093333 37.5846667,49.206 29.23,49.2986667 L29.23,49.3013333 L28.9493333,49.3026667 L28.9493333,49.3026667 Z M28.774,10.328 L28.702,10.3293333 C24.8653333,10.3573333 21.4206667,11.0486667 18.462,12.3826667 C15.7873333,13.5893333 13.4873333,15.3293333 11.6253333,17.556 C8.42533333,21.3833333 6.52066667,26.714 6.26333333,32.5666667 C6.09266667,36.458 7.286,39.7746667 9.81066667,42.4273333 C13.644,46.4546667 20.3526667,48.696 28.7013333,48.7406667 L28.8246667,48.7413333 L28.948,48.7406667 C37.278,48.696 43.9746667,46.4573333 47.804,42.4346667 C50.3293333,39.782 51.5233333,36.4613333 51.3526667,32.5666667 C51.096,26.7133333 49.1946667,21.3826667 45.9986667,17.556 C44.1393333,15.3293333 41.8426667,13.59 39.172,12.3826667 C36.218,11.0486667 32.778,10.3573333 28.9473333,10.3293333 L28.774,10.328 L28.774,10.328 Z" id="Fill-14" fill="#C55D8C"></path>
                <path d="M48.0473333,32.0606667 C47.656,23.1286667 42.6326667,13.2913333 28.932,13.1906667 L28.932,13.1886667 C28.8966667,13.1886667 28.862,13.1893333 28.8266667,13.1893333 C28.7913333,13.1893333 28.7566667,13.1886667 28.7213333,13.1886667 L28.7213333,13.1906667 C15.0006667,13.2913333 9.97066667,23.1286667 9.57866667,32.0606667 C9.17666667,41.2106667 17.674,45.8953333 28.7213333,45.9546667 L28.7213333,45.956 C28.7566667,45.956 28.7913333,45.9553333 28.8266667,45.9553333 C28.862,45.9553333 28.8966667,45.956 28.932,45.956 L28.932,45.9546667 C39.9633333,45.8953333 48.448,41.2106667 48.0473333,32.0606667" id="Fill-15" fill="#FFF2F0"></path>
                <path d="M28.932,46.166 L28.826,46.1653333 L28.5113333,46.166 L28.5113333,46.1626667 C21.454,46.0886667 15.768,44.1533333 12.4846667,40.704 C10.2673333,38.374 9.21866667,35.4633333 9.36866667,32.0513333 C9.58866667,27.028 11.23,22.4566667 13.9906667,19.178 C15.602,17.2646667 17.594,15.7686667 19.9113333,14.7333333 C22.4053333,13.6186667 25.298,13.03 28.5113333,12.9826667 L28.5113333,12.9806667 L28.7213333,12.978 C28.7413333,12.978 28.7613333,12.9786667 28.7806667,12.9786667 L28.8273333,12.9793333 L28.872,12.9786667 C28.892,12.9786667 28.9113333,12.978 28.932,12.978 L29.142,12.9826667 C32.3506667,13.03 35.2386667,13.6186667 37.7293333,14.7333333 C40.0433333,15.7693333 42.032,17.2646667 43.6413333,19.1786667 C46.398,22.4566667 48.0373333,27.0286667 48.2573333,32.0513333 C48.4066667,35.4666667 47.358,38.38 45.1386667,40.7106667 C41.8593333,44.1553333 36.184,46.0886667 29.142,46.1626667 L29.142,46.1646667 L28.932,46.166 L28.932,46.166 Z M28.7813333,13.4 L28.7226667,13.4013333 C22.502,13.4466667 17.6533333,15.4813333 14.3126667,19.4493333 C11.6113333,22.6566667 10.0046667,27.1386667 9.78866667,32.07 C9.644,35.3633333 10.6533333,38.1706667 12.7893333,40.414 C16.026,43.8133333 21.684,45.7066667 28.7226667,45.744 L28.8266667,45.7446667 L28.9306667,45.744 C35.954,45.7066667 41.602,43.816 44.834,40.4206667 C46.9713333,38.176 47.9813333,35.3666667 47.8373333,32.07 C47.6213333,27.1386667 46.0166667,22.6566667 43.3193333,19.4493333 C39.9833333,15.4813333 35.142,13.4466667 28.93,13.4013333 L28.7813333,13.4 L28.7813333,13.4 Z" id="Fill-16" fill="#C55D8C"></path>
                <path d="M32.808,36.8066667 C32.808,38.8713333 31.134,40.5446667 29.07,40.5446667 L28.6213333,40.5446667 C26.5566667,40.5446667 24.8826667,38.8713333 24.8826667,36.8066667 L24.8826667,36.2086667 C24.8826667,36.1886667 24.884,36.1686667 24.884,36.1486667 C24.884,36.144 24.8826667,36.1386667 24.8826667,36.134 C24.8826667,36.1253333 24.8846667,36.1166667 24.8853333,36.1086667 C24.886,36.092 24.886,36.0753333 24.8866667,36.0586667 L24.89,36.0586667 C24.9253333,35.8886667 25.076,35.76 25.2566667,35.76 L32.434,35.76 C32.6146667,35.76 32.7653333,35.8886667 32.8006667,36.0586667 L32.804,36.0586667 C32.8046667,36.0753333 32.8046667,36.092 32.8053333,36.1086667 C32.806,36.1166667 32.808,36.1253333 32.808,36.134 C32.808,36.1386667 32.8066667,36.144 32.8066667,36.1486667 C32.8066667,36.1686667 32.808,36.1886667 32.808,36.2086667 L32.808,36.8066667" id="Fill-17" fill="#BC6691"></path>
                <path d="M19.7993333,36.582 C18.1886667,36.582 16.8833333,35.2766667 16.8833333,33.666 C16.8833333,32.056 18.1886667,30.75 19.7993333,30.75 C21.4093333,30.75 22.7146667,32.056 22.7146667,33.666 C22.7146667,35.2766667 21.4093333,36.582 19.7993333,36.582 L19.7993333,36.582 Z M17.4066667,32.0213333 C17.4066667,32.0213333 16.502,31.5926667 17.0326667,30.0033333 C17.0326667,30.0033333 17.5646667,31.2473333 18.528,31.124 L17.4066667,32.0213333 L17.4066667,32.0213333 Z M37.884,36.582 C36.278,36.582 34.9766667,35.2766667 34.9766667,33.666 C34.9766667,32.056 36.278,30.75 37.884,30.75 C39.49,30.75 40.792,32.056 40.792,33.666 C40.792,35.2766667 39.49,36.582 37.884,36.582 L37.884,36.582 Z M40.27,32.0213333 L39.1513333,31.124 C40.1126667,31.2473333 40.6426667,30.0033333 40.6426667,30.0033333 C41.172,31.5926667 40.27,32.0213333 40.27,32.0213333 L40.27,32.0213333 Z" id="Fill-18" fill="#514141"></path>
                <path d="M16.846,41.8906667 C15.1733333,41.8906667 13.818,40.5346667 13.818,38.8626667 C13.818,37.1906667 15.1733333,35.8346667 16.846,35.8346667 C18.518,35.8346667 19.874,37.1906667 19.874,38.8626667 C19.874,40.5346667 18.518,41.8906667 16.846,41.8906667 M40.696,41.8906667 C39.024,41.8906667 37.668,40.5346667 37.668,38.8626667 C37.668,37.1906667 39.024,35.8346667 40.696,35.8346667 C42.3686667,35.8346667 43.7233333,37.1906667 43.7233333,38.8626667 C43.7233333,40.5346667 42.3686667,41.8906667 40.696,41.8906667" id="Fill-19" fill="#FDE1E5"></path>
                <path d="M38.4766667,21.148 C38.2773333,20.4553333 37.8826667,19.412 37.22,18.9373333 L37.22,21.3066667 C34.6653333,21.5953333 31.77,21.7166667 28.7006667,21.7166667 C25.868,21.7166667 23.1826667,21.6126667 20.7773333,21.3713333 L20.7773333,18.9486667 C20.094,19.4393333 19.6953333,20.5333333 19.502,21.2253333 C17.2246667,20.934 15.244,20.5013333 13.6906667,19.8913333 C16.688,15.9973333 21.5006667,13.2473333 28.7213333,13.1906667 L28.7213333,13.1886667 C28.7566667,13.1886667 28.7913333,13.1893333 28.8266667,13.1893333 C28.862,13.1893333 28.8966667,13.1886667 28.932,13.1886667 L28.932,13.1906667 C36.098,13.2473333 40.8893333,15.964 43.8866667,19.8206667 C42.438,20.4146667 40.5966667,20.8466667 38.4766667,21.148" id="Fill-20" fill="#412222"></path>
                <path d="M28.846,37.4793333 C29.96,37.4793333 30.864,38.0986667 30.864,38.8626667 C30.864,39.6266667 29.96,40.2453333 28.846,40.2453333 C27.7306667,40.2453333 26.8266667,39.6266667 26.8266667,38.8626667 C26.8266667,38.0986667 27.7306667,37.4793333 28.846,37.4793333" id="Fill-21" fill="#F3769F"></path>
                <path d="M53.144,36.8066667 C53.144,36.8066667 53.0206667,40.6946667 41.1066667,40.6946667 L41.1066667,41.816 C41.1066667,41.816 54.1433333,42.428 54.3406667,36.358 L53.144,36.8066667" id="Fill-22" fill="#636363"></path>
                <path d="M42.0866667,42.0433333 C41.4766667,42.0433333 41.1126667,42.0266667 41.0973333,42.026 L40.8966667,42.0166667 L40.8966667,40.484 L41.1073333,40.484 C52.6833333,40.484 52.9326667,36.8366667 52.934,36.8 L52.9386667,36.6593333 L54.5606667,36.0506667 L54.5506667,36.3646667 C54.4766667,38.6326667 52.726,40.2566667 49.346,41.1926667 C46.6713333,41.9326667 43.65,42.0433333 42.0866667,42.0433333 M41.3173333,41.6126667 C41.484,41.6173333 41.748,41.6226667 42.0866667,41.6226667 C44.81,41.6226667 53.57,41.2593333 54.1066667,36.67 L53.3353333,36.9593333 C53.19,37.696 51.9486667,40.8633333 41.3173333,40.904 L41.3173333,41.6126667" id="Fill-23" fill="#363636"></path>
                <path d="M41.556,39.4233333 L42.976,39.4233333 C43.596,39.4233333 44.098,39.9253333 44.098,40.5446667 L44.098,41.5913333 C44.098,42.2106667 43.596,42.7126667 42.976,42.7126667 L41.556,42.7126667 C40.936,42.7126667 40.434,42.2106667 40.434,41.5913333 L40.434,40.5446667 C40.434,39.9253333 40.936,39.4233333 41.556,39.4233333" id="Fill-24" fill="#474747"></path>
                <path d="M42.976,42.9233333 L41.556,42.9233333 C40.8206667,42.9233333 40.2246667,42.3253333 40.2246667,41.592 L40.2246667,40.5446667 C40.2246667,39.8106667 40.8206667,39.2126667 41.556,39.2126667 L42.976,39.2126667 C43.71,39.2126667 44.3073333,39.8106667 44.3073333,40.5446667 L44.3073333,41.592 C44.3073333,42.3253333 43.71,42.9233333 42.976,42.9233333 M41.556,39.6333333 C41.0533333,39.6333333 40.644,40.042 40.644,40.5446667 L40.644,41.592 C40.644,42.094 41.0533333,42.5033333 41.556,42.5033333 L42.976,42.5033333 C43.4786667,42.5033333 43.888,42.094 43.888,41.592 L43.888,40.5446667 C43.888,40.042 43.4786667,39.6333333 42.976,39.6333333 L41.556,39.6333333" id="Fill-25" fill="#363636"></path>
                <path d="M52.8273333,34.9006667 L53.102,34.7813333 C53.6706667,34.5366667 54.3313333,34.798 54.576,35.366 L54.6066667,35.4353333 C54.8513333,36.0033333 54.5893333,36.6633333 54.0206667,36.9093333 L53.7466667,37.028 C53.1786667,37.2733333 52.5173333,37.012 52.2726667,36.4433333 L52.2426667,36.374 C51.9973333,35.806 52.2593333,35.146 52.8273333,34.9006667" id="Fill-26" fill="#474747"></path>
                <path d="M53.302,37.3306667 C52.77,37.3306667 52.29,37.0153333 52.0793333,36.5266667 L52.0493333,36.458 C51.9086667,36.1306667 51.9033333,35.7693333 52.034,35.4386667 C52.1653333,35.1073333 52.418,34.848 52.744,34.7066667 L53.0186667,34.5886667 C53.1866667,34.5153333 53.364,34.4793333 53.546,34.4793333 C54.078,34.4793333 54.5586667,34.794 54.7693333,35.2833333 L54.7986667,35.3513333 C55.09,36.026 54.7793333,36.8113333 54.1046667,37.102 L53.83,37.2213333 C53.6613333,37.2933333 53.484,37.3306667 53.302,37.3306667 M53.546,34.9 C53.422,34.9 53.3006667,34.9253333 53.1853333,34.9746667 L52.9106667,35.0933333 C52.6873333,35.1893333 52.5146667,35.368 52.4253333,35.594 C52.336,35.8193333 52.3393333,36.068 52.4353333,36.2913333 L52.4653333,36.3606667 C52.6093333,36.694 52.938,36.9093333 53.302,36.9093333 C53.4266667,36.9093333 53.548,36.884 53.6633333,36.8353333 L53.9373333,36.716 C54.3986667,36.5166667 54.612,35.98 54.4126667,35.518 L54.3833333,35.4506667 C54.2386667,35.116 53.91,34.9 53.546,34.9" id="Fill-27" fill="#363636"></path>
            </g>
        </g>
    </g>
</svg>