<?xml version="1.0" encoding="UTF-8" standalone="no"?>
<svg width="48px" height="48px" viewBox="0 0 48 48" version="1.1" xmlns="http://www.w3.org/2000/svg" xmlns:xlink="http://www.w3.org/1999/xlink">
    <!-- Generator: Sketch 39.1 (31720) - http://www.bohemiancoding.com/sketch -->
    <title>联系业务员@2x</title>
    <desc>Created with Sketch.</desc>
    <defs></defs>
    <g id="icon-24/48/72" stroke="none" stroke-width="1" fill="none" fill-rule="evenodd">
        <g id="all" transform="translate(-136.000000, -617.000000)"></g>
        <g id="联系业务员@2x">
            <g id="Group" transform="translate(2.000000, 2.000000)">
                <rect id="Rectangle-2928" fill="#FC6A78" x="0" y="0" width="44" height="44" rx="22"></rect>
                <path d="M18.3063872,21.8739069 C14.7782141,22.8915331 12.2350947,25.433755 12.004872,29.2039474 L12.0000384,29.9977048 C11.9933043,31.1035419 12.8736972,32 13.9801491,32 L30.0106987,32 C31.1110178,32 32.0030026,31.0999206 32.0030026,29.9977048 L32.0030026,29.2039474 C31.7599112,25.4336885 29.2135615,22.8914434 25.6845227,21.873853 C26.8731107,20.8425266 27.6246869,19.3214668 27.6246869,17.625 C27.6246869,14.5183983 25.10438,12 21.9954239,12 C18.8864678,12 16.3661609,14.5183983 16.3661609,17.625 C16.3661609,19.3214963 17.1177633,20.8425795 18.3063872,21.8739069 Z" id="Oval-514" fill="#FFFFFF"></path>
                <path d="M25,22 L25,22 C27.209139,22 29,20.209139 29,18" id="Oval-481-Copy" stroke="#FC6A78" stroke-width="2" stroke-linecap="round" stroke-linejoin="round"></path>
                <circle id="Oval-481" fill="#FC6A78" cx="23" cy="22" r="2"></circle>
                <path d="M14,16.5 L14,19.5" id="Line" stroke="#FFFFFF" stroke-width="2" stroke-linecap="round" stroke-linejoin="round"></path>
                <path d="M30,16.5 L30,19.5" id="Line-Copy-3" stroke="#FFFFFF" stroke-width="2" stroke-linecap="round" stroke-linejoin="round"></path>
            </g>
        </g>
    </g>
</svg>