<svg width="18" height="18" viewBox="0 0 18 18" xmlns="http://www.w3.org/2000/svg">
    <title>
        经营效果
    </title>
    <desc>
        Created with Sketch Beta.
    </desc>
    <g fill="#979797">
        <path d="M7.256 9.952l2.217 1.58 3.632-4.136c.182-.208.162-.524-.046-.706-.208-.182-.524-.162-.707.046L9.328 10.2 7.056 8.58 4.57 11.734c-.172.217-.135.532.082.703.217.17.53.134.702-.083l1.902-2.4z"/>
        <path d="M3.998 4H3v12h12V4h-1.017l-.3-1H16v14H2V3h2.34l-.342 1z"/>
        <path d="M7.5 1h3C12.477 1 13 4 13 4H5s.518-3 2.5-3zm0 1h3c.794 0 1.05 1 1.05 1H6.52S6.72 2 7.5 2z"/>
    </g>
</svg>
