<svg width="18" height="18" viewBox="0 0 18 18" xmlns="http://www.w3.org/2000/svg">
    <title>
        团购
    </title>
    <desc>
        Created with Sketch.
    </desc>
    <g fill="#999">
        <path d="M8.85 9H6v1h3v1H6v1h3v2h1v-2h3v-1h-3v-1h3V9h-2.85l2.234-2.68-.768-.64L9.682 8h-.364L7.384 5.68l-.768.64L8.85 9z"/>
        <path d="M8.49 1.54L3.01 4.46C2.454 4.76 2 5.517 2 6.15v9.7c0 .635.516 1.15 1.152 1.15h12.696c.636 0 1.152-.516 1.152-1.15v-9.7c0-.635-.447-1.388-1.01-1.69l-5.48-2.92c-.557-.298-1.457-.302-2.02 0zm7.028 3.803c.236.126.482.538.482.808v9.7c0 .082-.068.15-.152.15H3.152C3.068 16 3 15.932 3 15.85v-9.7c0-.266.25-.683.482-.807l5.477-2.92c.267-.144.814-.144 1.08 0l5.478 2.92z"/>
    </g>
</svg>
