<?xml version="1.0" encoding="UTF-8" standalone="no"?>
<svg width="80px" height="80px" viewBox="0 0 80 80" version="1.1" xmlns="http://www.w3.org/2000/svg" xmlns:xlink="http://www.w3.org/1999/xlink">
    <!-- Generator: Sketch 39.1 (31720) - http://www.bohemiancoding.com/sketch -->
    <title>霸王餐@2x</title>
    <desc>Created with Sketch.</desc>
    <defs></defs>
    <g id="icon-40/80/120" stroke="none" stroke-width="1" fill="none" fill-rule="evenodd">
        <g id="all" transform="translate(-573.000000, -281.000000)"></g>
        <g id="霸王餐@2x">
            <g id="Oval-261-Copy-12-+-霸-copy-8">
                <path d="M40,80 C62.09139,80 80,62.09139 80,40 C80,17.90861 62.09139,0 40,0 C17.90861,0 0,17.90861 0,40 C0,62.09139 17.90861,80 40,80 Z" id="Oval-261-Copy-12" fill="#B58DEB"></path>
                <path d="M21,55.5 C21,56.4204746 21.5764381,57 22.5,57 L27,57 C27,58.1045695 27.8988765,59 29,59 L32,59 C33.1046909,59 34,58.1052949 34,57 L38.5,57 C39.4230526,57 40,56.426892 40,55.5 C40,54.5795254 39.4235619,54 38.5,54 L34,54 L34,53 L38.0020866,53 C39.1055036,52.9884863 40,52.111395 40,51 L40,46.664768 C40,45.5612471 39.1017391,45 38.0020866,45 L34,45 L34,43 L36.5,43 C37.6079769,43 38.0020866,42.6034735 38.0020866,41.5 L38.0020866,40 L38.6666667,40 C39.7712362,40 40,39.1122704 40,38 C40,36.8954305 39.5925828,36 38.5,36 L23.0046678,36 C21.905182,36 21,36.8877296 21,38 C21,39.5 21.8993728,40 23.0046678,40 L23.0046678,41.5 C23.0046678,42.6027722 23.3936106,43 24.5,43 L27,43 L27,45 L23.5,45 C22.3965831,45 21,45.888605 21,47 L21,51 C21,52.1035209 21.9050153,53 23.0046678,53 L27,53 L27,54 L22.5,54 C21.5769475,54 21,54.573108 21,55.5 L21,55.5 Z M57,25 C58.0995465,25 59,25.8941966 59,27 L59,32 C59,33.1073149 57.603417,34 56.5,34 L55.5,34 C54.4003475,34 53,33.1046909 53,32 L53,30.0002198 C53,28.8990963 52.1043569,28 51,28 L45.3329483,28 C44.2207666,28 43,28.8955289 43,30.0002198 L43,32 C43,33.1011235 42.1046909,34 41,34 L39,34 C38.5,34 37,33.1046909 37,32 L37,30.0002198 C37,28.8990963 35.6043569,28 34.5,28 L28.6662817,28 C27.5541,28 27,28.8955289 27,30.0002198 L27,32 C27,33.1011235 26.103417,33.9884864 25,34 L23,34 C21.9003475,34.0114743 21,33.1005032 21,32 L21,25 L57,25 L57,25 Z M45.2413793,24 L57.0403201,24 C58.1226214,24 59,23.1122704 59,22 C59,20.8954305 58.1166233,20 57.0369735,20 L22.9630265,20 C21.8788769,20 21,20.8877296 21,22 C21,23.1045695 21.8790911,24 22.9596799,24 L34.7586207,24 L45.2413793,24 L45.2413793,24 L45.2413793,24 Z M42,50.6656878 L42,57.0000006 C42,58.103278 42.9089037,59.0000006 44.0052867,59.0000006 L45,59.0000006 C46.1051827,59.0000006 47,58.1043482 47,57.0000006 L47,54.40253 C44.9769275,53.6874765 43.2384188,52.3700204 42,50.6656878 L42,50.6656878 Z M54,54.40253 L54,57.0000006 C54,58.1041229 54.903617,59.0000005 56,59.0000006 L57,59.0000006 C58.1051827,59.0000008 59,58.0973289 59,57.0000006 L59,50.6656878 C57.7615812,52.3700204 56.0230725,53.6874765 54,54.40253 L54,54.40253 Z M51,31 C51,31.5522847 50.4027615,32 49.6684055,32 L46.3315945,32 C45.5961752,32 45,31.5561352 45,31 C45,30.4477153 45.5972385,30 46.3315945,30 L49.6684055,30 C50.4038248,30 51,30.4438648 51,31 L51,31 L51,31 Z M33.3350722,30 C34.0704915,30 34.6666667,30.4438648 34.6666667,31 L34.6666667,31 C34.6666667,31.5522847 34.0694281,32 33.3350722,32 L29.9982611,32 C29.2628418,32 28.6666667,31.5561352 28.6666667,31 L28.6666667,31 C28.6666667,30.4477153 29.2639052,30 29.9982611,30 L33.3350722,30 L33.3350722,30 L33.3350722,30 L33.3350722,30 Z M32.6002695,39 C33.3733193,39 34,39.4438648 34,40 C34,40.5522847 33.3787967,41 32.6002695,41 L28.3997305,41 C27.6266807,41 27,40.5561352 27,40 C27,39.4477153 27.6212033,39 28.3997305,39 L32.6002695,39 L32.6002695,39 L32.6002695,39 Z M27,50 L25.199769,50 C24.5371549,50 24,49.5561352 24,49 C24,48.4477153 24.53246,48 25.199769,48 L27,48 L27,50 L27,50 L27,50 Z M34,50 L35.800231,50 C36.4628451,50 37,49.5561352 37,49 C37,48.4477153 36.46754,48 35.800231,48 L34,48 L34,50 Z M50.6666667,53.3333333 C55.4531345,53.3333333 59.3333333,49.4531345 59.3333333,44.6666667 C59.3333333,39.8801988 55.4531345,36 50.6666667,36 C45.8801988,36 42,39.8801988 42,44.6666667 C42,49.4531345 45.8801988,53.3333333 50.6666667,53.3333333 Z M50.6666667,39.9526215 L55.3807119,44.6666667 L50.6666667,49.3807119 L45.9526215,44.6666667 L50.6666667,39.9526215 Z" id="霸-copy-8" fill="#FFFFFF"></path>
            </g>
        </g>
    </g>
</svg>