<?xml version="1.0" encoding="UTF-8" standalone="no"?>
<svg width="15px" height="14px" viewBox="0 0 15 14" version="1.1" xmlns="http://www.w3.org/2000/svg" xmlns:xlink="http://www.w3.org/1999/xlink" xmlns:sketch="http://www.bohemiancoding.com/sketch/ns">
    <!-- Generator: Sketch 3.0.3 (7891) - http://www.bohemiancoding.com/sketch -->
    <title>下载数据</title>
    <desc>Created with Sketch.</desc>
    <defs></defs>
    <g id="经营效果" stroke="none" stroke-width="1" fill="none" fill-rule="evenodd" sketch:type="MSPage">
        <g id="效果概览" sketch:type="MSArtboardGroup" transform="translate(-719.000000, -911.000000)" fill="#999999">
            <g id="数据趋势图" sketch:type="MSLayerGroup" transform="translate(310.000000, 466.000000)">
                <g id="下载" transform="translate(409.000000, 445.000000)" sketch:type="MSShapeGroup">
                    <g id="下载数据">
                        <path d="M14,8 L14,13 L1,13 L1,8 L0.5,8 L0,8 L0,14 L15,14 L15,8 L14.5,8 L14,8 Z M2,11 L2,12 L13,12 L13,11 L2,11 Z M2,9 L2,10 L13,10 L13,9 L2,9 Z M8,6 L8,7 L9,7 L9,6 L8,6 Z M6,6 L6,7 L7,7 L7,6 L6,6 Z M5,5 L5,6 L6,6 L6,5 L5,5 Z M4,4 L4,5 L5,5 L5,4 L4,4 Z M9,5 L9,6 L10,6 L10,5 L9,5 Z M10,4 L10,5 L11,5 L11,4 L10,4 Z M7,0 L7,8 L8,8 L8,0 L7,0 Z" id="Rectangle-33"></path>
                    </g>
                </g>
            </g>
        </g>
    </g>
</svg>