<?xml version="1.0" encoding="utf-8"?>
<!-- Generator: Adobe Illustrator 16.0.3, SVG Export Plug-In . SVG Version: 6.00 Build 0)  -->
<!DOCTYPE svg PUBLIC "-//W3C//DTD SVG 1.1//EN" "http://www.w3.org/Graphics/SVG/1.1/DTD/svg11.dtd">
<svg version="1.1" id="图层_1" xmlns:sketch="http://www.bohemiancoding.com/sketch/ns"
	 xmlns="http://www.w3.org/2000/svg" xmlns:xlink="http://www.w3.org/1999/xlink" x="0px" y="0px" width="890px" height="150px"
	 viewBox="0 0 890 150" enable-background="new 0 0 890 150" xml:space="preserve">
<title>美团商家中心logo</title>
<desc>Created with Sketch.</desc>
<g id="酒店商家ebooking" sketch:type="MSPage">
	<g id="美团商家中心logo" sketch:type="MSArtboardGroup">
		<path id="美" sketch:type="MSShapeGroup" fill="#35B7AA" d="M58.856,108H11V93h55v-5h15v5h55v15H88.144
			c8.623,10.123,23.719,19.872,47.856,19.872V143c-34.331,0-52.904-14.664-62.5-29.141C63.904,128.336,45.331,143,11,143v-15.128
			C35.137,127.872,50.233,118.123,58.856,108L58.856,108z M107,18h29v15H11V18h29L36,8h15.005c2.759,0,5.826,2.078,6.853,4.644
			L60,18h27l2.143-5.356C90.169,10.078,93.236,8,95.995,8H111L107,18L107,18L107,18z M66,43H16v15h50v10H11v15h125V68H81V58h50V43
			H81V33H66V43L66,43z"/>
		<path id="团" sketch:type="MSShapeGroup" fill="#35B7AA" d="M231,48V33h15v15h15v15h-15v50.003c0,5.519-4.477,9.997-10,9.997h-20
			v-15h10.005c2.749,0,4.995-2.242,4.995-5.008V63v11.777l-45,40.082V95.73L222.747,63H181V48H231L231,48z M161,13v129.867h109.866
			c5.523,0,10.001-4.471,10.001-10.002V13H161L161,13z M176,128V28h90v95.007c0,2.758-2.247,4.993-4.999,4.993H176L176,128z"/>
		<path id="商" sketch:type="MSShapeGroup" fill="#35B7AA" d="M344.453,53l-8.397-9.209c-1.86-2.041-1.715-5.203,0.325-7.063
			c2.04-1.861,5.203-1.715,7.063,0.325l13.75,15.078c0.248,0.272,0.46,0.563,0.637,0.869h24.649
			c0.194-0.405,0.447-0.792,0.759-1.146c2.405-2.729,2.405-2.729,5.291-6.004c5.771-6.55,5.771-6.55,7.695-8.734
			c1.826-2.072,4.985-2.271,7.058-0.446c2.071,1.826,2.271,4.985,0.445,7.057c-1.924,2.183-1.924,2.183-7.695,8.733
			c-0.168,0.19-0.325,0.37-0.475,0.539H421c2.762,0,5,2.239,5,5v64.953c0,11.059-8.94,20.047-19.953,20.047H401
			c-2.762,0-5-2.238-5-5s2.238-5,5-5h5.047c5.478,0,9.953-4.5,9.953-10.047V63h-95v75.312c0,2.762-2.238,5-5,5s-5-2.238-5-5V58
			c0-2.761,2.238-5,5-5H344.453L344.453,53L344.453,53z M373.235,23H426c2.762,0,5,2.239,5,5s-2.238,5-5,5H311c-2.762,0-5-2.239-5-5
			s2.238-5,5-5h51.276l-3.566-7.955c-2.727-6.083,6.398-10.174,9.125-4.091L373.235,23L373.235,23L373.235,23z M351,98h35v20h-35V98
			L351,98z M346,88c-2.762,0-5,2.238-5,5v30c0,2.762,2.238,5,5,5h45c2.762,0,5-2.238,5-5V93c0-2.762-2.238-5-5-5H346L346,88z
			 M330.514,96.406c10.077-6.579,19.711-13.812,28.834-21.646c2.096-1.799,2.336-4.956,0.536-7.051
			c-1.799-2.095-4.955-2.335-7.05-0.536c-8.793,7.55-18.075,14.52-27.786,20.858c-2.312,1.51-2.964,4.608-1.454,6.92
			C325.104,97.264,328.201,97.915,330.514,96.406L330.514,96.406z M376.588,76.641c10.231,5.475,20.091,11.615,29.513,18.375
			c2.243,1.609,5.367,1.096,6.977-1.147c1.61-2.243,1.097-5.368-1.147-6.978c-9.776-7.015-20.007-13.386-30.623-19.066
			c-2.435-1.303-5.465-0.386-6.768,2.049C373.236,72.308,374.153,75.338,376.588,76.641L376.588,76.641z"/>
		<path id="家" sketch:type="MSShapeGroup" fill="#35B7AA" d="M522.655,23H571c2.762,0,5,2.239,5,5v15c0,2.761-2.238,5-5,5
			s-5-2.239-5-5V33H466v10c0,2.761-2.238,5-5,5s-5-2.239-5-5V28c0-2.761,2.238-5,5-5h50.665l-3.45-7.568
			c-2.766-6.066,6.334-10.214,9.1-4.148L522.655,23L522.655,23z M505.666,58c-0.708,0.624-1.2,1.41-1.465,2.257
			c-13.843,8.388-28.775,15.072-44.463,19.849c-2.642,0.805-4.131,3.598-3.327,6.24c0.805,2.641,3.599,4.131,6.24,3.326
			c16.155-4.92,31.551-11.764,45.856-20.335c1.468,1.988,2.844,3.972,4.128,5.956c-16.045,12.382-33.936,22.192-53.067,29.026
			c-2.601,0.929-3.956,3.789-3.027,6.391c0.929,2.6,3.79,3.955,6.391,3.026c19.704-7.038,38.155-17.076,54.754-29.714
			c1.271,2.495,2.396,5.002,3.376,7.529c-18.168,15.22-39.134,27.195-61.921,35.262c-2.604,0.922-3.966,3.779-3.045,6.383
			c0.922,2.604,3.779,3.967,6.382,3.045c22.565-7.988,43.436-19.634,61.751-34.353l0,0C525.407,107.098,526,112.443,526,118v7.49
			c0,4.144-3.362,7.51-7.5,7.51H506c-2.762,0-5,2.238-5,5s2.238,5,5,5h12.5c9.664,0,17.5-7.846,17.5-17.51V118
			c0-9.922-1.659-19.225-4.909-28.207c2.157-0.797,3.6-1.33,5.194-1.92c6.827,16.77,19.493,30.78,35.71,39.559
			c2.429,1.314,5.463,0.41,6.777-2.018c1.314-2.429,0.411-5.463-2.018-6.777c-14.095-7.629-25.106-19.756-31.084-34.23
			c18.075-6.678,18.135-6.7,24.276-8.969c2.591-0.957,3.915-3.833,2.958-6.423s-3.833-3.915-6.423-2.958
			c-6.202,2.292-6.202,2.292-24.809,9.166l-14.519,5.364c-2.764-5.598-6.161-11.109-10.178-16.61
			c2.849-1.903,5.648-3.877,8.397-5.92c0.024-0.019,0.048-0.037,0.072-0.055H561c2.762,0,5-2.239,5-5s-2.238-5-5-5h-90
			c-2.762,0-5,2.239-5,5s2.238,5,5,5H505.666L505.666,58L505.666,58z"/>
		<path fill="#35B7AA" d="M715,33h-50V18c0-2.761-2.238-5-5-5s-5,2.239-5,5v15h-50c-2.762,0-5,2.239-5,5v50c0,2.762,2.238,5,5,5h50
			v45c0,2.762,2.238,5,5,5s5-2.238,5-5V93h50c2.762,0,5-2.238,5-5V38C720,35.239,717.762,33,715,33z M655,83h-45V43h45V83z M710,83
			h-45V43h45V83z"/>
		<path id="心" sketch:type="MSShapeGroup" fill="#35B7AA" d="M795.705,13.515c-4.73-4.698-11.777,2.398-7.047,7.096l26.592,26.406
			c4.73,4.698,11.776-2.398,7.046-7.096L795.705,13.515L795.705,13.515z M839,102.688v0.431c0,13.817-11.216,25.038-25,25.038
			h-19.957c-2.789,0-5.043-2.241-5.043-4.98V58c0-2.761-2.238-5-5-5s-5,2.239-5,5v65.176c0,8.275,6.744,14.98,15.043,14.98H814
			c19.309,0,35-15.699,35-35.038v-0.431c0-2.762-2.238-5-5-5S839,99.926,839,102.688L839,102.688z M744.83,111.736
			c4.477-5.186,8.348-12.555,11.762-21.596c2.273-6.021,4.212-12.438,5.826-18.85c0.564-2.241,1.049-4.324,1.453-6.198
			c0.245-1.136,0.41-1.958,0.497-2.415c0.512-2.713-1.272-5.329-3.986-5.841c-2.713-0.513-5.328,1.272-5.841,3.985
			c-0.07,0.375-0.219,1.113-0.445,2.161c-0.381,1.766-0.84,3.739-1.375,5.866c-1.527,6.068-3.359,12.131-5.484,17.758
			c-3.036,8.041-6.41,14.463-9.976,18.594c-1.805,2.091-1.573,5.248,0.518,7.053S743.026,113.826,744.83,111.736L744.83,111.736z
			 M840.48,63.814c3.264,2.844,6.42,6.011,9.458,9.446c4.902,5.542,9.264,11.5,13.019,17.458c1.312,2.082,2.452,4.011,3.413,5.735
			c0.567,1.017,0.941,1.726,1.118,2.075c1.24,2.467,4.246,3.46,6.713,2.22c2.467-1.241,3.461-4.247,2.22-6.714
			c-0.237-0.474-0.679-1.308-1.316-2.451c-1.046-1.876-2.277-3.958-3.688-6.196c-4.025-6.388-8.699-12.773-13.988-18.752
			c-3.314-3.747-6.774-7.219-10.378-10.359c-2.082-1.814-5.24-1.597-7.055,0.485C838.182,58.842,838.398,62,840.48,63.814
			L840.48,63.814z"/>
	</g>
</g>
</svg>
