<?xml version="1.0" encoding="utf-8"?>
<!-- Generator: Adobe Illustrator 16.0.0, SVG Export Plug-In . SVG Version: 6.00 Build 0)  -->
<!DOCTYPE svg PUBLIC "-//W3C//DTD SVG 1.1//EN" "http://www.w3.org/Graphics/SVG/1.1/DTD/svg11.dtd">
<svg version="1.1" id="图层_1" xmlns="http://www.w3.org/2000/svg" xmlns:xlink="http://www.w3.org/1999/xlink" x="0px" y="0px"
	 width="32px" height="32px" viewBox="0 0 32 32" enable-background="new 0 0 32 32" xml:space="preserve">
<title>金融服务</title>
<desc>Created with Sketch.</desc>
<g>
	<path fill="#9AA6BB" d="M16.087,12.466c3.716,0,7.091-0.961,9.029-2.57c0.204-0.169,0.296-0.438,0.238-0.697
		c-0.983-4.45-5.493-6.477-9.268-6.477c-3.774,0-8.284,2.027-9.268,6.477C6.762,9.457,6.854,9.726,7.058,9.896
		C8.997,11.505,12.372,12.466,16.087,12.466z M10.22,6.209c1.321-1.683,3.195-1.865,3.274-1.872c0.591-0.058,1.099,0.38,1.15,0.964
		c0.051,0.581-0.375,1.093-0.954,1.149c-0.063,0.007-1.07,0.139-1.8,1.069c-0.209,0.267-0.521,0.406-0.835,0.406
		c-0.229,0-0.46-0.074-0.655-0.226C9.939,7.337,9.858,6.67,10.22,6.209z"/>
	<path fill="#9AA6BB" d="M31.55,12.387c-0.002-0.048-0.009-0.097-0.021-0.145l-0.018-0.069c-0.048-0.69-0.322-1.338-0.777-1.832
		c-0.816-0.887-2.143-1.118-3.179-0.565c-0.296,0.119-0.533,0.289-0.764,0.452l-0.114,0.082c-3.229,2.095-6.921,3.203-10.678,3.203
		c-4.013,0-7.929-1.256-11.334-3.64C3.607,9.157,2.133,9.337,1.25,10.295c-0.482,0.523-0.757,1.206-0.795,1.977
		c-0.013,0.293-0.02,0.587-0.02,0.883c0,14.298,10.788,15.841,15.426,15.841c3.684,0,15.703-1.142,15.703-15.841
		C31.564,12.898,31.559,12.643,31.55,12.387z"/>
</g>
</svg>
