<?xml version="1.0" encoding="utf-8"?>
<!-- Generator: Adobe Illustrator 16.0.0, SVG Export Plug-In . SVG Version: 6.00 Build 0)  -->
<!DOCTYPE svg PUBLIC "-//W3C//DTD SVG 1.1//EN" "http://www.w3.org/Graphics/SVG/1.1/DTD/svg11.dtd">
<svg version="1.1" id="图层_1" xmlns="http://www.w3.org/2000/svg" xmlns:xlink="http://www.w3.org/1999/xlink" x="0px" y="0px"
	 width="32px" height="32px" viewBox="0 0 32 32" enable-background="new 0 0 32 32" xml:space="preserve">
<title>团购</title>
<desc>Created with Sketch.</desc>
<g>
	<path d="M25.143,20.571c0-0.631,0.512-1.143,1.143-1.143h4.472c-0.522-3.117-3.144-5.525-6.349-5.714l-2.193,13.714h1.784
		c3.396,0,6.207-2.478,6.755-5.715h-4.469C25.654,21.714,25.143,21.202,25.143,20.571z"/>
	<path d="M25.143,11.429c0.631,0,1.143-0.512,1.143-1.143s-0.512-1.143-1.143-1.143h-1.517l0.005-0.032
		c0.204-1.244-0.65-2.253-1.911-2.253h-3.842l0.891-3.586l3.697-1.026c0.608-0.168,0.965-0.798,0.796-1.407
		s-0.801-0.964-1.407-0.795l-4.34,1.205c-0.397,0.11-0.704,0.426-0.804,0.826l-1.188,4.785H5.708c-1.259,0-2.114,1.017-1.911,2.253
		l0.005,0.032H2.286c-0.631,0-1.143,0.512-1.143,1.143s0.512,1.143,1.143,1.143h1.891L6.805,27.49C7.212,29.98,9.581,32,12.122,32
		h3.186c2.529,0,4.908-2.016,5.316-4.51l2.629-16.062H25.143z"/>
</g>
</svg>
