<svg xmlns="http://www.w3.org/2000/svg" width="30" height="30" viewBox="0 0 30 30">
  <title>
    申请合作
  </title>
  <path d="M26.395 16.45l.884-.883c3.287-3.287 3.29-8.615.004-11.9s-8.613-3.282-11.9.005L14.25 4.807l-.66-.66c-3.022-3.02-7.918-3.02-10.938 0-3.02 3.02-3.02 7.917 0 10.937l2.483 2.483-1.14 1.14c-1.02 1.022-1.02 2.672 0 3.69.434.435.98.673 1.543.74.066.56.304 1.108.736 1.54.433.434.98.67 1.542.737.066.562.305 1.108.736 1.54.434.435.98.672 1.542.738.066.562.304 1.11.736 1.54 1.022 1.023 2.67 1.022 3.69.003l.01-.01c1.173.876 2.82.826 3.865-.22.525-.525.803-1.204.838-1.897.693-.035 1.37-.312 1.896-.837.557-.557.834-1.285.84-2.022.653-.058 1.286-.333 1.782-.83.494-.493.77-1.124.828-1.774.735-.008 1.46-.285 2.018-.84 1.15-1.152 1.11-3.04-.064-4.213l-.14-.14zM6.272 20.985c-.24.24-.62.24-.862-.002-.24-.238-.24-.624 0-.862l2.736-2.736c.24-.24.62-.24.863.002.238.24.24.624 0 .862l-2.738 2.737zm2.28 2.28c-.24.238-.622.238-.864-.002-.24-.24-.24-.625 0-.863l2.737-2.737c.24-.24.62-.24.862.002.24.24.24.624.002.862l-2.74 2.738zm2.277 2.277c-.24.24-.622.24-.863-.002-.24-.238-.24-.624-.002-.86l2.738-2.74c.24-.238.62-.238.862.003.24.24.24.625.002.862l-2.738 2.737zm2.277 2.28c-.24.238-.62.238-.862-.003-.24-.24-.24-.626-.002-.864l2.738-2.737c.24-.24.622-.24.864 0 .24.24.24.625.002.863l-2.74 2.738zm3.875-.23c-.255.255-.645.31-.996.18l1.176-1.177c.133.35.076.74-.18.996zm5.358-5.587c-.356.356-.98.342-1.384-.064l-7.163-7.16-1.414 1.413 7.162 7.162c.038.04.077.076.11.12.406.405.42 1.026.064 1.383s-.98.342-1.384-.064l-.327-.327c-.044-.604-.286-1.197-.748-1.66-.434-.432-.98-.67-1.542-.736-.066-.56-.305-1.108-.736-1.54-.435-.434-.98-.672-1.543-.738-.066-.562-.304-1.108-.736-1.54-.432-.434-.978-.672-1.54-.738-.068-.562-.306-1.108-.737-1.54-1.023-1.023-2.67-1.022-3.69-.002l-.184.183-2.484-2.483c-2.24-2.24-2.24-5.87 0-8.107 2.24-2.24 5.868-2.24 8.107 0l.66.66-5.672 5.672.71.707c2 2.002 5.02 2.38 7.618 1.24l6.86 6.86c.335.4.326.967-.008 1.3zm2.846-2.616c-.354.353-.968.342-1.374-.055l-.122-.13-1.87-1.86-4.575-4.578c.228-.182.45-.374.66-.585l.693-.7 6.383 6.383.142.14c.405.406.42 1.027.064 1.384zm-.267-4.415L18.6 8.658l-2.11 2.11c-1.433 1.433-3.37 1.97-5.047 1.595-.808-.18-1.45-.474-1.45-.474L16.8 5.086c2.508-2.508 6.568-2.51 9.072-.005 2.504 2.503 2.502 6.564-.005 9.07l-.946.823z"/>
</svg>
