<svg xmlns="http://www.w3.org/2000/svg" width="126.5" height="28" viewBox="0 0 126.5 28"><title>美团商家帮助中心</title><path fill="none" d="M67 18h7v4h-7zM51 23.008V4H33v20h17.007c.548 0 .993-.443.993-.992zM50 11h-3v10.005C47 22.107 46.105 23 45.002 23H41v-3h2c.557 0 1-.45 1-1.008v-5.637l-9 8.017v-3.826L42.35 11H34V8h10V5h3v3h3v3z"/><path d="M30 12.5v14.475h21.97c1.107 0 2.003-.896 2.003-1.996V1H30v11.5M33 4h18v19.008c0 .55-.445.992-.993.992H33V4zM68.777 11.942c-.36-.42-.99-.467-1.41-.107-1.758 1.51-3.615 2.903-5.557 4.17-.462.304-.593.923-.29 1.386.3.464.92.593 1.383.292 2.016-1.315 3.942-2.763 5.767-4.33.42-.36.467-.99.107-1.41zM78.02 17.402c.45.322 1.074.22 1.396-.23.322-.448.22-1.073-.23-1.395-1.955-1.402-4-2.676-6.124-3.812-.487-.26-1.093-.077-1.354.41-.26.487-.077 1.093.41 1.354 2.046 1.093 4.018 2.32 5.902 3.672z"/><path d="M60 9c-.552 0-1 .448-1 1v16.062c0 .553.448 1 1 1s1-.447 1-1V11h19v11.99c0 1.11-.895 2.01-1.99 2.01H77c-.552 0-1 .447-1 1s.448 1 1 1h1.01C80.21 27 82 25.202 82 22.99V10c0-.552-.448-1-1-1h-5.088l.095-.108 1.54-1.747c.364-.415.324-1.046-.09-1.412-.415-.365-1.046-.325-1.412.09l-1.54 1.747-1.057 1.2c-.062.072-.113.15-.152.23h-4.93c-.035-.06-.078-.12-.127-.174L65.49 5.81c-.373-.408-1.005-.437-1.414-.065-.41.372-.437 1.004-.065 1.413L65.69 9H60"/><path d="M76 17c0-.553-.448-1-1-1h-9c-.552 0-1 .447-1 1v6c0 .553.448 1 1 1h9c.552 0 1-.447 1-1v-6zm-2 5h-7v-4h7v4zM88 8c.552 0 1-.448 1-1V5h20v2c0 .552.448 1 1 1s1-.448 1-1V4c0-.552-.448-1-1-1h-9.67L99.264.657c-.553-1.213-2.373-.383-1.82.83L98.133 3H88c-.552 0-1 .448-1 1v3c0 .552.448 1 1 1zM82 3H71.447L70.367.59c-.545-1.216-2.37-.397-1.825.82L69.255 3H59c-.552 0-1 .448-1 1s.448 1 1 1h23c.552 0 1-.448 1-1s-.448-1-1-1zM44 13.355v5.637C44 19.55 43.557 20 43 20h-2v3h4.002C46.105 23 47 22.107 47 21.005V11h3V8h-3V5h-3v3H34v3h8.35L35 17.546v3.826l9-8.017M121.073 13.9c.27-1.09 1.253-1.9 2.427-1.9 1.38 0 2.5 1.12 2.5 2.5s-1.12 2.5-2.5 2.5-2.5-1.12-2.5-2.5c0-.207.025-.408.073-.6M111.15 22.127c-2.818-1.525-5.02-3.95-6.216-6.846l4.855-1.793c.517-.19.782-.767.59-1.285-.192-.518-.767-.783-1.285-.59l-4.96 1.832-2.905 1.074c-.553-1.12-1.232-2.223-2.036-3.323.57-.38 1.13-.775 1.68-1.185l.015-.01H108c.552 0 1-.45 1-1s-.448-1-1-1H90c-.552 0-1 .447-1 1s.448 1 1 1h6.933c-.142.124-.24.28-.293.45-2.77 1.678-5.755 3.015-8.893 3.97-.528.16-.826.72-.666 1.248.162.527.72.826 1.25.665 3.23-.983 6.31-2.353 9.17-4.066.293.397.57.794.826 1.19-3.21 2.48-6.787 4.44-10.613 5.807-.52.186-.792.758-.605 1.276.186.52.758.792 1.278.604 3.94-1.406 7.63-3.414 10.95-5.94.255.498.48 1 .676 1.506-3.633 3.043-7.827 5.438-12.384 7.052-.52.186-.793.756-.61 1.276.186.52.757.793 1.277.608 4.513-1.598 8.687-3.928 12.35-6.87.236 1.042.355 2.113.355 3.224v1.498c0 .828-.672 1.502-1.5 1.502H97c-.552 0-1 .447-1 1s.448 1 1 1h2.5c1.933 0 3.5-1.568 3.5-3.502V22c0-1.984-.332-3.845-.982-5.643.432-.158.72-.266 1.04-.383 1.364 3.354 3.897 6.155 7.14 7.91.486.264 1.093.083 1.356-.402.263-.485.083-1.09-.403-1.355zM14 16h-3v1H0v3h9.57C7.848 22.025 4.83 23.975 0 23.975V27c6.866 0 10.58-2.934 12.5-5.828C14.42 24.066 18.134 27 25 27v-3.025c-4.828 0-7.847-1.95-9.57-3.975H25v-3H14v-1zM25 5V2h-5.8l.8-2h-2.99c-.558 0-1.174.41-1.382.93L15.2 2H9.8L9.372.93C9.164.41 8.548 0 7.992 0H5l.8 2H0v3h11v2H1v3h10v2H0v3h25v-3H14v-2h10V7H14V5h11z"/></svg>