<svg xmlns="http://www.w3.org/2000/svg" width="119.75" height="28" viewBox="0 0 119.75 28">
  <title>
    美团商家帮助中心
  </title>
  <path fill="none" d="M39.16 22.396l6-.888V16h-6M66.16 7h9v8h-9z"/>
  <path d="M106.41 7.803c.944.94 2.354-.48 1.408-1.42l-5.318-5.28c-.946-.94-2.354.48-1.41 1.42l5.32 5.28zM87.16 5h-10V2c0-.552-.448-1-1-1s-1 .448-1 1v3h-10c-.554 0-1 .448-1 1v10c0 .553.446 1 1 1h10v9c0 .553.446 1 1 1s1-.447 1-1v-9h10c.552 0 1-.447 1-1V6c0-.552-.448-1-1-1zm-12 10h-9V7h9v8zm11 0h-9V7h9v8zM95.435 9.768c-.54-.103-1.064.254-1.168.797-.016.075-.043.223-.088.432-.077.354-.17.748-.276 1.173-.307 1.213-.672 2.426-1.098 3.553-.606 1.607-1.28 2.894-1.994 3.72-.36.417-.314 1.05.104 1.41s1.05.312 1.41-.105c.895-1.037 1.67-2.512 2.354-4.318.453-1.203.842-2.488 1.164-3.77.113-.45.21-.866.29-1.24.05-.228.083-.393.103-.484.098-.543-.26-1.066-.802-1.168zM58.163 5H54.16V1c0-.552-.448-1-1-1s-1 .448-1 1v4h-3c-.554 0-1 .448-1 1s.446 1 1 1h3v5.008c0 3.56-1.327 7.215-3.492 9.967-.092-.533-.594-.896-1.132-.817l-.377.054V3c0-.552-.448-1-1-1h-8c-.554 0-1 .448-1 1v19.693l-2.147.315c-.547.08-.924.59-.842 1.138.08.547.59.924 1.136.843l12.316-1.826c-.467.477-.963.912-1.484 1.3-.44.332-.533.958-.203 1.4.33.442.957.534 1.4.204 4.133-3.086 6.824-8.648 6.824-14.06V7h4.003c-.004 0-.004 13.008-.004 13.008 0 2.207-1.79 3.992-4.01 3.992h-.99c-.554 0-1 .447-1 1s.446 1 1 1h.99c3.323 0 6.01-2.68 6.01-5.992V6.995C60.16 5.897 59.264 5 58.162 5zM45.16 21.508l-6 .89V16h6v5.508zm0-7.508h-6v-4h6v4zm0-6h-6V4h6v4zM118.644 17.207c-.05-.096-.137-.262-.266-.49-.21-.375-.453-.792-.736-1.24-.807-1.275-1.738-2.554-2.797-3.75-.662-.75-1.354-1.444-2.076-2.072-.417-.363-1.048-.32-1.41.097s-.32 1.048.096 1.41c.653.57 1.284 1.203 1.892 1.89.98 1.108 1.854 2.3 2.604 3.49.263.418.49.804.685 1.147.112.204.188.345.224.415.25.494.85.69 1.345.442.487-.246.687-.847.44-1.34zM112.16 17.938c-.554 0-1 .447-1 1v.086c0 2.766-2.244 5.01-5 5.01h-3.992c-.558 0-1.01-.448-1.01-.996V10c0-.552-.446-1-1-1s-1 .448-1 1v13.035c0 1.654 1.35 2.996 3.01 2.996h3.99c3.862 0 7-3.14 7-7.007v-.086c0-.552-.446-1-1-1zM14.995 13h6.664c.552 0 1-.448 1-1s-.448-1-1-1h-5.833c.176-.634.285-1.3.32-2h4.512c.552 0 1-.448 1-1s-.448-1-1-1h-4.5V5h4.5c.552 0 1-.448 1-1s-.448-1-1-1h-4.5V2c0-.552-.448-1-1-1s-1 .448-1 1v1h-4.5c-.554 0-1 .448-1 1s.446 1 1 1h4.5v2h-4.5c-.554 0-1 .448-1 1s.446 1 1 1h4.483c-.047.706-.193 1.372-.428 2H8.66c-.554 0-1 .448-1 1s.446 1 1 1h3.913c-.936 1.188-2.25 2.195-3.842 3.036-.487.258-.675.862-.417 1.35.258.49.863.677 1.352.42 2.34-1.236 4.21-2.826 5.33-4.806z"/>
  <path d="M29.16 16h-7v-1c0-.552-.448-1-1-1s-1 .448-1 1v1h-7c-.554 0-1 .447-1 1v7c0 .553.446 1 1 1s1-.447 1-1v-6h6v8c0 .553.446 1 1 1s1-.447 1-1v-8h6v5h-1.724c-.553 0-1 .447-1 1s.447 1 1 1h2.723c.552 0 1-.447 1-1v-7c0-.553-.448-1-1-1z"/>
  <path d="M30.76 7.575c-.657-.494-.81-.553-.842-.548l-.01.012.01-.013 2.99-3.363c.57-.644.114-1.664-.75-1.664h-8c-.552 0-1 .448-1 1v11c0 .553.448 1 1 1s1-.447 1-1V4l4.804-.034-2.55 2.87c-.535.602-.176 1.557.623 1.657.063.008.218.04.433.113.373.124.746.31 1.092.57.562.42.998.987 1.27 1.735.214.58.33 1.09.33 1.09h-3c-.554 0-1 .448-1 1s.446 1 1 1h4c.552 0 1-.448 1-1 0-2.502-.9-4.3-2.4-5.425z"/>
</svg>
