<svg xmlns="http://www.w3.org/2000/svg" width="30" height="30" viewBox="0 0 30 30">
  <title>
    找回账号密码
  </title>
  <circle cx="15" cy="22" r="2"/>
  <path d="M24.995 12H24V9c0-4.972-4.03-9-9-9-4.972 0-9 4.03-9 9v3h-.995C3.897 12 3 12.896 3 14v13c0 1.11.897 2 2.005 2h19.99c1.11 0 2.005-.896 2.005-2V14c0-1.11-.897-2-2.005-2zM8 9c0-3.866 3.133-7 7-7 3.866 0 7 3.133 7 7v3H8V9zm16.995 18S5 27.002 5 27c0 0 0-13 .005-13H25s0 13-.005 13z"/>
  <path d="M15 24c-1.104 0-2-.896-2-2s.896-2 2-2 2 .896 2 2-.896 2-2 2z"/>
</svg>
