<svg width="30" height="30" viewBox="0 0 30 30" xmlns="http://www.w3.org/2000/svg">
  <title>
    自助上单
  </title>
  <path d="M3 2.993C3 1.893 3.897 1 5.005 1h19.99C26.102 1 27 1.9 27 2.993v25.014c0 1.1-.897 1.993-2.005 1.993H5.005C3.898 30 3 29.1 3 28.007V2.993zm2 25.014C5 27.997 24.995 28 24.995 28 25 28 25 2.993 25 2.993 25 3.003 5.005 3 5.005 3 5 3 5 28.007 5 28.007zM8 19h14v2H8v-2zm0 4h10v2H8v-2zm8-12.586l3.518 3.518 1.414-1.414-5.104-5.104-.707-.707-.706.707-5.12 5.122 1.413 1.414L14 10.657V17h2v-6.586z" fill="#000" fill-rule="evenodd"/>
</svg>
