<svg xmlns="http://www.w3.org/2000/svg" width="30" height="30" viewBox="0 0 30 30">
  <title>
    联系业务员
  </title>
  <path fill="none" d="M26.06 21.838C24.126 19.433 21.09 18 16.58 18h-3.16c-4.51 0-7.547 1.434-9.477 3.842C2.683 23.412 2 25.395 2 26.282c0 0-.2 1.718 1.3 1.718h23.2c1.8 0 1.5-1.76 1.5-1.76 0-.864-.686-2.838-1.94-4.402zM15 12c2.785 0 5-2.098 5-4.63v-.74C20 4.1 17.785 2 15 2c-2.786 0-5 2.098-5 4.63v.74C10 9.9 12.215 12 15 12z"/>
  <path d="M15 14c3.867 0 7-2.97 7-6.63v-.74C22 2.97 18.866 0 15 0c-3.867 0-7 2.97-7 6.63v.74C8 11.03 11.134 14 15 14zm-5-7.37C10 4.1 12.214 2 15 2c2.785 0 5 2.1 5 4.63v.74C20 9.9 17.785 12 15 12s-5-2.1-5-4.63v-.74zM16.58 16h-3.16C1.88 16 0 24.814 0 26.283v.52C0 28.564 1.43 30 3.196 30h23.607C28.573 30 30 28.566 30 26.8v-.56C30 24.814 28.12 16 16.58 16zm9.92 12H3.3C1.8 28 2 26.283 2 26.283c0-.89.684-2.87 1.943-4.44C5.873 19.432 8.91 18 13.42 18h3.16c4.51 0 7.547 1.433 9.478 3.838C27.314 23.402 28 25.376 28 26.24c0 0 .3 1.76-1.5 1.76z"/>
</svg>
