<?xml version="1.0" encoding="utf-8"?>
<!-- Generator: Adobe Illustrator 16.0.0, SVG Export Plug-In . SVG Version: 6.00 Build 0)  -->
<!DOCTYPE svg PUBLIC "-//W3C//DTD SVG 1.1//EN" "http://www.w3.org/Graphics/SVG/1.1/DTD/svg11.dtd">
<svg version="1.1" id="图层_1" xmlns="http://www.w3.org/2000/svg" xmlns:xlink="http://www.w3.org/1999/xlink" x="0px" y="0px"
	 width="32px" height="32px" viewBox="0 0 32 32" enable-background="new 0 0 32 32" xml:space="preserve">
<title>首页</title>
<desc>Created with Sketch.</desc>
<g>
	<path d="M3.429,18.285v9.148C3.429,29.955,5.477,32,8,32h3.844v-7.82c0-2.301,1.865-4.165,4.156-4.165
		c2.295,0,4.156,1.868,4.156,4.165V32H24c2.524,0,4.571-2.053,4.571-4.566v-9.148L16,5.714L3.429,18.285z"/>
	<path d="M31.666,15.192L16.809,0.335c-0.447-0.446-1.17-0.446-1.617,0L0.335,15.192c-0.446,0.446-0.446,1.17,0,1.617
		c0.223,0.223,0.516,0.334,0.808,0.334s0.585-0.111,0.808-0.334L16,2.76l14.049,14.049c0.224,0.223,0.516,0.334,0.809,0.334
		s0.585-0.111,0.809-0.334C32.112,16.362,32.112,15.638,31.666,15.192z"/>
</g>
</svg>
