<svg xmlns="http://www.w3.org/2000/svg" width="100" height="100" viewBox="0 0 100 100">
    <path fill="#040000" d="M40.232 17.015h.156c9.438.035 15.994 6.914 16.41 7.363.823.97 1.82 1.748 2.923 2.265.274 1.43.934 2.77 1.916 3.86 6.277 13.295 1.318 19.68-3.485 25.865-2.212 2.85-4.303 5.54-5.003 8.966-.868 4.244.4 9.737 4.104 17.647H45.16c-.135-.68-.283-1.448-.443-2.32-1.45-7.887-3.864-15.587-15.766-15.587-1.18 0-2.413.052-3.84.11-1.78.076-3.796.16-6.175.16-.676 0-.774-.112-.89-.243-1.3-1.493-2.22-6.985-1.462-12.455.298-2.057-.22-4.117-1.39-5.77 3.372-3.062 6.668-7.736 9.198-14.843 1.39-3.9.3-7.237-1.075-9.646 4.655-3.646 10.14-5.37 16.917-5.37m0-8c-8.04 0-17.998 1.972-26.52 11.463-2.032 2.264 4.41 5.312 3.143 8.87-4.91 13.79-12.652 15.208-15.63 15.208-.773 0-1.225-.094-1.225-.094l8.665 7.038s-3.16 21.844 10.27 21.844c4.42 0 7.63-.27 10.017-.27 5.106-.002 6.463 1.24 7.897 9.034 1.48 8.055 2.163 8.87 2.163 8.87l31.62.005s-10.934-17.762-9.648-24.047c1.31-6.402 20.226-16.54 6.774-42.07-.098.204-.155.293-.174.293-.134 0 1.676-4.54 4.888-4.54 1.662 0 3.698 1.215 6.036 4.907 9.283 14.66-17.475 34.622-.093 49.08 3.224 2.68 6.84 4.076 10.284 4.076 4.46 0 8.633-2.337 11.3-7.245-.836.094-1.647.14-2.43.14-11.272 0-16.956-9.253-14.406-14.595 14.894-31.198.29-43.748-10.62-43.748-6.746 0-9.73 5.867-9.73 5.867S54.08 9.066 40.417 9.016h-.186z"/>
</svg>
