<?xml version="1.0" encoding="utf-8"?>
<!-- Generator: Adobe Illustrator 16.0.0, SVG Export Plug-In . SVG Version: 6.00 Build 0)  -->
<!DOCTYPE svg PUBLIC "-//W3C//DTD SVG 1.1//EN" "http://www.w3.org/Graphics/SVG/1.1/DTD/svg11.dtd">
<svg version="1.1" id="图层_1" xmlns="http://www.w3.org/2000/svg" xmlns:xlink="http://www.w3.org/1999/xlink" x="0px" y="0px"
	 width="32px" height="32px" viewBox="0 0 32 32" enable-background="new 0 0 32 32" xml:space="preserve">
<g>
	<path d="M1.994,13.676c0.607,0.16,1.235-0.203,1.396-0.813c1.466-5.555,6.614-9.434,12.518-9.434c5.049,0,9.636,2.914,11.849,7.306
		L25.88,10.13c-0.604-0.193-1.244,0.137-1.438,0.738c-0.193,0.601,0.137,1.245,0.737,1.438l4.146,1.334
		c0.124,0.045,0.254,0.074,0.39,0.074c0.106,0,0.216-0.015,0.323-0.047c0.605-0.179,0.951-0.814,0.772-1.419
		C28.882,5.709,22.754,1.143,15.909,1.143c-6.94,0-12.997,4.58-14.728,11.137C1.02,12.89,1.384,13.515,1.994,13.676z"/>
	<path d="M30.038,18.333c-0.605-0.182-1.241,0.168-1.419,0.772c-1.645,5.573-6.871,9.467-12.71,9.467
		c-5.125,0-9.676-2.926-11.748-7.331l1.955,0.674c0.123,0.043,0.249,0.063,0.372,0.063c0.474,0,0.917-0.298,1.081-0.771
		c0.206-0.597-0.112-1.247-0.708-1.452l-4.185-1.441c-0.379-0.132-0.771-0.032-1.066,0.199c-0.013,0.01-0.025,0.019-0.037,0.028
		c-0.079,0.066-0.144,0.143-0.203,0.23c-0.041,0.058-0.076,0.115-0.105,0.18c-0.011,0.025-0.032,0.043-0.042,0.07
		c-0.009,0.026-0.003,0.053-0.011,0.079c-0.035,0.114-0.049,0.23-0.047,0.354c0,0.011,0.001,0.021,0.002,0.033
		c0.004,0.078-0.007,0.154,0.014,0.233c1.731,6.558,7.788,11.137,14.728,11.137c6.845,0,12.973-4.566,14.902-11.105
		C30.989,19.146,30.644,18.511,30.038,18.333z"/>
	<path d="M15.273,6.967l-8.306,8.306c-0.446,0.446-0.446,1.17,0,1.617l8.306,8.306c0.223,0.223,0.516,0.334,0.808,0.334
		s0.585-0.111,0.809-0.334l8.306-8.306c0.446-0.447,0.446-1.17,0-1.617L16.89,6.967C16.442,6.521,15.719,6.521,15.273,6.967z"/>
</g>
</svg>
