<?xml version="1.0" encoding="UTF-8"?>
<svg width="62px" height="62px" viewBox="0 0 62 62" version="1.1" xmlns="http://www.w3.org/2000/svg" xmlns:xlink="http://www.w3.org/1999/xlink">
    <!-- Generator: Sketch 48.2 (47327) - http://www.bohemiancoding.com/sketch -->
    <title>买单高亮</title>
    <desc>Created with Sketch.</desc>
    <defs></defs>
    <g id="买单收益-切图" stroke="none" stroke-width="1" fill="none" fill-rule="evenodd">
        <g id="买单高亮">
            <circle id="Oval" fill="#FFA64B" cx="31" cy="31" r="31"></circle>
            <path d="M36.0060493,28.2 L40.8890285,23.6374257 L38.6777887,21.2125743 L34.582098,25.0395194 L31.204789,21.3100544 L28.8016158,23.5399456 L33.0216429,28.2 L27.2321241,28.2 L26.9061471,31.5 L32.5066321,31.5 L32.246211,33.975 L26.6616519,33.975 L26.3356251,37.275 L31.898983,37.275 L31.551755,40.575 L34.8104106,40.575 L35.1613872,37.275 L40.9244525,37.275 L41.2504296,33.975 L35.5123639,33.975 L35.7755964,31.5 L41.4949248,31.5 L41.8209516,28.2 L36.0060493,28.2 Z M16.9644028,43.6952678 C16.8956975,43.6990306 16.8259765,43.698461 16.7555324,43.6933061 C16.3025968,43.6601613 15.8843723,43.4384176 15.6027773,43.0821123 L12.3490103,38.965086 C11.9364611,38.4430831 11.88503,37.7219108 12.2193265,37.1466458 L16.2865352,30.1477012 C16.7105583,29.4180326 17.6167977,29.1429102 18.3674916,29.4912951 L16.9644028,43.6952678 Z M22.913635,16.6364751 C23.0029137,15.7326749 23.7999894,15 24.7066028,15 L47.5222735,15 C48.4232236,15 49.0809322,15.7355204 48.9919346,16.6364751 L46.0554539,46.3635249 C45.9661752,47.2673251 45.1690995,48 44.2624861,48 L21.4468153,48 C20.5458652,48 19.8881566,47.2644796 19.9771542,46.3635249 L22.913635,16.6364751 Z" id="Combined-Shape" fill="#FFFFFF"></path>
        </g>
    </g>
</svg>