<?xml version="1.0" encoding="utf-8"?>
<!-- Generator: Adobe Illustrator 16.0.0, SVG Export Plug-In . SVG Version: 6.00 Build 0)  -->
<!DOCTYPE svg PUBLIC "-//W3C//DTD SVG 1.1//EN" "http://www.w3.org/Graphics/SVG/1.1/DTD/svg11.dtd">
<svg version="1.1" id="图层_1" xmlns="http://www.w3.org/2000/svg" xmlns:xlink="http://www.w3.org/1999/xlink" x="0px" y="0px"
	 width="32px" height="32px" viewBox="0 0 32 32" enable-background="new 0 0 32 32" xml:space="preserve">
<title>买单</title>
<desc>Created with Sketch.</desc>
<g id="买单">
	<path id="Combined-Shape-Copy" d="M14.204,14.474H5.217c-0.988,0-1.788-0.833-1.788-1.878c0-1.037,0.808-1.878,1.788-1.878h6.525
		c0.562,0,0.825-0.414,0.589-0.922l-3.244-6.98C8.592,1.92,8.881,0.776,9.747,0.254c0.859-0.518,1.957-0.21,2.452,0.685L15.485,8
		c0.235,0.505,0.615,0.508,0.852,0l3.288-7.062c0.498-0.903,1.592-1.201,2.45-0.683c0.865,0.522,1.155,1.665,0.66,2.561L19.49,9.796
		c-0.236,0.509,0.031,0.922,0.582,0.922h6.711c0.988,0,1.788,0.833,1.788,1.878c0,1.037-0.808,1.878-1.788,1.878h-8.987v5.007h8.987
		c0.988,0,1.788,0.833,1.788,1.878c0,1.037-0.808,1.877-1.788,1.877h-8.987v6.881C17.796,31.157,16.999,32,16,32
		c-0.992,0-1.796-0.828-1.796-1.883v-6.881H5.217c-0.988,0-1.788-0.833-1.788-1.877c0-1.037,0.808-1.878,1.788-1.878h8.987V14.474z"
		/>
</g>
</svg>
