<?xml version="1.0" encoding="UTF-8" standalone="no"?>
<svg width="448px" height="54px" viewBox="0 0 448 54" version="1.1" xmlns="http://www.w3.org/2000/svg" xmlns:xlink="http://www.w3.org/1999/xlink" xmlns:sketch="http://www.bohemiancoding.com/sketch/ns">
    <!-- Generator: Sketch 3.3 (11970) - http://www.bohemiancoding.com/sketch -->
    <title>美团商家信息管理</title>
    <desc>Created with Sketch.</desc>
    <defs></defs>
    <g id="Page-1" stroke="none" stroke-width="1" fill="none" fill-rule="evenodd" sketch:type="MSPage">
        <g id="美团商家信息管理" sketch:type="MSLayerGroup" fill="#434343">
            <path d="M19.1395015,39.9122876 L0,39.9122876 L0,33.9281266 L21.9966512,33.9281266 L21.9966512,31.9334063 L27.9957379,31.9334063 L27.9957379,33.9281266 L49.9923891,33.9281266 L49.9923891,39.9122876 L30.8528875,39.9122876 C34.3016787,43.9510984 40.3388984,47.8400375 49.9923891,47.8400373 L49.9923891,53.87533 C36.2619956,53.87533 28.8339329,48.0250528 24.9961946,42.250038 C21.1584562,48.0250528 13.7303935,53.87533 0,53.87533 L0,47.8400373 C9.65349066,47.8400375 15.6907104,43.9510984 19.1395015,39.9122876 L19.1395015,39.9122876 Z M38.3941548,4.00732153 L49.9923891,4.00732153 L49.9923891,9.99148254 L0,9.99148254 L0,4.00732153 L11.5982343,4.00732153 L9.99847782,0.0178808504 L15.9788296,0.0178808504 C17.093578,0.0178808504 18.324547,0.834062546 18.7401419,1.87046482 L19.5970165,4.00732153 L30.3953726,4.00732153 L31.2522471,1.87046482 C31.6678421,0.834062546 32.898811,0.0178808504 34.0135595,0.0178808504 L39.9939113,0.0178808504 L38.3941548,4.00732153 L38.3941548,4.00732153 Z M21.9966512,13.9809232 L1.99969556,13.9809232 L1.99969556,19.9650842 L21.9966512,19.9650842 L21.9966512,23.9545249 L0,23.9545249 L0,29.9386859 L49.9923891,29.9386859 L49.9923891,23.9545249 L27.9957379,23.9545249 L27.9957379,19.9650842 L47.9926935,19.9650842 L47.9926935,13.9809232 L27.9957379,13.9809232 L27.9957379,9.99148254 L21.9966512,9.99148254 L21.9966512,13.9809232 Z M87.9866048,15.9756436 L87.9866048,9.99148254 L93.9856915,9.99148254 L93.9856915,15.9756436 L99.9847782,15.9756436 L99.9847782,21.9598046 L93.9856915,21.9598046 L93.9856915,41.9168034 C93.9856915,44.1159158 92.1969714,45.8964486 89.9904736,45.8964486 L81.9875181,45.8964486 L81.9875181,39.9122876 L85.9889957,39.9122876 C87.101419,39.9122876 87.9866048,39.0125373 87.9866048,37.9026388 L87.9866048,21.9598046 L87.9866048,26.6582285 L69.9893447,42.649071 L69.9893447,35.0174154 L84.6859127,21.9598046 L67.9896492,21.9598046 L67.9896492,15.9756436 L87.9866048,15.9756436 Z M59.9908669,2.01260123 L59.9908669,53.8223468 L103.925369,53.8223468 C106.137172,53.8223468 107.930193,52.0389382 107.930193,49.8429506 L107.930195,2.01260123 L59.9908669,2.01260123 L59.9908669,2.01260123 Z M352.05773,45.8964486 L377.942462,45.8964486 L377.942462,49.8858893 L352.05773,49.8858893 L352.05773,45.8964486 L352.05773,45.8964486 Z M349.826073,53.858158 C349.865253,53.8694557 349.906051,53.87533 349.948467,53.87533 L378.941438,53.87533 L381.941853,53.87533 L381.941853,41.907008 L378.942349,41.907008 L352.05773,41.907008 L352.05773,37.9175673 L378.941438,37.9175673 L381.941853,37.9175673 L381.941853,25.9492452 L378.942349,25.9492452 L349.946644,25.9492452 C349.807849,25.9492452 349.686495,26.0138905 349.582669,26.126723 C348.707753,26.3395219 348.058339,27.12648 348.058339,28.0647397 L348.058339,51.8767138 C348.058339,52.9001045 348.830946,53.7434924 349.826073,53.858158 L349.826073,53.858158 Z M352.05773,29.9386859 L377.942462,29.9386859 L377.942462,33.9281266 L352.05773,33.9281266 L352.05773,29.9386859 L352.05773,29.9386859 Z M65.9899536,47.8911706 L65.9899536,7.99676216 L101.984474,7.99676216 L101.984474,45.9128005 C101.984474,47.0054242 101.094717,47.8911706 99.9979808,47.8911706 L65.9899536,47.8911706 Z M360.161197,16.8545608 C359.667294,15.8692119 360.067682,14.6710371 361.055488,14.1783627 C362.043295,13.6856882 363.244458,14.0850798 363.738361,15.0704287 L365.244187,18.0745878 L386.071107,18.0745878 C387.175508,18.0745878 388.070802,18.9676545 388.070802,20.0693081 L388.070802,23.9427006 C388.070802,25.0443541 387.175508,25.9374209 386.071107,25.9374209 C384.966706,25.9374209 384.071411,25.0443541 384.071411,23.9427006 L384.071411,22.0640281 L386.071107,22.0640285 L343.957889,22.0640285 L345.957585,22.0640281 L345.957585,24.075299 C345.957585,25.1769526 345.062291,26.0700194 343.957889,26.0700194 C342.853488,26.0700194 341.958194,25.1769526 341.958194,24.075299 L341.958194,20.0693081 C341.958194,18.9676545 342.853488,18.0745878 343.957889,18.0745878 L360.772732,18.0745878 L360.161197,16.8545608 Z M379.659869,9.97297684 L386.066783,9.97297684 C387.171184,9.97297684 388.066478,9.07991013 388.066478,7.9782565 C388.066478,6.87660288 387.171184,5.98353617 386.066783,5.98353617 L375.138019,5.98353617 C375.206294,5.89373441 375.272778,5.80621871 375.337357,5.72114188 C375.601281,5.37308648 375.601281,5.37308648 375.660632,5.29452906 C376.325317,4.41473859 376.14916,3.16403509 375.267175,2.50100459 C374.38519,1.8379741 373.131367,2.01369277 372.466683,2.89348324 C372.236255,3.19848206 371.829677,3.73410568 371.303262,4.42327691 C370.425971,5.57180903 369.541153,6.72016971 368.705518,7.7908023 C368.60752,7.91631296 368.60752,7.91631296 368.509482,8.04168622 C366.693647,10.3628991 365.341209,12.0087309 364.977111,12.3356039 C364.156216,13.0725713 364.08967,14.3338127 364.828475,15.1526653 C365.567281,15.971518 366.831668,16.0378992 367.652563,15.3009318 C368.280562,14.7371393 369.616884,13.1109188 371.662503,10.4959684 C371.761925,10.3688263 371.761925,10.3688263 371.861243,10.2416241 C371.930746,10.1525755 372.000572,10.0630124 372.070691,9.97297696 L372.070691,9.97297684 L374.867937,9.97297684 L378.403056,15.3158906 C379.011406,16.2353411 380.251793,16.4887641 381.173537,15.8819268 C382.095281,15.2750895 382.349336,14.0377888 381.740985,13.1183383 L379.659869,9.97297684 Z M355.663522,9.97297684 L362.070436,9.97297684 C363.174837,9.97297684 364.070132,9.07991013 364.070132,7.9782565 C364.070132,6.87660288 363.174837,5.98353617 362.070436,5.98353617 L351.141672,5.98353617 C351.209947,5.89373441 351.276431,5.80621871 351.341011,5.72114188 C351.604935,5.37308648 351.604935,5.37308648 351.664286,5.29452906 C352.32897,4.41473859 352.152813,3.16403509 351.270828,2.50100459 C350.388843,1.8379741 349.13502,2.01369277 348.470336,2.89348324 C348.239909,3.19848206 347.83333,3.73410568 347.306915,4.42327691 C346.429624,5.57180903 345.544806,6.72016971 344.709171,7.7908023 C344.611174,7.91631296 344.611174,7.91631296 344.513135,8.04168622 C342.6973,10.3628991 341.344863,12.0087309 340.980765,12.3356039 C340.15987,13.0725713 340.093323,14.3338127 340.832129,15.1526653 C341.570934,15.971518 342.835321,16.0378992 343.656216,15.3009318 C344.284215,14.7371393 345.620537,13.1109188 347.666156,10.4959684 C347.765578,10.3688263 347.765578,10.3688263 347.864896,10.2416241 C347.934399,10.1525755 348.004226,10.0630124 348.074344,9.97297696 L348.074344,9.97297684 L350.87159,9.97297684 L354.406709,15.3158906 C355.01506,16.2353411 356.255446,16.4887641 357.17719,15.8819268 C358.098934,15.2750895 358.352989,14.0377888 357.744638,13.1183383 L355.663522,9.97297684 Z M130.002409,14.2964686 C129.258246,13.4824571 129.316516,12.2208082 130.132558,11.4784971 C130.9486,10.736186 132.213395,10.7943108 132.957558,11.6083224 L138.456721,17.623651 C138.555814,17.7320455 138.640679,17.8483776 138.711421,17.9703639 L148.569533,17.9703639 C148.6473,17.8085983 148.748412,17.6546826 148.873177,17.5134371 C149.83497,16.4245939 149.83497,16.4245939 150.989122,15.1179822 C153.297425,12.5047587 153.297425,12.5047587 154.06686,11.6336842 C154.796981,10.8071167 156.060597,10.7274586 156.889226,11.4557628 C157.717855,12.184067 157.797712,13.4445395 157.067591,14.271107 C156.298156,15.1421814 156.298156,15.1421814 153.989853,17.7554049 C153.922804,17.8313113 153.859649,17.9028079 153.799976,17.9703645 L163.975036,17.9703639 C165.079438,17.9703639 165.974732,18.8634307 165.974732,19.9650842 L165.974732,45.8775435 C165.974732,50.289373 162.398945,53.87533 157.994685,53.87533 L155.976254,53.87533 C154.871853,53.87533 153.976558,52.9822632 153.976558,51.8806096 C153.976558,50.7789561 154.871853,49.8858893 155.976254,49.8858893 L157.994685,49.8858893 C160.185355,49.8858893 161.975341,48.0908127 161.975341,45.8775435 L161.975341,19.9650842 L161.975341,21.9598047 L123.981125,21.9598047 L123.981125,19.9650842 L123.981125,52.0052797 C123.981125,53.1069332 123.085831,54 121.981429,54 C120.877028,54 119.981734,53.1069332 119.981734,52.0052797 L119.981734,19.9650842 C119.981734,18.8634307 120.877028,17.9703639 121.981429,17.9703639 L133.361053,17.9703639 L130.002409,14.2964686 Z M144.872046,6.00204186 L165.974732,6.00204186 C167.079133,6.00204186 167.974427,6.89510858 167.974427,7.9967622 C167.974427,9.09841583 167.079133,9.99148254 165.974732,9.99148254 L119.981734,9.99148254 C118.877333,9.99148254 117.982038,9.09841583 117.982038,7.9967622 C117.982038,6.89510858 118.877333,6.00204186 119.981734,6.00204186 L140.489146,6.00204186 L139.062922,2.82860021 C137.97221,0.401693708 141.621649,-1.23030435 142.712362,1.19660217 L144.872046,6.00204186 L144.872046,6.00204186 Z M151.976863,35.9228469 L149.977167,35.9228469 L149.977167,45.8964486 L149.977167,43.9017283 L135.979298,43.9017283 L135.979298,45.8964486 L135.979298,35.9228469 L133.979603,35.9228469 L151.976863,35.9228469 Z M133.979603,31.9334063 C132.875202,31.9334063 131.979907,32.8264731 131.979907,33.9281266 L131.979907,45.8964486 C131.979907,46.9981022 132.875202,47.891169 133.979603,47.891169 L151.976863,47.891169 C153.081264,47.891169 153.976558,46.9981022 153.976558,45.8964486 L153.976558,33.9281266 C153.976558,32.8264731 153.081264,31.9334063 151.976863,31.9334063 L133.979603,31.9334063 L133.979603,31.9334063 Z M127.786015,35.2867909 C131.816446,32.6623722 135.669022,29.7770553 139.31804,26.6515304 C140.155929,25.9338458 140.251923,24.6744939 139.532449,23.8386891 C138.812974,23.0028845 137.550481,22.9071294 136.712592,23.624814 C133.196207,26.636733 129.483687,29.4171573 125.599864,31.9461122 C124.675061,32.5482992 124.414745,33.7843045 125.018434,34.7068074 C125.622123,35.6293103 126.861211,35.8889778 127.786015,35.2867909 L127.786015,35.2867909 Z M146.213034,27.4018044 C150.304713,29.5858933 154.247865,32.0352946 158.015993,34.732253 C158.913309,35.3744881 160.16266,35.1695141 160.806498,34.2744306 C161.450335,33.3793469 161.244849,32.1331037 160.347533,31.4908686 C156.437528,28.6923639 152.345876,26.1507178 148.100002,23.8843215 C147.126253,23.3645463 145.914462,23.7306004 145.39339,24.7019265 C144.872318,25.6732523 145.239285,26.8820289 146.213034,27.4018044 Z M223.965903,6.00204186 C225.070305,6.00204186 225.965599,6.89510858 225.965599,7.9967622 L225.965599,13.9809232 C225.965599,15.0825767 225.070305,15.9756436 223.965903,15.9756436 C222.861501,15.9756436 221.966208,15.0825767 221.966208,13.9809232 L221.966208,9.99148299 L223.965903,9.99148254 L179.972601,9.99148254 L181.972296,9.99148299 L181.972296,13.9809232 C181.972296,15.0825767 181.077002,15.9756436 179.972601,15.9756436 C178.8682,15.9756436 177.972905,15.0825767 177.972905,13.9809232 L177.972905,7.9967622 C177.972905,6.89510858 178.8682,6.00204186 179.972601,6.00204186 L200.235622,6.00204186 L198.855751,2.9829081 C197.749711,0.562913907 201.388756,-1.09201811 202.494796,1.32797611 L204.631043,6.00204186 L223.965903,6.00204186 Z M197.836468,19.9650842 C197.552975,20.2141003 197.356211,20.5274529 197.250539,20.8654429 C191.71406,24.2118851 185.742183,26.8782521 179.467908,28.7840097 C178.4114,29.104915 177.815726,30.2193975 178.137431,31.2732763 C178.459137,32.3271551 179.576399,32.9213478 180.632907,32.6004425 C187.094235,30.6378691 193.251449,27.9072272 198.973006,24.48782 C199.559817,25.2810433 200.110123,26.0723827 200.623769,26.8637796 C194.206691,31.803623 187.051478,35.7170943 179.399916,38.4433648 C178.359871,38.8139356 177.817904,39.9553678 178.189399,40.9928254 C178.560894,42.0302829 179.705173,42.5709015 180.745218,42.2003308 C188.625767,39.3924721 196.004809,35.3879445 202.643491,30.3460702 C203.151414,31.3416364 203.601591,32.3417411 203.993718,33.3501855 C196.727388,39.4217725 188.34256,44.1993685 179.228987,47.4176972 C178.187899,47.7853427 177.642709,48.9252469 178.011272,49.9637446 C178.379834,51.0022423 179.522581,51.5460757 180.563669,51.1784302 C189.588289,47.991514 197.935112,43.3457927 205.260169,37.4738373 C205.731665,39.5523186 205.968643,41.6847676 205.968643,43.9017283 L205.968643,46.8896688 C205.968643,48.5430105 204.624096,49.8858893 202.9691,49.8858893 L197.969861,49.8858893 C196.86546,49.8858893 195.970165,50.7789561 195.970165,51.8806096 C195.970165,52.9822632 196.86546,53.87533 197.969861,53.87533 L202.9691,53.87533 C206.834017,53.87533 209.968034,50.7452031 209.968034,46.8896688 L209.968034,43.9017283 C209.968034,39.9433689 209.304537,36.232236 208.004507,32.6486158 C208.867544,32.3305601 209.444144,32.1180647 210.081933,31.88302 C212.812657,38.5729638 217.878134,44.1624632 224.363939,47.6641694 C225.335199,48.1885562 226.54872,47.8282521 227.074416,46.8594078 C227.60011,45.8905636 227.238907,44.6800606 226.267647,44.1556739 C220.630473,41.1121462 216.226543,36.2745219 213.835767,30.4996168 C221.064839,27.8354819 221.088439,27.8267843 223.545029,26.9214556 C224.58099,26.5396721 225.110533,25.3924524 224.727797,24.3590686 C224.345061,23.3256847 223.194981,22.7974585 222.15902,23.1792419 C219.6786,24.0933527 219.6786,24.0933527 212.237345,26.8356844 L206.430555,28.9756649 C205.325481,26.7421797 203.966414,24.543585 202.360304,22.3490314 C203.499625,21.5899044 204.619415,20.8023364 205.718533,19.9870162 C205.728292,19.9797769 205.737966,19.9724659 205.747555,19.9650842 L219.966512,19.9650842 C221.070914,19.9650842 221.966208,19.0720174 221.966208,17.9703639 C221.966208,16.8687104 221.070914,15.9756436 219.966512,15.9756436 L183.971992,15.9756436 C182.867591,15.9756436 181.972296,16.8687104 181.972296,17.9703639 C181.972296,19.0720174 182.867591,19.9650842 183.971992,19.9650842 L197.836468,19.9650842 Z M262.215892,8.08198585 L259.4827,4.58856249 C258.803222,3.72008964 258.95819,2.46659812 259.828827,1.78881084 C260.699467,1.11102356 261.956086,1.26560475 262.635562,2.1340776 L266.663273,7.28208536 C266.853732,7.52552081 266.978631,7.79920708 267.040581,8.08198585 L282.18458,8.08198585 C283.28898,8.08198585 284.184275,8.97505257 284.184275,10.0767062 C284.184275,11.1783598 283.28898,12.0714265 282.18458,12.0714265 L248.064774,12.0714265 C246.960372,12.0714265 246.065079,11.1783598 246.065079,10.0767062 C246.065079,8.97505257 246.960372,8.08198585 248.064774,8.08198585 L262.215892,8.08198585 Z M239.996177,19.0677324 C239.902583,19.2333249 239.808977,19.3983718 239.715375,19.5628445 C238.629041,21.4716813 237.572892,23.2492038 236.55588,24.8709182 C235.437953,26.6535541 234.377252,28.2321015 233.38046,29.5843655 C232.726224,30.471914 231.474564,30.6623699 230.584802,30.0097608 C229.695041,29.3571517 229.50411,28.1086074 230.158346,27.221059 C231.090475,25.9565188 232.096933,24.4586953 233.165259,22.7551562 C234.150025,21.1848563 235.17761,19.4554073 236.237347,17.5933079 C238.069956,14.3731664 239.909368,10.9172607 241.664243,7.46061539 C242.278707,6.25027859 242.838522,5.12667195 243.332439,4.11894789 C243.627946,3.51603354 243.8352,3.08703516 243.942986,2.86105177 C244.417474,1.86625424 245.610574,1.44350185 246.607854,1.91680786 C247.605132,2.39011386 248.02894,3.58024694 247.554452,4.57504447 C247.440747,4.81343697 247.227354,5.25514333 246.925398,5.87121566 C246.423542,6.89513607 245.855447,8.03536182 245.2322,9.26299837 C244.822808,10.069392 244.408843,10.8758247 243.991364,11.6795129 C243.994152,11.7226206 243.995568,11.7661012 243.995568,11.8099117 L243.995568,51.7135714 C243.995568,52.8152249 243.100274,53.7082917 241.995872,53.7082917 C240.891472,53.7082917 239.996177,52.8152249 239.996177,51.7135714 L239.996177,19.0677326 L239.996177,19.0677324 L239.996177,19.0677324 Z M252.064165,20.0503079 L278.185189,20.0503079 C279.289589,20.0503079 280.184884,19.1572412 280.184884,18.0555875 C280.184884,16.953934 279.289589,16.0608672 278.185189,16.0608672 L252.064165,16.0608672 C250.959764,16.0608672 250.06447,16.953934 250.06447,18.0555875 C250.06447,19.1572412 250.959764,20.0503079 252.064165,20.0503079 L252.064165,20.0503079 Z M252.064165,28.0291892 L278.185189,28.0291892 C279.289589,28.0291892 280.184884,27.1361226 280.184884,26.0344689 C280.184884,24.9328154 279.289589,24.0397485 278.185189,24.0397485 L252.064165,24.0397485 C250.959764,24.0397485 250.06447,24.9328154 250.06447,26.0344689 C250.06447,27.1361226 250.959764,28.0291892 252.064165,28.0291892 L252.064165,28.0291892 Z M277.957683,37.9175673 L275.957988,37.9175673 L275.957988,47.891169 L277.957683,47.891169 L251.961641,47.891169 L253.961337,47.891169 L253.961337,37.9175673 L251.961641,37.9175673 L277.957683,37.9175673 Z M249.961946,35.9228469 L249.961946,49.8858893 C249.961946,50.9875428 250.857239,51.8806096 251.961641,51.8806096 L277.957683,51.8806096 C279.062085,51.8806096 279.957379,50.9875428 279.957379,49.8858893 L279.957379,35.9228469 C279.957379,34.8211934 279.062085,33.9281266 277.957683,33.9281266 L251.961641,33.9281266 C250.857239,33.9281266 249.961946,34.8211934 249.961946,35.9228469 Z M304.72803,7.9967622 L293.955248,7.9967622 L293.955248,35.9228469 L329.949768,35.9228469 L329.949768,26.164303 C329.954455,26.1085775 329.956847,26.0522003 329.956847,25.995266 C329.956847,25.9383317 329.954455,25.8819546 329.949768,25.826229 L329.949768,18.1854217 C329.954455,18.1296962 329.956847,18.073319 329.956847,18.0163847 C329.956847,17.9594504 329.954455,17.9030732 329.949768,17.8473477 L329.949768,7.9967622 L309.947281,7.9967622 L312.841501,5.12042682 C313.623878,4.34288547 313.626225,3.07990058 312.846744,2.29947112 C312.067263,1.51904165 310.801127,1.51670039 310.018752,2.29424176 L305.269475,7.01417082 C304.98801,7.29389662 304.8075,7.6364509 304.72803,7.9967622 Z M325.950377,24.0005457 L325.950377,20.011105 L298.086699,20.011105 C298.042326,20.011105 297.998292,20.0096634 297.954639,20.0068246 L297.954639,24.0048262 C297.998292,24.0019873 298.042326,24.0005457 298.086699,24.0005457 L325.950377,24.0005457 L325.950377,24.0005457 Z M325.950377,27.9899864 L325.950377,31.9334063 L297.954639,31.9334063 L297.954639,27.9857059 C297.998292,27.9885448 298.042326,27.9899864 298.086699,27.9899864 L325.950377,27.9899864 L325.950377,27.9899864 Z M325.950377,16.0216643 L325.950377,11.9862029 L297.954639,11.9862029 L297.954639,16.0259448 C297.998292,16.0231059 298.042326,16.0216643 298.086699,16.0216643 L325.950377,16.0216643 L325.950377,16.0216643 Z M292.119081,39.4305469 C292.003487,39.7188169 291.787576,40.2365182 291.494073,40.9059089 C291.004785,42.0218203 290.482493,43.1367869 289.951781,44.1705079 C289.443179,45.161164 288.954497,46.0218794 288.50311,46.709126 C287.964198,47.5296287 287.508281,48.0312428 287.414474,48.0728307 C286.405259,48.5202545 285.950743,49.699058 286.399282,50.7057618 C286.847822,51.7124657 288.029566,52.1658515 289.03878,51.7184277 C290.051108,51.2696238 290.90905,50.3256908 291.848445,48.8954442 C292.387561,48.0746308 292.943102,47.0961564 293.511519,45.9889897 C294.083288,44.8752938 294.63878,43.6894567 295.158313,42.5045645 C295.470101,41.7934727 295.701988,41.2374657 295.832424,40.9121881 C296.242588,39.8893284 295.743832,38.72846 294.718422,38.3193161 C293.69301,37.9101722 292.529247,38.4076872 292.119081,39.4305469 L292.119081,39.4305469 Z M310.788471,41.5818478 L314.5379,45.3219484 C315.318832,46.1009352 316.584967,46.1009352 317.365898,45.3219484 C318.146827,44.5429617 318.146827,43.2799746 317.365898,42.5009878 L313.616469,38.7608872 C312.835538,37.9819004 311.569402,37.9819004 310.788471,38.7608872 C310.007542,39.5398739 310.007542,40.802861 310.788471,41.5818478 L310.788471,41.5818478 Z M328.759337,41.5034002 L334.508462,47.7369013 C335.256204,48.5476424 336.521244,48.6002212 337.334008,47.8543394 C338.14677,47.1084577 338.19948,45.8465655 337.451738,45.0358243 L331.702613,38.8023233 C330.954871,37.9915824 329.689832,37.9390035 328.877067,38.6848853 C328.064305,39.4307671 328.011595,40.6926591 328.759337,41.5034002 L328.759337,41.5034002 Z M298.105494,41.9118779 L298.105494,47.8960389 L298.138925,48.2592475 C298.270579,48.9684283 298.577964,49.9236815 299.162521,50.9076696 C300.232802,52.7092827 301.884873,53.8801999 304.104581,53.8801999 C305.395574,53.8801999 308.838614,53.8787717 313.770965,53.8763243 C314.522023,53.8759503 314.522023,53.8759503 315.268267,53.8755731 C318.639612,53.8738383 318.639612,53.8738383 321.338733,53.8723926 C323.467481,53.8712358 323.467481,53.8712358 323.986948,53.8709468 C324.825408,53.8285895 325.808079,53.6462713 326.834988,53.1854342 C329.075977,52.1797656 330.405727,50.2047974 329.959405,47.4444918 C329.783549,46.3568941 328.757118,45.6174271 327.666808,45.792846 C326.576496,45.9682651 325.835185,46.9921425 326.011042,48.0797403 C326.140862,48.8826282 325.909561,49.2261629 325.194142,49.5472145 C324.699501,49.7691898 324.160623,49.8691698 323.877898,49.8844142 C323.465279,49.8817957 323.465279,49.8817957 321.336573,49.8829525 C318.6375,49.8843982 318.6375,49.8843982 315.266234,49.8861331 C314.520009,49.8865101 314.520009,49.8865101 313.768975,49.8868843 C308.837522,49.889331 305.394598,49.8907592 304.104581,49.8907592 C303.472857,49.8907592 303.014135,49.5656364 302.603165,48.873849 C302.298972,48.3617969 302.124954,47.8210097 302.071456,47.5328302 L302.104885,47.8960389 L302.104885,41.9118779 C302.104885,40.8102243 301.209592,39.9171575 300.10519,39.9171575 C299.00079,39.9171575 298.105494,40.8102243 298.105494,41.9118779 Z M439.933024,7.9967622 L439.933024,13.9853062 L432.005031,13.9853062 L432.005031,7.99871017 C432.005031,7.99806079 439.933024,7.9967622 439.933024,7.9967622 Z M428.005642,7.9967622 L419.936068,7.9967622 L419.936068,13.9853062 L428.00564,13.9853062 L428.00564,7.99871017 C428.00564,7.99806079 428.005642,7.99741144 428.005642,7.9967622 L428.005642,7.9967622 Z M432.005031,23.9545249 L439.933024,23.9545249 L439.933024,17.9747469 L432.005031,17.9747469 L432.005031,23.9545249 L432.005031,23.9545249 Z M428.00564,23.9545249 L419.936068,23.9545249 L419.936068,17.9747469 L428.00564,17.9747469 L428.00564,23.9545249 L428.00564,23.9545249 Z M432.005031,27.9439656 L441.919032,27.9439656 C443.032654,27.9439656 443.932415,27.04869 443.932415,25.9443117 L443.932415,6.00697539 C443.932415,4.91643718 443.030992,4.00732153 441.919032,4.00732153 L417.950061,4.00732153 C416.836438,4.00732153 415.936677,4.90259706 415.936677,6.00697539 L415.936677,25.9443117 C415.936677,27.0348498 416.8381,27.9439656 417.950061,27.9439656 L428.00564,27.9439656 L428.00564,35.9272299 L416.004783,35.9272299 C414.900381,35.9272299 414.005087,36.8202966 414.005087,37.9219503 C414.005087,39.0236038 414.900381,39.9166706 416.004783,39.9166706 L428.00564,39.9166706 L428.00564,47.895552 L414.005087,47.895552 C412.900686,47.895552 412.005392,48.7886186 412.005392,49.8902723 C412.005392,50.9919258 412.900686,51.8849926 414.005087,51.8849926 L446.000304,51.8849926 C447.104706,51.8849926 448,50.9919258 448,49.8902723 C448,48.7886186 447.104706,47.895552 446.000304,47.895552 L432.005031,47.895552 L432.005031,39.9166706 L444.000609,39.9166706 C445.105011,39.9166706 446.000304,39.0236038 446.000304,37.9219503 C446.000304,36.8202966 445.105011,35.9272299 444.000609,35.9272299 L432.005031,35.9272299 L432.005031,27.9439656 L432.005031,27.9439656 Z M396.128169,9.99245652 C395.023769,9.99245652 394.128473,9.09938981 394.128473,7.99773618 C394.128473,6.89608256 395.023769,6.00301585 396.128169,6.00301585 L411.969019,6.00301585 C413.073421,6.00301585 413.968715,6.89608256 413.968715,7.99773618 C413.968715,9.09938981 413.073421,9.99245652 411.969019,9.99245652 L406.022205,9.99245652 C406.022833,10.0129959 406.023147,21.9607786 406.023147,21.9607786 L411.969019,21.9607786 C413.073421,21.9607786 413.968715,22.8538452 413.968715,23.9554989 C413.968715,25.0571525 413.073421,25.9502193 411.969019,25.9502193 L406.023147,25.9502193 L406.023147,41.0032895 L409.460511,40.0043284 C410.520828,39.6961806 411.630811,40.303796 411.939728,41.3614753 C412.248645,42.4191548 411.639514,43.5263764 410.579197,43.8345242 L396.646502,47.8836213 C395.586186,48.1917691 394.476203,47.5841538 394.167286,46.5264745 C393.858369,45.4687949 394.4675,44.3615734 395.527818,44.0534256 L402.023755,42.1655861 L402.023755,25.9502193 L396.128169,25.9502193 C395.023769,25.9502193 394.128473,25.0571525 394.128473,23.9554989 C394.128473,22.8538452 395.023769,21.9607786 396.128169,21.9607786 L402.023755,21.9607786 L402.023755,10.0543045 C402.023755,10.0336134 396.128169,9.99245652 396.128169,9.99245652 Z" id="美-3" sketch:type="MSShapeGroup"></path>
        </g>
    </g>
</svg>