<?xml version="1.0" encoding="utf-8"?>
<!-- Generator: Adobe Illustrator 16.0.0, SVG Export Plug-In . SVG Version: 6.00 Build 0)  -->
<!DOCTYPE svg PUBLIC "-//W3C//DTD SVG 1.1//EN" "http://www.w3.org/Graphics/SVG/1.1/DTD/svg11.dtd">
<svg version="1.1" id="图层_1" xmlns="http://www.w3.org/2000/svg" xmlns:xlink="http://www.w3.org/1999/xlink" x="0px" y="0px"
	 width="100px" height="100px" viewBox="0 0 100 100" enable-background="new 0 0 100 100" xml:space="preserve">
<g>
	<g>
		<path d="M47.293,77.564c0.673,0.76,1.653,1.201,2.68,1.201h0.015c1.022,0,2-0.43,2.674-1.176c0.869-0.963,1.799-1.984,2.773-3.053
			c10.752-11.76,25.678-27.11,25.678-41.63c0-16.514-13.867-29.951-30.915-29.951c-17.046,0-30.915,13.437-30.915,29.951
			c0,14.236,14.18,29.369,24.691,40.97C45.152,75.182,46.272,76.412,47.293,77.564z M50.198,9.837
			c13.134,0,23.817,10.35,23.817,23.069c0,15.801-16.871,28.818-23.79,37.552c-6.976-8.355-23.84-21.825-23.84-37.552
			C26.386,20.187,37.069,9.837,50.198,9.837z M63.693,31.197c0-7.206-6.053-13.071-13.495-13.071
			c-7.438,0-13.491,5.865-13.491,13.071c0,7.213,6.052,13.076,13.491,13.076C57.641,44.273,63.693,38.41,63.693,31.197z
			 M50.198,37.39c-3.521,0-6.388-2.777-6.388-6.193c0-3.415,2.867-6.192,6.388-6.192c3.528,0,6.394,2.778,6.394,6.192
			C56.592,34.613,53.727,37.39,50.198,37.39z M99.699,92.217L87.301,64.73c-0.568-1.248-1.844-2.057-3.252-2.057h-9.225
			c-1.961,0-3.547,1.543-3.547,3.443c0,1.904,1.586,3.441,3.547,3.441h6.91l9.273,20.6H9.226l10.26-20.6h5.743
			c1.96,0,3.55-1.537,3.55-3.436c0-1.906-1.59-3.443-3.55-3.443h-7.969c-1.361,0-2.601,0.754-3.195,1.936L0.356,92.1
			c-0.534,1.066-0.463,2.324,0.187,3.326c0.649,1.004,1.785,1.619,3.011,1.619h92.892c1.201,0,2.324-0.59,2.977-1.564
			C100.08,94.514,100.182,93.283,99.699,92.217z"/>
	</g>
</g>
</svg>
