<?xml version="1.0" encoding="utf-8"?>
<!-- Generator: Adobe Illustrator 16.0.0, SVG Export Plug-In . SVG Version: 6.00 Build 0)  -->
<!DOCTYPE svg PUBLIC "-//W3C//DTD SVG 1.1//EN" "http://www.w3.org/Graphics/SVG/1.1/DTD/svg11.dtd">
<svg version="1.1" id="图层_1" xmlns="http://www.w3.org/2000/svg" xmlns:xlink="http://www.w3.org/1999/xlink" x="0px" y="0px"
	 width="32px" height="32px" viewBox="0 0 32 32" enable-background="new 0 0 32 32" xml:space="preserve">
<title>营销大学</title>
<desc>Created with Sketch.</desc>
<g>
	<path d="M28.865,8.759l-9.143-6.557c-2.057-1.475-5.389-1.475-7.445,0L3.135,8.759c-1.706,1.224-1.974,3.071-0.849,4.51v11.874
		c0,0.631,0.512,1.143,1.143,1.143s1.143-0.512,1.143-1.143V15.128l7.706,5.526c2.056,1.475,5.389,1.475,7.445,0l9.143-6.556
		C30.922,12.624,30.922,10.233,28.865,8.759z"/>
	<path d="M23.9,19.664l-4.25,3.198c-2.016,1.518-5.279,1.522-7.301,0L8.1,19.664c-1.011-0.762-1.631-0.385-1.381,0.865l0.94,4.701
		c0.495,2.477,2.936,4.484,5.465,4.484h5.753c2.522,0,4.969-2.004,5.465-4.484l0.939-4.701C25.529,19.291,24.918,18.897,23.9,19.664
		z"/>
</g>
</svg>
