<?xml version="1.0" encoding="utf-8"?>
<!-- Generator: Adobe Illustrator 16.0.0, SVG Export Plug-In . SVG Version: 6.00 Build 0)  -->
<!DOCTYPE svg PUBLIC "-//W3C//DTD SVG 1.1//EN" "http://www.w3.org/Graphics/SVG/1.1/DTD/svg11.dtd">
<svg version="1.1" id="图层_1" xmlns="http://www.w3.org/2000/svg" xmlns:xlink="http://www.w3.org/1999/xlink" x="0px" y="0px"
	 width="32px" height="32px" viewBox="0 0 32 32" enable-background="new 0 0 32 32" xml:space="preserve">
<title>营销中心</title>
<desc>Created with Sketch.</desc>
<path id="Combined-Shape-Copy-8" d="M15.738,31.998C9.765,31.643,2.135,28.96,1.126,18.234v-2.408c0-0.634,0.402-0.833,0.899-0.452
	c0,0,4.443,3.49,4.056,2.466c0,0-0.406-1.264-0.413-2.762C5.625,6.24,14.205,0.416,14.205,0.416c0.98-0.804,1.868-0.399,1.958,0.856
	c0,0,0.229,7.137,2.541,9.287c0.896,0.833,1.438,0.13,1.438,0.13c0-4.19,3.729-5.259,3.729-5.259
	c0.573-0.267,0.923,0.043,0.769,0.651c0,0-0.7,1.583,0.28,4.148c0.98,2.564,5.39,3.346,5.936,10.768
	c0.229,3.123-1.768,6.661-5.417,8.873c-2.592,0.949-5.497-1.417-5.348-4.343c0.067-1.32-0.912-6.428-4.933-8.056
	c1.818,2.615,1.838,5.024,0.913,7.433c-0.925,2.408-0.878,3.442-0.879,3.841c-0.004,1.156,0.191,2.064,0.714,2.66
	C16.14,31.67,16.125,32.029,15.738,31.998z"/>
</svg>
