<?xml version="1.0" encoding="utf-8"?>
<!-- Generator: Adobe Illustrator 16.0.0, SVG Export Plug-In . SVG Version: 6.00 Build 0)  -->
<!DOCTYPE svg PUBLIC "-//W3C//DTD SVG 1.1//EN" "http://www.w3.org/Graphics/SVG/1.1/DTD/svg11.dtd">
<svg version="1.1" id="图层_1" xmlns="http://www.w3.org/2000/svg" xmlns:xlink="http://www.w3.org/1999/xlink" x="0px" y="0px"
	 width="96px" height="12px" viewBox="0 0 96 12" enable-background="new 0 0 96 12" xml:space="preserve">
<title>Slice</title>
<desc>Created with Sketch.</desc>
<g id="修改确认版">
	<g id="Group-47">
		<path id="美团点评餐饮商家-copy" d="M1.078,3.703h4.219V2.344H0.516V1.828h6.141c0.062-0.062,0.141-0.141,0.234-0.234
			C7.609,0.812,8.062,0.297,8.25,0.047l0.562,0.328C8.688,0.531,8.469,0.766,8.156,1.078c-0.344,0.344-0.578,0.594-0.703,0.75h3.281
			v0.516H5.953v1.359h4.219v0.516H5.953v1.359h5.109v0.562H0.188V5.578h5.109V4.219H1.078V3.703z M5.344,6.656H6
			C5.969,7,5.906,7.312,5.812,7.594h5.109v0.562H6.234c0.625,1.312,2.266,2.125,4.922,2.438c-0.125,0.188-0.25,0.391-0.375,0.609
			c-2.875-0.5-4.594-1.453-5.156-2.859c-0.406,1.438-2.156,2.453-5.25,3.047C0.25,11.234,0.125,11.031,0,10.781
			c3-0.531,4.672-1.406,5.016-2.625H0.328V7.594h4.875C5.266,7.312,5.312,7,5.344,6.656L5.344,6.656z M2.484,0.328L3,0
			c0.625,0.562,1.094,1,1.406,1.312L3.844,1.734C3.375,1.203,2.922,0.734,2.484,0.328L2.484,0.328z M12.656,0.703h9.984v10.594
			h-0.656v-0.562h-8.719v0.562h-0.609V0.703z M13.266,1.266v8.906h8.719V1.266H13.266z M14.109,3.562h4.547V1.875h0.609v1.688h2.062
			v0.609h-2.062v3.844c0.062,0.906-0.422,1.359-1.453,1.359h-1.266c0-0.062-0.016-0.172-0.047-0.328
			c-0.031-0.125-0.062-0.219-0.094-0.281h1.312c0.656,0.031,0.969-0.234,0.938-0.797V4.312c-0.906,1.594-2.391,3.016-4.453,4.266
			c-0.125-0.188-0.266-0.375-0.422-0.562c1.875-1.031,3.344-2.312,4.406-3.844h-4.078V3.562z M29.156,0.047h0.609v1.547h5.297v0.609
			h-5.297v1.641h4.219v3.797h-8.531V3.844h3.703V0.047z M26.062,4.453v2.578h7.266V4.453H26.062z M23.953,10.828
			c0.719-1,1.219-1.766,1.5-2.297l0.562,0.234c-0.344,0.656-0.828,1.469-1.453,2.438L23.953,10.828z M34.5,11.016
			c-0.406-0.719-0.844-1.453-1.312-2.203l0.562-0.281c0.625,1,1.062,1.719,1.312,2.156L34.5,11.016z M31.125,10.922
			c-0.344-0.875-0.656-1.609-0.938-2.203l0.562-0.188c0.312,0.625,0.656,1.328,1.031,2.109L31.125,10.922z M27.938,8.625
			c0.438,1.062,0.719,1.781,0.844,2.156l-0.656,0.234C28,10.484,27.734,9.75,27.328,8.812L27.938,8.625z M39,6.281h3.844V1.5h-3.328
			V0.891h7.172V1.5H43.5v4.781h3.844v0.562H43.5v4.453h-0.656V6.844H39V6.281z M38.016,4.172V9.75l1.781-1.266
			c0,0.219,0.047,0.438,0.141,0.656c-0.781,0.5-1.422,0.922-1.922,1.266c-0.062,0.062-0.156,0.141-0.281,0.234
			c-0.094,0.125-0.172,0.203-0.234,0.234l-0.469-0.562c0.25-0.25,0.375-0.594,0.375-1.031V4.734h-1.453V4.172H38.016z M45.234,5.25
			l-0.562-0.375c0.562-0.719,1.062-1.484,1.5-2.297l0.609,0.328c-0.219,0.344-0.531,0.812-0.938,1.406
			C45.562,4.719,45.359,5.031,45.234,5.25L45.234,5.25z M39.656,2.906l0.516-0.328c0.594,0.906,1.062,1.656,1.406,2.25l-0.562,0.375
			c-0.25-0.438-0.594-1.031-1.031-1.781C39.828,3.203,39.719,3.031,39.656,2.906L39.656,2.906z M38.203,2.672
			c-0.25-0.312-0.688-0.797-1.312-1.453c-0.188-0.188-0.312-0.328-0.375-0.422l0.469-0.375c0.844,0.844,1.422,1.453,1.734,1.828
			L38.203,2.672z M52.359,9.656l0.281-0.469c0.375,0.094,0.938,0.25,1.688,0.469c0.438,0.125,0.766,0.219,0.984,0.281
			C56.156,9.562,56.75,9.25,57.094,9h-6.469v1.594c1.219-0.281,2.125-0.469,2.719-0.562c-0.031,0.188-0.047,0.375-0.047,0.562
			c-0.75,0.125-1.672,0.312-2.766,0.562c-0.031,0.031-0.109,0.062-0.234,0.094c-0.094,0.062-0.172,0.094-0.234,0.094l-0.328-0.469
			c0.188-0.156,0.281-0.391,0.281-0.703V6.656c-0.125,0.062-0.328,0.156-0.609,0.281c-0.531,0.219-0.922,0.375-1.172,0.469
			C48.203,7.344,48.125,7.234,48,7.078c-0.062-0.094-0.109-0.156-0.141-0.188c2.531-0.969,4.453-2.078,5.766-3.328l0.656,0.141
			c-0.062,0.094-0.141,0.172-0.234,0.234c1.531,1.219,3.297,2.109,5.297,2.672c-0.031,0.031-0.078,0.094-0.141,0.188
			c-0.094,0.125-0.172,0.234-0.234,0.328c-0.688-0.25-1.297-0.484-1.828-0.703V9c0.188-0.094,0.328-0.188,0.422-0.281l0.375,0.422
			c-0.531,0.312-1.156,0.625-1.875,0.938c0.312,0.094,0.781,0.234,1.406,0.422c0.469,0.125,0.812,0.219,1.031,0.281l-0.281,0.516
			C56.125,10.609,54.172,10.062,52.359,9.656L52.359,9.656z M51.094,0.094h0.562v0.703h1.875v0.469h-1.875v0.844h1.594v0.516
			c-1.125,1.312-2.734,2.297-4.828,2.953c-0.031-0.062-0.078-0.141-0.141-0.234c-0.094-0.125-0.156-0.203-0.188-0.234
			c1.781-0.531,3.281-1.375,4.5-2.531H49.5c0,0-0.016,0.016-0.047,0.047c0,0.031-0.016,0.062-0.047,0.094
			c0.219,0.125,0.5,0.344,0.844,0.656c0.156,0.094,0.266,0.172,0.328,0.234l-0.469,0.375c-0.375-0.375-0.734-0.672-1.078-0.891
			c-0.219,0.25-0.469,0.469-0.75,0.656c-0.062-0.125-0.188-0.25-0.375-0.375c0.812-0.594,1.438-1.297,1.875-2.109L50.344,1.5
			c-0.031,0.031-0.078,0.094-0.141,0.188c-0.031,0.062-0.141,0.203-0.328,0.422h1.219V0.094z M54.375,2.109l0.375-0.422
			c0.188,0.094,0.484,0.25,0.891,0.469c0.375,0.219,0.656,0.391,0.844,0.516c0.531-0.344,1.047-0.797,1.547-1.359h-3.609V0.797
			h4.266v0.562c-0.5,0.688-1.047,1.234-1.641,1.641c0.375,0.188,0.922,0.5,1.641,0.938c0.156,0.094,0.266,0.172,0.328,0.234
			l-0.375,0.469c-0.75-0.469-1.469-0.906-2.156-1.312c-0.5,0.281-1.094,0.531-1.781,0.75C54.609,3.922,54.5,3.75,54.375,3.562
			c0.594-0.188,1.094-0.375,1.5-0.562c-0.094-0.062-0.234-0.141-0.422-0.234C55.266,2.609,54.906,2.391,54.375,2.109L54.375,2.109z
			 M50.625,8.531h5.906v-0.75h-5.906V8.531z M50.625,6.562v0.75h5.906v-0.75H50.625z M53.203,5.297l0.562-0.141
			c0.031,0.094,0.078,0.25,0.141,0.469S54.016,6,54.047,6.094h2.391c-1-0.5-1.922-1.109-2.766-1.828
			c-0.688,0.625-1.562,1.234-2.625,1.828h2.391c-0.031-0.062-0.062-0.188-0.094-0.375C53.281,5.531,53.234,5.391,53.203,5.297
			L53.203,5.297z M63.234,10.734c2.25-1.25,3.516-2.938,3.797-5.062c0.094-0.688,0.141-1.484,0.141-2.391h0.609
			c0,0.656-0.016,1.219-0.047,1.688c0.594,2.656,1.781,4.516,3.562,5.578c-0.062,0.062-0.141,0.156-0.234,0.281l-0.281,0.281
			C69.094,9.891,68,8.281,67.5,6.281c-0.344,2.062-1.609,3.734-3.797,5.016C63.578,11.109,63.422,10.922,63.234,10.734
			L63.234,10.734z M64.688,5.109c-0.156-0.125-0.359-0.234-0.609-0.328C64.953,3.312,65.594,1.766,66,0.141l0.703,0.141
			c-0.188,0.562-0.375,1.094-0.562,1.594h4.922v0.656l-1.125,2.25c-0.156-0.094-0.359-0.188-0.609-0.281l1.078-2.016h-4.5
			C65.594,3.328,65.188,4.203,64.688,5.109L64.688,5.109z M60.375,4.969C60.312,4.938,60.188,4.875,60,4.781
			c-0.094-0.031-0.156-0.062-0.188-0.094c0.844-1.625,1.391-3.156,1.641-4.594l0.656,0.094c-0.156,0.531-0.312,1.094-0.469,1.688
			h2.391v0.609l-0.844,1.828C63,4.25,62.797,4.203,62.578,4.172l0.844-1.734h-1.969C61.172,3.312,60.812,4.156,60.375,4.969
			L60.375,4.969z M62.062,9.422c0.75-0.469,1.359-0.891,1.828-1.266c0,0.031,0.016,0.094,0.047,0.188
			C63.969,8.594,64,8.75,64.031,8.812c-0.094,0.062-0.234,0.156-0.422,0.281c-0.25,0.188-0.75,0.5-1.5,0.938
			c-0.094,0.031-0.219,0.125-0.375,0.281c-0.094,0.062-0.156,0.109-0.188,0.141l-0.469-0.516c0.25-0.156,0.375-0.422,0.375-0.797
			V4.219h0.609V9.422z M74.766,2.391l0.516-0.328c0.094,0.125,0.234,0.297,0.422,0.516c0.344,0.469,0.562,0.781,0.656,0.938
			l-0.562,0.328h2.812c0.094-0.125,0.219-0.297,0.375-0.516c0.188-0.25,0.469-0.672,0.844-1.266l0.562,0.281
			c-0.312,0.531-0.656,1.031-1.031,1.5h2.953v6.047c0.031,0.781-0.406,1.172-1.312,1.172h-1.406c0-0.062-0.016-0.125-0.047-0.188
			c0-0.188-0.031-0.344-0.094-0.469c0.375,0.031,0.844,0.047,1.406,0.047c0.594,0.031,0.875-0.188,0.844-0.656V4.406H73.5v6.891
			h-0.609V3.844h2.859c-0.094-0.188-0.328-0.547-0.703-1.078C74.922,2.609,74.828,2.484,74.766,2.391L74.766,2.391z M79.828,9.656
			h-4.453V6.609h4.453V9.656z M77.109,0.234l0.609-0.188c0.031,0.094,0.078,0.25,0.141,0.469c0.156,0.406,0.281,0.719,0.375,0.938
			h5.016v0.562H72V1.453h5.484C77.391,1.078,77.266,0.672,77.109,0.234L77.109,0.234z M75.984,7.172v1.922h3.281V7.172H75.984z
			 M76.406,4.734l0.469,0.422c-1,0.75-1.859,1.359-2.578,1.828c-0.031-0.094-0.109-0.219-0.234-0.375
			C74,6.547,73.953,6.5,73.922,6.469C74.891,5.906,75.719,5.328,76.406,4.734L76.406,4.734z M78.328,5.156l0.422-0.422
			c0.875,0.5,1.719,1.047,2.531,1.641l-0.375,0.516C80.156,6.328,79.297,5.75,78.328,5.156L78.328,5.156z M84.562,8.953
			c-0.156-0.25-0.281-0.453-0.375-0.609c1.938-0.531,3.5-1.344,4.688-2.438c-0.125-0.25-0.281-0.469-0.469-0.656
			C87.188,6,85.859,6.578,84.422,6.984c-0.031-0.062-0.109-0.172-0.234-0.328c-0.062-0.125-0.109-0.219-0.141-0.281
			c2-0.5,3.656-1.266,4.969-2.297h-3.469V3.516h8.156v0.562h-3.797c-0.312,0.281-0.656,0.547-1.031,0.797
			C89.281,5.344,89.656,5.906,90,6.562c1.406-0.625,2.609-1.219,3.609-1.781l0.375,0.516c-0.688,0.375-1.438,0.75-2.25,1.125
			c0.562,1.688,1.703,2.828,3.422,3.422c-0.125,0.156-0.266,0.328-0.422,0.516c-1.75-0.688-2.922-1.906-3.516-3.656
			c-0.312,0.125-0.641,0.266-0.984,0.422C90.453,7.75,90.562,8.375,90.562,9c0.031,1.438-0.531,2.156-1.688,2.156h-1.406
			c-0.031-0.094-0.062-0.234-0.094-0.422c-0.062-0.094-0.094-0.172-0.094-0.234c0.219,0,0.5,0.016,0.844,0.047h0.609
			c0.844,0.062,1.25-0.438,1.219-1.5c0-0.406-0.047-0.797-0.141-1.172c-1.312,1.375-3.094,2.406-5.344,3.094
			c-0.094-0.188-0.219-0.391-0.375-0.609c2.25-0.562,4.094-1.594,5.531-3.094c-0.031-0.062-0.078-0.172-0.141-0.328
			c-0.094-0.25-0.188-0.438-0.281-0.562C88.109,7.406,86.562,8.266,84.562,8.953L84.562,8.953z M89.062,0.234L89.672,0
			c0.125,0.188,0.281,0.516,0.469,0.984c0.094,0.188,0.156,0.328,0.188,0.422l-0.516,0.188h5.062v1.734h-0.656V2.156h-9.234v1.172
			h-0.609V1.594h5.344c-0.062-0.156-0.172-0.391-0.328-0.703C89.266,0.609,89.156,0.391,89.062,0.234L89.062,0.234z"/>
	</g>
</g>
</svg>
