<svg xmlns="http://www.w3.org/2000/svg" width="100" height="100" viewBox="0 0 100 100">
    <path d="M45.004 59.293v-5.776c5.807-2.754 9.85-8.623 9.85-15.476V27.89c0-9.482-7.688-17.17-17.17-17.17-9.484 0-17.17 7.688-17.17 17.17v10.15c0 6.853 4.043 12.722 9.85 15.476v5.778C19.634 65.178.874 75.97.874 79.52v9.76h73.62v-9.76c0-3.55-18.765-14.344-29.49-20.227zm33.684 4.177v-3.945c3.973-1.885 6.733-5.896 6.733-10.578v-6.935c0-6.484-5.25-11.737-11.73-11.737-6.484 0-11.736 5.253-11.736 11.737v6.935c0 4.682 2.762 8.693 6.733 10.578v3.95c-1.41.772-3.02 1.67-4.702 2.628 10.51 6.348 14.53 10.73 14.53 11.562v6.303h20.332v-6.673c0-2.426-12.825-9.8-20.158-13.824z"/>
</svg>
