<?xml version="1.0" encoding="UTF-8" standalone="no"?>
<svg width="115px" height="34px" viewBox="0 0 115 34" version="1.1" xmlns="http://www.w3.org/2000/svg" xmlns:xlink="http://www.w3.org/1999/xlink">
    <!-- Generator: Sketch 39.1 (31720) - http://www.bohemiancoding.com/sketch -->
    <title>首页－消息条－商家头条</title>
    <desc>Created with Sketch.</desc>
    <defs></defs>
    <g id="Page-1" stroke="none" stroke-width="1" fill="none" fill-rule="evenodd">
        <g id="首页－消息条－商家头条">
            <g id="Rectangle-121-+-头条-+-商家">
                <path d="M56.8116411,3.94779294 C57.1666299,1.7674871 59.2372051,0 61.4495472,0 L110.923383,0 C113.129839,0 114.629653,1.77422333 114.275761,3.94779294 L110.188359,29.0522071 C109.83337,31.2325129 107.762795,33 105.550453,33 L56.0766172,33 C53.8701612,33 52.3703472,31.2257767 52.7242393,29.0522071 L56.8116411,3.94779294 Z" id="Rectangle-121" fill="#F76120"></path>
                <path d="M79.0033184,5.09759906 L77.0122975,18.3710716 L81.2090572,18.3710716 L80.7698614,21.2990435 L76.963498,21.2990435 L78.002928,24.1294164 C78.1298074,24.5848809 78.3607895,24.7800771 78.6958813,24.7150107 L80.3550654,24.7150107 L79.974429,27.2525864 L76.5584618,27.2525864 C75.8980382,27.3176527 75.4588468,26.9923258 75.2408745,26.2765957 L74.0648058,23.0558267 L70.0242046,26.5693929 C69.4906604,27.0899239 68.7359018,27.3501854 67.7599063,27.3501854 L58,27.3501854 L58.3952762,24.7150107 L66.9839938,24.7150107 C67.4199384,24.8451435 67.9095555,24.6174146 68.4528597,24.0318173 L71.4979504,21.2990435 L59.0052703,21.2990435 L59.4444661,18.3710716 L73.5963303,18.3710716 L75.5873512,5.09759906 L79.0033184,5.09759906 Z M62.5773961,9.19675971 L61.5038064,5.29279719 L64.8221745,5.29279719 L65.4516885,6.95198126 C65.5232615,7.34237947 65.8518417,7.53757564 66.437439,7.53757564 L72.4885809,7.53757564 L72.064025,10.3679485 L64.353699,10.3679485 C63.3679435,10.4330148 62.7758485,10.0426225 62.5773961,9.19675971 Z M61.7673238,15.2479016 L60.913332,11.8319344 L64.036502,11.8319344 L64.4464181,13.0031232 C64.4431648,13.4585877 64.771745,13.6537839 65.4321687,13.5887175 L71.6785087,13.5887175 L71.2685926,16.3214913 L63.7534648,16.3214913 C62.4976839,16.451624 61.8356435,16.0937644 61.7673238,15.2479016 Z M89.563537,6.26878782 L90.5346477,5 L93.8530158,5 L93.3601405,5.68319344 L108,5.68319344 L107.590084,8.41596721 L98.5768105,13.1983213 L99.3966426,13.5887175 C99.8033074,13.9140494 100.271778,14.0441802 100.802069,13.9791138 L106.95081,13.9791138 L106.555534,16.6142885 L99.1380051,16.6142885 C98.4125151,16.6793549 97.6658897,16.451626 96.8981066,15.9310951 L95.2047628,14.8575054 L93.2869412,15.9310951 C92.4931316,16.451626 91.6456548,16.6793549 90.7444857,16.6142885 L84.2053484,16.6142885 L84.6006246,13.9791138 L90.1637712,13.9791138 C90.4240367,13.9791138 90.8290688,13.8815157 91.3788796,13.6863166 L92.3304704,13.1983213 L86.957642,9.97755222 L92.6183877,9.97755222 L95.5902791,11.6367363 L101.524302,8.51356627 L91.959594,8.51356627 C91.4813562,9.09916358 90.7591303,9.35942514 89.7928948,9.29435877 L85.3033379,9.29435877 L85.6546945,6.95198126 L88.1922702,6.95198126 C88.6379748,7.01704763 89.0950591,6.78931876 89.563537,6.26878782 Z M93.2137419,18.3710716 L93.4333398,16.9070857 L96.849307,16.9070857 L96.6297092,18.3710716 L106.292016,18.3710716 L105.8821,21.1038454 L96.122194,21.1038454 L95.4634004,25.4958032 C95.2877212,26.6669979 94.7118924,27.2525864 93.7358969,27.2525864 L89.7343354,27.2525864 L90.085692,24.9102089 L91.647277,24.9102089 C91.8977825,24.9752752 92.0946053,24.7475464 92.2377513,24.2270154 L92.7062268,21.1038454 L83.629514,21.1038454 L84.03943,18.3710716 L93.2137419,18.3710716 Z M86.2158891,24.0318173 L87.2211595,21.8846379 L90.4419286,21.8846379 L88.8266641,25.4958032 C88.4850656,26.4717988 87.7660931,26.9272565 86.6697248,26.8621901 L82.7657622,26.8621901 L83.102479,24.6174117 L85.3472575,24.6174117 C85.6725893,24.6174117 85.9621303,24.4222155 86.2158891,24.0318173 Z M99.1184853,25.2030061 L98.5572907,21.7870388 L101.77806,21.7870388 L102.139176,23.9342182 C102.126163,24.4547492 102.417331,24.682478 103.012688,24.6174117 L105.257466,24.6174117 L104.935389,26.7645911 L100.641031,26.7645911 C99.6455152,26.8947238 99.1380052,26.3742007 99.1184853,25.2030061 Z" id="头条" fill="#FFFFFF"></path>
                <path d="M3.82446584,5.7890625 L13.5744658,5.7890625 L13.7207158,4.875 L17.7832158,4.875 L17.6369658,5.7890625 L27.0822783,5.7890625 L26.5785283,8.9375 L24.3441533,8.9375 L22.9019658,10.96875 L25.7457158,10.96875 L23.4057158,25.59375 C23.3515489,27.6250102 22.3643713,28.5052097 20.4441533,28.234375 L18.7496972,28.234375 L19.1884472,25.4921875 L19.5946972,25.4921875 C19.9901159,25.5598962 20.1918847,25.3567732 20.2000097,24.8828125 L21.9712597,13.8125 L18.7907158,13.8125 L18.6282158,14.828125 C18.4955068,15.234377 18.6376929,15.4036462 19.0547783,15.3359375 L20.4766533,15.3359375 L20.0216533,18.1796875 L16.3654033,18.1796875 C14.832479,18.4505222 14.3314424,17.7734456 14.8622783,16.1484375 L15.2360283,13.8125 L13.1032158,13.8125 L12.8107158,15.640625 C12.6780068,17.7395938 11.8939522,18.6197934 10.4585283,18.28125 L7.00540334,18.28125 L7.44415334,15.5390625 L8.76446584,15.5390625 C9.1030092,15.5390625 9.2993614,15.3697934 9.35352834,15.03125 L9.54852834,13.8125 L6.5112988,13.8125 L4.1875488,28.3359375 L0.623215839,28.3359375 L3.40196584,10.96875 L6.65196584,10.96875 L5.96134084,8.9375 L3.32071584,8.9375 L3.82446584,5.7890625 Z M19.9769658,8.9375 L10.5316533,8.9375 L11.2222783,10.96875 L18.3316533,10.96875 L19.9769658,8.9375 Z M15.2522783,23.8671875 L15.5285283,22.140625 L10.2472783,22.140625 L9.85727834,24.578125 L14.5291533,24.578125 C14.924572,24.6458337 15.1656112,24.4088569 15.2522783,23.8671875 Z M5.76227834,27.3203125 L7.06227834,19.1953125 L19.5544658,19.1953125 L18.5957158,25.1875 C18.5388406,26.8125081 17.6803075,27.5234385 16.0200908,27.3203125 L5.76227834,27.3203125 Z M39.9929033,5.078125 L43.8522783,5.078125 L43.7060283,5.9921875 L53.4560283,5.9921875 L52.1275908,9.8515625 L48.5729033,9.8515625 L48.7191533,8.9375 L33.2816533,8.9375 L33.1516533,9.75 L29.3938408,9.75 L29.9950908,5.9921875 L39.8466533,5.9921875 L39.9929033,5.078125 Z M51.9813408,13.3046875 L38.0672783,13.3046875 L37.2791533,14.421875 L44.1854033,14.421875 L42.3329033,26 C42.0837354,27.5572995 41.2536396,28.3020837 39.8425908,28.234375 L35.4754033,28.234375 L35.8654033,25.796875 L37.8966533,25.796875 C38.4274893,25.8645837 38.7362362,25.6276069 38.8229033,25.0859375 L40.0904033,17.1640625 L35.4185283,17.1640625 C34.8687339,17.6380232 34.1253039,17.8411462 33.1882158,17.7734375 L28.1100908,17.7734375 L28.5650908,14.9296875 L31.8150908,14.9296875 C32.2782182,14.9973962 32.6776933,14.828127 33.0135283,14.421875 L33.9032158,13.3046875 L29.0282158,13.3046875 L29.4832158,10.4609375 L52.4363408,10.4609375 L51.9813408,13.3046875 Z M46.0907158,15.84375 C46.5538432,15.9114587 46.9533183,15.7421895 47.2891533,15.3359375 L48.2966533,14.1171875 L51.6482158,14.1171875 L48.7963408,17.9765625 C48.5065477,18.5182319 47.8592625,18.7552087 46.8544658,18.6875 L44.2138408,18.6875 L44.6688408,15.84375 L46.0907158,15.84375 Z M31.2747783,20.2109375 C31.6024883,20.2786462 32.0805044,20.0416694 32.7088408,19.5 L34.2079033,18.3828125 L38.0672783,18.3828125 L33.4238408,22.6484375 C33.0771724,23.1223982 32.40145,23.3255212 31.3966533,23.2578125 L27.2325908,23.2578125 L27.7200908,20.2109375 L31.2747783,20.2109375 Z M46.0379033,28.234375 C44.5266458,28.3697923 43.8956104,27.658862 44.1447783,26.1015625 L44.4250908,19.90625 L47.7766533,19.90625 L47.6913408,24.8828125 C47.6046737,25.4244819 47.8037342,25.6614587 48.2885283,25.59375 L50.1166533,25.59375 L49.6941533,28.234375 L46.0379033,28.234375 Z M30.0763408,25.796875 C30.6748855,25.8645837 31.2151926,25.6614607 31.6972783,25.1875 L33.9357158,23.2578125 L37.6935283,23.2578125 L33.4725908,27.421875 C32.911963,27.9635444 32.1238459,28.234375 31.1082158,28.234375 L26.4363408,28.234375 L26.8263408,25.796875 L30.0763408,25.796875 Z" id="商家" fill="#666666"></path>
            </g>
        </g>
    </g>
</svg>