<?xml version="1.0" encoding="utf-8"?>
<!-- Generator: Adobe Illustrator 16.0.0, SVG Export Plug-In . SVG Version: 6.00 Build 0)  -->
<!DOCTYPE svg PUBLIC "-//W3C//DTD SVG 1.1//EN" "http://www.w3.org/Graphics/SVG/1.1/DTD/svg11.dtd">
<svg version="1.1" id="图层_1" xmlns="http://www.w3.org/2000/svg" xmlns:xlink="http://www.w3.org/1999/xlink" x="0px" y="0px"
	 width="32px" height="32px" viewBox="0 0 32 32" enable-background="new 0 0 32 32" xml:space="preserve">
<title>通知－默认 copy</title>
<desc>Created with Sketch.</desc>
<g>
	<path d="M28.57,22.857h-1.142v-6.855c0-5.538-3.938-10.155-9.166-11.205c0.007-0.076,0.022-0.148,0.022-0.226
		c0-1.262-1.023-2.286-2.285-2.286c-1.262,0-2.286,1.023-2.286,2.286c0,0.078,0.015,0.151,0.023,0.227
		c-5.22,1.052-9.166,5.668-9.166,11.205v6.855H3.429c-0.632,0-1.144,0.512-1.144,1.143c0,0.636,0.512,1.143,1.144,1.143h8
		c0,2.52,2.046,4.572,4.571,4.572c2.52,0,4.571-2.047,4.571-4.572h7.999c0.633,0,1.145-0.512,1.145-1.143
		C29.715,23.364,29.202,22.857,28.57,22.857z M16,27.429c-1.26,0-2.286-1.026-2.286-2.286h4.571
		C18.285,26.402,17.26,27.429,16,27.429z M19.937,22.857H16h-3.937H6.857v-6.855c0-5.046,4.102-9.146,9.143-9.146
		c5.049,0,9.143,4.095,9.143,9.146v6.855H19.937z"/>
</g>
</svg>
