<?xml version="1.0" encoding="UTF-8" standalone="no"?>
<svg width="18px" height="18px" viewBox="0 0 18 18" version="1.1" xmlns="http://www.w3.org/2000/svg" xmlns:xlink="http://www.w3.org/1999/xlink">
    <!-- Generator: Sketch 39.1 (31720) - http://www.bohemiancoding.com/sketch -->
    <title>说明</title>
    <desc>Created with Sketch.</desc>
    <defs></defs>
    <g id="mtfe-data-explain" stroke="none" stroke-width="1" fill="none" fill-rule="evenodd">
        <g id="01---explain--1280*800---copy-2" transform="translate(-291.000000, -22.000000)" fill="#C7C7C7">
            <path d="M295.063229,22 C293.539675,22 291,22 291,24.9060547 L291,37.3481337 C291,39.1648669 292.690225,40 294.500923,40 L309,40 L309,22 L299.539357,22 L295.063229,22 Z M299.437055,28.7162808 L298.581323,28.0666248 C298.469809,27.9717675 298.323323,27.9242112 298.177735,27.9242112 C298.031748,27.9242112 297.885129,27.9717675 297.773615,28.0666248 L296.753638,28.7162808 L296.753638,24.1313538 L299.437055,24.1313538 L299.437055,28.7162808 Z M295.300981,38.6153788 C294.031664,38.6153788 293.063387,38.0009849 293.063387,37.1146693 C293.063387,36.2283148 294.031664,35.6139597 295.300981,35.6139597 L306.983117,35.6139597 L306.983117,38.6153789 L295.300981,38.6153788 Z M295.327661,34.066586 C294.175895,34.066586 294.212807,34.066586 293.177757,34.3368618 L293.177757,27.7427255 L293.177757,25.5941599 C293.177757,24.03055 294.152656,24.0620595 295.327661,24.0355138 L295.327661,30.3681558 C295.327661,30.5555133 295.458409,30.7239328 295.659612,30.7958005 C295.861192,30.8674522 296.091538,30.82731 296.245468,30.6946355 L298.237933,29.3246676 L299.786763,30.6946355 C299.889215,30.7839844 300.027178,30.8300347 300.166396,30.8300347 C300.235753,30.8300347 300.305456,30.8192977 300.372744,30.7958005 C300.573226,30.7239328 300.704569,30.5555133 300.704569,30.3681558 L300.704569,24.03055 L306.942463,24.03055 L306.942463,34.0664783 L295.659613,34.066586 L295.327661,34.066586 Z" id="说明"></path>
        </g>
    </g>
</svg>