<?xml version="1.0" encoding="utf-8"?>
<!-- Generated by IcoMoon.io -->
<!DOCTYPE svg PUBLIC "-//W3C//DTD SVG 1.1//EN" "http://www.w3.org/Graphics/SVG/1.1/DTD/svg11.dtd">
<svg version="1.1" xmlns="http://www.w3.org/2000/svg" xmlns:xlink="http://www.w3.org/1999/xlink" width="32" height="32" viewBox="0 0 32 32">
<path fill="#444444" d="M26.667 17.734v11.599l1.333-1.333h-24l1.333 1.333v-12.035l-0.414-0.394c-0.583-0.555-0.919-1.366-0.919-2.474 0-0.334 0.050-0.703 0.149-1.102 0.229-0.921 0.704-1.949 1.355-3.008 0.347-0.565 0.72-1.101 1.093-1.589 0.221-0.289 0.389-0.494 0.478-0.596l-1.006 0.458h19.728l-1.006-0.458c0.089 0.102 0.257 0.307 0.478 0.596 0.373 0.488 0.746 1.025 1.093 1.589 0.65 1.059 1.126 2.087 1.355 3.008 0.099 0.399 0.149 0.768 0.149 1.102 0 1.049-0.302 1.831-0.829 2.383l-0.369 0.386v0.534zM29.333 17.734h-1.333l0.965 0.92c1.008-1.057 1.566-2.501 1.566-4.224 0-0.564-0.079-1.146-0.228-1.745-0.304-1.224-0.888-2.487-1.67-3.76-0.397-0.647-0.821-1.257-1.246-1.813-0.257-0.337-0.461-0.585-0.585-0.728l-0.399-0.458h-20.943l-0.399 0.458c-0.124 0.143-0.328 0.391-0.585 0.728-0.425 0.556-0.848 1.165-1.246 1.813-0.781 1.273-1.366 2.536-1.67 3.76-0.149 0.599-0.228 1.181-0.228 1.745 0 1.828 0.628 3.339 1.747 4.405l0.919-0.966h-1.333v12.797h26.667v-12.932z"></path>
<path fill="#444444" d="M6.748 18.328c2.136 0 3.638-0.702 4.564-1.886 0.566-0.724 0.806-1.45 0.861-1.972h-1.326c0.054 0.514 0.279 1.233 0.805 1.954 0.87 1.191 2.282 1.903 4.28 1.903s3.41-0.712 4.28-1.903c0.526-0.72 0.751-1.439 0.805-1.954h-1.326c0.054 0.521 0.294 1.248 0.861 1.971 0.926 1.183 2.428 1.886 4.564 1.886v-1.333c-1.733 0-2.846-0.52-3.514-1.374-0.39-0.499-0.554-0.995-0.585-1.288-0.083-0.797-1.243-0.797-1.326 0-0.031 0.3-0.189 0.804-0.556 1.306-0.618 0.846-1.63 1.356-3.203 1.356s-2.585-0.51-3.203-1.356c-0.367-0.502-0.524-1.005-0.556-1.306-0.083-0.797-1.243-0.797-1.326 0-0.031 0.293-0.195 0.79-0.585 1.288-0.668 0.854-1.781 1.374-3.514 1.374v1.333z"></path>
<path fill="#444444" d="M6.667 4h20v-2.667h-21.333v2.667h1.333z"></path>
</svg>
