<?xml version="1.0" encoding="utf-8"?>
<!-- Generated by IcoMoon.io -->
<!DOCTYPE svg PUBLIC "-//W3C//DTD SVG 1.1//EN" "http://www.w3.org/Graphics/SVG/1.1/DTD/svg11.dtd">
<svg version="1.1" xmlns="http://www.w3.org/2000/svg" xmlns:xlink="http://www.w3.org/1999/xlink" width="32" height="32" viewBox="0 0 32 32">
<path fill="#444444" d="M31.171 18.241l-15.077 5.838-15.005-5.838 1.853-0.597 13.151 5.117 13.215-5.117 1.862 0.597zM31.171 23.574l-15.077 5.838-15.005-5.838 1.853-0.597 13.151 5.117 13.215-5.117 1.862 0.597zM31.171 12.908l-15.077 5.838-15.005-5.838 1.853-0.597 13.151 5.117 13.215-5.117 1.862 0.597z"></path>
<path fill="#444444" d="M3.574 8.216l12.489 4.86 16.064-6.221-16.064-5.15-15.987 5.15 3.498 1.361zM4.467 8.243l12.007-3.868-0.816 0.001 12.065 3.868-0.074-2.513-12.065 4.672 0.965 0.001-12.007-4.672-0.075 2.512z"></path>
</svg>
