<?xml version="1.0" encoding="utf-8"?>
<!-- Generated by IcoMoon.io -->
<!DOCTYPE svg PUBLIC "-//W3C//DTD SVG 1.1//EN" "http://www.w3.org/Graphics/SVG/1.1/DTD/svg11.dtd">
<svg version="1.1" xmlns="http://www.w3.org/2000/svg" xmlns:xlink="http://www.w3.org/1999/xlink" width="32" height="32" viewBox="0 0 32 32">
<path fill="#444444" d="M4 4v25.333h24v-26.667h-24v1.333zM6.667 4l-1.333 1.333h21.333l-1.333-1.333v24l1.333-1.333h-21.333l1.333 1.333v-24z"></path>
<path fill="#444444" d="M11.988 14.667h8.007v-1.333h-8.007v1.333z"></path>
<path fill="#444444" d="M10.685 18.667h10.651v-1.333h-10.651v1.333z"></path>
<path fill="#444444" d="M15.337 14.037v8.654h1.333v-8.654h-1.333z"></path>
<path fill="#444444" d="M12.814 9.638l2.603 4.689 1.166-0.647-2.603-4.689-1.166 0.647z"></path>
<path fill="#444444" d="M18.128 9l-2.704 4.657 1.153 0.67 2.704-4.657-1.153-0.67z"></path>
</svg>
