<?xml version="1.0" encoding="UTF-8" standalone="no"?>
<svg width="30px" height="30px" viewBox="0 0 30 30" version="1.1" xmlns="http://www.w3.org/2000/svg" xmlns:xlink="http://www.w3.org/1999/xlink">
    <!-- Generator: Sketch 48.2 (47327) - http://www.bohemiancoding.com/sketch -->
    <title>删除门店</title>
    <desc>Created with Sketch.</desc>
    <defs></defs>
    <g id="Artboard" stroke="none" stroke-width="1" fill="none" fill-rule="evenodd" transform="translate(-293.000000, -299.000000)">
        <path d="M317,325 L317,327 L299,327 L299,325 L298,325 L298,309 L300,309 L300,325 L316,325 L316,309 L318,309 L318,325 L317,325 Z M307,305 L307,301 L309,301 L309,305 L322,305 L322,307 L294,307 L294,305 L307,305 Z M304,309 L306,309 L306,321 L304,321 L304,309 Z M310,309 L312,309 L312,321 L310,321 L310,309 Z" id="删除门店" fill="#000000"></path>
    </g>
</svg>