<?xml version="1.0" encoding="utf-8"?>
<!-- Generator: Adobe Illustrator 16.0.0, SVG Export Plug-In . SVG Version: 6.00 Build 0)  -->
<!DOCTYPE svg PUBLIC "-//W3C//DTD SVG 1.1//EN" "http://www.w3.org/Graphics/SVG/1.1/DTD/svg11.dtd">
<svg version="1.1" id="图层_1" xmlns="http://www.w3.org/2000/svg" xmlns:xlink="http://www.w3.org/1999/xlink" x="0px" y="0px"
	 width="32px" height="32px" viewBox="0 0 32 32" enable-background="new 0 0 32 32" xml:space="preserve">
<path d="M16,0C7.164,0,0,7.164,0,16c0,8.836,7.164,16,16,16c8.836,0,16-7.164,16-16C32,7.164,24.836,0,16,0z M8,18.4
	c-1.326,0-2.4-1.075-2.4-2.4c0-1.326,1.074-2.4,2.4-2.4s2.4,1.074,2.4,2.4C10.4,17.325,9.326,18.4,8,18.4z M16,18.4
	c-1.326,0-2.4-1.075-2.4-2.4c0-1.326,1.074-2.4,2.4-2.4c1.326,0,2.4,1.074,2.4,2.4C18.4,17.325,17.326,18.4,16,18.4z M24,18.4
	c-1.326,0-2.4-1.075-2.4-2.4c0-1.326,1.074-2.4,2.4-2.4s2.4,1.074,2.4,2.4C26.4,17.325,25.326,18.4,24,18.4z"/>
</svg>
