<?xml version="1.0" encoding="utf-8"?>
<!-- Generator: Adobe Illustrator 16.0.0, SVG Export Plug-In . SVG Version: 6.00 Build 0)  -->
<!DOCTYPE svg PUBLIC "-//W3C//DTD SVG 1.1//EN" "http://www.w3.org/Graphics/SVG/1.1/DTD/svg11.dtd">
<svg version="1.1" id="图层_1" xmlns="http://www.w3.org/2000/svg" xmlns:xlink="http://www.w3.org/1999/xlink" x="0px" y="0px"
	 width="32px" height="32px" viewBox="0 0 32 32" enable-background="new 0 0 32 32" xml:space="preserve">
<title>订单管理</title>
<desc>Created with Sketch.</desc>
<g>
	<path d="M20.572,4.571H6.856c-2.522,0-4.571,2.049-4.571,4.576v18.277C2.286,29.961,4.332,32,6.856,32h13.716
		c2.521,0,4.57-2.049,4.57-4.576V9.147C25.143,6.611,23.097,4.571,20.572,4.571z M14.915,26.174H7.942
		c-0.599,0-1.085-0.482-1.085-1.087C6.857,24.486,7.349,24,7.942,24h6.973C15.514,24,16,24.482,16,25.087
		C16,25.688,15.508,26.174,14.915,26.174z M19.484,19.316H7.945c-0.601,0-1.088-0.482-1.088-1.086c0-0.602,0.488-1.088,1.088-1.088
		h11.54c0.6,0,1.087,0.482,1.087,1.088C20.571,18.83,20.084,19.316,19.484,19.316z M19.484,12.46H7.945
		c-0.601,0-1.088-0.482-1.088-1.087c0-0.601,0.488-1.087,1.088-1.087h11.54c0.6,0,1.087,0.482,1.087,1.087
		C20.571,11.973,20.084,12.46,19.484,12.46z"/>
	<path d="M21.722,0H8C7.369,0,6.857,0.512,6.857,1.143S7.369,2.286,8,2.286h13.722c3.146,0,5.707,2.56,5.707,5.708v20.578
		c0,0.631,0.512,1.143,1.143,1.143s1.143-0.512,1.143-1.143V7.994C29.714,3.586,26.129,0,21.722,0z"/>
</g>
</svg>
