<?xml version="1.0" encoding="utf-8"?>
<!-- Generator: Adobe Illustrator 16.0.0, SVG Export Plug-In . SVG Version: 6.00 Build 0)  -->
<!DOCTYPE svg PUBLIC "-//W3C//DTD SVG 1.1//EN" "http://www.w3.org/Graphics/SVG/1.1/DTD/svg11.dtd">
<svg version="1.1" id="图层_1" xmlns="http://www.w3.org/2000/svg" xmlns:xlink="http://www.w3.org/1999/xlink" x="0px" y="0px"
	 width="32px" height="32px" viewBox="0 0 32 32" enable-background="new 0 0 32 32" xml:space="preserve">
<title>点菜</title>
<desc>Created with Sketch.</desc>
<g>
	<path d="M2.556,22.857h26.882c0.792,0,1.413-0.63,1.413-1.406c0,0,0.001-0.379,0.001-0.684c0.006-0.001,0.007-0.002,0.004-0.004
		c0-0.086-0.002-0.17-0.005-0.256c0-0.061,0-0.102-0.001-0.113c0,0,0-0.002-0.002-0.003c-0.266-7.888-5.504-14.386-12.429-15.629
		c0-0.01,0-0.019,0-0.029V4.363c0-1.14-0.928-2.077-2.073-2.077c-1.153,0-2.073,0.93-2.073,2.077v0.294
		C7.07,5.563,1.325,12.067,1.147,20.07c-0.003-0.001-0.004-0.002-0.004-0.004c0-0.206,0,1.387,0,1.387
		C1.143,22.227,1.775,22.857,2.556,22.857z M5.803,16.141c1.353-4.642,5.545-6.986,5.723-7.083c0.553-0.304,1.248-0.102,1.552,0.452
		c0.303,0.553,0.102,1.246-0.45,1.55c-0.035,0.02-3.548,2.007-4.63,5.72c-0.146,0.5-0.602,0.824-1.097,0.824
		c-0.106,0-0.213-0.016-0.32-0.046C5.975,17.382,5.626,16.747,5.803,16.141z"/>
	<path d="M30.857,25.143H1.143C0.512,25.143,0,25.654,0,26.285c0,0.632,0.512,1.144,1.143,1.144H8l2.639,1.673
		c0.539,0.342,1.478,0.613,2.108,0.613H19.2c0.622,0,1.572-0.27,2.103-0.602L24,27.429h6.857c0.631,0,1.143-0.512,1.143-1.144
		C32,25.654,31.488,25.143,30.857,25.143z"/>
</g>
</svg>
