<?xml version="1.0" encoding="utf-8"?>
<!-- Generator: Adobe Illustrator 16.0.0, SVG Export Plug-In . SVG Version: 6.00 Build 0)  -->
<!DOCTYPE svg PUBLIC "-//W3C//DTD SVG 1.1//EN" "http://www.w3.org/Graphics/SVG/1.1/DTD/svg11.dtd">
<svg version="1.1" xmlns="http://www.w3.org/2000/svg" xmlns:xlink="http://www.w3.org/1999/xlink" x="0px" y="0px" width="100px"
	 height="100px" viewBox="0 0 100 100" enable-background="new 0 0 100 100" xml:space="preserve">
<g id="Layer_2">
	<path fill="#2BB7A9" d="M98.547,90.854c0.5,4.514-3.163,8.172-7.672,8.172H9.125c-4.509,0-8.172-3.658-7.672-8.172V9.146
		c-0.5-4.513,3.163-8.172,7.672-8.172h81.75c4.509,0,8.172,3.659,7.672,8.172V90.854z"/>
</g>
<g id="Layer_3" display="none">
	<g display="inline">
		<path fill="#FFFFFF" d="M78.248,41.228c-1.799-14.058-13.807-24.965-28.343-24.965c-14.866,0-27.106,11.398-28.467,25.912
			c-4.365,0.277-7.843,3.881-7.843,8.314v2.931c0,4.528,3.622,8.207,8.117,8.342c2.191,12.854,13.562,22.076,28.193,22.076
			c14.968,0,26.532-9.656,28.329-22.982c4.529-0.098,8.188-3.796,8.188-8.349v-2.932C86.423,45.027,82.771,41.331,78.248,41.228z
			 M67.632,56.729c0,9.46-7.456,16.327-17.729,16.327c-10.276,0-17.735-6.867-17.735-16.327c0,0-0.768-14.888,3.051-18.708
			c3.934,4.266,14.681,4.115,14.681,4.115s10.758,0.136,14.682-4.118C68.333,41.769,67.632,56.729,67.632,56.729z"/>
	</g>
</g>
<g id="Layer_4" display="none">
	<path display="inline" fill="#FFFFFF" d="M78.677,27.37H21.323c-4.167,0-7.545,3.378-7.545,7.547v31.169
		c0,4.163,3.379,7.544,7.545,7.544h57.354c4.17,0,7.547-3.381,7.547-7.544V34.917C86.224,30.748,82.847,27.37,78.677,27.37z
		 M75.604,58.891c0,2.096-1.698,3.793-3.794,3.793H28.459c-2.095,0-3.793-1.697-3.793-3.793V42.052c0-2.097,1.698-3.795,3.793-3.795
		h43.352c2.096,0,3.794,1.698,3.794,3.795V58.891z"/>
	<path display="inline" fill="#FFFFFF" d="M58.596,53.287c0,1.104,0.896,2,2,2h5.75c1.104,0,2-0.896,2-2v-5.75c0-1.104-0.896-2-2-2
		h-5.75c-1.104,0-2,0.896-2,2V53.287z"/>
</g>
<g id="Layer_5" display="none">
	<path display="inline" fill="#FFFFFF" d="M76.258,33.34c-9.128,0-42.561,0-52.2,0S13.68,38.708,13.68,42.354v18.351
		c0,3.614,2.445,6.554,6.059,6.554h12.792c17.469,0,17.552-13.763,17.552-13.763s0,13.763,17.552,13.763h12.794
		c3.614,0,6.058-2.939,6.058-6.554V42.354C86.486,38.561,85.386,33.34,76.258,33.34z M75.715,54.394
		c0,1.389-1.126,2.515-2.514,2.515c0,0-12.898,0.687-12.898-7.352c0-2.087-0.293-4.519,1.096-4.519h11.803
		c1.388,0,2.514,1.125,2.514,2.514V54.394z M24.432,47.56c0-1.385,1.122-2.508,2.507-2.508h11.772c1.385,0,1.094,2.425,1.094,4.508
		c0,8.019-12.867,7.333-12.867,7.333c-1.385,0-2.507-1.122-2.507-2.508V47.56z"/>
</g>
<g id="Layer_6">
	<path fill="#FFFFFF" d="M57.402,13.651c-0.147-0.009-0.291-0.026-0.439-0.026H31.829c-5.536,0-10.024,4.581-10.024,10.231v52.122
		c0,5.65,4.488,10.231,10.024,10.231c5.536,0,10.024-4.581,10.024-10.231V63.171h15.11c0.372,0,0.736-0.036,1.096-0.088
		c11.97-0.883,21.427-11.599,21.427-24.696C79.485,25.05,69.682,14.181,57.402,13.651z M54.965,43.352v0.031H41.808v-9.755h13.157
		v0.031c2.545,0.165,4.565,2.259,4.565,4.847C59.53,41.093,57.51,43.188,54.965,43.352z"/>
</g>
</svg>
