<?xml version="1.0" encoding="utf-8"?>
<!-- Generated by IcoMoon.io -->
<!DOCTYPE svg PUBLIC "-//W3C//DTD SVG 1.1//EN" "http://www.w3.org/Graphics/SVG/1.1/DTD/svg11.dtd">
<svg version="1.1" xmlns="http://www.w3.org/2000/svg" xmlns:xlink="http://www.w3.org/1999/xlink" width="42" height="32" viewBox="0 0 42 32">
<path fill="#000" d="M22.443 17.686h-3.736v2.638c0 0.001 0 0.003 0 0.004 0 0.294-0.238 0.532-0.532 0.532-0.005 0-0.009-0-0.014-0h-1.054c-0.001 0-0.003 0-0.004 0-0.294 0-0.532-0.238-0.532-0.532 0-0.002 0-0.003 0-0.005v-2.638h-3.736c0 0 0 0-0 0-0.292 0-0.529-0.236-0.532-0.527v-1.060c0-0.294 0.238-0.532 0.532-0.532h3.736v-2.119h-3.736c0 0 0 0-0 0-0.292 0-0.529-0.236-0.532-0.527v-1.055c0.002-0.292 0.24-0.528 0.532-0.528 0 0 0 0 0 0h2.941l-3.287-3.555c-0.087-0.097-0.14-0.226-0.14-0.368s0.053-0.27 0.14-0.368l0.678-0.735c0.084-0.094 0.205-0.152 0.339-0.152s0.256 0.059 0.339 0.152l3.763 4.065 3.81-4.13c0.084-0.094 0.206-0.153 0.342-0.153s0.257 0.059 0.341 0.152l0.684 0.744c0.088 0.098 0.142 0.229 0.142 0.372s-0.054 0.274-0.142 0.372l-3.325 3.602h2.984c0 0 0 0 0 0 0.292 0 0.529 0.236 0.532 0.527v1.060c-0.002 0.292-0.24 0.528-0.532 0.528 0 0 0 0-0 0h-3.736v2.115h3.736c0 0 0 0 0 0 0.292 0 0.529 0.236 0.532 0.527v1.060c0 0.294-0.238 0.532-0.532 0.532z"></path>
<path fill="#000" d="M34.871 32c-0.003 0-0.007 0-0.010 0-0.389 0-0.739-0.166-0.983-0.432-0.397-0.428-0.961-0.695-1.588-0.695s-1.191 0.267-1.586 0.692c-0.248 0.275-0.603 0.446-0.998 0.446-0.151 0-0.296-0.025-0.431-0.071-1.161-0.425-2.167-1.040-3.026-1.816-0.281-0.258-0.461-0.637-0.461-1.058 0-0.144 0.021-0.284 0.061-0.415 0.060-0.192 0.096-0.424 0.096-0.665 0-0.417-0.109-0.809-0.3-1.149-0.288-0.522-0.786-0.913-1.38-1.058-0.547-0.145-0.947-0.582-1.034-1.124-0.107-0.549-0.167-1.171-0.167-1.807s0.060-1.258 0.176-1.86c0.085-0.483 0.488-0.914 1.010-1.048 0.619-0.15 1.117-0.541 1.405-1.063 0.19-0.338 0.299-0.73 0.299-1.146 0-0.24-0.036-0.471-0.103-0.689-0.033-0.106-0.055-0.247-0.055-0.393 0-0.419 0.179-0.797 0.465-1.060 0.843-0.764 1.839-1.376 2.935-1.784 0.197-0.071 0.352-0.1 0.514-0.1 0.396 0 0.75 0.174 0.992 0.45 0.398 0.43 0.963 0.698 1.59 0.698s1.193-0.267 1.588-0.695c0.241-0.28 0.593-0.455 0.987-0.455 0.163 0 0.319 0.030 0.463 0.085 1.15 0.424 2.146 1.036 2.995 1.807 0.279 0.258 0.458 0.636 0.458 1.055 0 0.146-0.022 0.286-0.062 0.419-0.061 0.193-0.098 0.426-0.098 0.668 0 0.418 0.109 0.81 0.301 1.149 0.288 0.522 0.786 0.913 1.38 1.058 0.546 0.14 0.948 0.57 1.043 1.106 0.104 0.548 0.164 1.17 0.166 1.806-0.003 0.636-0.064 1.255-0.179 1.855-0.085 0.481-0.488 0.91-1.010 1.042-0.618 0.153-1.115 0.547-1.401 1.072-0.191 0.339-0.3 0.73-0.3 1.147 0 0.241 0.036 0.474 0.104 0.692 0.033 0.105 0.054 0.245 0.054 0.39 0 0.421-0.181 0.799-0.468 1.063-0.843 0.764-1.839 1.377-2.935 1.784-0.196 0.069-0.349 0.098-0.508 0.098zM32.277 28.835c0.009-0 0.019-0 0.029-0 1.055 0 2.013 0.412 2.723 1.083 0.678-0.289 1.264-0.648 1.788-1.080-0.068-0.253-0.1-0.554-0.1-0.863 0-0.78 0.204-1.512 0.562-2.146 0.48-0.872 1.27-1.55 2.222-1.885 0.078-0.334 0.106-0.708 0.106-1.090s-0.028-0.756-0.083-1.122c-0.975-0.304-1.764-0.982-2.246-1.853-0.363-0.637-0.57-1.375-0.57-2.162 0-0.301 0.030-0.596 0.088-0.88-0.513-0.39-1.095-0.747-1.722-1.018-0.764 0.632-1.72 1.030-2.769 1.030s-2.005-0.398-2.726-1.051c-0.683 0.288-1.275 0.646-1.804 1.077 0.069 0.251 0.101 0.552 0.101 0.86 0 0.779-0.204 1.511-0.562 2.144-0.474 0.874-1.258 1.555-2.204 1.898-0.077 0.334-0.105 0.709-0.105 1.090s0.028 0.756 0.081 1.123c0.975 0.303 1.765 0.981 2.246 1.853 0.357 0.633 0.562 1.364 0.562 2.144 0 0.309-0.032 0.611-0.093 0.902 0.517 0.393 1.103 0.752 1.735 1.022 0.75-0.653 1.703-1.069 2.752-1.076zM24.688 23.823v0zM39.883 21.89v0zM24.692 21.89v0zM36.882 16.489v0zM29.284 15.52v0zM35.286 15.52v0z"></path>
<path fill="#000" d="M21.526 24.381h-16.912c-0.003 0-0.006 0-0.009 0-0.842 0-1.526-0.68-1.531-1.522v-3.265c2.671-0.669 4.617-3.048 4.617-5.881s-1.947-5.212-4.575-5.872l-0.042-3.269c-0-0.004-0-0.008-0-0.013 0-0.845 0.685-1.531 1.531-1.531 0.003 0 0.006 0 0.009 0h27.675c0.003-0 0.006-0 0.009-0 0.842 0 1.526 0.68 1.531 1.522v3.46c-1.825 0.666-3.239 2.655-3.784 4.177h3.338c0.549-1.522 1.492-1.522 2.56-1.522h0.96v-7.637c-0.020-1.676-1.383-3.027-3.061-3.027-0.005 0-0.009 0-0.014 0h-30.754c-0.004-0-0.009-0-0.013-0-1.679 0-3.042 1.351-3.061 3.025l-0 7.643h1.539c1.684 0 3.049 1.365 3.049 3.049s-1.365 3.049-3.049 3.049h-1.539v7.615c0.020 1.676 1.383 3.027 3.061 3.027 0.005 0 0.009 0 0.014-0h18.451v-3.027z"></path>
<path fill="#000" d="M32.48 25.643c-1.433 0-2.595-1.162-2.595-2.595s1.162-2.595 2.595-2.595c1.433 0 2.595 1.162 2.595 2.595s-1.162 2.595-2.595 2.595zM32.48 22.089c-0.53 0-0.96 0.43-0.96 0.96s0.43 0.96 0.96 0.96c0.53 0 0.96-0.43 0.96-0.96-0.002-0.529-0.431-0.958-0.96-0.96z"></path>
</svg>
