<?xml version="1.0" encoding="UTF-8"?>
<svg width="62px" height="62px" viewBox="0 0 62 62" version="1.1" xmlns="http://www.w3.org/2000/svg" xmlns:xlink="http://www.w3.org/1999/xlink">
    <!-- Generator: Sketch 48.2 (47327) - http://www.bohemiancoding.com/sketch -->
    <title>买单高亮</title>
    <desc>Created with Sketch.</desc>
    <defs></defs>
    <g id="买单收益-切图" stroke="none" stroke-width="1" fill="none" fill-rule="evenodd">
        <g id="付款">
            <circle id="Oval" fill="#FFA64B" cx="31" cy="31" r="31"></circle>
            <path d="M32.5420392,26.1052632 L37.4296454,21.5936267 L35.2163103,19.195847 L31.0203463,23.0690446 L26.8243822,19.195847 L24.6110472,21.5936267 L29.4986534,26.1052632 L23.678241,26.1052632 L23.678241,29.3684211 L29.3887673,29.3684211 L29.3887673,31.8157895 L23.678241,31.8157895 L23.678241,35.0789474 L29.3887673,35.0789474 L29.3887673,38.3421053 L32.6519252,38.3421053 L32.6519252,35.0789474 L38.3624515,35.0789474 L38.3624515,31.8157895 L32.6519252,31.8157895 L32.6519252,29.3684211 L38.3624515,29.3684211 L38.3624515,26.1052632 L32.5420392,26.1052632 Z M44.8887673,35.8947368 L48.1785035,35.8947368 C48.6176525,35.8947368 48.9768144,36.2446808 48.9882298,36.6836814 L48.9976128,37.0445226 C49.0053333,37.3414269 48.8499419,37.6187457 48.5926859,37.7671744 L31.8311065,47.4380868 C31.3300807,47.7271632 30.7129347,47.7271632 30.211909,47.4380868 L13.449654,37.7667847 C13.1927559,37.6185624 13.0374101,37.3417869 13.044698,37.0452849 L13.0535577,36.6848335 C13.0643595,36.2453695 13.4237164,35.8947368 13.8633131,35.8947368 L17.1519252,35.8947368 L17.1519252,16.3042105 C17.1519252,15.4095092 17.8772239,14.6842105 18.7719252,14.6842105 L43.2687673,14.6842105 C44.1634686,14.6842105 44.8887673,15.4095092 44.8887673,16.3042105 L44.8887673,35.8947368 Z" id="Combined-Shape" fill="#FFFFFF"></path>
        </g>
    </g>
</svg>