<?xml version="1.0" encoding="utf-8"?>
<!-- Generator: Adobe Illustrator 16.0.0, SVG Export Plug-In . SVG Version: 6.00 Build 0)  -->
<!DOCTYPE svg PUBLIC "-//W3C//DTD SVG 1.1//EN" "http://www.w3.org/Graphics/SVG/1.1/DTD/svg11.dtd">
<svg version="1.1" id="图层_1" xmlns="http://www.w3.org/2000/svg" xmlns:xlink="http://www.w3.org/1999/xlink" x="0px" y="0px"
	 width="32px" height="32px" viewBox="0 0 32 32" enable-background="new 0 0 32 32" xml:space="preserve">
<title>付款</title>
<desc>Created with Sketch.</desc>
<path d="M16,0C7.164,0,0,7.164,0,16c0,8.836,7.164,16,16,16c8.836,0,16-7.164,16-16C32,7.164,24.836,0,16,0z M12.2,23.667h-2.066V14
	c-0.533,0.312-1.156,0.578-1.867,0.8v-1.2c1.6-0.977,2.622-2.733,3.066-5.267h2.2C13.222,9.845,12.777,11.066,12.2,12V23.667z
	 M15.533,18.4c-0.178-1.378-0.578-2.777-1.2-4.2H16.2c0.667,1.333,1.111,2.733,1.333,4.2H15.533z M23.733,12.4H21.8v8.8
	c0.044,1.555-0.712,2.311-2.267,2.267H17.4V22h1.266c0.667,0.044,0.978-0.267,0.934-0.934V12.4h-6.333v-1.467H19.6V8.4h2.2v2.533
	h1.934V12.4z"/>
</svg>
