<?xml version="1.0" encoding="UTF-8" standalone="no"?>
<svg width="48px" height="48px" viewBox="0 0 48 48" version="1.1" xmlns="http://www.w3.org/2000/svg" xmlns:xlink="http://www.w3.org/1999/xlink">
    <!-- Generator: Sketch 39.1 (31720) - http://www.bohemiancoding.com/sketch -->
    <title>导航－增加－灰色</title>
    <desc>Created with Sketch.</desc>
    <defs></defs>
    <g id="Page-1" stroke="none" stroke-width="1" fill="none" fill-rule="evenodd">
        <g id="导航－增加－灰色" fill="#666666">
            <path d="M22,26 L7.99970728,26 C6.88989258,26 6,25.1045695 6,24 C6,22.8877296 6.89529944,22 7.99970728,22 L22,22 L22,7.99970728 C22,6.89529944 22.8877296,6 24,6 C25.1045695,6 26,6.88989258 26,7.99970728 L26,22 L40.0002927,22 C41.1101074,22 42,22.8954305 42,24 C42,25.1122704 41.1047006,26 40.0002927,26 L26,26 L26,40.0002927 C26,41.1047006 25.1122704,42 24,42 C22.8954305,42 22,41.1101074 22,40.0002927 L22,26 Z" id="扫一扫-5-copy-2"></path>
        </g>
    </g>
</svg>