<?xml version="1.0" encoding="UTF-8" standalone="no"?>
<svg width="48px" height="48px" viewBox="0 0 48 48" version="1.1" xmlns="http://www.w3.org/2000/svg" xmlns:xlink="http://www.w3.org/1999/xlink">
    <!-- Generator: Sketch 39.1 (31720) - http://www.bohemiancoding.com/sketch -->
    <title>增加－可点@2x</title>
    <desc>Created with Sketch.</desc>
    <defs>
        <circle id="path-1" cx="24" cy="24" r="24"></circle>
        <mask id="mask-2" maskContentUnits="userSpaceOnUse" maskUnits="objectBoundingBox" x="0" y="0" width="48" height="48" fill="white">
            <use xlink:href="#path-1"></use>
        </mask>
    </defs>
    <g id="icon-24/48/72" stroke="none" stroke-width="1" fill="none" fill-rule="evenodd">
        <g id="all" transform="translate(-984.000000, -926.000000)"></g>
        <g id="增加－可点@2x">
            <g id="加-@2x">
                <use id="Oval-402" stroke="#E5E5E5" mask="url(#mask-2)" stroke-width="4" fill="#FFFFFF" xlink:href="#path-1"></use>
                <path d="M22,22 L14.991155,22 C13.8896739,22 13,22.8954305 13,24 C13,25.1122704 13.8914705,26 14.991155,26 L22,26 L22,33.008845 C22,34.1103261 22.8954305,35 24,35 C25.1122704,35 26,34.1085295 26,33.008845 L26,26 L33.008845,26 C34.1103261,26 35,25.1045695 35,24 C35,22.8877296 34.1085295,22 33.008845,22 L26,22 L26,14.991155 C26,13.8896739 25.1045695,13 24,13 C22.8877296,13 22,13.8914705 22,14.991155 L22,22 Z" id="Rectangle-1107" fill="#FF9D3C"></path>
            </g>
        </g>
    </g>
</svg>