<?xml version="1.0" encoding="UTF-8" standalone="no"?>
<svg width="48px" height="48px" viewBox="0 0 48 48" version="1.1" xmlns="http://www.w3.org/2000/svg" xmlns:xlink="http://www.w3.org/1999/xlink">
    <!-- Generator: Sketch 39.1 (31720) - http://www.bohemiancoding.com/sketch -->
    <title>添加 @2x</title>
    <desc>Created with Sketch.</desc>
    <defs></defs>
    <g id="icon-24/48/72" stroke="none" stroke-width="1" fill="none" fill-rule="evenodd">
        <g id="all" transform="translate(-691.000000, -1026.000000)"></g>
        <g id="添加-@2x" fill="#3DC6B6">
            <path d="M22,22 L16.5086366,22 C15.6664201,22 15,22.6715729 15,23.5 C15,24.3342028 15.6754396,25 16.5086366,25 L22,25 L22,30.4913634 C22,31.3335799 22.6715729,32 23.5,32 C24.3342028,32 25,31.3245604 25,30.4913634 L25,25 L30.4913634,25 C31.3335799,25 32,24.3284271 32,23.5 C32,22.6657972 31.3245604,22 30.4913634,22 L25,22 L25,16.5086366 C25,15.6664201 24.3284271,15 23.5,15 C22.6657972,15 22,15.6754396 22,16.5086366 L22,22 Z M23.5,42 C33.7172679,42 42,33.7172679 42,23.5 C42,13.2827321 33.7172679,5 23.5,5 C13.2827321,5 5,13.2827321 5,23.5 C5,33.7172679 13.2827321,42 23.5,42 Z"></path>
        </g>
    </g>
</svg>