<?xml version="1.0" encoding="UTF-8" standalone="no"?>
<svg width="18px" height="18px" viewBox="0 0 18 18" version="1.1" xmlns="http://www.w3.org/2000/svg" xmlns:xlink="http://www.w3.org/1999/xlink">
    <!-- Generator: Sketch 39.1 (31720) - http://www.bohemiancoding.com/sketch -->
    <title>vip_3.1</title>
    <desc>Created with Sketch.</desc>
    <defs></defs>
    <g id="1.5" stroke="none" stroke-width="1" fill="none" fill-rule="evenodd">
        <g id="vip_3.1" fill="#000000">
            <g id="Group" transform="translate(-0.916802, 3.877661)">
                <path d="M2.45750569,3.30438597 L3.5543937,11.1091497 L4.03394067,11.0932958 L8.72879212,11.0932958 L8.72910303,11.0934787 L8.75293744,11.0932958 L8.75293744,11.0676489 L18.2391883,0.78722581 L18.2445225,0.787306282 L19,1.18349774e-13 L12.9412632,2.81367969e-08 L12.9417014,0.00598724753 L12.9352808,5.38458167e-14 L7.03120385,6.33134741 L6.15663418,0.108460838 L6.15663418,3.33066907e-16 L1.19170306,0 L1.19170306,0.00072127635 L0.941981531,0.00110849071 L1.40350825,3.2850417 L1.42773063,3.2834997 L1.42773063,3.30438597 L2.45750569,3.30438597 L2.45750569,3.30438597 Z M3.07992361,2.64321092 L4.21726948,10.385213 L8.31695264,10.385213 L17.2807045,0.772766062 L13.2396946,0.711803129 L6.5379184,7.89857824 L6.38430958,7.02505659 L6.40981319,6.99770732 L5.52586409,0.708082708 L1.75638172,0.708082708 L2.02175381,2.59630326 L3.07992361,2.59630326 L3.07992361,2.64321092 L3.07992361,2.64321092 Z" id="Combined-Shape"></path>
            </g>
        </g>
    </g>
</svg>