<?xml version="1.0" encoding="utf-8"?>
<!-- Generator: Adobe Illustrator 16.0.0, SVG Export Plug-In . SVG Version: 6.00 Build 0)  -->
<!DOCTYPE svg PUBLIC "-//W3C//DTD SVG 1.1//EN" "http://www.w3.org/Graphics/SVG/1.1/DTD/svg11.dtd">
<svg version="1.1" id="图层_1" xmlns="http://www.w3.org/2000/svg" xmlns:xlink="http://www.w3.org/1999/xlink" x="0px" y="0px"
	 width="24px" height="24px" viewBox="0 0 24 24" enable-background="new 0 0 24 24" xml:space="preserve">
<g>
	<path fill="#FFFFFF" d="M19.456,9h2.13C20.604,5.866,18.133,3.392,15,2.406v2.13C17.023,5.357,18.638,6.975,19.456,9z"/>
	<path fill="#FFFFFF" d="M4.488,15H2.359C3.341,18.161,5.837,20.654,9,21.632v-2.128C6.947,18.686,5.31,17.051,4.488,15z"/>
	<path fill="#FFFFFF" d="M9,4.52V2.392C5.846,3.366,3.354,5.851,2.367,9h2.13C5.321,6.96,6.955,5.335,9,4.52z"/>
	<path fill="#FFFFFF" d="M15,19.487v2.13c3.141-0.988,5.617-3.472,6.594-6.617h-2.129C18.649,17.035,17.031,18.662,15,19.487z"/>
	<path fill="#FFFFFF" d="M12,18c-0.553,0-1,0.447-1,1v1.015v2.017V23c0,0.553,0.447,1,1,1s1-0.447,1-1v-0.972v-2.021V19
		C13,18.447,12.553,18,12,18z"/>
	<path fill="#FFFFFF" d="M23,11h-1.006h-2.02H19c-0.553,0-1,0.447-1,1s0.447,1,1,1h0.979h2.017H23c0.553,0,1-0.447,1-1
		S23.553,11,23,11z"/>
	<path fill="#FFFFFF" d="M5,13c0.552,0,1-0.447,1-1s-0.448-1-1-1H3.979h-2.02H1c-0.553,0-1,0.447-1,1s0.447,1,1,1h0.958h2.017H5z"/>
	<path fill="#FFFFFF" d="M12,6c0.553,0,1-0.448,1-1V4.016V1.995V1c0-0.553-0.447-1-1-1s-1,0.447-1,1v0.992v2.017V5
		C11,5.552,11.447,6,12,6z"/>
	<path fill="#FFFFFF" d="M11.938,7.965c-2.211,0-4.004,1.793-4.004,4.004s1.793,4.002,4.004,4.002s4.002-1.791,4.002-4.002
		S14.148,7.965,11.938,7.965z M11.938,13.971c-1.104,0-2.004-0.898-2.004-2.002c0-1.104,0.899-2.004,2.004-2.004
		c1.104,0,2.002,0.899,2.002,2.004C13.939,13.072,13.041,13.971,11.938,13.971z"/>
</g>
</svg>
