<?xml version="1.0" encoding="utf-8"?>
<!-- Generator: Adobe Illustrator 16.0.0, SVG Export Plug-In . SVG Version: 6.00 Build 0)  -->
<!DOCTYPE svg PUBLIC "-//W3C//DTD SVG 1.1//EN" "http://www.w3.org/Graphics/SVG/1.1/DTD/svg11.dtd">
<svg version="1.1" id="图层_1" xmlns="http://www.w3.org/2000/svg" xmlns:xlink="http://www.w3.org/1999/xlink" x="0px" y="0px"
	 width="32px" height="32px" viewBox="0 0 32 32" enable-background="new 0 0 32 32" xml:space="preserve">
<title>项目管理</title>
<desc>Created with Sketch.</desc>
<g>
	<path d="M28.614,9.315L18.352,0.822c-1.299-1.075-3.399-1.079-4.703,0L3.386,9.315C2.896,9.72,2.5,10.569,2.5,11.197v13.947
		C2.5,28.931,5.571,32,9.348,32h13.304c3.781,0,6.848-3.076,6.848-6.855V11.197C29.5,10.562,29.11,9.726,28.614,9.315z M16,12.571
		c-1.575,0-2.857-1.279-2.857-2.857c0-1.575,1.279-2.857,2.857-2.857c1.574,0,2.857,1.279,2.857,2.857
		C18.857,11.289,17.578,12.571,16,12.571z"/>
</g>
</svg>
