<?xml version="1.0" encoding="UTF-8" standalone="no"?>
<svg width="32px" height="32px" viewBox="0 0 32 32" version="1.1" xmlns="http://www.w3.org/2000/svg" xmlns:xlink="http://www.w3.org/1999/xlink">
    <!-- Generator: Sketch 42 (36781) - http://www.bohemiancoding.com/sketch -->
    <title>32*32</title>
    <desc>Created with Sketch.</desc>
    <defs></defs>
    <g id="俏鱼切图" stroke="none" stroke-width="1" fill="none" fill-rule="evenodd">
        <g id="32*32" fill="#000000">
            <path d="M11.1242354,1.98095824 C11.1242354,1.98095824 10.9768828,1.05278637 12.0480838,0.742778639 C13.3527364,0.403949603 13.71655,1.54196374 13.71655,1.54196374 C14.3596376,3.77502094 15.1713874,4.84490476 15.5478801,5.20450657 C15.9857274,5.72821202 16.4555142,6.48740771 15.8584603,6.91762867 C14.9485072,7.27963164 14.0356766,6.48740771 14.0356766,6.48740771 C14.0356766,6.48740771 11.5520907,4.7976501 11.1242354,1.98095824 Z M28.1854501,1.9903457 C27.7575948,4.80703756 25.2740088,6.49679517 25.2740088,6.49679517 C25.2740088,6.49679517 24.3611783,7.2890191 23.4512252,6.92701613 C22.8541713,6.49679517 23.3239581,5.73759948 23.7618054,5.21389403 C24.1382981,4.85429222 24.9500478,3.7844084 25.5931354,1.5513512 C25.5931354,1.5513512 25.9569491,0.413337067 27.2616017,0.752166103 C28.3328026,1.06217383 28.1854501,1.9903457 28.1854501,1.9903457 Z M13.9108527,17.0925513 C13.9108527,16.3597935 14.5057864,15.7657759 15.2365901,15.7657759 L23.9482715,15.7657759 C24.680456,15.7657759 25.2740088,16.3546848 25.2740088,17.0925513 C25.2740088,17.8253091 24.6790752,18.4193266 23.9482715,18.4193266 L15.2365901,18.4193266 C14.5044055,18.4193266 13.9108527,17.8304177 13.9108527,17.0925513 Z M13.9108527,22.4127873 C13.9108527,21.6852485 14.5057864,21.0954617 15.2365901,21.0954617 L23.9482715,21.0954617 C24.680456,21.0954617 25.2740088,21.6801762 25.2740088,22.4127873 C25.2740088,23.1403262 24.6790752,23.730113 23.9482715,23.730113 L15.2365901,23.730113 C14.5044055,23.730113 13.9108527,23.1453985 13.9108527,22.4127873 Z M9.44493769,30.9361246 L9.44493769,10.7917641 C9.44493769,10.7917641 9.44493769,8.7443128 11.512942,8.7443128 L18.2662467,8.7443128 L18.2662467,1.04564734 C18.2662467,1.04564734 18.5206742,3.80251386e-15 19.7830653,3.55271368e-15 C21.0454563,3.55271368e-15 21.1933868,1.02372566 21.1933868,1.02372566 L21.1933868,8.7443128 L27.9319458,8.7443128 C29.9999501,8.7443128 29.9999501,10.7917641 29.9999501,10.7917641 L29.9999501,28.070895 C30.0076884,30.5729229 29.1172567,32.0964402 26.4840459,31.9857812 C26.4840459,31.9857812 24.5115451,32.0631673 24.1970129,30.5889611 C24.1970129,29.4408438 25.5931354,29.7584873 25.5931354,29.7584873 C26.7840439,29.8842442 27.0780423,29.4152319 27.0780423,28.070895 L27.0780423,12.6037044 C27.0780423,12.6037044 27.0341571,11.5799787 25.9918832,11.5799787 L13.4925249,11.5799787 C12.6426547,11.5799787 12.3628114,11.9135997 12.3628114,12.7452003 L12.3628114,30.9361246 C12.3628114,30.9361246 12.2186613,32.0170232 10.8857037,31.9997962 C9.55274618,31.9825693 9.44493769,30.9361246 9.44493769,30.9361246 Z M0.347569529,12.7452003 C-0.273357195,12.5147979 0.0729701427,11.9096141 0.347569529,11.5799787 C0.622168916,11.2503433 5.79074141,6.48740771 6.63894166,1.19301101 C6.63894166,1.19301101 6.95128043,0.00836933825 8.19016863,0.281047481 C9.42905682,0.553725623 9.14847978,1.98095824 9.14847978,1.98095824 C8.67031031,4.89148045 7.75575613,6.52031918 6.49676378,8.34477644 L6.49676378,30.9361246 C6.49676378,30.9361246 6.26456183,31.9857812 5.0287279,31.9857812 C3.79289398,31.9857812 3.5590784,30.9361246 3.5590784,30.9361246 L3.5590784,10.9751741 C2.53211083,12.3187617 1.04203877,12.8972445 0.347569529,12.7452003 Z" id="Combined-Shape"></path>
        </g>
    </g>
</svg>