<?xml version="1.0" encoding="UTF-8" standalone="no"?>
<svg width="32px" height="32px" viewBox="0 0 32 32" version="1.1" xmlns="http://www.w3.org/2000/svg" xmlns:xlink="http://www.w3.org/1999/xlink">
    <!-- Generator: Sketch 39.1 (31720) - http://www.bohemiancoding.com/sketch -->
    <title>名词解释图标</title>
    <desc>Created with Sketch.</desc>
    <defs>
        <rect id="path-1" x="0" y="0" width="32" height="32" rx="16"></rect>
        <mask id="mask-2" maskContentUnits="userSpaceOnUse" maskUnits="objectBoundingBox" x="0" y="0" width="32" height="32" fill="white">
            <use xlink:href="#path-1"></use>
        </mask>
    </defs>
    <g id="Page-1" stroke="none" stroke-width="1" fill="none" fill-rule="evenodd">
        <g id="名词解释图标">
            <g id="帮助-copy">
                <use id="Rectangle-2928-Copy-9" stroke="#3DC6B6" mask="url(#mask-2)" stroke-width="4" opacity="0.868295243" xlink:href="#path-1"></use>
                <path d="M10.6071726,11.1342657 C10.8573824,10.504892 11.257712,9.94265982 11.8081735,9.44755245 C12.3586349,8.95244508 12.9716397,8.58741376 13.647206,8.35244755 C14.3227724,8.11748134 15.0358595,8 15.7864887,8 C17.3044279,8 18.5679683,8.44894656 19.5771476,9.34685315 C20.586327,10.2447597 21.0909091,11.440552 21.0909091,13.034965 C21.0909091,13.6055978 20.961636,14.2139833 20.7030859,14.7594406 C20.4445358,15.3048978 20.2671269,15.6279724 19.0517098,16.7986014 C17.8362926,17.9692304 16.8874061,19.1920457 16.7272727,21.0909091 L14.5454545,21.0909091 C14.8991477,18.1209751 16.1034156,16.9328712 16.8874062,16.1188811 C17.6713967,15.304891 18.1759789,14.7132886 18.4011676,14.3440559 C18.6263564,13.9748233 18.7389491,13.4251785 18.7389491,12.6951049 C18.7389491,11.9650313 18.4804029,11.3188839 17.9633028,10.7566434 C17.4462026,10.1944028 16.6955846,9.91328671 15.7114262,9.91328671 C13.4928997,9.91328671 12.383653,11.2391476 12.3636364,13.8181818 L10.1818182,13.8181818 C10.2151795,12.6825114 10.3569629,11.7636395 10.6071726,11.1342657 Z M14.5454545,24.7272727 L14.5454545,22.5454545 L16.7272727,22.5454545 L16.7272727,24.7272727 L14.5454545,24.7272727 Z" id="？-copy-3" fill="#3DC6B6"></path>
            </g>
        </g>
    </g>
</svg>