<?xml version="1.0" encoding="UTF-8" standalone="no"?>
<svg width="48px" height="48px" viewBox="0 0 48 48" version="1.1" xmlns="http://www.w3.org/2000/svg" xmlns:xlink="http://www.w3.org/1999/xlink">
    <!-- Generator: Sketch 39.1 (31720) - http://www.bohemiancoding.com/sketch -->
    <title>帮助中心@2x</title>
    <desc>Created with Sketch.</desc>
    <defs></defs>
    <g id="icon-24/48/72" stroke="none" stroke-width="1" fill="none" fill-rule="evenodd">
        <g id="all" transform="translate(-408.000000, -210.000000)"></g>
        <g id="帮助中心@2x">
            <g id="Group" transform="translate(2.000000, 2.000000)">
                <rect id="Rectangle-2928" fill="#7ACD7B" x="0" y="0" width="44" height="44" rx="22"></rect>
                <rect id="Rectangle-2928-Copy-11" fill="#FFFFFF" x="10" y="10" width="24" height="24" rx="12"></rect>
                <path d="M18.3119266,18.3801471 C18.4954138,17.9022035 18.7889888,17.475247 19.1926606,17.0992647 C19.5963323,16.7232824 20.0458691,16.4460793 20.5412844,16.2676471 C21.0366997,16.0892148 21.5596303,16 22.1100917,16 C23.2232472,16 24.1498434,16.340928 24.8899083,17.0227941 C25.6299731,17.7046603 26,18.6127394 26,19.8235294 C26,20.2568653 25.9051997,20.7188705 25.7155963,21.1330882 C25.5259929,21.547306 25.3958931,21.7926474 24.5045872,22.6816176 C23.6132812,23.5705879 22.9174312,24.3400735 23,26 L21,26 C21.2727273,23.7189555 22.3425048,22.7835815 22.9174312,22.1654412 C23.4923576,21.5473008 23.8623845,21.0980406 24.0275229,20.8176471 C24.1926614,20.5372535 24.2752294,20.1198557 24.2752294,19.5654412 C24.2752294,19.0110266 24.0856288,18.5203453 23.706422,18.0933824 C23.3272152,17.6664194 22.776762,17.4529412 22.0550459,17.4529412 C20.4281264,17.4529412 19.6146789,18.4597939 19.6146789,20 L18,20 C18.024465,19.5558778 18.1284394,18.8580906 18.3119266,18.3801471 Z" id="？-copy-3" fill="#7ACD7B"></path>
                <polygon id="？-copy-2" fill="#7ACD7B" points="21 29 21 27 23 27 23 29"></polygon>
            </g>
        </g>
    </g>
</svg>