<?xml version="1.0" encoding="UTF-8" standalone="no"?>
<svg width="80px" height="80px" viewBox="0 0 80 80" version="1.1" xmlns="http://www.w3.org/2000/svg" xmlns:xlink="http://www.w3.org/1999/xlink">
    <!-- Generator: Sketch 39.1 (31720) - http://www.bohemiancoding.com/sketch -->
    <title>推荐@2x</title>
    <desc>Created with Sketch.</desc>
    <defs>
        <path d="M51.6746667,22.8366667 L54.9566667,26.118 L54.1853333,26.8886667 L55.1306667,27.8333333 L55.9006667,27.0626667 L59.356,30.5186667 L58.4486667,31.4253333 L59.3933333,32.37 L60.3006667,31.4626667 L63.5326667,34.6946667 L64.402,33.8246667 L61.1713333,30.5926667 L62.2893333,29.474 L61.3453333,28.5293333 L60.2266667,29.6486667 L56.7706667,26.1933333 L57.8773333,25.086 L56.932,24.142 L55.8266667,25.248 L52.5453333,21.9666667 L51.6746667,22.8366667 Z M49.3133333,25.248 L52.2213333,28.1566667 C49.7733333,28.766 47.4033333,28.948 45.112,28.7033333 L45.112,28.7033333 C45.054,29.0926667 44.9706667,29.5653333 44.8633333,30.1206667 L44.8633333,30.1206667 C46.0233333,30.2193333 47.2353333,30.2093333 48.4986667,30.0893333 L48.4986667,30.0893333 L43.5833333,35.0053333 L44.528,35.9493333 L50.7046667,29.7726667 C51.53,29.6186667 52.3753333,29.4206667 53.2406667,29.1753333 L53.2406667,29.1753333 L60.972,36.9073333 L61.8426667,36.0373333 L54.5713333,28.766 C54.8526667,28.6746667 55.1386667,28.5793333 55.4286667,28.4793333 L55.4286667,28.4793333 L54.4466667,27.498 C54.156,27.5973333 53.8686667,27.6906667 53.5826667,27.7773333 L53.5826667,27.7773333 L50.1826667,24.378 L49.3133333,25.248 Z M51.9106667,31.7486667 L56.7953333,36.6333333 L53.812,35.9873333 L53.204,36.5966667 L49.462,32.8546667 L48.592,33.7246667 L52.3333333,37.4666667 L50.8293333,38.97 C50.3653333,39.4346667 49.918,39.4513333 49.4866667,39.0206667 L49.4866667,39.0206667 C48.8573333,38.39 48.1946667,37.6606667 47.4986667,36.8326667 L47.4986667,36.8326667 C47.2086667,37.2553333 46.9266667,37.6446667 46.6533333,38.0006667 L46.6533333,38.0006667 C47.5646667,38.9293333 48.2813333,39.6533333 48.8033333,40.176 L48.8033333,40.176 C49.7073333,41.0793333 50.6473333,41.042 51.6253333,40.064 L51.6253333,40.064 L53.278,38.4106667 L56.5466667,41.6793333 L57.4173333,40.8093333 L54.148,37.5406667 L54.3966667,37.2926667 L58.3373333,38.1746667 L59.182,37.3293333 L52.7553333,30.9033333 L51.9106667,31.7486667 Z" id="path-1"></path>
        <path d="M37.77,9.606 L36.254,8.09 L35.384,8.96 L36.9,10.476 L33.8853333,13.4906667 C33.2393333,13.1093333 32.5746667,12.7053333 31.8913333,12.2786667 L31.8913333,12.2786667 L30.946,13.472 C31.5513333,13.7953333 32.1913333,14.1406667 32.8666667,14.51 L32.8666667,14.51 L29.4793333,17.8966667 C29.1566667,18.22 28.8373333,18.2246667 28.522,17.9093333 L28.522,17.9093333 C28.274,17.6613333 27.9586667,17.3126667 27.578,16.8653333 L27.578,16.8653333 C27.288,17.288 26.994,17.6813333 26.6953333,18.0453333 L26.6953333,18.0453333 C27.1173333,18.4846667 27.5493333,18.8993333 27.988,19.2886667 L27.988,19.2886667 C28.684,19.902 29.4546667,19.786 30.3,18.9406667 L30.3,18.9406667 L34.066,15.1746667 C34.692,15.5186667 35.3466667,15.8833333 36.03,16.2686667 L36.03,16.2686667 C36.254,15.962 36.5486667,15.6093333 36.9126667,15.212 L36.9126667,15.212 C36.3206667,14.8933333 35.7033333,14.5493333 35.0606667,14.1806667 L35.0606667,14.1806667 L37.832,11.4086667 L39.274,12.85 L40.1433333,11.98 L38.7026667,10.5386667 L41.064,8.17666667 L40.1313333,7.24466667 L37.77,9.606 Z M37.1486667,13.41 C37.1813333,14.0066667 37.1813333,14.47 37.1486667,14.802 L37.1486667,14.802 C37.704,14.7266667 38.2606667,14.6426667 38.8206667,14.5466667 L38.8206667,14.5466667 L30.8466667,22.5206667 L31.7913333,23.4653333 L32.7233333,22.5326667 L39.5353333,29.344 L40.3553333,28.524 L37.074,25.2426667 L39.038,23.2786667 L41.9466667,26.1873333 L42.7913333,25.342 L39.8833333,22.4333333 L41.81,20.5073333 L44.718,23.4153333 L45.564,22.57 L42.6553333,19.662 L44.5813333,17.7353333 L47.664,20.8173333 L48.5093333,19.9726667 L42.294,13.758 C43.2513333,13.4966667 44.2173333,13.1946667 45.1906667,12.85 L45.1906667,12.85 L44.5693333,11.6073333 C41.9506667,12.5853333 39.4766667,13.1853333 37.1486667,13.41 L37.1486667,13.41 Z M39.1246667,16.1313333 L41.0513333,14.2046667 L43.6366667,16.7906667 L41.71,18.7173333 L39.1246667,16.1313333 Z M36.3526667,18.9033333 L38.28,16.9766667 L40.8653333,19.5626667 L38.9386667,21.4893333 L36.3526667,18.9033333 Z M33.544,21.7126667 L35.508,19.7486667 L38.0926667,22.3346667 L36.1293333,24.298 L33.544,21.7126667 Z M45.3153333,16.5793333 L46.7073333,16.9026667 C46.8733333,16.0573333 47.0133333,15.1706667 47.1293333,14.2426667 L47.1293333,14.2426667 L45.862,13.9446667 C45.7046667,14.8806667 45.522,15.7593333 45.3153333,16.5793333 L45.3153333,16.5793333 Z" id="path-3"></path>
    </defs>
    <g id="icon-40/80/120" stroke="none" stroke-width="1" fill="none" fill-rule="evenodd">
        <g id="all" transform="translate(-941.000000, -745.000000)"></g>
        <g id="推荐@2x">
            <g id="Group" transform="translate(8.000000, 0.000000)">
                <polygon id="Fill-1" fill="#F8611F" points="0 0 72 72 72 28.8013333 43.1986667 0"></polygon>
                <mask id="mask-2" fill="white">
                    <use xlink:href="#path-1"></use>
                </mask>
                <g id="Clip-3"></g>
                <polygon id="Fill-2" fill="#FFFFFF" mask="url(#mask-2)" points="53.3157333 15.7858 70.2350667 32.7058 53.4024 49.5384667 36.4824 32.6191333"></polygon>
                <mask id="mask-4" fill="white">
                    <use xlink:href="#path-3"></use>
                </mask>
                <g id="Clip-6"></g>
                <polygon id="Fill-5" fill="#FFFFFF" mask="url(#mask-4)" points="38.5657333 0.89 55.6350667 17.9593333 38.6030667 34.9906667 21.5337333 17.9213333"></polygon>
            </g>
        </g>
    </g>
</svg>