<?xml version="1.0" encoding="utf-8"?>
<!-- Generator: Adobe Illustrator 16.0.0, SVG Export Plug-In . SVG Version: 6.00 Build 0)  -->
<!DOCTYPE svg PUBLIC "-//W3C//DTD SVG 1.1//EN" "http://www.w3.org/Graphics/SVG/1.1/DTD/svg11.dtd">
<svg version="1.1" id="图层_1" xmlns="http://www.w3.org/2000/svg" xmlns:xlink="http://www.w3.org/1999/xlink" x="0px" y="0px"
	 width="32px" height="32px" viewBox="0 0 32 32" enable-background="new 0 0 32 32" xml:space="preserve">
<title>退款</title>
<desc>Created with Sketch.</desc>
<g>
	<path d="M20.5,13.4v-0.533h-4.867v1.467h3.933C20.188,14.334,20.5,14.023,20.5,13.4z"/>
	<rect x="15.633" y="10.134" width="4.867" height="1.467"/>
	<path d="M16,0C7.164,0,0,7.164,0,16c0,8.836,7.164,16,16,16c8.836,0,16-7.164,16-16C32,7.164,24.836,0,16,0z M13.633,8.867h8.734
		v4.6c0.043,1.512-0.689,2.245-2.201,2.2h-4.533V19c0.667-0.177,1.333-0.443,2-0.8c-0.444-0.622-0.799-1.333-1.066-2.133h2
		c0.268,0.666,0.556,1.223,0.867,1.666c0.8-0.399,1.355-0.955,1.666-1.666h1.934c-0.578,1.199-1.467,2.066-2.666,2.6
		c0.621,0.533,1.6,1,2.933,1.4v1.267c-2.89-0.577-4.756-1.601-5.6-3.067v1.4c-1.156,0.711-2.512,1.289-4.067,1.733V8.867z
		 M11.1,8.533c0.577,1.245,0.977,2.356,1.2,3.334h-2c-0.223-1.2-0.578-2.311-1.066-3.334H11.1z M23.7,23.2h-9.667
		c-1.378,0-2.356-0.423-2.933-1.267c-0.49,0.755-1.423,1.267-2.8,1.533v-1.2c1.067-0.399,1.555-1.11,1.467-2.133v-5.533H8.3v-1.4
		h3.534v6.4c0.043,1.467,0.822,2.223,2.333,2.267H23.7V23.2z"/>
</g>
</svg>
