<svg xmlns="http://www.w3.org/2000/svg" width="100" height="100" viewBox="0 0 100 100">
    <path d="M49.95 2.39c-1.37 0-6.035.482-8.098 6.725l-7.44 22.525c-.1.138-.345.453-.506.514l-24.757.008c-6.543.04-8.445 4.34-8.874 5.66-.422 1.318-1.405 5.92 3.864 9.825l20.164 14.066c.09.146.183.428.19.605L17.34 84.936c-1.327 4.174-.215 6.947.943 8.545 1.458 2 3.734 3.15 6.235 3.15 1.97 0 3.965-.71 5.92-2.122l19.197-14.19c.06-.015.17-.036.314-.036.153 0 .26.02.32.037L69.47 94.5c1.958 1.42 3.952 2.13 5.923 2.13 2.507 0 4.778-1.15 6.236-3.15 1.166-1.597 2.27-4.37.95-8.544L75.413 62.32c.008-.18.1-.46.2-.606l20.085-14.066c5.27-3.904 4.287-8.506 3.86-9.825-.423-1.32-2.325-5.622-8.864-5.66l-24.683-.008c-.17-.062-.406-.376-.514-.514l-7.44-22.524c-2.062-6.243-6.725-6.727-8.105-6.727z"/>
</svg>
