<?xml version="1.0" encoding="utf-8"?>
<!-- Generator: Adobe Illustrator 19.2.1, SVG Export Plug-In . SVG Version: 6.00 Build 0)  -->
<!DOCTYPE svg PUBLIC "-//W3C//DTD SVG 1.1//EN" "http://www.w3.org/Graphics/SVG/1.1/DTD/svg11.dtd">
<svg width="100px" height="100px" version="1.1" id="图层_1" xmlns="http://www.w3.org/2000/svg" xmlns:xlink="http://www.w3.org/1999/xlink" x="0px" y="0px"
	 viewBox="0 0 100 100" style="enable-background:new 0 0 100 100;" xml:space="preserve">
<style type="text/css">
	.st0{fill:#FFFFFF;}
</style>
<g>
	<path class="st0" d="M89.9,0c0,0-61.6,0-61.7,0C22.5,0,18,5,18,11.1V50H0.1v43.8c0,3.4,2.8,6.2,6.2,6.2h11.8h71.8
		c5.6-0.1,10.1-5,10.1-11.1V11.1C99.9,5,95.5,0.1,89.9,0z M8.2,94.4c-1.5,0-2.7-1.2-2.7-2.7c0-0.7,0-36.1,0-36.1h12.3v38.8
		C16.5,94.4,8.9,94.4,8.2,94.4z M94.6,89c0,3-2.4,5.4-5.5,5.4H23.4V11c0-3,2.4-5.4,5.5-5.4h60.2c3,0,5.5,2.4,5.5,5.4V89z"/>
	<path class="st0" d="M80.1,55.6H63v-8.9h14.2c1.6,0,3-1.3,3-3c0-1.6-1.3-3-3-3H64.4l-0.2-0.2l10-12.3c1-1.3,0.8-3.1-0.4-4.2
		c-1.3-1-3.1-0.8-4.2,0.4l-9.2,11.4l-9.5-11.3c-1.1-1.3-2.9-1.4-4.2-0.4c-1.3,1.1-1.4,2.9-0.4,4.2l10.3,12.3H43.6c-1.6,0-3,1.3-3,3
		c0,1.6,1.3,3,3,3h13.5v8.9H40.2c-1.6,0-3,1.3-3,3s1.3,3,3,3h16.9v12.2c0,1.6,1.3,3,3,3c1.6,0,3-1.3,3-3V61.5h17.1c1.6,0,3-1.3,3-3
		S81.7,55.6,80.1,55.6z"/>
</g>
</svg>
