<?xml version="1.0" encoding="utf-8"?>
<!-- Generator: Adobe Illustrator 16.0.0, SVG Export Plug-In . SVG Version: 6.00 Build 0)  -->
<!DOCTYPE svg PUBLIC "-//W3C//DTD SVG 1.1//EN" "http://www.w3.org/Graphics/SVG/1.1/DTD/svg11.dtd">
<svg version="1.1" id="图层_1" xmlns="http://www.w3.org/2000/svg" xmlns:xlink="http://www.w3.org/1999/xlink" x="0px" y="0px"
	 width="32px" height="32px" viewBox="0 0 32 32" enable-background="new 0 0 32 32" xml:space="preserve">
<title>搜索</title>
<desc>Created with Sketch.</desc>
<path id="Combined-Shape" d="M20.359,22.48c-4.708,3.664-11.518,3.332-15.845-0.995c-4.686-4.687-4.686-12.284,0-16.971
	c4.687-4.686,12.284-4.686,16.971,0c4.327,4.327,4.659,11.137,0.995,15.845l8.08,8.08c0.586,0.586,0.586,1.535,0,2.121
	s-1.535,0.586-2.121,0L20.359,22.48z M19.363,19.363c3.516-3.514,3.516-9.212,0-12.727c-3.514-3.515-9.212-3.515-12.727,0
	c-3.515,3.515-3.515,9.213,0,12.727C10.151,22.879,15.849,22.879,19.363,19.363z"/>
</svg>
