<svg xmlns="http://www.w3.org/2000/svg" width="100" height="100" viewBox="0 0 100 100">
    <path fill-rule="evenodd" clip-rule="evenodd" fill="#040000" d="M79.713 80.756L99 100H86.863l-1.822-2H14.96l-1.823 2H1l19.287-19.244C14.117 79.056 10 75.284 10 67.494V21.76C10 9.742 19.768 0 31.818 0H68.18C80.233 0 90 9.742 90 21.76v45.734c0 7.79-4.117 11.563-10.287 13.262zM22.248 90h55.504l-7.318-8.03c-.74.02-1.492.03-2.252.03H31.818c-.76 0-1.512-.01-2.252-.03L22.248 90zM82 23.102C82 13.504 76.47 8 66.83 8H33.17C23.527 8 18 13.504 18 23.102V39h64V23.102zM82 47H18v17.403C18 74 26.36 74 36 74h29c9.64 0 17 0 17-9.597V47zM66.5 66c-3.037 0-5.5-2.463-5.5-5.5s2.463-5.5 5.5-5.5 5.5 2.463 5.5 5.5-2.463 5.5-5.5 5.5zm-33 0c-3.037 0-5.5-2.463-5.5-5.5s2.463-5.5 5.5-5.5 5.5 2.463 5.5 5.5-2.463 5.5-5.5 5.5z"/>
</svg>
