<svg xmlns="http://www.w3.org/2000/svg" width="100" height="100" viewBox="0 0 100 100">
    <path d="M57.316 34.368c-.333-1.75-1.175-3.423-2.535-4.78L35.775 10.583c-3.602-3.604-9.437-3.604-13.04 0L3.726 29.59c-1.353 1.354-2.197 3.02-2.533 4.77-.13.624-.2 1.267-.2 1.928v47.36c0 5.232 4.243 9.475 9.475 9.475h37.575c5.232 0 9.474-4.242 9.474-9.474V36.286c0-.657-.07-1.3-.2-1.92zm-6.61 46.74c0 3.975-1.797 5.774-5.77 5.774H13.572c-3.97 0-5.768-1.8-5.768-5.773V38.294c0-2.734 1.045-4.053 2.073-5.084l14.43-14.43c1.37-1.363 3.16-2.99 4.95-2.99 1.792 0 3.582 1.627 4.95 2.992l14.43 14.43c1.027 1.03 2.072 2.645 2.072 5.083V81.11z"/>
    <circle cx="29.489" cy="36.089" r="4.737"/>
    <path d="M96.23 44.17L62.743 10.684c-.463-.462-.967-.87-1.494-1.217-1.478-1-3.26-1.586-5.174-1.586H36.51l6.912 6.91 10.867-.003c1.453.005 3.33.407 5.06 2.133l29.94 29.938c2.808 2.808 2.808 6.023 0 8.83L67.78 77.196c-2.595 2.596-5.523 2.68-8.17.477v8.434c0 .06-.018.115-.018.17 3.377 1.292 7.346.59 10.07-2.136L96.23 57.573c3.702-3.7 3.702-9.7 0-13.4z"/>
</svg>
