<?xml version="1.0" encoding="utf-8"?>
<!-- Generator: Adobe Illustrator 16.0.0, SVG Export Plug-In . SVG Version: 6.00 Build 0)  -->
<!DOCTYPE svg PUBLIC "-//W3C//DTD SVG 1.1//EN" "http://www.w3.org/Graphics/SVG/1.1/DTD/svg11.dtd">
<svg version="1.1" id="图层_1" xmlns="http://www.w3.org/2000/svg" xmlns:xlink="http://www.w3.org/1999/xlink" x="0px" y="0px"
	 width="32px" height="32px" viewBox="0 0 32 32" enable-background="new 0 0 32 32" xml:space="preserve">
<title>首页导航－三条</title>
<desc>Created with Sketch.</desc>
<g>
	<g id="图标_xFF0D_确认版32">
		<g id="首页导航_xFF0D_三条">
			<g id="Group-25" transform="translate(1.500000, 0.000000)">
				<g id="Group-8">
					<path id="Rectangle-15" d="M8.146,8h12.71c0.494,0,0.895,0.398,0.895,0.889l0,0c0,0.491-0.4,0.889-0.895,0.889H8.146
						C7.651,9.778,7.25,9.38,7.25,8.889l0,0C7.25,8.398,7.651,8,8.146,8z"/>
					<path id="Rectangle-15-Copy" d="M8.146,15.111h12.71c0.494,0,0.895,0.397,0.895,0.889l0,0c0,0.49-0.4,0.889-0.895,0.889H8.146
						C7.651,16.889,7.25,16.49,7.25,16l0,0C7.25,15.509,7.651,15.111,8.146,15.111z"/>
					<path id="Rectangle-15-Copy-2" d="M8.146,22.222h12.71c0.494,0,0.895,0.397,0.895,0.889l0,0c0,0.491-0.4,0.89-0.895,0.89H8.146
						c-0.495,0-0.896-0.398-0.896-0.889l0,0C7.25,22.619,7.651,22.222,8.146,22.222z"/>
				</g>
			</g>
		</g>
	</g>
</g>
</svg>
