<svg id="图层_1" data-name="图层 1" xmlns="http://www.w3.org/2000/svg" viewBox="0 0 32 32"><title>极速开票_开店宝icon_</title><path d="M28,8.3a.94.94,0,0,0-1-1H5a.94.94,0,0,0-1,1,.94.94,0,0,0,1,1H6V27.8a2.48,2.48,0,0,0,2.5,2.5h15A2.48,2.48,0,0,0,26,27.8V9.3h1A.94.94,0,0,0,28,8.3Zm-7,12H11a1,1,0,0,1,0-2H21a1,1,0,0,1,0,2Zm0-6H11a1,1,0,0,1,0-2H21a1,1,0,0,1,0,2Z"/><path d="M29,2.3H3a3,3,0,0,0-3,3v6a3,3,0,0,0,3,3H4a1,1,0,0,0,0-2H3a.94.94,0,0,1-1-1v-6a.94.94,0,0,1,1-1H29a.94.94,0,0,1,1,1v6a.94.94,0,0,1-1,1H28a1,1,0,0,0,0,2h1a3,3,0,0,0,3-3v-6A3,3,0,0,0,29,2.3Z"/></svg>