<svg xmlns="http://www.w3.org/2000/svg" width="100" height="100" viewBox="0 0 100 100">
    <path d="M49.967 1c-27.06 0-49 21.94-49 49 0 27.062 21.94 49 49 49 27.062 0 49-21.938 49-49 0-27.06-21.94-49-49-49zm0 85.085C30.04 86.085 13.88 69.928 13.88 50c0-19.927 16.16-36.085 36.086-36.085C69.894 13.915 86.05 30.073 86.05 50c.002 19.928-16.155 36.085-36.083 36.085zM68.52 43.542H56.424V30.628c0-3.356-2.722-6.078-6.077-6.078h-.76c-3.357 0-6.078 2.72-6.078 6.078V50.38c0 3.355 2.72 6.077 6.072 6.077H68.52c3.356 0 6.077-2.722 6.077-6.077v-.76c0-3.356-2.72-6.078-6.077-6.078z" fill="#F16325"/>
</svg>
