<?xml version="1.0" encoding="UTF-8" standalone="no"?>
<svg width="48px" height="48px" viewBox="0 0 48 48" version="1.1" xmlns="http://www.w3.org/2000/svg" xmlns:xlink="http://www.w3.org/1999/xlink">
    <!-- Generator: Sketch 39.1 (31720) - http://www.bohemiancoding.com/sketch -->
    <title>直通车@2x</title>
    <desc>Created with Sketch.</desc>
    <defs>
        <rect id="path-1" x="0" y="0" width="44" height="44" rx="22"></rect>
        <rect id="path-3" x="12" y="10" width="20" height="21" rx="4"></rect>
        <mask id="mask-4" maskContentUnits="userSpaceOnUse" maskUnits="objectBoundingBox" x="0" y="0" width="20" height="21" fill="white">
            <use xlink:href="#path-3"></use>
        </mask>
        <polyline id="path-5" points="10 35 15.7842194 29 28.2157806 29 34 35"></polyline>
        <mask id="mask-6" maskContentUnits="userSpaceOnUse" maskUnits="objectBoundingBox" x="0" y="0" width="24" height="6" fill="white">
            <use xlink:href="#path-5"></use>
        </mask>
    </defs>
    <g id="icon-24/48/72" stroke="none" stroke-width="1" fill="none" fill-rule="evenodd">
        <g id="all" transform="translate(-408.000000, -617.000000)"></g>
        <g id="直通车@2x">
            <g id="Group" transform="translate(2.000000, 2.000000)">
                <mask id="mask-2" fill="white">
                    <use xlink:href="#path-1"></use>
                </mask>
                <use id="Mask" fill="#FF9D3C" xlink:href="#path-1"></use>
                <g id="Rectangle-678" mask="url(#mask-2)" stroke-width="4" stroke="#FFFFFF">
                    <use mask="url(#mask-4)" xlink:href="#path-3"></use>
                </g>
                <g id="Rectangle-683" mask="url(#mask-2)" stroke-width="4" stroke="#FFFFFF">
                    <use mask="url(#mask-6)" xlink:href="#path-5"></use>
                </g>
                <path d="M13,23 L31,23 L31,29 L13,29 L13,23 Z M19,15 C19,14.4477153 19.4509752,14 19.990778,14 L24.009222,14 C24.5564136,14 25,14.4438648 25,15 C25,15.5522847 24.5490248,16 24.009222,16 L19.990778,16 C19.4435864,16 19,15.5561352 19,15 Z" id="Rectangle-679" fill="#FFFFFF" mask="url(#mask-2)"></path>
                <rect id="Rectangle-680-Copy" fill="#FF9D3C" mask="url(#mask-2)" x="25" y="26" width="3" height="2" rx="1"></rect>
                <rect id="Rectangle-680" fill="#FF9D3C" mask="url(#mask-2)" x="16" y="26" width="3" height="2" rx="1"></rect>
            </g>
        </g>
    </g>
</svg>