<?xml version="1.0" encoding="UTF-8"?>
<svg width="62px" height="62px" viewBox="0 0 62 62" version="1.1" xmlns="http://www.w3.org/2000/svg" xmlns:xlink="http://www.w3.org/1999/xlink">
    <!-- Generator: Sketch 48.2 (47327) - http://www.bohemiancoding.com/sketch -->
    <title>团购-高亮</title>
    <desc>Created with Sketch.</desc>
    <defs></defs>
    <g id="团购收益-切图" stroke="none" stroke-width="1" fill="none" fill-rule="evenodd">
        <g id="团购-高亮">
            <circle id="Oval" fill="#FFA64B" cx="31" cy="31" r="31"></circle>
            <path d="M48.7142857,38.0857143 L23.9142857,38.0857143 L23.9142857,37.2 C23.9142857,30.8408356 29.069407,25.6857143 35.4285714,25.6857143 L37.2,25.6857143 C43.5591644,25.6857143 48.7142857,30.8408356 48.7142857,37.2 L48.7142857,38.0857143 Z M48.7142857,41.6285714 L48.7142857,46.9428571 C48.7142857,47.9211901 47.9211901,48.7142857 46.9428571,48.7142857 L25.6857143,48.7142857 C24.7073813,48.7142857 23.9142857,47.9211901 23.9142857,46.9428571 L23.9142857,41.6285714 L48.7142857,41.6285714 Z M20.6738215,48.7142857 L17.3227231,48.7142857 C16.4279936,48.7142857 15.6756507,48.0429975 15.5740967,47.15405 L12.4347623,19.67405 C12.3244356,18.7083103 13.0178848,17.8359861 13.9836244,17.7256593 C14.049943,17.7180831 14.1166388,17.7142857 14.1833887,17.7142857 L23.0285714,17.7142857 L23.0285714,13.2857143 L26.5714286,13.2857143 L26.5714286,17.7142857 L35.0355275,17.7142857 C36.0075487,17.7142857 36.7955275,18.5022646 36.7955275,19.4742857 C36.7955275,19.541057 36.7917277,19.6077743 36.7841466,19.6741138 L36.5020243,22.1428571 L35.4285714,22.1428571 C27.1127411,22.1428571 20.3714286,28.8841696 20.3714286,37.2 L20.3714286,46.9428571 C20.3714286,47.5639827 20.4779875,48.1602202 20.6738215,48.7142857 Z" id="Combined-Shape" fill="#FFFFFF" fill-rule="nonzero"></path>
        </g>
    </g>
</svg>