<?xml version="1.0" encoding="UTF-8"?>
<svg width="32px" height="32px" viewBox="0 0 32 32" version="1.1" xmlns="http://www.w3.org/2000/svg" xmlns:xlink="http://www.w3.org/1999/xlink">
    <!-- Generator: Sketch 49 (51002) - http://www.bohemiancoding.com/sketch -->
    <title>预定</title>
    <desc>Created with Sketch.</desc>
    <defs></defs>
    <g id="预定" stroke="none" stroke-width="1" fill="none" fill-rule="evenodd">
        <path d="M11.4780387,5.16437889 C8.85864512,6.58288328 7.17419355,9.3922935 7.17419355,12.716129 C7.17419355,15.3335464 8.33238199,17.6242675 10.5987542,19.5414079 C10.6204004,19.5597186 10.6395828,19.5798539 10.6560447,19.6013963 C10.7731984,19.7547061 10.7391109,19.9601714 10.5670988,20.0792318 L4.24854414,23.505883 C3.62929614,23.9286678 3.30322581,24.5380826 3.30322581,25.1915956 C3.30322581,25.3448282 3.31139033,25.4961539 3.32730809,25.6451613 L3.08725203,25.6451613 C1.38220982,25.6451613 2.08807449e-16,24.2629515 0,22.5579093 C0,22.2276521 0.164606495,21.9173328 0.442826132,21.7230849 L6.14506248,18.7028256 C6.62533409,18.3675087 6.73151693,17.721917 6.38222848,17.2608563 C6.33677542,17.2008582 6.28471736,17.145739 6.22695654,17.0964538 C4.42690666,15.5605382 3.52688172,13.764946 3.52688172,11.7096774 C3.52688172,8.0040249 6.17466008,5 9.97849462,5 C10.501489,5 11.0026294,5.0567877 11.4780387,5.16437889 Z M19.8331341,5.36154738 C20.5049735,5.12720308 21.2387633,5 22.0215054,5 C25.8253399,5 28.4731183,8.0040249 28.4731183,11.7096774 C28.4731183,13.764946 27.5730933,15.5605382 25.7730435,17.0964538 C25.3291748,17.4751904 25.2891677,18.1276506 25.683685,18.5537645 C25.7350237,18.6092149 25.7924396,18.6591907 25.8549375,18.7028256 L31.5571739,21.7230849 C31.8353935,21.9173328 32,22.2276521 32,22.5579093 C32,24.2629515 30.6177902,25.6451613 28.912748,25.6451613 L27.6404338,25.6451613 C27.6563516,25.4961539 27.6645161,25.3448282 27.6645161,25.1915956 C27.6645161,24.5380826 27.3384458,23.9286678 26.7950222,23.5525301 C22.5014858,21.2133232 20.3483246,20.0368744 20.3355387,20.0231835 C20.2008446,19.878956 20.2135918,19.6728585 20.3689878,19.5414079 C22.6353599,17.6242675 23.7935484,15.3335464 23.7935484,12.716129 C23.7935484,9.53992537 22.2554074,6.83346434 19.8331341,5.36154738 Z M11.6654194,18.2804359 C9.75567587,16.6649702 8.82580645,14.8258295 8.82580645,12.716129 C8.82580645,8.79851497 11.6347307,5.82580645 15.483871,5.82580645 C19.3330112,5.82580645 22.1419355,8.79851497 22.1419355,12.716129 C22.1419355,14.8258295 21.2120661,16.6649702 19.3023225,18.2804359 C18.4279433,19.0200795 18.3478739,20.3146405 19.1284599,21.1504749 C19.2283869,21.2574745 19.3397816,21.3535985 19.4606614,21.437267 L25.9308649,24.9572123 C25.9570865,24.9811977 26.0129032,25.0855173 26.0129032,25.1915956 C26.0129032,26.6107988 24.8624117,27.7612903 23.4432085,27.7612903 L7.52453339,27.7612903 C6.10533021,27.7612903 4.95483871,26.6107988 4.95483871,25.1915956 C4.95483871,25.0855173 5.01065544,24.9811977 5.11270143,24.9105652 L11.4312561,21.483914 C12.4492986,20.7850985 12.6615553,19.5057031 11.9683598,18.5985731 C11.8793706,18.48212 11.7777783,18.3754811 11.6654194,18.2804359 Z" id="Combined-Shape" fill="#000000"></path>
    </g>
</svg>