<?xml version="1.0" encoding="utf-8"?>
<!-- Generator: Adobe Illustrator 16.0.0, SVG Export Plug-In . SVG Version: 6.00 Build 0)  -->
<!DOCTYPE svg PUBLIC "-//W3C//DTD SVG 1.1//EN" "http://www.w3.org/Graphics/SVG/1.1/DTD/svg11.dtd">
<svg version="1.1" id="图层_1" xmlns="http://www.w3.org/2000/svg" xmlns:xlink="http://www.w3.org/1999/xlink" x="0px" y="0px"
	 width="32px" height="32px" viewBox="0 0 32 32" enable-background="new 0 0 32 32" xml:space="preserve">
<path d="M26.168,0H5.833C2.619,0,0,2.61,0,5.832v7.317v13.019c0,2.333,1.386,4.338,3.373,5.27C4.122,31.788,4.95,32,5.833,32h20.335
	C29.381,32,32,29.39,32,26.168V5.832C32,2.619,29.39,0,26.168,0z M29.715,26.168c0,1.956-1.593,3.547-3.547,3.547H6.275
	c0.349-0.255,0.693-0.512,1.011-0.787c0.092-0.08,0.862-1.024,0.105-1.812c-0.62-0.646-0.5-0.872-0.076-1.319
	c1.064-1.123,6.516-5.549,13.003-6.78c0.042-0.017,0.1-0.032,0.181-0.046c0.705-0.114,0.095-0.484,0.104-0.482
	c-1.231-0.9-1.335-2.406-1.335-2.406c0.779,0.603,1.99,1.456,3.384,1.922c0.56,0.186,1.312,0.122,1.754,0.118
	c2.621-0.352,2.781-0.368,3.142-0.771c0,0,1.002-1.083,1.002-2.037c0,0-0.531-1.375-6.174-3.693c-1.289-0.528-2.489-0.92-3.573-1.21
	c-0.835-0.988-2.236-2.062-2.787-2.478C15.444,7.5,14.21,6.56,13.139,6.546h-0.047c-0.533,0.007-1.019,0.25-1.358,0.906
	c-0.446,0.86,0.004,1.596,0.682,2.182c-1.17,0.042-4.17,0.311-3.938,1.985c0.246,1.775,3.593,1.722,5.303,1.503
	c0.683-0.087,1.431,0.325,1.282,1.049c-0.123,0.604-0.72,2.164-10.272-0.052c-0.892-0.207-1.716-0.386-2.506-0.548V5.832
	c0-1.956,1.593-3.548,3.548-3.548h20.335c1.956,0,3.547,1.594,3.547,3.548V26.168z M18.233,13.065
	c0.186-0.603,0.825-0.94,1.427-0.756c0.603,0.187,0.94,0.827,0.755,1.429c-0.188,0.603-0.825,0.939-1.428,0.753
	C18.385,14.307,18.047,13.668,18.233,13.065z"/>
</svg>
