<?xml version="1.0" encoding="UTF-8" standalone="no"?>
<svg width="18px" height="18px" viewBox="0 0 18 18" version="1.1" xmlns="http://www.w3.org/2000/svg" xmlns:xlink="http://www.w3.org/1999/xlink" xmlns:sketch="http://www.bohemiancoding.com/sketch/ns">
    <!-- Generator: Sketch 3.2.2 (9983) - http://www.bohemiancoding.com/sketch -->
    <title>团购项目诊断</title>
    <desc>Created with Sketch.</desc>
    <defs></defs>
    <g id="经营效果" stroke="none" stroke-width="1" fill="none" fill-rule="evenodd" sketch:type="MSPage">
        <g id="团购项目诊断" sketch:type="MSArtboardGroup" fill="#ABABAB">
            <path d="M16,5.9955775 C16,5.44483697 15.5492199,5 14.9931545,5 L4.00684547,5 C3.44994876,5 3,5.44573523 3,5.9955775 L3,7 L16,7 L16,5.9955775 Z M16,8 L16,15.0044225 C16,15.5542648 15.5500512,16 14.9931545,16 L4.00684547,16 C3.45078007,16 3,15.555163 3,15.0044225 L3,8 L17,8 L16,8 Z M13,2.99895656 C13,2.44266033 12.5564136,2 12.009222,2 L6.99077797,2 C6.45097518,2 6,2.44724809 6,2.99895656 L6,4 L3.99406028,4 C2.89451376,4 2,4.89666625 2,6.00276013 L2,14.9972399 C2,16.1064574 2.8927712,17 3.99406028,17 L15.0059397,17 C16.1054862,17 17,16.1033337 17,14.9972399 L17,6.00276013 C17,4.89354265 16.1072288,4 15.0059397,4 L13,4 L13,2.99895656 Z M12,4 L12,3 L7,3 L7,4 L12,4 Z M10,9 L9,9 L9,11 L7,11 L7,12 L9,12 L9,14 L10,14 L10,12 L12,12 L12,11 L10,11 L10,9 Z" id="Rectangle-235" sketch:type="MSShapeGroup"></path>
        </g>
    </g>
</svg>