<?xml version="1.0" encoding="utf-8"?>
<!-- Generator: Adobe Illustrator 16.0.0, SVG Export Plug-In . SVG Version: 6.00 Build 0)  -->
<!DOCTYPE svg PUBLIC "-//W3C//DTD SVG 1.1//EN" "http://www.w3.org/Graphics/SVG/1.1/DTD/svg11.dtd">
<svg version="1.1" id="图层_1" xmlns="http://www.w3.org/2000/svg" xmlns:xlink="http://www.w3.org/1999/xlink" x="0px" y="0px"
	 width="50px" height="50px" viewBox="0 0 50 50" enable-background="new 0 0 50 50" xml:space="preserve">
<g>
	<ellipse cx="13.094" cy="22.132" rx="2.381" ry="2.368"/>
	<path d="M40.477,2H7.142C5.827,2,4.761,3.061,4.761,4.368c0,1.308,1.066,2.369,2.381,2.369h33.334c2.629,0,4.762,2.123,4.762,4.735
		v28.422c0,1.309,1.066,2.368,2.381,2.368S50,41.203,50,39.895V11.472C50,6.243,45.734,2,40.477,2z"/>
	<path d="M36.903,10.29H4.759C2.124,10.29,0,12.421,0,15.051v27.187C0,44.867,2.13,47,4.759,47h32.145
		c2.636,0,4.759-2.132,4.759-4.762V15.051C41.662,12.422,39.531,10.29,36.903,10.29z M13.094,17.395c2.63,0,4.761,2.121,4.761,4.737
		c0,2.616-2.131,4.736-4.761,4.736c-2.629,0-4.761-2.121-4.761-4.736C8.333,19.516,10.464,17.395,13.094,17.395z M37.248,32.958
		c-0.511,0.411-1.26,0.332-1.674-0.177c-2.983-3.672-5.258-4.997-7.065-4.683c-1.382,0.241-2.553,1.29-4.481,3.763
		c-0.103,0.132-0.554,0.714-0.675,0.869c-0.265,0.339-0.479,0.607-0.686,0.859c-2.621,3.184-4.931,4.074-7.75,1.713
		c-2.746-2.299-4.872-2.408-6.656-1.043c-1.233,0.942-2.308,2.822-2.308,3.268c0,0.654-0.533,1.185-1.19,1.185
		c-0.657,0-1.19-0.53-1.19-1.185c0-1.239,1.455-3.782,3.238-5.146c2.695-2.061,6.06-1.889,9.64,1.109
		c1.517,1.271,2.482,0.898,4.375-1.401c0.192-0.233,0.395-0.487,0.647-0.812c0.118-0.151,0.569-0.732,0.675-0.868
		c2.291-2.937,3.771-4.265,5.952-4.644c2.849-0.496,5.858,1.256,9.327,5.527C37.84,31.801,37.76,32.547,37.248,32.958z"/>
</g>
</svg>
