<?xml version="1.0" encoding="UTF-8" standalone="no"?>
<svg width="80px" height="80px" viewBox="0 0 80 80" version="1.1" xmlns="http://www.w3.org/2000/svg" xmlns:xlink="http://www.w3.org/1999/xlink">
    <!-- Generator: Sketch 39.1 (31720) - http://www.bohemiancoding.com/sketch -->
    <title>自助上单@2x</title>
    <desc>Created with Sketch.</desc>
    <defs></defs>
    <g id="icon-40/80/120" stroke="none" stroke-width="1" fill="none" fill-rule="evenodd">
        <g id="all" transform="translate(-206.000000, -1526.000000)"></g>
        <g id="自助上单@2x">
            <g id="Group">
                <path d="M40,80 C62.09139,80 80,62.09139 80,40 C80,17.90861 62.09139,0 40,0 C17.90861,0 0,17.90861 0,40 C0,62.09139 17.90861,80 40,80 Z" id="Oval-378-Copy-15" fill="#7ACD7B"></path>
                <path d="M25.9999998,27.4950534 C25.9999998,24.18121 27.9999998,22 31.5000003,22 L60.5,22 C57,22 55,24.5049467 55,28 L55,51.9999996 C55,55.3138429 52,57.9999996 49,57.9999996 L21,57.9999996 C24.1210406,58.1471679 25.9999998,56.4999996 25.9999998,53.9999996 L25.9999998,27.4950534 Z" id="Rectangle-314-Copy-6" stroke="#FFFFFF" stroke-width="2" stroke-linecap="round" stroke-linejoin="round" fill="#FFFFFF"></path>
                <path d="M34.6920753,41.7094015 L41.7008805,34.6937324 L40.2991195,34.6937324 L47.3079247,41.7094015 C47.6950104,42.0968662 48.3226002,42.0968662 48.7096858,41.7094015 C49.0967714,41.3219368 49.0967714,40.6937324 48.7096858,40.3062676 L41.7008805,33.2905985 C41.3137949,32.9031338 40.6862051,32.9031338 40.2991195,33.2905985 L33.2903142,40.3062676 C32.9032286,40.6937324 32.9032286,41.3219368 33.2903142,41.7094015 C33.6773998,42.0968662 34.3049896,42.0968662 34.6920753,41.7094015 L34.6920753,41.7094015 Z" id="Shape-Copy-7" fill="#7ACD7B"></path>
                <path d="M40,47 C40,47.5522847 40.4477153,48 41,48 C41.5522847,48 42,47.5522847 42,47 L42,35 C42,34.4477153 41.5522847,34 41,34 C40.4477153,34 40,34.4477153 40,35 L40,47 Z" id="Shape-Copy-8" fill="#7ACD7B"></path>
            </g>
        </g>
    </g>
</svg>