<?xml version="1.0" encoding="UTF-8" standalone="no"?>
<svg width="32px" height="32px" viewBox="0 0 32 32" version="1.1" xmlns="http://www.w3.org/2000/svg" xmlns:xlink="http://www.w3.org/1999/xlink">
    <!-- Generator: Sketch 39.1 (31720) - http://www.bohemiancoding.com/sketch -->
    <title>入驻流程 审核@2x</title>
    <desc>Created with Sketch.</desc>
    <defs>
        <ellipse id="path-1" cx="22" cy="22" rx="10" ry="10"></ellipse>
        <mask id="mask-2" maskContentUnits="userSpaceOnUse" maskUnits="objectBoundingBox" x="0" y="0" width="20" height="20" fill="white">
            <use xlink:href="#path-1"></use>
        </mask>
    </defs>
    <g id="icon-16/32/48" stroke="none" stroke-width="1" fill="none" fill-rule="evenodd">
        <g id="all" transform="translate(-269.000000, -173.000000)"></g>
        <g id="入驻流程-审核@2x" stroke="#3DC6B6">
            <path d="M11.0053077,31.005639 L3.00036293,31.005639 C1.89537666,31.005639 0.999778869,30.1075977 0.999986663,29.0135763 L1.00492929,2.99098909 C1.00513826,1.89080326 1.90314807,0.999410539 2.99692469,1.00000029 L29.0136906,1.01402826 C30.1136303,1.01462133 31.0053077,1.90169562 31.0053077,3.01282484 L31.0053077,11.005639" id="Rectangle-1461-Copy-4" stroke-width="2" stroke-linecap="round" stroke-linejoin="round"></path>
            <path d="M9,7 L23,7" id="Line-Copy-4" stroke-width="2" stroke-linecap="round" stroke-linejoin="round"></path>
            <polygon id="Star-1-Copy" stroke-width="2" stroke-linecap="round" stroke-linejoin="round" fill="#3DC6B6" points="22 24.5 19.0610737 26.045085 19.6223587 22.7725425 17.2447174 20.454915 20.5305369 19.9774575 22 17 23.4694631 19.9774575 26.7552826 20.454915 24.3776413 22.7725425 24.9389263 26.045085"></polygon>
            <use id="Oval-103" mask="url(#mask-2)" stroke-width="4" xlink:href="#path-1"></use>
        </g>
    </g>
</svg>