<svg width="18" height="18" viewBox="0 0 18 18" xmlns="http://www.w3.org/2000/svg">
    <title>
        购物
    </title>
    <desc>
        Created with Sketch.
    </desc>
    <g fill="none">
        <path d="M1.33 15.018C1.148 16.113 1.895 17 2.994 17h12.012c1.1 0 1.847-.882 1.664-1.982L15 5H3L1.33 15.018zm12.818-9.045l1.535 9.21c.082.49-.194.817-.677.817H2.994c-.48 0-.758-.33-.677-.817L3.85 5.99l10.298-.017z" fill="#999"/>
        <path d="M7 9V4.002C7 2.892 7.894 2 9 2c1.102 0 2 .897 2 2.002V9h1V4.002C12 2.344 10.653 1 9 1 7.343 1 6 2.34 6 4.002V9h1z" fill="#979797"/>
    </g>
</svg>
