<svg xmlns="http://www.w3.org/2000/svg" width="100" height="100" viewBox="0 0 100 100">
    <path d="M79.114 37.845h-58.11c-5.413 0-9.802 4.39-9.802 9.802v35.535c0 5.412 4.39 9.8 9.803 9.8h58.11c5.416 0 9.8-4.388 9.8-9.8V47.646c0-5.413-4.384-9.8-9.8-9.8zm-43.607 45.44H26.19c-4.06 0-5.39-2.312-5.39-6.37V48.977h14.707v34.308zm19.503 0h-9.727V48.977h9.727v34.308zm24.51-6.37c0 4.06-1.33 6.37-5.388 6.37h-9.32V48.977h14.71v27.938zM94.066 34.27H88.2L67.462 8.503c-1.693-2.11-4.775-2.446-6.892-.757l-1.83 1.476c-2.11 1.69-2.45 4.772-.756 6.887L72.6 34.27H27.375l14.618-18.16c1.694-2.116 1.354-5.2-.757-6.888l-1.833-1.475c-2.114-1.69-5.196-1.354-6.89.757L11.773 34.27H5.916c-2.707 0-4.9 2.195-4.9 4.9v4.906c0 2.71 2.193 4.9 4.9 4.9h88.15c2.71 0 4.902-2.19 4.902-4.9V39.17c0-2.705-2.193-4.9-4.902-4.9z"/>
</svg>
