<?xml version="1.0" encoding="UTF-8" standalone="no"?>
<svg width="48px" height="48px" viewBox="0 0 48 48" version="1.1" xmlns="http://www.w3.org/2000/svg" xmlns:xlink="http://www.w3.org/1999/xlink">
    <!-- Generator: Sketch 39.1 (31720) - http://www.bohemiancoding.com/sketch -->
    <title>消息－点亮@2x</title>
    <desc>Created with Sketch.</desc>
    <defs></defs>
    <g id="icon-24/48/72" stroke="none" stroke-width="1" fill="none" fill-rule="evenodd">
        <g id="all" transform="translate(-691.000000, -413.000000)"></g>
        <g id="消息－点亮@2x" fill="#2BB8AA">
            <g id="Oval-102-+-Rectangle-2925" transform="translate(4.000000, 5.000000)">
                <path d="M25.2050646,35 C24.1684215,36.8024898 22.2229101,38 20,38 C17.7720693,38 15.8277548,36.8031707 14.7927937,35 L25.2050646,35 Z" id="Oval-102"></path>
                <path d="M5,18.003296 C5,10.7465305 10.1637904,4.69307742 17,3 C17,1.34174426 18.3315945,0 20,0 C21.6568542,0 23,1.327981 23,2.99686968 C29.846721,4.69037011 35,10.7453657 35,18.003296 L35,22.9995712 C35,24.6566623 36.159668,26.6958009 37.5732329,27.5439399 L37.4267671,27.4560605 C38.8479244,28.308755 40,30.3399085 40,31.9951187 L40,33.0001926 C40,33.552371 39.5507812,34 38.9912248,34 L1.00877516,34 C0.451644023,34 0,33.5562834 0,33.0001926 L0,31.9951187 C0,30.3409605 1.15966797,28.3041995 2.57323287,27.4560605 L2.42676713,27.5439399 C3.8479244,26.6912455 5,24.6615315 5,22.9995712 L5,18.003296 Z" id="Rectangle-2925"></path>
            </g>
        </g>
    </g>
</svg>