<?xml version="1.0" encoding="UTF-8" standalone="no"?>
<svg width="24px" height="24px" viewBox="0 0 24 24" version="1.1" xmlns="http://www.w3.org/2000/svg" xmlns:xlink="http://www.w3.org/1999/xlink" xmlns:sketch="http://www.bohemiancoding.com/sketch/ns">
    <!-- Generator: Sketch 3.4.4 (17249) - http://www.bohemiancoding.com/sketch -->
    <title>商户通</title>
    <desc>Created with Sketch.</desc>
    <defs></defs>
    <g id="门店主图" stroke="none" stroke-width="1" fill="none" fill-rule="evenodd" sketch:type="MSPage">
        <g id="商户通" sketch:type="MSLayerGroup" fill="#FFFFFF">
            <g id="Shape-+-Shape-+-Shape" sketch:type="MSShapeGroup">
                <g>
                    <g transform="translate(1.000000, 0.000000)">
                        <path d="M3.71280969,15.6191434 C2.66430994,19.8131265 3.44765906,22.5339768 5.81815843,23.4611288 C7.82975503,24.2479064 10.7509587,23.5545841 13.611623,21.7668549 C16.4894481,19.9684012 18.9194893,17.3056998 20.1111514,14.4731189 C21.5077851,11.1533206 21.1587277,7.81247834 18.8026306,4.90229929 C18.5983629,4.64999399 18.2260767,4.60932095 17.9711062,4.81145352 C17.7161357,5.01358609 17.675033,5.38198077 17.8793008,5.63428608 C19.9538357,8.19668814 20.2554908,11.0838421 19.0189186,14.0231744 C17.9267414,16.6192795 15.6620126,19.100841 12.979887,20.7769952 C10.4061864,22.3853908 7.84223156,22.9939232 6.2530435,22.3723584 C4.5465546,21.7049148 3.93829917,19.5922273 4.86128637,15.9002925 C4.93974366,15.5864646 4.74625061,15.2691193 4.42910753,15.1914821 C4.11196445,15.113845 3.79126699,15.3053154 3.71280969,15.6191434 L3.71280969,15.6191434 Z" id="Shape"></path>
                        <path d="M11.7241561,14.0980998 L17.639649,23.1712705 C17.9938787,23.7145872 18.7261364,23.8708742 19.2751924,23.5203473 C19.8242483,23.1698204 19.9821863,22.445217 19.6279566,21.9019002 L13.7124636,12.8287295 C13.358234,12.2854128 12.6259763,12.1291258 12.0769203,12.4796527 C11.5278644,12.8301796 11.3699264,13.554783 11.7241561,14.0980998 L11.7241561,14.0980998 Z" id="Shape"></path>
                        <path d="M11.2685735,12.2445776 L8.12275753,17.1749023 L10.2329882,17.394378 L8.19181621,11.9245777 C8.05692739,11.5631114 7.75093099,11.290471 7.37354772,11.1955069 L1.6628879,9.75848591 L2.10404623,11.8122777 L6.7303303,8.20103856 C7.03605368,7.96239342 7.20353106,7.59016505 7.17818349,7.20565841 L6.79461756,1.38720598 L4.95703777,2.43704334 L9.85741053,5.67497515 C10.1812468,5.88895065 10.5907499,5.93154126 10.9524675,5.78886719 L16.4260706,3.6298868 L14.8492255,2.22493019 L13.2515383,7.83732123 C13.1459567,8.20821051 13.2315662,8.60676132 13.4804675,8.90309054 L17.2469062,13.3872197 L18.1099421,11.4690714 L12.2221444,11.699788 C11.8330552,11.7150347 11.4764616,11.918762 11.2685735,12.2445776 L11.2685735,12.2445776 Z M13.2693421,13.4946281 L12.3157712,14.0394177 L18.2035689,13.8087011 C19.1833938,13.7703061 19.6934012,12.6367845 19.0666049,11.8905528 L15.3001662,7.40642366 L15.5290955,8.47219296 L17.1267826,2.85980192 C17.3926636,1.92580917 16.4608337,1.09555601 15.5499375,1.4548453 L10.0763345,3.61382569 L11.1713915,3.72771774 L6.27101869,0.489785927 C5.45551731,-0.049058359 4.36960732,0.57133858 4.4334389,1.53962329 L4.81700483,7.35807571 L5.26485801,6.36269556 L0.638573939,9.9739347 C-0.131314646,10.5749034 0.129386001,11.7885829 1.07973227,12.0277265 L6.79039209,13.4647475 L5.9721236,12.7356766 L8.01329556,18.205477 C8.35297963,19.1157403 9.60001149,19.2454386 10.1235262,18.4249528 L13.2693421,13.4946281 L13.2693421,13.4946281 Z" id="Shape"></path>
                    </g>
                </g>
            </g>
        </g>
    </g>
</svg>