<?xml version="1.0" encoding="utf-8"?>
<!-- Generator: Adobe Illustrator 16.0.0, SVG Export Plug-In . SVG Version: 6.00 Build 0)  -->
<!DOCTYPE svg PUBLIC "-//W3C//DTD SVG 1.1//EN" "http://www.w3.org/Graphics/SVG/1.1/DTD/svg11.dtd">
<svg version="1.1" id="图层_1" xmlns="http://www.w3.org/2000/svg" xmlns:xlink="http://www.w3.org/1999/xlink" x="0px" y="0px"
	 width="32px" height="32px" viewBox="0 0 32 32" enable-background="new 0 0 32 32" xml:space="preserve">
<title>商户通</title>
<desc>Created with Sketch.</desc>
<path d="M16,0C7.162,0,0,7.163,0,16c0,8.838,7.163,16,16,16c8.838,0,16-7.162,16-16S24.838,0,16,0z M24.406,14.346l-3.374,3.29
	l0.761,4.438c0.047,0.124,0.072,0.259,0.072,0.399c0,0.631-0.512,1.143-1.144,1.143c-0.005,0.001-0.013,0-0.02,0
	c-0.182,0-0.364-0.043-0.532-0.131L16,21.291l-4.17,2.193c-0.167,0.088-0.35,0.131-0.532,0.131c-0.237,0-0.473-0.073-0.672-0.218
	c-0.352-0.256-0.528-0.689-0.455-1.118l0.796-4.644l-3.374-3.29c-0.312-0.304-0.423-0.758-0.289-1.171
	c0.134-0.414,0.492-0.715,0.922-0.778l4.663-0.678l2.085-4.225c0.192-0.39,0.59-0.637,1.025-0.637s0.832,0.247,1.024,0.637
	l2.086,4.225l4.662,0.678c0.431,0.062,0.788,0.364,0.923,0.778C24.83,13.588,24.718,14.042,24.406,14.346z"/>
</svg>
