<?xml version="1.0" encoding="UTF-8" standalone="no"?>
<svg width="80px" height="80px" viewBox="0 0 80 80" version="1.1" xmlns="http://www.w3.org/2000/svg" xmlns:xlink="http://www.w3.org/1999/xlink">
    <!-- Generator: Sketch 39.1 (31720) - http://www.bohemiancoding.com/sketch -->
    <title>营销大学@2x</title>
    <desc>Created with Sketch.</desc>
    <defs></defs>
    <g id="icon-40/80/120" stroke="none" stroke-width="1" fill="none" fill-rule="evenodd">
        <g id="all" transform="translate(-573.000000, -1071.000000)"></g>
        <g id="营销大学@2x">
            <g id="Group">
                <circle id="Oval-61" fill="#5CCEB3" cx="40" cy="40" r="40"></circle>
                <path d="M47,50.4965214 C52.8970501,47.8285426 57,41.893419 57,35 C57,25.6111593 49.3888407,18 40,18 C30.6111593,18 23,25.6111593 23,35 C23,41.893419 27.1029499,47.8285426 33,50.4965214 L33,52.9983345 C33,54.6609799 34.3446462,56 36.0033512,56 L43.9966488,56 C45.6576211,56 47,54.6561086 47,52.9983345 L47,50.4965214 Z" id="Oval-1947" fill="#FFFFFF"></path>
                <path d="M36,60 L44,60 C44.5522847,60 45,59.5522847 45,59 C45,58.4477153 44.5522847,58 44,58 L36,58 C35.4477153,58 35,58.4477153 35,59 C35,59.5522847 35.4477153,60 36,60 L36,60 Z" id="Shape" fill="#FFFFFF"></path>
                <path d="M38,64 L42,64 C42.5522847,64 43,63.5522847 43,63 C43,62.4477153 42.5522847,62 42,62 L38,62 C37.4477153,62 37,62.4477153 37,63 C37,63.5522847 37.4477153,64 38,64 L38,64 Z" id="Shape" fill="#FFFFFF"></path>
            </g>
        </g>
    </g>
</svg>