<?xml version="1.0" encoding="UTF-8" standalone="no"?>
<svg width="32px" height="32px" viewBox="0 0 32 32" version="1.1" xmlns="http://www.w3.org/2000/svg" xmlns:xlink="http://www.w3.org/1999/xlink">
    <!-- Generator: Sketch 39.1 (31720) - http://www.bohemiancoding.com/sketch -->
    <title>筛选 时间 灰色@2x</title>
    <desc>Created with Sketch.</desc>
    <defs>
        <path d="M2.00494659,2 C0.897645164,2 1.05971377e-16,2.88967395 9.97179643e-17,3.991155 L-2.57344967e-18,22.008845 C-8.81666323e-18,23.1085295 0.897026226,24 2.00494659,24 L21.9950534,24 C23.1023548,24 24,23.1103261 24,22.008845 L24,3.991155 C24,2.89147046 23.1029738,2 21.9950534,2 L2.00494659,2 Z" id="path-1"></path>
        <mask id="mask-2" maskContentUnits="userSpaceOnUse" maskUnits="objectBoundingBox" x="0" y="0" width="24" height="22" fill="white">
            <use xlink:href="#path-1"></use>
        </mask>
    </defs>
    <g id="icon-16/32/48" stroke="none" stroke-width="1" fill="none" fill-rule="evenodd">
        <g id="筛选-时间-灰色@2x">
            <g id="Group" transform="translate(4.000000, 4.000000)">
                <use id="Path-3-Copy-3" stroke="#999999" mask="url(#mask-2)" stroke-width="4" xlink:href="#path-1"></use>
                <rect id="Rectangle-111-Copy-2" fill="#999999" x="6" y="0" width="2" height="6" rx="1"></rect>
                <rect id="Rectangle-111-Copy-3" fill="#999999" x="16" y="0" width="2" height="6" rx="1"></rect>
                <path d="M16.1953125,9.81002639 L13.03125,10.2058047 C12.9479162,9.75725369 12.8085947,9.44063417 12.6132812,9.25593668 C12.4179678,9.07123918 12.1770848,8.97889182 11.890625,8.97889182 C11.3749974,8.97889182 10.9739598,9.24274142 10.6875,9.77044855 C10.4791656,10.1503977 10.3255213,10.9630545 10.2265625,12.2084433 C10.6067727,11.81794 10.9973938,11.5290247 11.3984375,11.3416887 C11.7994812,11.1543526 12.2630182,11.060686 12.7890625,11.060686 C13.8099009,11.060686 14.6731736,11.4300755 15.3789062,12.1688654 C16.0846389,12.9076554 16.4375,13.8443215 16.4375,14.9788918 C16.4375,15.7440672 16.2591164,16.4432686 15.9023438,17.0765172 C15.5455711,17.7097657 15.0507844,18.1886527 14.4179688,18.5131926 C13.7851531,18.8377325 12.9921923,19 12.0390625,19 C10.8932234,19 9.9739618,18.8021128 9.28125,18.4063325 C8.5885382,18.0105521 8.03515832,17.3786323 7.62109375,16.5105541 C7.20702918,15.6424759 7,14.4934108 7,13.0633245 C7,10.9683273 7.43489148,9.43404181 8.3046875,8.46042216 C9.17448352,7.48680252 10.3802006,7 11.921875,7 C12.8333379,7 13.5533828,7.10685909 14.0820312,7.32058047 C14.6106797,7.53430186 15.0494774,7.84696364 15.3984375,8.2585752 C15.7473976,8.67018675 16.0130199,9.18733198 16.1953125,9.81002639 L16.1953125,9.81002639 Z M10.3359375,14.9788918 C10.3359375,15.6068633 10.4921859,16.0989428 10.8046875,16.4551451 C11.1171891,16.8113474 11.4999977,16.9894459 11.953125,16.9894459 C12.3697937,16.9894459 12.7187486,16.8284977 13,16.5065963 C13.2812514,16.184695 13.421875,15.7044887 13.421875,15.0659631 C13.421875,14.4116062 13.2760431,13.9129305 12.984375,13.5699208 C12.6927069,13.2269112 12.3307313,13.055409 11.8984375,13.055409 C11.455727,13.055409 11.0846369,13.2216342 10.7851562,13.5540897 C10.4856756,13.8865452 10.3359375,14.3614745 10.3359375,14.9788918 L10.3359375,14.9788918 Z" id="6-copy-2" fill="#999999"></path>
            </g>
        </g>
        <g id="all" transform="translate(-75.000000, -683.000000)"></g>
    </g>
</svg>