<?xml version="1.0" encoding="UTF-8" standalone="no"?>
<svg width="14px" height="14px" viewBox="0 0 14 14" version="1.1" xmlns="http://www.w3.org/2000/svg" xmlns:xlink="http://www.w3.org/1999/xlink">
    <!-- Generator: Sketch 39.1 (31720) - http://www.bohemiancoding.com/sketch -->
    <title>多选－不选中</title>
    <desc>Created with Sketch.</desc>
    <defs></defs>
    <g id="商家中心" stroke="none" stroke-width="1" fill="none" fill-rule="evenodd">
        <path d="M0,2.00247329 C0,0.897852271 0.902144734,0 2.00247329,0 L11.9975267,0 C13.1021477,0 14,0.902144734 14,2.00247329 L14,11.9975267 C14,13.1021477 13.0978553,14 11.9975267,14 L2.00247329,14 C0.897852271,14 0,13.0978553 0,11.9975267 L0,2.00247329 Z M1,11.9975267 C1,12.544239 1.44882258,13 2.00247329,13 L11.9975267,13 C12.544239,13 13,12.5511774 13,11.9975267 L13,2.00247329 C13,1.45576096 12.5511774,1 11.9975267,1 L2.00247329,1 C1.45576096,1 1,1.44882258 1,2.00247329 L1,11.9975267 Z" id="多选－不选中" fill="#D4D4D4"></path>
    </g>
</svg>