<?xml version="1.0" encoding="utf-8"?>
<!-- Generator: Adobe Illustrator 16.0.0, SVG Export Plug-In . SVG Version: 6.00 Build 0)  -->
<!DOCTYPE svg PUBLIC "-//W3C//DTD SVG 1.1//EN" "http://www.w3.org/Graphics/SVG/1.1/DTD/svg11.dtd">
<svg version="1.1" xmlns="http://www.w3.org/2000/svg" xmlns:xlink="http://www.w3.org/1999/xlink" x="0px" y="0px" width="100px"
	 height="100px" viewBox="0 0 100 100" enable-background="new 0 0 100 100" xml:space="preserve">
<g id="Layer_2">
	<path fill="#2BB7A9" d="M98.547,90.854c0.5,4.514-3.163,8.172-7.672,8.172H9.125c-4.509,0-8.172-3.658-7.672-8.172V9.146
		c-0.5-4.513,3.163-8.172,7.672-8.172h81.75c4.509,0,8.172,3.659,7.672,8.172V90.854z"/>
</g>
<g id="Layer_3">
	<g>
		<path fill="#FFFFFF" d="M80.318,40.581c-1.931-15.088-14.819-26.795-30.421-26.795c-15.956,0-29.093,12.234-30.554,27.812
			c-4.685,0.297-8.417,4.165-8.417,8.924v3.146c0,4.86,3.887,8.809,8.711,8.953c2.352,13.797,14.556,23.694,30.26,23.694
			c16.065,0,28.478-10.363,30.406-24.667c4.861-0.104,8.789-4.074,8.789-8.961V49.54C89.093,44.659,85.174,40.691,80.318,40.581z"/>
	</g>
</g>
<g id="Layer_4" display="none">
	<path display="inline" fill="#FFFFFF" d="M48.557,25.37H18.838c-4.527,0-8.198,3.67-8.198,8.2v33.864
		c0,4.523,3.671,8.196,8.198,8.196h29.719c4.53,0,8.199-3.673,8.199-8.196V33.57C56.756,29.04,53.087,25.37,48.557,25.37z"/>
	<path display="inline" fill="#FFFFFF" d="M81.287,25.37h-7.991c-4.525,0-8.197,3.67-8.197,8.2v33.864
		c0,4.523,3.672,8.196,8.197,8.196h7.991c4.53,0,8.199-3.673,8.199-8.196V33.57C89.486,29.04,85.817,25.37,81.287,25.37z"/>
</g>
<g id="Layer_5" display="none">
	<path display="inline" fill="#FFFFFF" d="M78.223,32.067c-9.813,0-45.755,0-56.119,0c-10.362,0-11.156,5.771-11.156,9.691v14.729
		c0,3.885,0.063,12.046,15.266,12.046s23.869-14.797,23.869-14.797s8.769,14.797,23.869,14.797s15.267-8.161,15.267-12.046V41.758
		C89.219,37.68,88.035,32.067,78.223,32.067z"/>
</g>
<g id="Layer_6" display="none">
	<path display="inline" fill="#FFFFFF" d="M57.402,13.651c-0.147-0.009-0.291-0.026-0.439-0.026H31.829
		c-5.536,0-10.024,4.581-10.024,10.231v52.122c0,5.65,4.488,10.231,10.024,10.231c5.536,0,10.024-4.581,10.024-10.231V63.171h15.11
		c0.372,0,0.736-0.036,1.096-0.088c11.97-0.883,21.427-11.599,21.427-24.696C79.485,25.05,69.682,14.181,57.402,13.651z
		 M54.965,43.352v0.031H41.808v-9.755h13.157v0.031c2.545,0.165,4.565,2.259,4.565,4.847C59.53,41.093,57.51,43.188,54.965,43.352z"
		/>
</g>
<g id="Layer_7">
</g>
</svg>
