<?xml version="1.0" encoding="utf-8"?>
<!-- Generator: Adobe Illustrator 16.0.0, SVG Export Plug-In . SVG Version: 6.00 Build 0)  -->
<!DOCTYPE svg PUBLIC "-//W3C//DTD SVG 1.1//EN" "http://www.w3.org/Graphics/SVG/1.1/DTD/svg11.dtd">
<svg version="1.1" id="图层_1" xmlns="http://www.w3.org/2000/svg" xmlns:xlink="http://www.w3.org/1999/xlink" x="0px" y="0px"
	 width="20px" height="20px" viewBox="0 0 20 20" enable-background="new 0 0 20 20" xml:space="preserve">
<title>高于</title>
<desc>Created with Sketch.</desc>
<path d="M10,0C4.477,0,0,4.478,0,10c0,5.523,4.477,10,10,10c5.522,0,10-4.477,10-10C20,4.478,15.522,0,10,0z M13.508,10H11.5v5
	c0,0.553-0.447,1-1,1h-1c-0.552,0-1-0.447-1-1v-5H6.492c-1.1,0-1.445-0.697-0.758-1.571l3.031-3.858
	c0.682-0.868,1.781-0.874,2.469,0l3.031,3.858C14.947,9.297,14.6,10,13.508,10z"/>
</svg>
