<?xml version="1.0" encoding="utf-8"?>
<!-- Generator: Adobe Illustrator 16.0.0, SVG Export Plug-In . SVG Version: 6.00 Build 0)  -->
<!DOCTYPE svg PUBLIC "-//W3C//DTD SVG 1.1//EN" "http://www.w3.org/Graphics/SVG/1.1/DTD/svg11.dtd">
<svg version="1.1" id="图层_1" xmlns="http://www.w3.org/2000/svg" xmlns:xlink="http://www.w3.org/1999/xlink" x="0px" y="0px"
	 width="20px" height="20px" viewBox="0 0 20 20" enable-background="new 0 0 20 20" xml:space="preserve">
<title>低于</title>
<desc>Created with Sketch.</desc>
<path d="M10,0C4.477,0,0,4.477,0,10c0,5.522,4.477,10,10,10c5.522,0,10-4.478,10-10C20,4.477,15.522,0,10,0z M14.266,11.57
	l-3.031,3.859c-0.688,0.873-1.787,0.867-2.469,0L5.734,11.57C5.047,10.697,5.392,10,6.492,10H8.5V5c0-0.552,0.448-1,1-1h1
	c0.553,0,1,0.448,1,1v5h2.008C14.6,10,14.947,10.703,14.266,11.57z"/>
</svg>
