<?xml version="1.0" encoding="UTF-8"?>
<svg width="32px" height="32px" viewBox="0 0 32 32" version="1.1" xmlns="http://www.w3.org/2000/svg" xmlns:xlink="http://www.w3.org/1999/xlink">
    <!-- Generator: Sketch 50 (54983) - http://www.bohemiancoding.com/sketch -->
    <title>云@2x</title>
    <desc>Created with Sketch.</desc>
    <defs>
        <path d="M5.46529421,19.8693777 C2.87137335,18.9857533 1,16.4709088 1,13.5064935 C1,9.80546843 3.91693269,6.80519481 7.51515152,6.80519481 C8.51260519,6.80519481 9.45770608,7.03574803 10.302831,7.4478706 C11.4152637,5.39135526 13.5496611,4 16,4 C18.4503389,4 20.5847363,5.39135526 21.697169,7.4478706 C22.5422939,7.03574803 23.4873948,6.80519481 24.4848485,6.80519481 C28.0830673,6.80519481 31,9.80546843 31,13.5064935 C31,16.5826678 28.9809236,19.1747346 26.2340233,19.9622974 C25.9253724,20.0516389 25.8345602,20.1870192 25.80838,20.3909549 C25.5015066,22.9246359 24.8974869,27.9116883 24.8974869,27.9116883 L6.71022727,28 C6.71022727,28 6.09848761,22.8866167 5.79261778,20.329925 C5.76259174,20.0767806 5.71163046,19.9762962 5.46529421,19.8693777 Z M13,15 C12.4477153,15 12,15.4477153 12,16 L12,18 C12,18.5522847 12.4477153,19 13,19 C13.5522847,19 14,18.5522847 14,18 L14,16 C14,15.4477153 13.5522847,15 13,15 Z M19,15 C18.4477153,15 18,15.4477153 18,16 L18,18 C18,18.5522847 18.4477153,19 19,19 C19.5522847,19 20,18.5522847 20,18 L20,16 C20,15.4477153 19.5522847,15 19,15 Z" id="path-1"></path>
    </defs>
    <g id="云" stroke="none" stroke-width="1" fill="none" fill-rule="evenodd">
        <mask id="mask-2" fill="white">
            <use xlink:href="#path-1"></use>
        </mask>
        <use id="Combined-Shape" fill="#000000" xlink:href="#path-1"></use>
    </g>
</svg>