<?xml version="1.0" encoding="utf-8"?>
<!-- Generator: Adobe Illustrator 16.0.0, SVG Export Plug-In . SVG Version: 6.00 Build 0)  -->
<!DOCTYPE svg PUBLIC "-//W3C//DTD SVG 1.1//EN" "http://www.w3.org/Graphics/SVG/1.1/DTD/svg11.dtd">
<svg version="1.1" xmlns="http://www.w3.org/2000/svg" xmlns:xlink="http://www.w3.org/1999/xlink" x="0px" y="0px" width="100px"
	 height="100px" viewBox="0 0 100 100" enable-background="new 0 0 100 100" xml:space="preserve">
<g id="图层_1" display="none">
	<path display="inline" fill="#040000" d="M91.365,83.061c-7.158,2.952-20.787,7.866-33.274,11.976
		c-4.55,1.709-11.166,1.647-16.468-0.361c-12.572-3.72-26.074-8.712-32.957-11.599C5.911,81.718,4,78.924,4,75.661V12.052
		c0-4.588,3.745-8.307,8.363-8.307c0,0,20.822,0,37.506,0c16.771,0,37.768,0,37.768,0c4.619,0,8.363,3.719,8.363,8.307v63.609
		C96,78.911,94.103,81.695,91.365,83.061z M25,16.746c-3.313,0-6,2.687-6,6s2.687,6,6,6c3.314,0,6-2.687,6-6
		S28.314,16.746,25,16.746z M75.064,18.666c0-2.959-2.623-6.018-6.018-6.018c-8.239,0-17.775,0-25.408,0
		c-0.522,0-0.937,0.053-1.282,0.134c-0.119-0.011-0.235-0.036-0.357-0.036c-2.209,0-4,1.791-4,4c0,0.2,0.031,0.393,0.059,0.585
		c-0.07,0.307-0.119,0.638-0.119,1.021c0,9.226,0,26.397,0,26.397c0,3.052-0.076,11.639,0,13.034
		c0.129,2.382,2.407,6.017,6.018,6.017c6.139,0,12.277,0.034,16.062,0h1.505c0,0,0-0.04,0-0.103
		c0.157,0.019,0.312,0.048,0.476,0.048c2.209,0,4-1.791,4-4s-1.791-4-4-4c-0.163,0-0.318,0.029-0.476,0.048c0-0.005,0-0.014,0-0.019
		H46.966c0,0,0-4.071,0-7.015h17.063c1.916,0,5.018,0,5.018,0c2.4-0.092,6.018-1.777,6.018-6.018
		C75.064,42.742,75.064,27.808,75.064,18.666z M78,55.745c-2.209,0-4,1.791-4,4s1.791,4,4,4s4-1.791,4-4S80.209,55.745,78,55.745z
		 M81,70.745c-0.283,0-0.56,0.031-0.826,0.088c-0.338-0.056-0.715-0.088-1.174-0.088H37c-4.248,0-6-2.287-6-6c0,0,0-19.686,0-25
		c0-2.209-1.791-4-4-4c-2.805,0-7.609-0.029-7.609-0.029s0,0.026,0,0.068c-0.13-0.013-0.257-0.039-0.391-0.039c-2.209,0-4,1.791-4,4
		s1.791,4,4,4c0.134,0,0.26-0.026,0.391-0.039c0,0.012,0,0.023,0,0.035h3.505v26.076c0.055,5.305,3.006,8.922,9.026,9.025h48.151
		L79,78.745c0.367,0,0.68-0.06,0.965-0.152c0.332,0.09,0.675,0.152,1.035,0.152c2.209,0,4-1.791,4-4S83.209,70.745,81,70.745z
		 M63.034,26.728c-6.567,0-16.039,0-16.039,0v-6.064h20.08C67.075,20.664,67.621,26.728,63.034,26.728z M63.034,40.769
		c-6.57,0-16.039,0-16.039,0v-6.063h20.08C67.075,34.706,67.606,40.769,63.034,40.769z"/>
</g>
<g id="图层_2">
	<path fill-rule="evenodd" clip-rule="evenodd" fill="#040000" d="M91.365,83.061c-7.158,2.952-20.787,7.866-33.274,11.976
		c-4.55,1.709-11.166,1.647-16.468-0.361c-12.572-3.72-26.074-8.712-32.958-11.599C5.911,81.718,4,78.924,4,75.661V12.052
		c0-4.588,3.744-8.307,8.363-8.307c0,0,20.822,0,37.506,0c16.771,0,37.768,0,37.768,0c4.618,0,8.363,3.719,8.363,8.307v63.609
		C96,78.911,94.103,81.695,91.365,83.061z M85.062,24.777c-2.267-2.318-5.947-2.313-8.221,0.012l-34.04,34.574
		c-0.362,0.056-0.722,0.116-1.106,0.123c-0.455,0.009-0.93-0.049-1.408-0.111L22.833,41.698l-0.036,0.036
		c-2.278-2.127-5.796-2.102-8.006,0.158c-2.209,2.26-2.234,5.857-0.154,8.188l-0.036,0.037l0.178,0.183l21.264,21.572l0.035-0.035
		c3.072,2.855,7.771,2.831,10.822-0.084l0.102,0.104L85.05,33.183C87.323,30.859,87.328,27.095,85.062,24.777z"/>
</g>
<g id="图层_3" display="none">
	<g display="inline">
		<g>
			<path fill-rule="evenodd" clip-rule="evenodd" fill="#040000" d="M87.637,3.5c0,0-20.996,0-37.768,0c-16.684,0-37.506,0-37.506,0
				C7.745,3.5,4,7.27,4,11.92v63.464c0,3.307,1.911,6.14,4.666,7.516c6.883,2.927,20.385,7.987,32.958,11.759
				c5.302,2.035,11.918,2.098,16.468,0.365c12.487-4.165,26.116-9.146,33.274-12.14c2.737-1.383,4.635-4.206,4.635-7.5V11.92
				C96,7.27,92.255,3.5,87.637,3.5z M79.285,79.524H22.714c-2.604,0-4.714-2.043-4.714-4.562c0-2.52,2.11-4.562,4.714-4.562H24
				V51.648c0-2.519,2.015-4.561,4.5-4.561S33,49.13,33,51.648v18.753h12V22.76H25.714C23.11,22.76,21,20.717,21,18.198
				c0-2.52,2.11-4.562,4.714-4.562h50.571c2.604,0,4.715,2.042,4.715,4.562c0,2.519-2.111,4.562-4.715,4.562H54v18.318
				c0.004,0,0.007-0.001,0.01-0.001h18.213c2.515,0,4.553,2.045,4.553,4.569c0,2.524-2.038,4.569-4.553,4.569H54.01
				c-0.003,0-0.006-0.001-0.01-0.001v20.187h25.285c2.604,0,4.715,2.042,4.715,4.562C84,77.481,81.889,79.524,79.285,79.524z"/>
		</g>
	</g>
</g>
</svg>
