<?xml version="1.0" encoding="UTF-8" standalone="no"?>
<svg width="88px" height="88px" viewBox="0 0 88 88" version="1.1" xmlns="http://www.w3.org/2000/svg" xmlns:xlink="http://www.w3.org/1999/xlink">
    <!-- Generator: Sketch 3.8.3 (29802) - http://www.bohemiancoding.com/sketch -->
    <title>完成</title>
    <desc>Created with Sketch.</desc>
    <defs></defs>
    <g id="Page-1" stroke="none" stroke-width="1" fill="none" fill-rule="evenodd">
        <g id="完成" fill="#06C1AE">
            <path d="M44,88 C68.300529,88 88,68.300529 88,44 C88,19.699471 68.300529,0 44,0 C19.699471,0 0,19.699471 0,44 C0,68.300529 19.699471,88 44,88 L44,88 Z M44,86 C20.8040405,86 2,67.1959595 2,44 C2,20.8040405 20.8040405,2 44,2 C67.1959595,2 86,20.8040405 86,44 C86,67.1959595 67.1959595,86 44,86 L44,86 Z" id="Oval-261"></path>
            <path d="M62.2025407,31.2928932 L38.2025407,55.2928932 L39.6167543,55.2928932 L34.4738971,50.1500361 L27.1957705,42.8719094 C26.8052462,42.4813851 26.1720812,42.4813851 25.7815569,42.8719094 C25.3910326,43.2624337 25.3910326,43.8955987 25.7815569,44.286123 L33.0596836,51.5642496 L38.2025407,56.7071068 L38.9096475,57.4142136 L39.6167543,56.7071068 L63.6167543,32.7071068 C64.0072786,32.3165825 64.0072786,31.6834175 63.6167543,31.2928932 C63.22623,30.9023689 62.593065,30.9023689 62.2025407,31.2928932 L62.2025407,31.2928932 Z" id="成功"></path>
        </g>
    </g>
</svg>