<svg width="18" height="18" viewBox="0 0 18 18" xmlns="http://www.w3.org/2000/svg">
    <title>
        美团券
    </title>
    <desc>
        Created with Sketch.
    </desc>
    <g fill="#999">
        <path d="M7 7v1h1V7H7zm0-2v1h1V5H7zm0 4v1h1V9H7zm0 2v1h1v-1H7zm0 2v1h1v-1H7zM16.216 3H1.784C1.35 3 1 3.346 1 3.774V7c1.105 0 2 1.12 2 2.5S2.105 12 1 12v3.226c0 .428.35.774.784.774h14.432c.433 0 .784-.346.784-.774V12c-1.105 0-2-1.12-2-2.5S15.895 7 17 7V3.774c0-.428-.35-.774-.784-.774zM16 6s.05.175.042.178C14.83 6.646 14 7.983 14 9.5c0 1.443.75 2.723 1.868 3.247.346.163.132.054.132.054V15H2l-.022-2.186.063-.026C3.21 12.29 4 10.982 4 9.5c0-1.46-.77-2.755-1.91-3.267-.335-.15-.09-.035-.09-.035V4h14v2z"/>
    </g>
</svg>
