<?xml version="1.0" encoding="UTF-8" standalone="no"?>
<svg width="48px" height="48px" viewBox="0 0 48 48" version="1.1" xmlns="http://www.w3.org/2000/svg" xmlns:xlink="http://www.w3.org/1999/xlink">
    <!-- Generator: Sketch 39.1 (31720) - http://www.bohemiancoding.com/sketch -->
    <title>团购验证@2x</title>
    <desc>Created with Sketch.</desc>
    <defs></defs>
    <g id="icon-24/48/72" stroke="none" stroke-width="1" fill="none" fill-rule="evenodd">
        <g id="all" transform="translate(-135.000000, -210.000000)"></g>
        <g id="团购验证@2x">
            <g id="Oval-84-Copy-+-Rectangle-335-Copy-+-Rectangle-335-Copy-2" transform="translate(2.000000, 2.000000)">
                <ellipse id="Oval-84-Copy" fill="#5CCEB3" cx="22" cy="22" rx="22" ry="22"></ellipse>
                <path d="M33,16.000034 C33,14.343161 31.6569187,13 29.9986131,13 L14.0013869,13 C12.3437667,13 11,14.3348318 11,16.000034 L11,18.4 C12.828253,18.7272727 13.3103448,20.1925226 13.4285714,22 C13.3103448,23.8074774 12.828253,25.2727273 11,25.6 L11,27.999966 C11,29.656839 12.3430813,31 14.0013869,31 L29.9986131,31 C31.6562333,31 33,29.6651682 33,27.999966 L33,25.6 C31.171747,25.2727273 30.6896552,23.8074774 30.5714286,22 C30.6896552,20.1925226 31.171747,18.7272727 33,18.4 L33,16.000034 Z" id="Rectangle-335-Copy" fill="#FFFFFF"></path>
                <path d="M18,25.0012224 L18,23.0012224 L20,23.0012224 L20,25.0012224 L18,25.0012224 L18,25.0012224 Z M18,28.0012224 C18,28.5535071 18.4438648,29.0012224 19,29.0012224 L19,29.0012224 C19.5522847,29.0012224 20,28.5573575 20,28.0012224 L20,27.0012224 L18,27.0012224 L18,28.0012224 Z M18,21.0012224 L18,19.0012224 L20,19.0012224 L20,21.0012224 L18,21.0012224 L18,21.0012224 Z M18,16 C18,15.4477153 18.4438648,15 19,15 L19,15 C19.5522847,15 20,15.4438648 20,16 L20,17 L18,17 L18,16 Z" id="Rectangle-335-Copy-2" fill="#5CCEB3"></path>
            </g>
        </g>
    </g>
</svg>