<?xml version="1.0" encoding="utf-8"?>
<!-- Generator: Adobe Illustrator 18.0.0, SVG Export Plug-In . SVG Version: 6.00 Build 0)  -->
<!DOCTYPE svg PUBLIC "-//W3C//DTD SVG 1.1//EN" "http://www.w3.org/Graphics/SVG/1.1/DTD/svg11.dtd">
<svg version="1.1" id="图层_1" xmlns="http://www.w3.org/2000/svg" xmlns:xlink="http://www.w3.org/1999/xlink" x="0px" y="0px" width="18px" height="18px"
	 viewBox="0 0 18 18" enable-background="new 0 0 18 18" xml:space="preserve">
<g id="形状_5">
	<g>
		<path d="M17.6,6.2c-0.4-1.3-0.8-1.9-1.5-1.8l-0.4,0.1c-0.5-1.1-1-2.1-1.5-2.9c0,0-0.5-1-1.3-1c-0.6,0-1,0.5-1,0.5
			c-1,0.7-2.3,1.7-3.5,2.5C5.9,5.3,1,6.9,1,6.9C0.6,7,0.2,7.4,0.2,7.9c0,0.5,2,5.7,2,5.7c0.1,0.4,0.2,0.7,0.7,0.7
			c0.1,0,0.4-0.1,0.5-0.1l0,0c0.4-0.1,0.7-0.2,1.2-0.4l2.2,3.3c0.3,0.5,0.7,0.4,0.7,0.4l1-0.2c0,0,0.7-0.1,0.5-0.6l-2.2-3.5
			c1.2-0.5,2.2-0.8,2.2-0.8c0,0,1.2-0.1,3,0c1.5,0.1,3,0,4.1,0l0,0l0,0c0.6,0,1.1-0.5,1.1-1.1c0,0,0,0,0-0.1c0-0.7-0.1-1.5-0.3-2.7
			l0.4-0.1C17.8,8.2,17.9,7.4,17.6,6.2z M3.7,12.3L2.2,8.6l3.6-1.5l1.5,3.7L3.7,12.3z M11.8,10.8c-1.3,0-3,0-3,0L7.2,6.4
			c0,0,1.9-1.2,2.9-1.9c1-0.7,2.5-1.7,2.5-1.7s0.8,1.3,1.4,3.5C14.7,9,15,10.8,15,10.8S13.8,10.8,11.8,10.8z"/>
	</g>
</g>
</svg>
