<?xml version="1.0" encoding="UTF-8" standalone="no"?>
<svg width="80px" height="80px" viewBox="0 0 80 80" version="1.1" xmlns="http://www.w3.org/2000/svg" xmlns:xlink="http://www.w3.org/1999/xlink">
    <!-- Generator: Sketch 39.1 (31720) - http://www.bohemiancoding.com/sketch -->
    <title>客服经理2@2x</title>
    <desc>Created with Sketch.</desc>
    <defs></defs>
    <g id="icon-40/80/120" stroke="none" stroke-width="1" fill="none" fill-rule="evenodd">
        <g id="all" transform="translate(-941.000000, -121.000000)"></g>
        <g id="客服经理2@2x">
            <rect id="Rectangle-2928-Copy-4" fill="#E6E6E6" x="0" y="0" width="80" height="80" rx="40"></rect>
            <g id="Group" transform="translate(11.000000, 13.000000)">
                <path d="M36.17,51.1913333 C35.1573333,49.6233333 33.804,48.5726667 33.804,48.5726667 L24.906,48.5726667 C24.906,48.5726667 23.5266667,49.644 22.5113333,51.236 C22.1313333,51.8306667 23.0906667,53.2086667 25.1286667,53.2086667 L34.058,53.2086667 C35.8453333,53.2086667 36.5613333,51.7966667 36.17,51.1913333" id="Fill-1" fill="#16C1AD"></path>
                <path d="M34.058,53.4886667 L25.1286667,53.4886667 C23.6006667,53.4886667 22.6606667,52.764 22.32,52.1426667 C22.1093333,51.7573333 22.092,51.3726667 22.274,51.0853333 C23.3046667,49.4706667 24.6766667,48.3966667 24.7346667,48.3513333 L24.81,48.2926667 L33.8993333,48.2926667 L33.9753333,48.3513333 C34.032,48.3953333 35.3786667,49.45 36.4053333,51.04 C36.6186667,51.3686667 36.6,51.85 36.3573333,52.2953333 C36.2046667,52.5753333 35.5886667,53.4886667 34.058,53.4886667 M25.0053333,48.8533333 C24.712,49.096 23.592,50.062 22.7466667,51.3873333 C22.68,51.492 22.7046667,51.6786667 22.812,51.8733333 C23.0786667,52.36 23.846,52.9286667 25.1286667,52.9286667 L34.058,52.9286667 C35.2793333,52.9286667 35.75,52.2386667 35.8646667,52.0273333 C36.0066667,51.7666667 36.034,51.498 35.9346667,51.344 C35.0913333,50.0386667 33.994,49.0926667 33.704,48.8533333 L25.0053333,48.8533333" id="Fill-2" fill="#028074"></path>
                <path d="M28.1986667,52.8326667 C26.3186667,53.462 20.068,53.4393333 20.196,51.4886667 C20.324,49.538 23.56,47.676 23.56,47.676 C24.4393333,47.0706667 26.0293333,47.0786667 25.878,48.424 C25.7666667,49.408 25.13,49.9933333 25.13,49.9933333 C25.13,49.9933333 26.1993333,49.9493333 27.15,49.9933333 C29.7586667,50.1166667 30.07,52.2066667 28.1986667,52.8326667 M30.5853333,52.8326667 C28.7146667,52.2066667 29.0266667,50.1166667 31.6353333,49.9933333 C32.5846667,49.9493333 33.6533333,49.9933333 33.6533333,49.9933333 C33.6533333,49.9933333 33.0166667,49.408 32.906,48.424 C32.7546667,47.0786667 34.3453333,47.0706667 35.2233333,47.676 C35.2233333,47.676 38.4593333,49.538 38.588,51.4886667 C38.7173333,53.4393333 32.4653333,53.462 30.5853333,52.8326667" id="Fill-3" fill="#18CFBE"></path>
                <path d="M33.7866667,53.4806667 C32.4593333,53.4806667 31.1986667,53.3346667 30.4966667,53.0986667 C30.0086667,52.9353333 29.6293333,52.6733333 29.392,52.348 C29.1546667,52.6733333 28.7766667,52.9353333 28.288,53.0986667 C27.5853333,53.3346667 26.3246667,53.4806667 24.9973333,53.4806667 C23.886,53.4806667 21.2,53.3706667 20.25,52.356 C20.0066667,52.0966667 19.8946667,51.798 19.916,51.47 C20.0506667,49.4293333 23.1733333,47.576 23.4106667,47.438 C23.806,47.1706667 24.3226667,47.0106667 24.7973333,47.0106667 C25.2546667,47.0106667 25.6386667,47.1586667 25.88,47.4293333 C26.0393333,47.6066667 26.216,47.9293333 26.1566667,48.4553333 C26.0973333,48.9793333 25.9046667,49.4006667 25.7186667,49.698 C25.8646667,49.6953333 26.0293333,49.6926667 26.2033333,49.6926667 C26.556,49.6926667 26.878,49.7006667 27.1626667,49.7133333 C28.2986667,49.7666667 29.0273333,50.1706667 29.392,50.6753333 C29.7573333,50.1706667 30.486,49.7666667 31.6226667,49.7133333 C31.906,49.7006667 32.2286667,49.6926667 32.5806667,49.6926667 C32.7546667,49.6926667 32.9193333,49.6953333 33.0653333,49.698 C32.8793333,49.4006667 32.6866667,48.9793333 32.6273333,48.4553333 C32.5686667,47.9293333 32.7453333,47.6066667 32.904,47.4293333 C33.1453333,47.1586667 33.53,47.0106667 33.9866667,47.0106667 C34.4613333,47.0106667 34.9786667,47.1706667 35.3733333,47.438 C35.6106667,47.576 38.734,49.4293333 38.868,51.47 C38.8893333,51.798 38.7773333,52.0966667 38.534,52.3553333 C37.584,53.3706667 34.898,53.4806667 33.7866667,53.4806667 M29.6726667,51.546 C29.6946667,51.9833333 30.068,52.364 30.6746667,52.5673333 C31.3133333,52.7813333 32.5353333,52.92 33.7866667,52.92 C35.916,52.92 37.578,52.5566667 38.1246667,51.9733333 C38.2593333,51.8286667 38.3193333,51.6766667 38.3086667,51.5073333 C38.2606667,50.7866667 37.696,49.9406667 36.6746667,49.0633333 C35.8793333,48.3786667 35.092,47.924 35.084,47.9193333 L35.0646667,47.9066667 C34.764,47.7 34.3506667,47.5706667 33.9866667,47.5706667 C33.6926667,47.5706667 33.456,47.6526667 33.322,47.802 C33.202,47.9366667 33.156,48.1353333 33.1846667,48.3926667 C33.2813333,49.2533333 33.8386667,49.7833333 33.844,49.788 L34.3973333,50.304 L33.642,50.2733333 C33.638,50.2733333 33.166,50.254 32.5806667,50.254 C32.238,50.254 31.924,50.2606667 31.648,50.2733333 C30.3266667,50.336 29.6993333,50.936 29.6726667,51.4706667 C29.6733333,51.496 29.6733333,51.5213333 29.6726667,51.546 M24.7973333,47.5706667 C24.4333333,47.5706667 24.02,47.7 23.7193333,47.9066667 L23.7,47.9193333 C23.6693333,47.9366667 20.5926667,49.7293333 20.4753333,51.5073333 C20.4646667,51.6766667 20.5246667,51.8286667 20.6593333,51.9733333 C21.2066667,52.5566667 22.868,52.92 24.9973333,52.92 C26.2493333,52.92 27.4706667,52.7813333 28.1106667,52.5673333 C28.7166667,52.364 29.0906667,51.9833333 29.1113333,51.546 C29.1106667,51.5213333 29.1106667,51.496 29.1113333,51.4706667 C29.0846667,50.936 28.4573333,50.336 27.136,50.2733333 C26.8606667,50.2606667 26.5466667,50.254 26.2033333,50.254 C25.6186667,50.254 25.1466667,50.2733333 25.142,50.2733333 L24.3766667,50.306 L24.9406667,49.7873333 C24.9453333,49.7833333 25.5026667,49.2533333 25.5993333,48.3926667 C25.6286667,48.1353333 25.582,47.9366667 25.462,47.802 C25.3286667,47.6526667 25.0926667,47.5706667 24.7973333,47.5706667" id="Fill-4" fill="#028074"></path>
                <path d="M18.3266667,12.8353333 C18.3266667,12.8353333 19.4173333,0.872666667 24.122,0.872666667 C28.8266667,0.872666667 29.3173333,12.76 29.3173333,12.76 L18.3266667,12.8353333 L18.3266667,12.8353333 Z M29.2426667,12.8353333 C29.2426667,12.8353333 30.3326667,0.872666667 35.038,0.872666667 C39.7426667,0.872666667 40.2333333,12.76 40.2333333,12.76 L29.2426667,12.8353333 L29.2426667,12.8353333 Z" id="Fill-5" fill="#18CFBE"></path>
                <path d="M28.9353333,13.118 L28.942,13.0426667 L18.02,13.118 L18.048,12.81 C18.0933333,12.3113333 19.2173333,0.592666667 24.122,0.592666667 C26.036,0.592666667 27.508,2.33133333 28.496,5.75933333 C28.922,7.23666667 29.1873333,8.79133333 29.3513333,10.064 C30.0106667,6.356 31.5906667,0.592666667 35.038,0.592666667 C39.9553333,0.592666667 40.4926667,12.2526667 40.5133333,12.7486667 L40.5253333,13.0386667 L28.9353333,13.118 L28.9353333,13.118 Z M24.122,1.15266667 C21.8673333,1.15266667 20.49,4.292 19.7313333,6.92533333 C19.0453333,9.30666667 18.7333333,11.716 18.6386667,12.5533333 L28.998,12.482 C29.0026667,12.442 29.0073333,12.398 29.0133333,12.35 C28.9393333,11.244 28.6906667,8.45933333 27.9573333,5.91466667 C27.0466667,2.75533333 25.756,1.15266667 24.122,1.15266667 L24.122,1.15266667 Z M29.576,12.3653333 C29.5806667,12.4366667 29.5846667,12.5 29.5873333,12.552 L39.9366667,12.482 C39.886,11.666 39.696,9.256 39.1253333,6.87533333 C38.5006667,4.264 37.284,1.15266667 35.038,1.15266667 C33.4133333,1.15266667 32.0473333,2.74 30.978,5.87066667 C30.108,8.41733333 29.7093333,11.2413333 29.576,12.3653333 L29.576,12.3653333 Z" id="Fill-6" fill="#028074"></path>
                <path d="M56.1826667,28.6106667 L55.4106667,28.6106667 L55.4106667,33.0966667 L56.1826667,33.0966667 C57.0366667,33.0966667 57.7286667,32.4226667 57.7286667,31.5913333 L57.7286667,30.116 C57.7286667,29.2846667 57.0366667,28.6106667 56.1826667,28.6106667" id="Fill-7" fill="#709AA3"></path>
                <path d="M56.1826667,33.3073333 L55.2,33.3073333 L55.2,28.4006667 L56.1826667,28.4006667 C57.1506667,28.4006667 57.938,29.1706667 57.938,30.1166667 L57.938,31.5913333 C57.938,32.5373333 57.1506667,33.3073333 56.1826667,33.3073333 M55.6213333,32.886 L56.1826667,32.886 C56.9186667,32.886 57.518,32.306 57.518,31.5913333 L57.518,30.1166667 C57.518,29.4026667 56.9186667,28.8206667 56.1826667,28.8206667 L55.6213333,28.8206667 L55.6213333,32.886" id="Fill-8" fill="#363636"></path>
                <path d="M2.676,28.6106667 C1.82266667,28.6106667 1.13066667,29.2846667 1.13066667,30.116 L1.13066667,31.5913333 C1.13066667,32.4226667 1.82266667,33.0966667 2.676,33.0966667 L3.44866667,33.0966667 L3.44866667,28.6106667 L2.676,28.6106667" id="Fill-9" fill="#709AA3"></path>
                <path d="M3.65933333,33.3073333 L2.676,33.3073333 C1.708,33.3073333 0.920666667,32.5373333 0.920666667,31.5913333 L0.920666667,30.1166667 C0.920666667,29.1706667 1.708,28.4006667 2.676,28.4006667 L3.65933333,28.4006667 L3.65933333,33.3073333 L3.65933333,33.3073333 Z M2.676,28.8206667 C1.94,28.8206667 1.34133333,29.4013333 1.34133333,30.1166667 L1.34133333,31.5913333 C1.34133333,32.3053333 1.94,32.8866667 2.676,32.8866667 L3.23866667,32.8866667 L3.23866667,28.8206667 L2.676,28.8206667 L2.676,28.8206667 Z" id="Fill-10" fill="#363636"></path>
                <path d="M51.3693333,31.078 C51.2086667,19.076 41.432,10.05 29.392,10.05 C17.352,10.05 7.57533333,19.076 7.41533333,31.078 L5.472,31.078 C5.652,17.9993333 16.308,8.106 29.4293333,8.106 C42.5506667,8.106 53.2073333,17.9993333 53.388,31.078 L51.3693333,31.078" id="Fill-11" fill="#636363"></path>
                <path d="M53.6006667,31.2886667 L51.162,31.2886667 L51.1593333,31.0813333 C51.0826667,25.3706667 48.786,20.092 44.6906667,16.216 C40.6333333,12.3753333 35.2,10.2606667 29.392,10.2606667 C23.5846667,10.2606667 18.1513333,12.3753333 14.0933333,16.216 C9.99866667,20.092 7.702,25.3706667 7.62533333,31.0813333 L7.62266667,31.2886667 L5.258,31.2886667 L5.26133333,31.0746667 C5.34866667,24.7293333 7.90266667,18.8546667 12.4526667,14.5353333 C16.962,10.254 22.9913333,7.896 29.43,7.896 C35.868,7.896 41.8973333,10.254 46.4066667,14.5353333 C50.9566667,18.8546667 53.5106667,24.7293333 53.598,31.0746667 L53.6006667,31.2886667 L53.6006667,31.2886667 Z M51.576,30.868 L53.1733333,30.868 C53.034,24.718 50.5333333,19.0333333 46.1166667,14.8406667 C41.686,10.6326667 35.76,8.31666667 29.43,8.31666667 C23.0993333,8.31666667 17.1733333,10.6326667 12.7426667,14.8406667 C8.326,19.0333333 5.82533333,24.718 5.68533333,30.868 L7.20866667,30.868 C7.33866667,25.1226667 9.676,19.818 13.804,15.91 C17.9406667,11.996 23.4766667,9.84 29.392,9.84 C35.308,9.84 40.844,11.996 44.98,15.91 C49.108,19.818 51.446,25.1226667 51.576,30.868 L51.576,30.868 Z" id="Fill-12" fill="#363636"></path>
                <path d="M2.70133333,29.2086667 L2.70133333,32.8726667 C2.70133333,34.9366667 4.37466667,36.6106667 6.43933333,36.6106667 L8.30866667,36.6106667 L8.30866667,25.4706667 L6.43933333,25.4706667 C4.37466667,25.4706667 2.70133333,27.1446667 2.70133333,29.2086667" id="Fill-13" fill="#565656"></path>
                <path d="M8.51866667,36.8206667 L6.43933333,36.8206667 C4.262,36.8206667 2.49066667,35.0493333 2.49066667,32.8726667 L2.49066667,29.2086667 C2.49066667,27.032 4.262,25.2606667 6.43933333,25.2606667 L8.51866667,25.2606667 L8.51866667,36.8206667 L8.51866667,36.8206667 Z M6.43933333,25.6813333 C4.494,25.6813333 2.91133333,27.264 2.91133333,29.2086667 L2.91133333,32.8726667 C2.91133333,34.818 4.494,36.4006667 6.43933333,36.4006667 L8.098,36.4006667 L8.098,25.6813333 L6.43933333,25.6813333 L6.43933333,25.6813333 Z" id="Fill-14" fill="#363636"></path>
                <path d="M52.42,25.4706667 L50.5506667,25.4706667 L50.5506667,36.6106667 L52.42,36.6106667 C54.4846667,36.6106667 56.158,34.9366667 56.158,32.8726667 L56.158,29.208 C56.158,27.144 54.4846667,25.4706667 52.42,25.4706667" id="Fill-15" fill="#565656"></path>
                <path d="M52.4193333,36.8206667 L50.3406667,36.8206667 L50.3406667,25.2606667 L52.4193333,25.2606667 C54.5973333,25.2606667 56.3686667,27.032 56.3686667,29.2086667 L56.3686667,32.8726667 C56.3686667,35.0493333 54.5973333,36.8206667 52.4193333,36.8206667 M50.7613333,36.4006667 L52.4193333,36.4006667 C54.3646667,36.4006667 55.9473333,34.818 55.9473333,32.8726667 L55.9473333,29.2086667 C55.9473333,27.264 54.3646667,25.6813333 52.4193333,25.6813333 L50.7613333,25.6813333 L50.7613333,36.4006667" id="Fill-16" fill="#363636"></path>
                <path d="M52.1793333,32.6373333 C51.7146667,22.0566667 45.7546667,10.2666667 29.496,10.1466667 L29.496,10.144 C29.454,10.144 29.4126667,10.1446667 29.3706667,10.1453333 C29.3293333,10.1446667 29.288,10.144 29.246,10.144 L29.246,10.1466667 C12.9646667,10.2666667 6.99533333,22.0566667 6.53,32.6373333 C6.054,43.476 16.1366667,49.0246667 29.246,49.0953333 L29.246,49.0966667 C29.288,49.0966667 29.3293333,49.096 29.3706667,49.096 C29.4126667,49.096 29.454,49.0966667 29.496,49.0966667 L29.496,49.0953333 C42.5866667,49.0246667 52.6546667,43.4753333 52.1793333,32.6373333" id="Fill-17" fill="#18CFBE"></path>
                <path d="M29.496,49.3766667 L29.3706667,49.3753333 L28.966,49.3766667 L28.966,49.3733333 C20.59,49.2793333 13.844,46.9813333 9.948,42.888 C7.31666667,40.124 6.07266667,36.6706667 6.25,32.6253333 C6.51266667,26.654 8.46333333,21.208 11.742,17.2893333 C13.6586667,14.9993333 16.026,13.2086667 18.7786667,11.9673333 C21.736,10.634 25.1626667,9.92933333 28.966,9.87 L28.966,9.86666667 L29.246,9.864 C29.27,9.864 29.294,9.864 29.3173333,9.86466667 L29.372,9.86533333 L29.4246667,9.86466667 C29.4486667,9.864 29.472,9.864 29.496,9.864 L29.7766667,9.864 L29.7766667,9.87 C33.5746667,9.92933333 36.996,10.6346667 39.9493333,11.968 C42.698,13.2086667 45.062,14.9993333 46.976,17.29 C50.25,21.2086667 52.1973333,26.654 52.4593333,32.6253333 C52.6373333,36.6746667 51.3926667,40.1293333 48.76,42.8953333 C44.868,46.9833333 38.134,49.2793333 29.7766667,49.3733333 L29.7766667,49.3753333 L29.496,49.3766667 L29.496,49.3766667 Z M29.3213333,10.426 L29.2486667,10.4273333 C25.412,10.4553333 21.9673333,11.146 19.0086667,12.4793333 C16.334,13.684 14.034,15.4246667 12.172,17.6493333 C8.972,21.474 7.06733333,26.8006667 6.81066667,32.65 C6.63933333,36.5373333 7.832,39.8513333 10.354,42.5013333 C14.1873333,46.528 20.8973333,48.7693333 29.248,48.8146667 L29.3666667,48.8153333 L29.4946667,48.8146667 C37.8273333,48.7693333 44.5246667,46.5306667 48.3533333,42.5093333 C50.8773333,39.8573333 52.07,36.5413333 51.8993333,32.65 C51.6426667,26.8006667 49.7413333,21.474 46.5453333,17.6493333 C44.686,15.4246667 42.3893333,13.684 39.7186667,12.4793333 C36.7646667,11.146 33.3246667,10.4553333 29.494,10.4273333 L29.3213333,10.426 L29.3213333,10.426 Z" id="Fill-18" fill="#028074"></path>
                <path d="M48.5933333,32.1446667 C48.202,23.218 43.178,13.3866667 29.474,13.286 L29.474,13.284 C29.4386667,13.284 29.404,13.2846667 29.3686667,13.2846667 C29.3333333,13.2846667 29.2986667,13.284 29.2633333,13.284 L29.2633333,13.286 C15.54,13.386 10.5086667,23.218 10.1166667,32.1446667 C9.71466667,41.2893333 18.2133333,45.9706667 29.2633333,46.0293333 L29.2633333,46.0306667 C29.2986667,46.0306667 29.3333333,46.03 29.3686667,46.03 C29.404,46.03 29.4386667,46.0306667 29.474,46.0306667 L29.474,46.0293333 C40.508,45.9706667 48.994,41.2893333 48.5933333,32.1446667" id="Fill-19" fill="#FCECEB"></path>
                <path d="M29.474,46.2413333 L29.368,46.2406667 L29.0533333,46.2413333 L29.0533333,46.238 C21.992,46.164 16.304,44.2286667 13.0206667,40.7793333 C10.8046667,38.4513333 9.75733333,35.5433333 9.90666667,32.1353333 C10.1273333,27.1153333 11.7686667,22.546 14.53,19.27 C16.142,17.3573333 18.134,15.8626667 20.4513333,14.828 C22.9466667,13.7133333 25.8393333,13.1253333 29.0533333,13.078 L29.0533333,13.076 L29.2633333,13.0733333 L29.3693333,13.0746667 L29.6846667,13.0733333 L29.6846667,13.078 C32.8933333,13.1253333 35.782,13.7133333 38.2733333,14.828 C40.588,15.8626667 42.5773333,17.3573333 44.1866667,19.27 C46.9433333,22.5466667 48.5833333,27.1153333 48.8033333,32.1353333 C48.9533333,35.5466667 47.9046667,38.4566667 45.688,40.7853333 C42.408,44.2306667 36.7306667,46.164 29.6846667,46.238 L29.6846667,46.24 L29.474,46.2413333 L29.474,46.2413333 Z M29.324,13.4953333 L29.2653333,13.4966667 C23.0426667,13.542 18.1933333,15.5753333 14.8513333,19.54 C12.15,22.7466667 10.5433333,27.226 10.3266667,32.154 C10.182,35.4433333 11.1913333,38.248 13.3246667,40.4893333 C16.5613333,43.8886667 22.222,45.782 29.2646667,45.8193333 L29.3693333,45.82 L29.4733333,45.8193333 C36.5006667,45.782 42.1506667,43.8913333 45.3833333,40.4953333 C47.5186667,38.2533333 48.528,35.4466667 48.3833333,32.154 C48.1673333,27.226 46.5626667,22.7466667 43.8653333,19.54 C40.528,15.5753333 35.686,13.542 29.4726667,13.4966667 L29.324,13.4953333 L29.324,13.4953333 Z" id="Fill-20" fill="#028074"></path>
                <path d="M17.392,41.9933333 C15.7206667,41.9933333 14.364,40.6373333 14.364,38.9653333 C14.364,37.2933333 15.7206667,35.9373333 17.392,35.9373333 C19.0653333,35.9373333 20.42,37.2933333 20.42,38.9653333 C20.42,40.6373333 19.0653333,41.9933333 17.392,41.9933333 M41.1673333,41.9933333 C39.496,41.9933333 38.1393333,40.6373333 38.1393333,38.9653333 C38.1393333,37.2933333 39.496,35.9373333 41.1673333,35.9373333 C42.8406667,35.9373333 44.1953333,37.2933333 44.1953333,38.9653333 C44.1953333,40.6373333 42.8406667,41.9933333 41.1673333,41.9933333" id="Fill-21" fill="#FBDFE2"></path>
                <path d="M34.308,36.2973333 L34.308,36.2993333 L34.308,37.8813333 C34.308,39.946 32.6346667,41.62 30.57,41.62 L28.5133333,41.62 C26.4493333,41.62 24.7753333,39.946 24.7753333,37.8813333 L24.7753333,36.2993333 L24.7753333,36.2973333 L24.7753333,36.2086667 L24.7846667,36.2086667 C24.826,36.0033333 25.0073333,35.8486667 25.2246667,35.8486667 L33.8586667,35.8486667 C34.076,35.8486667 34.2573333,36.0033333 34.2986667,36.2086667 L34.308,36.2086667 L34.308,36.2973333" id="Fill-22" fill="#BC6691"></path>
                <path d="M20.3826667,36.2366667 C18.9993333,36.2366667 17.8786667,35.1153333 17.8786667,33.7326667 C17.8786667,32.3486667 18.9993333,31.2273333 20.3826667,31.2273333 C21.7666667,31.2273333 22.8873333,32.3486667 22.8873333,33.7326667 C22.8873333,35.1153333 21.7666667,36.2366667 20.3826667,36.2366667 M38.4013333,36.2366667 C37.018,36.2366667 35.8966667,35.1153333 35.8966667,33.7326667 C35.8966667,32.3486667 37.018,31.2273333 38.4013333,31.2273333 C39.7846667,31.2273333 40.906,32.3486667 40.906,33.7326667 C40.906,35.1153333 39.7846667,36.2366667 38.4013333,36.2366667" id="Fill-23" fill="#435A59"></path>
                <path d="M53.6913333,36.8346667 C53.6913333,36.8346667 53.568,40.7226667 41.6533333,40.7226667 L41.6533333,41.8446667 C41.6533333,41.8446667 54.69,42.4566667 54.8873333,36.386 L53.6913333,36.8346667" id="Fill-24" fill="#636363"></path>
                <path d="M42.6326667,42.0713333 L42.6326667,42.0713333 C42.0226667,42.0713333 41.6593333,42.0553333 41.644,42.0546667 L41.4433333,42.0446667 L41.4433333,40.5126667 L41.654,40.5126667 C44.984,40.5126667 49.476,40.1873333 51.9626667,38.642 C53.4153333,37.7386667 53.4806667,36.8353333 53.4806667,36.8253333 L53.488,36.688 L53.6173333,36.638 L55.1073333,36.0793333 L55.0973333,36.3933333 C55.024,38.6613333 53.2726667,40.2853333 49.892,41.2213333 C47.218,41.9606667 44.196,42.0713333 42.6326667,42.0713333 M41.864,41.6413333 C42.0306667,41.646 42.2946667,41.6513333 42.6326667,41.6513333 C45.356,41.6513333 54.1166667,41.288 54.6533333,36.6986667 L53.882,36.9873333 C53.7373333,37.724 52.4953333,40.892 41.864,40.932 L41.864,41.6413333" id="Fill-25" fill="#363636"></path>
                <path d="M33.504,21.9566667 L25.13,21.9566667 C22.6526667,21.9566667 20.6453333,19.9486667 20.6453333,17.4706667 L20.6453333,14.9773333 C23.0306667,13.93 25.8833333,13.3133333 29.2633333,13.2866667 L29.2633333,13.284 C29.2993333,13.284 29.3333333,13.2853333 29.3686667,13.2853333 C29.4033333,13.2853333 29.4386667,13.284 29.4733333,13.284 L29.4733333,13.2866667 C32.8066667,13.3126667 35.6253333,13.9153333 37.99,14.9386667 L37.99,17.4706667 C37.99,19.9486667 35.982,21.9566667 33.504,21.9566667" id="Fill-26" fill="#003329"></path>
                <path d="M42.102,39.452 L43.5233333,39.452 C44.142,39.452 44.644,39.954 44.644,40.5726667 L44.644,41.62 C44.644,42.2393333 44.142,42.7413333 43.5233333,42.7413333 L42.102,42.7413333 C41.4833333,42.7413333 40.9813333,42.2393333 40.9813333,41.62 L40.9813333,40.5726667 C40.9813333,39.954 41.4833333,39.452 42.102,39.452" id="Fill-27" fill="#474747"></path>
                <path d="M43.5233333,42.952 L42.102,42.952 C41.368,42.952 40.7706667,42.3546667 40.7706667,41.62 L40.7706667,40.5726667 C40.7706667,39.8386667 41.368,39.2406667 42.102,39.2406667 L43.5233333,39.2406667 C44.2573333,39.2406667 44.8553333,39.8386667 44.8553333,40.5726667 L44.8553333,41.62 C44.8553333,42.3546667 44.2573333,42.952 43.5233333,42.952 M42.102,39.662 C41.5993333,39.662 41.1913333,40.07 41.1913333,40.5726667 L41.1913333,41.62 C41.1913333,42.1226667 41.5993333,42.5313333 42.102,42.5313333 L43.5233333,42.5313333 C44.0253333,42.5313333 44.434,42.1226667 44.434,41.62 L44.434,40.5726667 C44.434,40.07 44.0253333,39.662 43.5233333,39.662 L42.102,39.662" id="Fill-28" fill="#363636"></path>
                <path d="M33.7286667,36.162 L33.7286667,36.536 C33.7286667,36.866 33.4606667,37.134 33.1306667,37.134 L25.8786667,37.134 C25.548,37.134 25.28,36.866 25.28,36.536 L25.28,36.162 L33.7286667,36.162" id="Fill-29" fill="#FFFFFF"></path>
                <path d="M29.542,37.924 C30.8826667,37.924 31.9693333,38.6706667 31.9693333,39.592 C31.9693333,40.5126667 30.8826667,41.2606667 29.542,41.2606667 C28.2013333,41.2606667 27.1146667,40.5126667 27.1146667,39.592 C27.1146667,38.6706667 28.2013333,37.924 29.542,37.924" id="Fill-30" fill="#F3769F"></path>
                <path d="M53.3746667,34.9286667 L53.6493333,34.81 C54.218,34.5646667 54.8773333,34.826 55.1233333,35.3946667 L55.1526667,35.4633333 C55.3986667,36.032 55.1366667,36.692 54.5686667,36.938 L54.2933333,37.056 C53.7246667,37.302 53.0653333,37.04 52.8186667,36.4713333 L52.7893333,36.4026667 C52.544,35.834 52.806,35.174 53.3746667,34.9286667" id="Fill-31" fill="#474747"></path>
                <path d="M53.8486667,37.3586667 C53.3173333,37.3586667 52.8366667,37.0433333 52.626,36.5546667 L52.596,36.4853333 C52.456,36.1593333 52.45,35.7973333 52.5813333,35.4666667 C52.712,35.1366667 52.964,34.8766667 53.2906667,34.7353333 L53.566,34.6166667 C53.734,34.544 53.9106667,34.5073333 54.0933333,34.5073333 C54.6246667,34.5073333 55.1046667,34.8226667 55.3166667,35.3113333 L55.346,35.38 C55.6373333,36.054 55.3253333,36.8393333 54.652,37.1306667 L54.3766667,37.2493333 C54.2086667,37.322 54.0306667,37.3586667 53.8486667,37.3586667 M54.0933333,34.9286667 C53.9693333,34.9286667 53.8473333,34.954 53.7326667,35.0026667 L53.4573333,35.122 C53.2346667,35.218 53.0613333,35.396 52.972,35.6226667 C52.882,35.848 52.8866667,36.0966667 52.9826667,36.3193333 L53.012,36.3886667 C53.156,36.722 53.4846667,36.938 53.8486667,36.938 C53.9733333,36.938 54.0953333,36.9126667 54.2093333,36.8633333 L54.4846667,36.7446667 C54.9453333,36.5453333 55.1586667,36.008 54.9593333,35.5466667 L54.9293333,35.478 C54.7853333,35.144 54.4573333,34.9286667 54.0933333,34.9286667" id="Fill-32" fill="#363636"></path>
            </g>
        </g>
    </g>
</svg>