<?xml version="1.0" encoding="utf-8"?>
<!-- Generator: Adobe Illustrator 19.0.0, SVG Export Plug-In . SVG Version: 6.00 Build 0)  -->
<svg width="18px" height="18px" version="1.1" id="图层_1" xmlns="http://www.w3.org/2000/svg" xmlns:xlink="http://www.w3.org/1999/xlink" x="0px" y="0px"
	 viewBox="0 0 18 18" style="enable-background:new 0 0 18 18;" xml:space="preserve">
<style type="text/css">
	.st0{fill:#06C1AE;}
</style>
<path id="XMLID_2_" class="st0" d="M17.2,0.7l-0.1-0.4C17,0.1,16.9,0,16.7,0L0.3,4.6C0.1,4.6,0,4.8,0,5l0,0c0.1,0.2,0.2,0.4,0.4,0.3
	l16.5-4.2C17.1,1.1,17.2,0.9,17.2,0.7z M17.8,3.3c0-0.2-0.1-0.3-0.4-0.3L1,6.1c-0.1,0-0.3,0.1-0.2,0.4l0,0c0,0.2,0.1,0.3,0.4,0.3
	l16.5-2.7c0.1,0,0.3-0.2,0.3-0.4L17.8,3.3z M16.5,8h-0.2h-0.8h-13H1.7H1.4C1.2,8,1,8.2,1,8.5v0.8c0,3.2,1.8,5.9,4.4,7.2v0.8
	c0,0.5,0.3,0.8,0.7,0.8h5.8c0.4,0,0.7-0.3,0.7-0.8v-0.8c2.5-1.2,4.4-4,4.4-7.2V8.5C17,8.2,16.8,8,16.5,8z M11.2,15.4v0.9H6.8v-0.9
	c-1.6-0.6-2.9-1.8-3.6-3.4h11.7C14.1,13.6,12.8,14.8,11.2,15.4z M15.2,11.1H2.8c-0.1-0.5-0.3-0.6-0.4-1.2h13
	C15.5,10.4,15.3,10.6,15.2,11.1z"/>
</svg>
