<?xml version="1.0" encoding="UTF-8" standalone="no"?>
<svg width="13px" height="14px" viewBox="0 0 13 14" version="1.1" xmlns="http://www.w3.org/2000/svg" xmlns:xlink="http://www.w3.org/1999/xlink" xmlns:sketch="http://www.bohemiancoding.com/sketch/ns">
    <!-- Generator: Sketch 3.0.3 (7891) - http://www.bohemiancoding.com/sketch -->
    <title>展开明细数据</title>
    <desc>Created with Sketch.</desc>
    <defs></defs>
    <g id="经营效果" stroke="none" stroke-width="1" fill="none" fill-rule="evenodd" sketch:type="MSPage">
        <g id="效果概览" sketch:type="MSArtboardGroup" transform="translate(-559.000000, -911.000000)" fill="#979797">
            <g id="数据趋势图" sketch:type="MSLayerGroup" transform="translate(310.000000, 466.000000)">
                <g id="展开明细数据" transform="translate(249.000000, 445.000000)" sketch:type="MSShapeGroup">
                    <g id="Rectangle-55">
                        <path d="M0,14 L13,14 L13,0 L0,0 L0,14 Z M12,1 L12,13 L1,13 L1,1 L12,1 Z M2,3 L2,4 L11,4 L11,3 L2,3 Z M2,5 L2,6 L11,6 L11,5 L2,5 Z M2,7 L2,8 L11,8 L11,7 L2,7 Z M2,9 L2,10 L7,10 L7,9 L2,9 Z"></path>
                    </g>
                </g>
            </g>
        </g>
    </g>
</svg>