<?xml version="1.0" encoding="utf-8"?>
<!-- Generator: Adobe Illustrator 16.0.0, SVG Export Plug-In . SVG Version: 6.00 Build 0)  -->
<!DOCTYPE svg PUBLIC "-//W3C//DTD SVG 1.1//EN" "http://www.w3.org/Graphics/SVG/1.1/DTD/svg11.dtd">
<svg version="1.1" id="图层_1" xmlns="http://www.w3.org/2000/svg" xmlns:xlink="http://www.w3.org/1999/xlink" x="0px" y="0px"
	 width="32px" height="32px" viewBox="0 0 32 32" enable-background="new 0 0 32 32" xml:space="preserve">
<title>下载</title>
<desc>Created with Sketch.</desc>
<path d="M23.273,15.192c-0.447-0.446-1.17-0.446-1.617,0l-4.514,4.514V6.857c0-0.631-0.512-1.143-1.143-1.143
	c-0.631,0-1.143,0.512-1.143,1.143v12.848l-4.514-4.513c-0.446-0.446-1.17-0.446-1.616,0s-0.446,1.17,0,1.617l6.465,6.465
	c0.223,0.223,0.516,0.334,0.808,0.334s0.585-0.111,0.809-0.334l6.465-6.465C23.72,16.362,23.72,15.638,23.273,15.192z"/>
</svg>
