<?xml version="1.0" encoding="UTF-8" standalone="no"?>
<svg width="232px" height="30px" viewBox="0 0 232 30" version="1.1" xmlns="http://www.w3.org/2000/svg" xmlns:xlink="http://www.w3.org/1999/xlink" xmlns:sketch="http://www.bohemiancoding.com/sketch/ns">
    <!-- Generator: Sketch 3.3 (11970) - http://www.bohemiancoding.com/sketch -->
    <title>美团商家消息中心</title>
    <desc>Created with Sketch.</desc>
    <defs>
        <filter x="-50%" y="-50%" width="200%" height="200%" filterUnits="objectBoundingBox" id="filter-1">
            <feOffset dx="0" dy="1" in="SourceAlpha" result="shadowOffsetOuter1"></feOffset>
            <feGaussianBlur stdDeviation="0" in="shadowOffsetOuter1" result="shadowBlurOuter1"></feGaussianBlur>
            <feColorMatrix values="0 0 0 0 0.168627456   0 0 0 0 0.721568644   0 0 0 0 0.666666687  0 0 0 0.7 0" in="shadowBlurOuter1" type="matrix" result="shadowMatrixOuter1"></feColorMatrix>
            <feMerge>
                <feMergeNode in="shadowMatrixOuter1"></feMergeNode>
                <feMergeNode in="SourceGraphic"></feMergeNode>
            </feMerge>
        </filter>
        <filter x="-50%" y="-50%" width="200%" height="200%" filterUnits="objectBoundingBox" id="filter-2">
            <feOffset dx="0" dy="1" in="SourceAlpha" result="shadowOffsetOuter1"></feOffset>
            <feGaussianBlur stdDeviation="0" in="shadowOffsetOuter1" result="shadowBlurOuter1"></feGaussianBlur>
            <feColorMatrix values="0 0 0 0 0.168627456   0 0 0 0 0.721568644   0 0 0 0 0.666666687  0 0 0 0.7 0" in="shadowBlurOuter1" type="matrix" result="shadowMatrixOuter1"></feColorMatrix>
            <feMerge>
                <feMergeNode in="shadowMatrixOuter1"></feMergeNode>
                <feMergeNode in="SourceGraphic"></feMergeNode>
            </feMerge>
        </filter>
        <filter x="-50%" y="-50%" width="200%" height="200%" filterUnits="objectBoundingBox" id="filter-3">
            <feOffset dx="0" dy="1" in="SourceAlpha" result="shadowOffsetOuter1"></feOffset>
            <feGaussianBlur stdDeviation="0" in="shadowOffsetOuter1" result="shadowBlurOuter1"></feGaussianBlur>
            <feColorMatrix values="0 0 0 0 0.168627456   0 0 0 0 0.721568644   0 0 0 0 0.666666687  0 0 0 0.7 0" in="shadowBlurOuter1" type="matrix" result="shadowMatrixOuter1"></feColorMatrix>
            <feMerge>
                <feMergeNode in="shadowMatrixOuter1"></feMergeNode>
                <feMergeNode in="SourceGraphic"></feMergeNode>
            </feMerge>
        </filter>
        <filter x="-50%" y="-50%" width="200%" height="200%" filterUnits="objectBoundingBox" id="filter-4">
            <feOffset dx="0" dy="1" in="SourceAlpha" result="shadowOffsetOuter1"></feOffset>
            <feGaussianBlur stdDeviation="0" in="shadowOffsetOuter1" result="shadowBlurOuter1"></feGaussianBlur>
            <feColorMatrix values="0 0 0 0 0.168627456   0 0 0 0 0.721568644   0 0 0 0 0.666666687  0 0 0 0.7 0" in="shadowBlurOuter1" type="matrix" result="shadowMatrixOuter1"></feColorMatrix>
            <feMerge>
                <feMergeNode in="shadowMatrixOuter1"></feMergeNode>
                <feMergeNode in="SourceGraphic"></feMergeNode>
            </feMerge>
        </filter>
        <filter x="-50%" y="-50%" width="200%" height="200%" filterUnits="objectBoundingBox" id="filter-5">
            <feOffset dx="0" dy="1" in="SourceAlpha" result="shadowOffsetOuter1"></feOffset>
            <feGaussianBlur stdDeviation="0" in="shadowOffsetOuter1" result="shadowBlurOuter1"></feGaussianBlur>
            <feColorMatrix values="0 0 0 0 0.168627456   0 0 0 0 0.721568644   0 0 0 0 0.666666687  0 0 0 0.7 0" in="shadowBlurOuter1" type="matrix" result="shadowMatrixOuter1"></feColorMatrix>
            <feMerge>
                <feMergeNode in="shadowMatrixOuter1"></feMergeNode>
                <feMergeNode in="SourceGraphic"></feMergeNode>
            </feMerge>
        </filter>
        <filter x="-50%" y="-50%" width="200%" height="200%" filterUnits="objectBoundingBox" id="filter-6">
            <feOffset dx="0" dy="1" in="SourceAlpha" result="shadowOffsetOuter1"></feOffset>
            <feGaussianBlur stdDeviation="0" in="shadowOffsetOuter1" result="shadowBlurOuter1"></feGaussianBlur>
            <feColorMatrix values="0 0 0 0 0.168627456   0 0 0 0 0.721568644   0 0 0 0 0.666666687  0 0 0 0.7 0" in="shadowBlurOuter1" type="matrix" result="shadowMatrixOuter1"></feColorMatrix>
            <feMerge>
                <feMergeNode in="shadowMatrixOuter1"></feMergeNode>
                <feMergeNode in="SourceGraphic"></feMergeNode>
            </feMerge>
        </filter>
        <filter x="-50%" y="-50%" width="200%" height="200%" filterUnits="objectBoundingBox" id="filter-7">
            <feOffset dx="0" dy="1" in="SourceAlpha" result="shadowOffsetOuter1"></feOffset>
            <feGaussianBlur stdDeviation="0" in="shadowOffsetOuter1" result="shadowBlurOuter1"></feGaussianBlur>
            <feColorMatrix values="0 0 0 0 0.168627456   0 0 0 0 0.721568644   0 0 0 0 0.666666687  0 0 0 0.7 0" in="shadowBlurOuter1" type="matrix" result="shadowMatrixOuter1"></feColorMatrix>
            <feMerge>
                <feMergeNode in="shadowMatrixOuter1"></feMergeNode>
                <feMergeNode in="SourceGraphic"></feMergeNode>
            </feMerge>
        </filter>
        <filter x="-50%" y="-50%" width="200%" height="200%" filterUnits="objectBoundingBox" id="filter-8">
            <feOffset dx="0" dy="1" in="SourceAlpha" result="shadowOffsetOuter1"></feOffset>
            <feGaussianBlur stdDeviation="0" in="shadowOffsetOuter1" result="shadowBlurOuter1"></feGaussianBlur>
            <feColorMatrix values="0 0 0 0 0.168627456   0 0 0 0 0.721568644   0 0 0 0 0.666666687  0 0 0 0.7 0" in="shadowBlurOuter1" type="matrix" result="shadowMatrixOuter1"></feColorMatrix>
            <feMerge>
                <feMergeNode in="shadowMatrixOuter1"></feMergeNode>
                <feMergeNode in="SourceGraphic"></feMergeNode>
            </feMerge>
        </filter>
    </defs>
    <g id="Page-1" stroke="none" stroke-width="1" fill="none" fill-rule="evenodd" sketch:type="MSPage">
        <g id="Artboard-1" sketch:type="MSArtboardGroup" transform="translate(-339.000000, -171.000000)" fill="#FFFFFF">
            <g id="美团商家消息中心" sketch:type="MSLayerGroup" transform="translate(339.000000, 169.000000)">
                <path d="M9.57120768,23 L0,23 L0,20 L11,20 L11,20 L11,19 L14,19 L14,20 L25,20 L25,23 L15.4287923,23 C17.1534504,25.0247504 20.1725198,26.9743666 25,26.9743665 L25,30 C18.1337581,30 14.4191613,27.0671191 12.5,24.171969 C10.5808387,27.0671191 6.86624191,30 0,30 L0,26.9743665 C4.82748016,26.9743666 7.84654958,25.0247504 9.57120768,23 Z M19.2,5 L25,5 L25,8 L0,8 L0,5 L5.8,5 L5.8,5 L5,3 L7.9906311,3 C8.54809015,3 9.16366839,3.40917099 9.37149748,3.92874371 L9.8,5 L15.2,5 L15.6285025,3.92874371 C15.8363316,3.40917099 16.4519098,3 17.0093689,3 L20,3 L19.2,5 L19.2,5 Z M11,10 L1,10 L1,13 L11,13 L11,15 L0,15 L0,18 L25,18 L25,15 L14,15 L14,13 L24,13 L24,10 L14,10 L14,8 L11,8 L11,10 L11,10 Z" id="美-3" filter="url(#filter-1)" sketch:type="MSShapeGroup"></path>
                <path d="M44,11 L44,8 L47,8 L47,11 L50,11 L50,14 L47,14 L47,24.0049107 C47,25.1073772 46.1055038,26 45.0020869,26 L41,26 L41,23 L43.0010434,23 C43.5573397,23 44,22.5489341 44,21.992516 L44,14 L44,14 L44,16.3554299 L35,24.3720136 L35,20.546086 L42.3494027,14 L34,14 L34,11 L44,11 Z M30,4.00000002 L30,29.9734383 L51.9705953,29.9734383 C53.0766654,29.9734383 53.9733124,29.0793738 53.9733124,27.9784738 L53.973313,4.00000002 L30,4.00000002 Z M33,27.0000008 L33,6.99999998 L51.0000002,6.99999998 L51,26.0081976 C51,26.5559554 50.5550537,27.0000008 50.0066023,27.0000008 L33,27.0000008 Z" id="团" filter="url(#filter-2)" sketch:type="MSShapeGroup"></path>
                <path d="M66.6906779,12 L65.0111002,10.1581903 C64.6389623,9.75010726 64.6681016,9.11761316 65.0761847,8.74547522 C65.4842677,8.37333728 66.1167618,8.40247658 66.4888998,8.81055966 L69.2388998,11.8261847 C69.2884541,11.8805254 69.3308929,11.9388454 69.3662692,12 L74.2960759,12 C74.3349649,11.9189031 74.3855289,11.8417416 74.4479206,11.7709319 C74.9288904,11.2250693 74.9288904,11.2250693 75.5060542,10.5700343 C76.6603817,9.25996416 76.6603817,9.25996416 77.0451575,8.82327412 C77.4102735,8.40889652 78.0421778,8.36896204 78.4565554,8.73407797 C78.870933,9.09919391 78.9108675,9.73109827 78.5457516,10.1454759 C78.1609757,10.5821659 78.1609757,10.5821659 77.0066482,11.892236 C76.9731185,11.9302895 76.9415367,11.9661324 76.9116954,12 L82,12 C82.5522847,12 83,12.4477153 83,13 L83,25.9905224 C83,28.2022758 81.2118345,30 79.0093689,30 L78,30 C77.4477153,30 77,29.5522847 77,29 C77,28.4477153 77.4477153,28 78,28 L79.0093689,28 C80.1048711,28 81,27.1000861 81,25.9905224 L81,13 L82,14 L61,14 L62,13 L62,29.0625 C62,29.6147847 61.5522847,30.0625 61,30.0625 C60.4477153,30.0625 60,29.6147847 60,29.0625 L60,13 C60,12.4477153 60.4477153,12 61,12 L66.6906779,12 Z M72.4470509,6 L83,6 C83.5522847,6 84,6.44771525 84,7 C84,7.55228475 83.5522847,8 83,8 L60,8 C59.4477153,8 59,7.55228475 59,7 C59,6.44771525 59.4477153,6 60,6 L70.2552672,6 L69.5420467,4.40907941 C68.9966075,3.19241437 70.821605,2.37425554 71.3670442,3.59092059 L72.4470509,6 L72.4470509,6 Z M67,21 L76,21 L75,20 L75,26 L76,25 L67,25 L68,26 L68,20 L67,21 Z M67,19 C66.4477153,19 66,19.4477153 66,20 L66,26 C66,26.5522847 66.4477153,27 67,27 L76,27 C76.5522847,27 77,26.5522847 77,26 L77,20 C77,19.4477153 76.5522847,19 76,19 L67,19 Z M63.9027347,20.6811302 C65.9182567,19.3654477 67.8448382,17.9189708 69.6696249,16.352072 C70.0886333,15.9922799 70.1366377,15.3609373 69.7768456,14.9419288 C69.4170534,14.5229204 68.7857108,14.4749161 68.3667024,14.8347082 C66.6082426,16.3446537 64.7516999,17.7385455 62.8094929,19.0063698 C62.3470206,19.3082602 62.2168432,19.9278986 62.5187336,20.3903709 C62.820624,20.8528432 63.4402624,20.9830206 63.9027347,20.6811302 Z M73.1176469,16.7282019 C75.1637978,17.8231368 77.1356741,19.051079 79.0200247,20.4031274 C79.4687511,20.7250949 80.0935219,20.6223366 80.4154895,20.1736103 C80.737457,19.7248839 80.6346987,19.100113 80.1859724,18.7781455 C78.2306719,17.3751896 76.1845344,16.1010029 74.0612745,14.9648054 C73.574326,14.7042299 72.968338,14.8877414 72.7077625,15.3746899 C72.4471869,15.8616383 72.6306984,16.4676263 73.1176469,16.7282019 Z" id="Shape" filter="url(#filter-3)" sketch:type="MSShapeGroup"></path>
                <path d="M102.331098,6 L112,6 C112.552285,6 113,6.44771525 113,7 L113,10 C113,10.5522847 112.552285,11 112,11 C111.447715,11 111,10.5522847 111,10 L111,7 L112,8 L90,8 L91,7 L91,10 C91,10.5522847 90.5522847,11 90,11 C89.4477153,11 89,10.5522847 89,10 L89,7 C89,6.44771525 89.4477153,6 90,6 L100.133053,6 L99.4430124,4.48643757 C98.8899083,3.27323783 100.709708,2.44358167 101.262812,3.65678142 L102.331098,6 Z M98.9332935,13 C98.7915255,13.1248376 98.6931283,13.2819286 98.6402843,13.4513709 C95.8716233,15.1290207 92.8852302,16.4657329 89.7476152,17.4211338 C89.219281,17.5820111 88.9213984,18.1407273 89.0822756,18.6690614 C89.2431529,19.1973955 89.8018691,19.4952782 90.3302032,19.3344009 C93.5613593,18.3505169 96.6404347,16.9815822 99.501649,15.2673533 C99.7950992,15.6650147 100.070294,16.0617317 100.327156,16.4584775 C97.1181288,18.9349366 93.5399777,20.8968514 89.713614,22.2635946 C89.1935123,22.4493704 88.9224875,23.0215971 89.1082633,23.5416989 C89.294039,24.0618006 89.8662658,24.3328254 90.3863675,24.1470496 C94.3272416,22.7394043 98.0173245,20.7318409 101.337171,18.2042313 C101.591171,18.7033319 101.816294,19.2047078 102.012387,19.7102646 C98.3786692,22.7540933 94.1856166,25.149214 89.6281364,26.7626375 C89.1075132,26.9469468 88.8348768,27.5184075 89.0191861,28.0390307 C89.2034954,28.5596539 89.774956,28.8322903 90.2955793,28.647981 C94.8085761,27.0503053 98.9826228,24.7212965 102.645709,21.7775478 L102.645709,21.7775478 C102.881493,22.8195391 103,23.8885857 103,25 L103,26.4979245 C103,27.3267834 102.327624,28 101.5,28 L99,28 C98.4477153,28 98,28.4477153 98,29 C98,29.5522847 98.4477153,30 99,30 L101.5,30 C103.432753,30 105,28.4307941 105,26.4979245 L105,25 C105,23.0155818 104.668201,21.155104 104.018087,19.3585513 C104.449671,19.1991025 104.738015,19.0925736 105.056958,18.9747402 C106.422528,22.3285656 108.955652,25.1307125 112.199048,26.8861998 C112.684752,27.1490872 113.291605,26.9684583 113.554493,26.482754 C113.81738,25.9970497 113.636751,25.3901962 113.151047,25.1273089 C110.332031,23.6015172 108.129731,21.1763029 106.934161,18.2812078 C110.549247,16.9456146 110.561049,16.9412543 111.789531,16.4873918 C112.30759,16.2959948 112.572402,15.7208667 112.381005,15.2028072 C112.189608,14.6847477 111.61448,14.4199355 111.096421,14.6113325 C109.856022,15.0695976 109.856022,15.0695976 106.134828,16.4443927 L103.230991,17.517215 C102.67837,16.3975166 101.998733,15.2953096 101.195556,14.1951285 C101.765303,13.8145604 102.325283,13.4197341 102.874926,13.010995 C102.879806,13.0073658 102.884644,13.0037006 102.889439,13 L110,13 C110.552285,13 111,12.5522847 111,12 C111,11.4477153 110.552285,11 110,11 L92,11 C91.4477153,11 91,11.4477153 91,12 C91,12.5522847 91.4477153,13 92,13 L98.9332935,13 L98.9332935,13 Z" id="Shape" filter="url(#filter-4)" sketch:type="MSShapeGroup"></path>
                <path d="M187,8 L177.000695,8 C176.447469,8 176,8.44882258 176,9.00247329 L176,18.9975267 C176,19.544239 176.448026,20 177.000695,20 L187,20 L187,29 C187,29.5522847 187.447715,30 188,30 C188.552285,30 189,29.5522847 189,29 L189,20 L198.999305,20 C199.552531,20 200,19.5511774 200,18.9975267 L200,9.00247329 C200,8.45576096 199.551974,8 198.999305,8 L189,8 L189,5 C189,4.44771525 188.552285,4 188,4 C187.447715,4 187,4.44771525 187,5 L187,8 Z M187,10 L178,10 L178,18 L187,18 L187,10 Z M189,10 L198,10 L198,18 L189,18 L189,10 Z" id="Rectangle-35" filter="url(#filter-5)" sketch:type="MSShapeGroup"></path>
                <path d="M213.931725,5.52206626 L219.249907,10.8033163 L220.659184,9.38418374 L215.341002,4.10293374 L213.931725,5.52206626 L213.931725,5.52206626 Z M215.341002,4.10293374 C214.394914,3.16341545 212.985637,4.58254797 213.931725,5.52206626 L219.249907,10.8033163 C220.195995,11.7428346 221.605273,10.323702 220.659184,9.38418374 L215.341002,4.10293374 Z M224,21.9375 L224,22.0236432 C224,24.7870481 221.7569,27.03125 219,27.03125 L215.00853,27.03125 C214.450823,27.03125 214,26.5829837 214,26.0352161 L214,13 C214,12.4477153 213.552285,12 213,12 C212.447715,12 212,12.4477153 212,13 L212,26.0352161 C212,27.6901069 213.348791,29.03125 215.00853,29.03125 L219,29.03125 C222.861689,29.03125 226,25.8913978 226,22.0236432 L226,21.9375 C226,21.3852153 225.552285,20.9375 225,20.9375 C224.447715,20.9375 224,21.3852153 224,21.9375 Z M205.166101,23.7471532 C206.061231,22.7100868 206.835502,21.236374 207.518356,19.4280736 C207.973116,18.2238016 208.360798,16.9405039 208.683633,15.658131 C208.79648,15.2098792 208.893293,14.7932664 208.974156,14.4185294 C209.023167,14.1913997 209.056283,14.0269671 209.073547,13.9355331 C209.176014,13.3928371 208.819138,12.8698291 208.276442,12.767362 C207.733746,12.6648949 207.210738,13.0217709 207.108271,13.5644669 C207.094117,13.6394329 207.064397,13.7870003 207.019153,13.9966707 C206.942925,14.3499337 206.851229,14.744521 206.744149,15.1698692 C206.43862,16.3834964 206.072265,17.5961988 205.647316,18.7215269 C205.040062,20.3296261 204.365169,21.6141881 203.652081,22.4403468 C203.291216,22.8584319 203.337603,23.4898954 203.755688,23.8507601 C204.173773,24.2116247 204.805236,24.1652383 205.166101,23.7471532 Z M224.296104,14.1629001 C224.948743,14.7316509 225.58004,15.3650384 226.187728,16.0520358 C227.168216,17.1604895 228.040458,18.3521362 228.791341,19.5435672 C229.053771,19.959968 229.281833,20.3457872 229.474106,20.6906267 C229.587447,20.8939013 229.66239,21.0357029 229.697584,21.1056608 C229.945786,21.5990308 230.54695,21.7977782 231.04032,21.5495757 C231.53369,21.3013732 231.732437,20.7002099 231.484235,20.2068399 C231.436629,20.1122114 231.348475,19.9454135 231.220922,19.7166491 C231.011707,19.3414233 230.765486,18.924884 230.483344,18.4772064 C229.678303,17.1998422 228.743477,15.9226937 227.685765,14.7269385 C227.0229,13.9775613 226.330866,13.2832369 225.61009,12.6551072 C225.193725,12.2922598 224.562048,12.3356449 224.199201,12.7520104 C223.836353,13.1683759 223.879738,13.8000528 224.296104,14.1629001 Z" id="Shape" filter="url(#filter-6)" sketch:type="MSShapeGroup"></path>
                <path d="M133,10 L133,4 C133,3.44771525 133.447715,3 134,3 C134.552285,3 135,3.44771525 135,4 L135,10 L136.743082,10 C136.712841,9.97600227 136.683668,9.95000372 136.655741,9.92200458 C136.265727,9.53097146 136.266552,8.89780702 136.657585,8.50779222 L140.032585,5.14158128 C140.423618,4.75156648 141.056783,4.75239199 141.446798,5.14342511 C141.836812,5.53445822 141.835987,6.16762266 141.444954,6.55763747 L138.069954,9.9238484 C138.042584,9.95114697 138.014028,9.97653076 137.984452,10 L141,10 C141.552285,10 142,10.4477153 142,11 L142,25.9998938 C142,27.6588665 140.662504,29 139,29 L137,29 C136.447715,29 136,28.5522847 136,28 C136,27.4477153 136.447715,27 137,27 L139,27 C139.556717,27 140,26.5555113 140,25.9998938 L140,11 L141,12 L127,12 L128,11 L128,28.0625 C128,28.6147847 127.552285,29.0625 127,29.0625 C126.447715,29.0625 126,28.6147847 126,28.0625 L126,11 C126,10.4477153 126.447715,10 127,10 L130.118087,10 C130.088511,9.97653076 130.059955,9.95114697 130.032585,9.9238484 L126.657585,6.55763747 C126.266552,6.16762266 126.265727,5.53445822 126.655741,5.14342511 C127.045756,4.75239199 127.678921,4.75156648 128.069954,5.14158128 L131.444954,8.50779222 C131.835987,8.89780702 131.836812,9.53097146 131.446798,9.92200458 C131.418871,9.95000372 131.389699,9.97600227 131.359457,10 L133,10 L133,10 Z M128,15 L140,15 L140,17 L128,17 L128,15 Z M128,20 L140,20 L140,22 L128,22 L128,20 Z M118.547566,6.91488166 L122.360066,9.78988166 C122.801025,10.122408 123.428058,10.0345061 123.760585,9.59354726 C124.093111,9.15258843 124.005209,8.52555482 123.56425,8.19302849 L119.75175,5.31802849 C119.310792,4.98550217 118.683758,5.07340407 118.351232,5.5143629 C118.018705,5.95532173 118.106607,6.58235533 118.547566,6.91488166 Z M117.585123,13.8331991 L122.457438,16.9581991 C122.92232,17.2563648 123.540893,17.1212143 123.839058,16.656332 C124.137224,16.1914496 124.002074,15.5728769 123.537191,15.2747111 L118.664877,12.1497111 C118.199995,11.8515453 117.581422,11.9866958 117.283256,12.4515782 C116.98509,12.9164606 117.120241,13.5350333 117.585123,13.8331991 Z M122.167235,19.6655645 C122.140863,19.7177714 122.090399,19.8170253 122.018924,19.9565785 C121.899422,20.1899039 121.765045,20.4500775 121.618883,20.7303362 C121.201523,21.5306063 120.7738,22.3306548 120.360776,23.0758277 C120.256642,23.2637052 120.154584,23.4459989 120.054862,23.6221491 C119.271883,25.0052144 118.631992,25.9905884 118.435119,26.1480863 C118.003857,26.4930958 117.933936,27.1223882 118.278946,27.5536501 C118.623955,27.9849121 119.253248,28.0548334 119.68451,27.7098239 C120.177051,27.3157904 120.840107,26.2947441 121.795315,24.6074528 C121.898085,24.4259186 122.003073,24.238392 122.110048,24.0453885 C122.532201,23.2837444 122.967595,22.4693462 123.392209,21.6551696 C123.540738,21.3703719 123.67736,21.1058503 123.799029,20.8682955 C123.872256,20.7253205 123.924397,20.6227685 123.952394,20.5673456 C124.201414,20.0743877 124.003663,19.4728958 123.510705,19.2238758 C123.017747,18.9748559 122.416255,19.1726066 122.167235,19.6655645 Z" id="Shape" filter="url(#filter-7)" sketch:type="MSShapeGroup"></path>
                <path d="M155.387211,6 L150.993398,6 C150.444946,6 150,6.45078007 150,7.00684547 L150,18.9931545 C150,19.5500512 150.444759,20 150.993398,20 L167.006602,20 C167.555054,20 168,19.5492199 168,18.9931545 L168,7.00684547 C168,6.44994876 167.555241,6 167.006602,6 L157.997234,6 L159.444564,4.55802574 C159.835812,4.16822606 159.836986,3.53506217 159.447186,3.14381461 C159.057386,2.75256705 158.424222,2.75139332 158.032975,3.14119301 L155.657975,5.50740394 C155.517221,5.64763703 155.426952,5.81936751 155.387211,6 L155.387211,6 L155.387211,6 Z M166,14 L166,12 L166,12 L152,12 L152,14 L166,14 L166,14 Z M166,16 L166,18 L152,18 L152,16 L166,16 L166,16 Z M166,10 L166,8 L152,8 L152,10 L166,10 L166,10 L166,10 Z M149.081777,21.7584921 C149.023971,21.9030086 148.915999,22.1625444 148.769225,22.4981256 C148.524544,23.0575581 148.263358,23.616517 147.997962,24.1347455 C147.743622,24.6313846 147.499244,25.0628814 147.273516,25.4074142 C147.004019,25.8187514 146.776026,26.0702223 146.729115,26.0910713 C146.224431,26.3153753 145.997138,26.9063371 146.221442,27.4110213 C146.445746,27.9157055 147.036708,28.1429984 147.541392,27.9186944 C148.047633,27.6936985 148.476669,27.2204828 148.946438,26.5034667 C149.216037,26.0919737 149.49385,25.6014416 149.778102,25.046393 C150.06403,24.4880712 150.341818,23.8935833 150.601624,23.2995691 C150.757542,22.9430821 150.873503,22.6643428 150.938731,22.5012735 C151.143844,21.98849 150.894428,21.4065195 150.381645,21.2014061 C149.868861,20.9962927 149.286891,21.2457086 149.081777,21.7584921 L149.081777,21.7584921 L149.081777,21.7584921 Z M158.417893,22.8369896 L160.292893,24.7119896 C160.683418,25.1025139 161.316582,25.1025139 161.707107,24.7119896 C162.097631,24.3214653 162.097631,23.6883003 161.707107,23.297776 L159.832107,21.422776 C159.441582,21.0322517 158.808418,21.0322517 158.417893,21.422776 C158.027369,21.8133003 158.027369,22.4464653 158.417893,22.8369896 L158.417893,22.8369896 L158.417893,22.8369896 Z M167.404694,22.797662 L170.279694,25.922662 C170.653622,26.3291055 171.286238,26.3554645 171.692682,25.9815365 C172.099125,25.6076085 172.125484,24.9749924 171.751556,24.5685489 L168.876556,21.4435489 C168.502628,21.0371055 167.870012,21.0107465 167.463568,21.3846745 C167.057125,21.7586025 167.030766,22.3912185 167.404694,22.797662 L167.404694,22.797662 L167.404694,22.797662 Z M152.075439,23.0024414 L152.075439,26.0024414 L152.092157,26.1845264 C152.157994,26.5400553 152.31171,27.0189461 152.604033,27.5122424 C153.139255,28.4154332 153.965416,29.0024414 155.075439,29.0024414 C155.721034,29.0024414 157.442816,29.0017254 159.909367,29.0004985 C160.284953,29.000311 160.284953,29.000311 160.658132,29.0001219 C162.344061,28.9992522 162.344061,28.9992522 163.693827,28.9985274 C164.758363,28.9979475 164.758363,28.9979475 165.018136,28.9978026 C165.43743,28.9765679 165.92884,28.8851675 166.442373,28.6541391 C167.563038,28.1499739 168.228014,27.1598761 168.004819,25.7760703 C167.916878,25.2308321 167.403584,24.86012 166.858346,24.9480616 C166.313107,25.0360033 165.942395,25.549297 166.030337,26.0945352 C166.095257,26.4970417 165.979589,26.6692637 165.621825,26.8302144 C165.374467,26.9414958 165.104987,26.9916181 164.963603,26.9992605 C164.757262,26.9979478 164.757262,26.9979478 163.692747,26.9985277 C162.343005,26.9992525 162.343005,26.9992525 160.657115,27.0001222 C160.283946,27.0003112 160.283946,27.0003112 159.908372,27.0004988 C157.44227,27.0017254 155.720546,27.0024414 155.075439,27.0024414 C154.759529,27.0024414 154.530133,26.8394497 154.324617,26.4926405 C154.172497,26.2359368 154.085475,25.9648275 154.058722,25.8203564 L154.075439,26.0024414 L154.075439,23.0024414 C154.075439,22.4501567 153.627724,22.0024414 153.075439,22.0024414 C152.523155,22.0024414 152.075439,22.4501567 152.075439,23.0024414 L152.075439,23.0024414 L152.075439,23.0024414 Z" id="Rectangle-136" filter="url(#filter-8)" sketch:type="MSShapeGroup"></path>
            </g>
        </g>
    </g>
</svg>