<?xml version="1.0" encoding="utf-8"?>
<!-- Generator: Adobe Illustrator 16.0.0, SVG Export Plug-In . SVG Version: 6.00 Build 0)  -->
<!DOCTYPE svg PUBLIC "-//W3C//DTD SVG 1.1//EN" "http://www.w3.org/Graphics/SVG/1.1/DTD/svg11.dtd">
<svg version="1.1" id="图层_1" xmlns:sketch="http://www.bohemiancoding.com/sketch/ns"
	 xmlns="http://www.w3.org/2000/svg" xmlns:xlink="http://www.w3.org/1999/xlink" x="0px" y="0px" width="26px" height="32px"
	 viewBox="0 0 26 32" enable-background="new 0 0 26 32" xml:space="preserve">
<title>icon-登录 密码 @2x  copy</title>
<desc>Created with Sketch.</desc>
<path fill="#999999" d="M21.002,13H21V7.5C21,3.358,17.646,0,13.492,0h-0.983C8.361,0,5,3.366,5,7.5V13H4.998
	C2.237,13,0,15.235,0,17.992v9.016C0,29.766,2.239,32,4.998,32h16.004C23.763,32,26,29.765,26,27.008v-9.016
	C26,15.235,23.761,13,21.002,13z M7,7.5C7,4.467,9.471,2,12.508,2h0.983C16.529,2,19,4.467,19,7.5V13H7V7.5z M24,27.008
	C24,28.658,22.655,30,21.002,30H4.998C3.345,30,2,28.658,2,27.008v-9.016C2,16.342,3.345,15,4.998,15H5h16h0.002
	C22.655,15,24,16.342,24,17.992V27.008z"/>
</svg>
