<?xml version="1.0" encoding="utf-8"?>
<!-- Generator: Adobe Illustrator 16.0.0, SVG Export Plug-In . SVG Version: 6.00 Build 0)  -->
<!DOCTYPE svg PUBLIC "-//W3C//DTD SVG 1.1//EN" "http://www.w3.org/Graphics/SVG/1.1/DTD/svg11.dtd">
<svg version="1.1" id="图层_1" xmlns:sketch="http://www.bohemiancoding.com/sketch/ns"
	 xmlns="http://www.w3.org/2000/svg" xmlns:xlink="http://www.w3.org/1999/xlink" x="0px" y="0px" width="32px" height="32px"
	 viewBox="0 0 32 32" enable-background="new 0 0 32 32" xml:space="preserve">
<title>icon-登录 用户名 @2x copy</title>
<desc>Created with Sketch.</desc>
<path fill="#999999" d="M21.898,15.798C23.799,14.148,25,11.714,25,9c0-4.971-4.029-9-9-9S7,4.029,7,9
	c0,2.714,1.202,5.148,3.102,6.798c-5.641,1.627-9.707,5.696-10.075,11.728l-0.003,0.479C0.011,30.211,1.789,32,4.004,32h23.992
	C30.207,32,32,30.206,32,28.005v-0.479C31.611,21.494,27.54,17.426,21.898,15.798z M30,28.005C30,29.105,29.101,30,27.996,30H4.004
	c-0.536,0-1.036-0.207-1.41-0.582c-0.371-0.374-0.574-0.871-0.57-1.4l0.002-0.422c0.313-4.785,3.456-8.383,8.629-9.876
	c0.705-0.203,1.241-0.775,1.399-1.491s-0.088-1.46-0.642-1.941C9.88,12.956,9,11.029,9,9c0-3.86,3.14-7,7-7c3.859,0,7,3.14,7,7
	c0,2.029-0.88,3.957-2.413,5.288c-0.553,0.481-0.8,1.226-0.642,1.941c0.158,0.716,0.694,1.288,1.398,1.491
	c5.172,1.492,8.323,5.089,8.656,9.873V28.005z"/>
</svg>
