<?xml version="1.0" encoding="utf-8"?>
<!-- Generator: Adobe Illustrator 16.0.0, SVG Export Plug-In . SVG Version: 6.00 Build 0)  -->
<!DOCTYPE svg PUBLIC "-//W3C//DTD SVG 1.1//EN" "http://www.w3.org/Graphics/SVG/1.1/DTD/svg11.dtd">
<svg version="1.1" id="图层_1" xmlns="http://www.w3.org/2000/svg" xmlns:xlink="http://www.w3.org/1999/xlink" x="0px" y="0px"
	 width="32px" height="32px" viewBox="0 0 32 32" enable-background="new 0 0 32 32" xml:space="preserve">
<title>财务信息</title>
<desc>Created with Sketch.</desc>
<g>
	<path fill="#9AA6BB" d="M5.349,5.059c0.804,0.927,1.607,1.926,2.319,2.872C10.126,6.334,12.97,5.333,16,5.333
		c3.08,0,5.968,0.931,8.454,2.435c0.681-0.897,1.438-1.836,2.196-2.71l0.402-0.464c0.277-0.32,0.503-0.917,0.503-1.343V3.152
		c0-1.267-0.952-1.919-2.121-1.458l-1.46,0.576c-0.785,0.31-1.996,0.184-2.701-0.248c0,0-2.76-1.98-5.268-2.022
		C16.003,0,16.001,0.017,16,0.048C15.998,0.017,15.997,0,15.995,0c-2.508,0.042-5.268,2.022-5.268,2.022
		C10.021,2.455,8.81,2.581,8.026,2.271l-1.46-0.576c-1.168-0.461-2.121,0.19-2.121,1.458v0.099c0,0.426,0.225,1.023,0.502,1.343
		L5.349,5.059z"/>
	<path fill="#9AA6BB" d="M0,23.059c0-0.156,0.022-0.318,0.03-0.477C0.022,22.43,0,22.287,0,22.131V23.059z"/>
	<path fill="#9AA6BB" d="M16,6.857c-8.64,0-15.659,8.842-15.97,15.725C0.342,29.194,7.362,32,16,32c8.838,0,16-2.927,16-9.869
		C32,15.186,24.836,6.857,16,6.857z M22.096,21.715c0.631,0,1.143,0.512,1.143,1.143S22.727,24,22.096,24h-4.953v2.666
		c0,0.631-0.512,1.143-1.143,1.143c-0.631,0-1.143-0.512-1.143-1.143V24H9.905c-0.631,0-1.143-0.512-1.143-1.143
		s0.512-1.143,1.143-1.143h4.952v-2.287H9.905c-0.631,0-1.143-0.512-1.143-1.143s0.512-1.143,1.143-1.143h4.857l-3.186-3.41
		c-0.431-0.461-0.406-1.185,0.055-1.615c0.46-0.431,1.185-0.407,1.615,0.055l2.782,2.977l2.685-2.878
		c0.432-0.463,1.154-0.487,1.615-0.057c0.462,0.431,0.487,1.154,0.057,1.615l-3.091,3.313h4.802c0.631,0,1.143,0.512,1.143,1.143
		s-0.512,1.143-1.143,1.143h-4.953v2.287H22.096z"/>
</g>
</svg>
