<?xml version="1.0" encoding="utf-8"?>
<!-- Generator: Adobe Illustrator 16.0.3, SVG Export Plug-In . SVG Version: 6.00 Build 0)  -->
<!DOCTYPE svg PUBLIC "-//W3C//DTD SVG 1.1//EN" "http://www.w3.org/Graphics/SVG/1.1/DTD/svg11.dtd">
<svg version="1.1" id="图层_1" xmlns:sketch="http://www.bohemiancoding.com/sketch/ns"
	 xmlns="http://www.w3.org/2000/svg" xmlns:xlink="http://www.w3.org/1999/xlink" x="0px" y="0px" width="18px" height="18px"
	 viewBox="0 0 18 18" enable-background="new 0 0 18 18" xml:space="preserve">
<title>合同</title>
<desc>Created with Sketch.</desc>
<g id="经营效果" sketch:type="MSPage">
	<g id="合同-" sketch:type="MSArtboardGroup">
		<path id="Rectangle-712" sketch:type="MSShapeGroup" fill="#999999" d="M8.849,8H6v1h3v1H6v1h3v2h1v-2h3v-1h-3V9h3V8h-2.85
			l2.234-2.68l-0.77-0.641L9.683,7H9.317L7.384,4.68L6.616,5.32L8.849,8L8.849,8z"/>
		<path fill="#999999" d="M15.992,1H3.007C2.451,1,2,1.445,2,2.001v13.998C2,16.552,2.457,17,3.005,17h11.032L17,14.035V2.001
			C17,1.448,16.551,1,15.992,1z M14,15.636V14.01C14,14,14,14,14.01,14h1.614L14,15.636z M14.01,13C13.452,13,13,13.443,13,14.01V16
			H3.005C3.005,16,3,2.001,3,2.001C3,2,15.992,2,15.992,2c0.006,0,0.015,8.614,0.017,11H14.01z"/>
	</g>
</g>
</svg>
