<?xml version="1.0" encoding="UTF-8" standalone="no"?>
<svg width="80px" height="80px" viewBox="0 0 80 80" version="1.1" xmlns="http://www.w3.org/2000/svg" xmlns:xlink="http://www.w3.org/1999/xlink">
    <!-- Generator: Sketch 39.1 (31720) - http://www.bohemiancoding.com/sketch -->
    <title>自助推广@2x</title>
    <desc>Created with Sketch.</desc>
    <defs></defs>
    <g id="icon-40/80/120" stroke="none" stroke-width="1" fill="none" fill-rule="evenodd">
        <g id="all" transform="translate(-573.000000, -593.000000)"></g>
        <g id="自助推广@2x">
            <g id="Rectangle-2928-Copy-+-Path-583">
                <rect id="Rectangle-2928-Copy" fill="#FC6A78" x="0" y="0" width="80" height="80" rx="40"></rect>
                <path d="M44,32.9999998 C41.2025242,30.2651415 41.8957188,22.4883207 41.8957188,22.4883207 C41.9533117,20.285632 40.4976027,19.4836132 38.7169587,20.7828182 C38.7169587,20.7828182 27.4451428,27.1652258 27.4967033,38.4113872 C27.5054434,40.3177485 27.9964036,41.9258127 27.9964036,41.9258127 C28.4651859,43.2301244 24.3472759,39.7772864 24.3472759,39.7772864 C23.0509112,38.7456412 22,39.2528066 22,40.9106935 L22,42.4278742 C23.3262219,57.2442462 34.0927475,60.0000026 41.4883123,60 C51.9820178,59.9999963 58.422491,52.2969835 57.9784214,45.9422992 C57.3185465,36.4994176 51.9820178,35.5031172 50.7958803,32.2403761 C49.6097427,28.9776351 50.3728603,27.5027439 50.3728603,27.5027439 C50.6064878,26.4306769 49.9673188,25.9105498 48.9978062,26.4348004 C48.9978062,26.4348004 45.0128904,27.4936794 45.0128904,32.8254598 C45.0128901,32.8254597 45.0843251,34.0600539 44,32.9999998 Z" id="Path-583" fill="#FFFFFF"></path>
            </g>
        </g>
    </g>
</svg>