<?xml version="1.0" encoding="UTF-8" standalone="no"?>
<svg width="80px" height="80px" viewBox="0 0 80 80" version="1.1" xmlns="http://www.w3.org/2000/svg" xmlns:xlink="http://www.w3.org/1999/xlink">
    <!-- Generator: Sketch 39.1 (31720) - http://www.bohemiancoding.com/sketch -->
    <title>商户合作 @2x</title>
    <desc>Created with Sketch.</desc>
    <defs></defs>
    <g id="icon-40/80/120" stroke="none" stroke-width="1" fill="none" fill-rule="evenodd">
        <g id="all" transform="translate(-205.000000, -117.000000)"></g>
        <g id="商户合作-@2x">
            <g id="Group">
                <circle id="Oval-378-Copy-14" fill="#FC6A78" cx="40" cy="40" r="40"></circle>
                <path d="M23.7426556,45.3340699 L23.5918103,30.575715 C23.5918103,23.9488026 28.9629361,18.5766287 35.5918103,18.5766287 C42.2192273,18.5766287 47.5918103,23.9452682 47.5918103,30.575715 L47.5918103,39.575505 L47.5918103,58.5797898" id="Rectangle-101-Copy-6" fill="#FFFFFF" transform="translate(35.591810, 38.578209) rotate(-45.000000) translate(-35.591810, -38.578209) "></path>
                <path d="M45.5682265,42.7160628 L45.5682265,54.0652396 C45.5682265,55.9059007 44.1391965,57.3980513 42.3843901,57.3980513 C40.6260058,57.3980513 39.2005537,55.9020028 39.2005537,54.0652396 L39.2005537,42.7160628" id="Rectangle-102-Copy-9" stroke="#FC6A78" stroke-width="2" stroke-linecap="round" stroke-linejoin="round" fill="#FFFFFF" transform="translate(42.384390, 50.057057) rotate(-45.000000) translate(-42.384390, -50.057057) "></path>
                <path d="M40.5941974,47.4139495 L40.5941974,58.7631264 C40.5941974,60.6037874 39.1651673,62.0959381 37.410361,62.0959381 C35.6519767,62.0959381 34.2265246,60.5998895 34.2265246,58.7631264 L34.2265246,46.0806162" id="Rectangle-102-Copy-12" stroke="#FC6A78" stroke-width="2" stroke-linecap="round" stroke-linejoin="round" fill="#FFFFFF" transform="translate(37.410361, 54.088277) rotate(-45.000000) translate(-37.410361, -54.088277) "></path>
                <path d="M50.0708511,38.8801048 L50.0708511,49.562615 C50.0708511,51.4032761 48.6418211,52.8954267 46.8870147,52.8954267 C45.1286305,52.8954267 43.7031783,51.3993782 43.7031783,49.562615 L43.7031783,38.2134382" id="Rectangle-102-Copy-10" stroke="#FC6A78" stroke-width="2" stroke-linecap="round" stroke-linejoin="round" fill="#FFFFFF" transform="translate(46.887015, 45.554432) rotate(-45.000000) translate(-46.887015, -45.554432) "></path>
                <path d="M54.5734758,33.7108135 L54.5734758,45.0599904 C54.5734758,46.9006515 53.1444457,48.3928021 51.3896394,48.3928021 C49.6312551,48.3928021 48.205803,46.8967535 48.205803,45.0599904 L48.205803,34.3774802" id="Rectangle-102-Copy-15" stroke="#FC6A78" stroke-width="2" stroke-linecap="round" stroke-linejoin="round" fill="#FFFFFF" transform="translate(51.389639, 41.051808) rotate(-45.000000) translate(-51.389639, -41.051808) "></path>
                <path d="M50.8546714,46.8645563 C57.2126185,46.8645563 62.3645563,41.7158309 62.3645563,35.3645563 C62.3645563,29.0118852 57.2114053,23.8645563 50.8546714,23.8645563 L36.3700821,23.8645563 C35.2624608,23.8645563 34.3645563,24.7604141 34.3645563,25.861948 L34.3645563,24.8621009 C34.3645563,29.281735 37.9512763,32.8645563 42.3570121,32.8645563 L47.3645563,32.8645563 L47.3645563,46.8645563 L50.8546714,46.8645563 Z" id="Rectangle-105-Copy-5" stroke="#FFFFFF" stroke-width="2" fill="#FC6A78" transform="translate(48.364556, 35.364556) rotate(-45.000000) translate(-48.364556, -35.364556) "></path>
            </g>
        </g>
    </g>
</svg>