<svg width="30" height="30" viewBox="0 0 30 30" xmlns="http://www.w3.org/2000/svg">
  <title>
    回复评价
  </title>
  <path d="M17 23H2C1.998 23 2 4 2 4h26.008C27.998 4 28 23 28 23c0-.004-5 0-5 0h-.724l-.556.464L17 27.397V30l6-5h4.994C29.102 25 30 24.098 30 23V4c0-1.104-.898-2-1.992-2H1.992C.892 2 0 2.902 0 4v19c0 1.104.89 2 2 2h15v-2zm-9-8c1.105 0 2-.895 2-2s-.895-2-2-2-2 .895-2 2 .895 2 2 2zm7 0c1.105 0 2-.895 2-2s-.895-2-2-2-2 .895-2 2 .895 2 2 2zm7 0c1.105 0 2-.895 2-2s-.895-2-2-2-2 .895-2 2 .895 2 2 2z" fill="#000" fill-rule="evenodd"/>
</svg>
