<svg width="18" height="18" viewBox="0 0 18 18" xmlns="http://www.w3.org/2000/svg">
    <title>
        酒店预订
    </title>
    <desc>
        Created with Sketch.
    </desc>
    <g fill="#999">
        <path d="M14 16H3V2.994C3 2.448 3.45 2 4.01 2h7.98c.557 0 1.01.452 1.01 1.006V8h1V3.006C14 1.898 13.098 1 11.99 1H4.01C2.9 1 2 1.895 2 2.994V17h12v-1zm0-3h-1v-3h1v2h2v1h-3 1zM1 16v1h1v-1H1zM6 6c.552 0 1-.448 1-1s-.448-1-1-1-1 .448-1 1 .448 1 1 1zm0 4c.552 0 1-.448 1-1s-.448-1-1-1-1 .448-1 1 .448 1 1 1zm4-4c.552 0 1-.448 1-1s-.448-1-1-1-1 .448-1 1 .448 1 1 1zm0 4c.552 0 1-.448 1-1s-.448-1-1-1-1 .448-1 1 .448 1 1 1zm-4 4c.552 0 1-.448 1-1s-.448-1-1-1-1 .448-1 1 .448 1 1 1z"/>
        <path d="M18 12.5c0-2.485-2.015-4.5-4.5-4.5S9 10.015 9 12.5s2.015 4.5 4.5 4.5 4.5-2.015 4.5-4.5zm-8 0c0-1.933 1.567-3.5 3.5-3.5s3.5 1.567 3.5 3.5-1.567 3.5-3.5 3.5-3.5-1.567-3.5-3.5z"/>
    </g>
</svg>
