<svg xmlns="http://www.w3.org/2000/svg" width="100" height="100" viewBox="0 0 100 100">
    <g>
        <path d="M50.224 5.677c-21.482 0-38.896 17.414-38.896 38.896 0 21.48 17.414 38.896 38.896 38.896S89.12 66.054 89.12 44.572 71.706 5.677 50.224 5.677zm0 71.83c-18.19 0-32.934-14.745-32.934-32.934S32.034 11.64 50.224 11.64c18.188 0 32.934 14.745 32.934 32.933S68.412 77.507 50.224 77.507z"/>
        <circle cx="33.236" cy="35.368" r="6.814"/>
        <circle cx="67.21" cy="35.368" r="6.813"/>
        <path d="M65.096 55.486c0-1.484-1.148-2.693-2.692-2.693-1.06 0-1.958.626-2.397 1.518l-.018-.008c-1.852 3.303-5.33 5.565-9.388 5.565v.002c-4.057 0-7.537-2.264-9.387-5.566l-.016.007c-.436-.89-1.332-1.517-2.392-1.517-1.48 0-2.684 1.2-2.684 2.685 0 .452.14.858.337 1.23l-.017.01c2.73 5.027 8.03 8.46 14.158 8.46 6.08 0 11.34-3.386 14.088-8.35.235-.4.408-.843.408-1.342zM17.437 54.244c0 4.547-3.642 8.233-8.136 8.233-4.49 0-8.133-3.687-8.133-8.233v-13.2c0-4.547 3.642-8.233 8.134-8.233 4.495 0 8.137 3.688 8.137 8.234v13.2zM98.833 54.244c0 4.547-3.542 8.233-7.91 8.233-4.367 0-7.91-3.687-7.91-8.233v-13.2c0-4.547 3.543-8.233 7.91-8.233 4.368 0 7.91 3.688 7.91 8.234v13.2zM35.407 88.032C19.66 82.072 8.005 67.794 5.783 50.552h-2.4c2.27 18.564 14.954 33.876 32.024 39.982v-2.502zM45.84 91.618c-.685 2.413-3.198 3.815-5.61 3.13l-4.553-1.29c-2.413-.684-3.815-3.197-3.132-5.61.683-2.413 3.196-3.815 5.61-3.13l4.553 1.29c2.415.684 3.816 3.197 3.133 5.61z"/>
    </g>
</svg>
