<?xml version="1.0" encoding="utf-8"?>
<!-- Generator: Adobe Illustrator 16.0.0, SVG Export Plug-In . SVG Version: 6.00 Build 0)  -->
<!DOCTYPE svg PUBLIC "-//W3C//DTD SVG 1.1//EN" "http://www.w3.org/Graphics/SVG/1.1/DTD/svg11.dtd">
<svg version="1.1" id="图层_1" xmlns="http://www.w3.org/2000/svg" xmlns:xlink="http://www.w3.org/1999/xlink" x="0px" y="0px"
	 width="32px" height="32px" viewBox="0 0 32 32" enable-background="new 0 0 32 32" xml:space="preserve">
<title>赞</title>
<desc>Created with Sketch.</desc>
<path fill="#B9B9B9" d="M26.383,12.938C25.892,12.342,25.138,12,24.314,12h-6.287c0.273-1.623,0.505-4.373-0.671-5.889
	C16.793,5.384,15.978,5,15,5c-2.445,0-2.966,2.221-3.347,3.842C11.18,10.859,10.824,12,9,12H7.007C5.9,12,5,12.896,5,13.999v11.003
	C5,26.104,5.9,27,7.006,27h14.759c1.585,0,3.064-1.216,3.368-2.77l1.772-9.078C27.064,14.342,26.874,13.535,26.383,12.938z
	 M24.943,14.769l-1.772,9.078C23.051,24.461,22.395,25,21.766,25L9,25.002V14c3.498,0,4.161-2.829,4.601-4.701
	C14.049,7.387,14.285,7,15,7c0.454,0,0.646,0.17,0.775,0.336c0.747,0.962,0.482,3.746,0.056,5.416
	c-0.076,0.299-0.01,0.618,0.179,0.861C16.2,13.857,16.491,14,16.8,14h7.515c0.227,0,0.413,0.074,0.524,0.209
	C24.95,14.345,24.987,14.543,24.943,14.769z"/>
</svg>
