<?xml version="1.0" encoding="utf-8"?>
<!-- Generator: Adobe Illustrator 16.0.0, SVG Export Plug-In . SVG Version: 6.00 Build 0)  -->
<!DOCTYPE svg PUBLIC "-//W3C//DTD SVG 1.1//EN" "http://www.w3.org/Graphics/SVG/1.1/DTD/svg11.dtd">
<svg version="1.1" id="图层_1" xmlns="http://www.w3.org/2000/svg" xmlns:xlink="http://www.w3.org/1999/xlink" x="0px" y="0px"
	 width="100px" height="100px" viewBox="0 0 100 100" enable-background="new 0 0 100 100" xml:space="preserve">
<g>
	<g>
		<path fill="#040000" d="M89.314,35.815H68.178c1.539-3.547,3.303-12.714,2.271-21.052C69.631,8.11,65.719,3.008,59.986,1.082
			c-4.25-1.43-8.729-0.734-11.142,1.712c-2.879,2.916-4.229,8.413-5.658,14.226c-0.936,3.806-1.903,7.745-3.107,9.771
			c-3.472,5.862-9.081,7.852-11.092,8.862l-11.142,7.163c-2.574,1.264-3.61,3.941-3.858,5.837v41.002
			c0,1.961,1.914,3.28,3.858,3.906c0,0,19.909,6.094,36.648,6.094h24.102c3.967,0,10.805-1.525,13.361-5.732
			c2.582-4.262,8.029-43.076,8.029-47.378C99.986,40.618,94.146,35.815,89.314,35.815z M85.834,90.266
			c-0.535,0.887-4.07,2.295-7.238,2.295H54.494c-20.147,0-32.507-6.906-32.507-6.906s0-34.541,0-36.002c0-1.459,6-5,6-5
			c0.623-0.459,4.262-2.473,5-3c2.01-1.087,8.481-3.212,13.246-11.267c1.732-2.926,2.783-7.182,3.89-11.682
			c1.031-4.195,2.314-9.412,3.807-10.927c0.342-0.291,2.01-0.66,4.107,0.159c1.711,0.671,4.682,2.564,5.318,7.721
			c1.406,11.36-3.504,22.177-3.555,22.286c-0.51,1.1-0.418,2.345,0.24,3.362c0.656,1.015,1.785,1.6,3.004,1.6h26.266
			c0.969,0,3.529,1.667,3.529,3.632C92.842,51.27,87.328,86.908,85.834,90.266z M4.487,44.652h-1c-1.933,0-3.5,1.567-3.5,3.5v42.002
			c0,1.934,1.567,3.5,3.5,3.5h1c1.933,0,3.5-1.566,3.5-3.5V48.152C7.987,46.22,6.42,44.652,4.487,44.652z"/>
	</g>
</g>
</svg>
