<svg xmlns="http://www.w3.org/2000/svg" width="100" height="100" viewBox="0 0 100 100">
    <path d="M93.03 20.185H7.072c-3.283 0-5.947 2.662-5.947 5.944v52.995c0 3.282 2.664 5.944 5.947 5.944H93.03c3.282 0 5.944-2.663 5.944-5.945V26.13c0-3.284-2.662-5.945-5.944-5.945zm.102 8.53v47.822c0 .342-.07.642-.157.926l-27.08-27.077 24.347-24.344h.215c1.642 0 2.675 1.033 2.675 2.674zm-43.08 29.23L18.146 26.043h63.81L50.052 57.946zm-2.105 6.18c.58.58 1.344.86 2.104.852.763.01 1.526-.27 2.106-.85l9.602-9.602L86.44 79.213H13.66l24.69-24.688 9.597 9.6zM6.985 28.715c0-1.64 1.033-2.673 2.676-2.673h.205l24.34 24.345L7.14 77.45c-.085-.28-.155-.576-.155-.913v-47.82z"/>
</svg>
