<?xml version="1.0" encoding="utf-8"?>
<!-- Generator: Adobe Illustrator 16.0.0, SVG Export Plug-In . SVG Version: 6.00 Build 0)  -->
<!DOCTYPE svg PUBLIC "-//W3C//DTD SVG 1.1//EN" "http://www.w3.org/Graphics/SVG/1.1/DTD/svg11.dtd">
<svg version="1.1" id="图层_1" xmlns="http://www.w3.org/2000/svg" xmlns:xlink="http://www.w3.org/1999/xlink" x="0px" y="0px"
	 width="70px" height="20px" viewBox="0 0 70 20" enable-background="new 0 0 70 20" xml:space="preserve">
<title>Fill 1</title>
<desc>Created with Sketch.</desc>
<g id="修改确认版">
	<g id="修改1024最小宽度_xFF08_默认态_xFF09_" transform="translate(-30.000000, -24.000000)">
		<path id="Fill-1" d="M87.263,38.041h-8.587v-3.062h8.587v-1.806h-8.587v-3.062h21.276v3.062h-8.563v1.806h8.588v3.062h-8.588
			v3.194h4.508c0.191,0,0.287-0.089,0.287-0.265v-1.409h3.769v2.224c0.063,1.527-0.763,2.262-2.48,2.203H78.671v-2.753h8.592V38.041
			z M96.017,29.208v-1.233h-13.19v1.233h-4.15v-4.415h8.587v-0.782L91.392,24v0.782L100,24.793v4.415H96.017z M62.348,37.582v4.109
			h9.756c0.383,0,0.541-0.177,0.478-0.529v-3.58H62.348z M63.656,27.979h3.315v1.67h8.742v2.598h-8.742v2.747h8.742v6.352
			c0.127,1.82-0.988,2.701-3.34,2.643H59.049v-8.994h4.606V27.979z M58.217,40.883c0,1.82-1.029,3.105-2.81,3.105h-1.483
			l0.005-2.753h0.512c0.382,0,0.54-0.234,0.477-0.705V24.775h8.737v-0.761h3.303v0.761h8.761v2.604H58.217V40.883z M35.293,32.559
			h11.364v-5.333H35.293V32.559z M51.63,32.559v3.053h-1.492v8.373H46.66v-8.373H35.292v6.524c0.127,1.351-0.51,1.968-1.908,1.851
			h-3.379V41.25h1.485c0.381,0,0.54-0.177,0.477-0.529v-5.109H30v-3.068h1.969v-5.317H30v-3.053h21.63v3.053h-1.486v5.333H51.63z"/>
	</g>
</g>
</svg>
