<?xml version="1.0" encoding="UTF-8" standalone="no"?>
<svg width="18px" height="18px" viewBox="0 0 18 18" version="1.1" xmlns="http://www.w3.org/2000/svg" xmlns:xlink="http://www.w3.org/1999/xlink">
    <!-- Generator: Sketch 39.1 (31720) - http://www.bohemiancoding.com/sketch -->
    <title>到餐菜单列</title>
    <desc>Created with Sketch.</desc>
    <defs></defs>
    <g id="mtfe-data-menu" stroke="none" stroke-width="1" fill="none" fill-rule="evenodd">
        <g id="01---data-menu--1280*800---copy-2" transform="translate(-232.000000, -22.000000)" fill="#C7C7C7">
            <g id="到餐菜单列" transform="translate(232.000000, 22.000000)">
                <path d="M17.984375,9.49036801 C17.984375,9.75505056 17.72335,9.97159582 17.4043,9.97159582 L0.580175,9.97159582 C0.261025,9.97159582 0,9.75505056 0,9.49036801 L0,8.33525952 C0,8.07057697 0.261025,7.85394876 0.580175,7.85394876 L17.4043,7.85394876 C17.72335,7.85394876 17.984375,8.07057697 17.984375,8.33525952 L17.984375,9.49036801 L17.984375,9.49036801 Z" id="Fill-2"></path>
                <path d="M17.984375,16.9021327 C17.984375,17.1668153 17.72335,17.3833605 17.4043,17.3833605 L0.580175,17.3833605 C0.261025,17.3833605 0,17.1668153 0,16.9021327 L0,15.7470242 C0,15.4823417 0.261025,15.2657135 0.580175,15.2657135 L17.4043,15.2657135 C17.72335,15.2657135 17.984375,15.4823417 17.984375,15.7470242 L17.984375,16.9021327 L17.984375,16.9021327 Z" id="Fill-2"></path>
                <path d="M17.984375,2.07860331 C17.984375,2.34328586 17.72335,2.55983111 17.4043,2.55983111 L0.580175,2.55983111 C0.261025,2.55983111 0,2.34328586 0,2.07860331 L0,0.923494813 C0,0.658812263 0.261025,0.442184051 0.580175,0.442184051 L17.4043,0.442184051 C17.72335,0.442184051 17.984375,0.658812263 17.984375,0.923494813 L17.984375,2.07860331 L17.984375,2.07860331 Z" id="Fill-2"></path>
            </g>
        </g>
    </g>
</svg>