<?xml version="1.0" encoding="utf-8"?>
<!-- Generated by IcoMoon.io -->
<!DOCTYPE svg PUBLIC "-//W3C//DTD SVG 1.1//EN" "http://www.w3.org/Graphics/SVG/1.1/DTD/svg11.dtd">
<svg version="1.1" xmlns="http://www.w3.org/2000/svg" xmlns:xlink="http://www.w3.org/1999/xlink" width="32" height="32" viewBox="0 0 32 32">
<path fill="#444444" d="M5.333 5.333h21.333l-1.333-1.333v24l1.333-1.333h-21.333l1.333 1.333v-24l-1.333 1.333zM5.333 2.667h-1.333v26.667h24v-26.667h-22.667z"></path>
<path fill="#444444" d="M14.667 12.427v-9.76l1.333 1.333h-6.667l1.333-1.333v9.76l-0.75 0.51-0.584-0.309v-0.907l3.333-2.266 3.333 2.266v0.907l-0.584 0.309-0.75-0.51zM9.333 2.667h6.667v10.667l-3.333-2.266-3.333 2.266v-10.667z"></path>
<path fill="#444444" d="M10.018 17.333h12.68v-1.333h-13.347v1.333h0.667zM10.018 22.667h12.68v-1.333h-13.347v1.333h0.667z"></path>
</svg>
