<?xml version="1.0" encoding="utf-8"?>
<!-- Generated by IcoMoon.io -->
<!DOCTYPE svg PUBLIC "-//W3C//DTD SVG 1.1//EN" "http://www.w3.org/Graphics/SVG/1.1/DTD/svg11.dtd">
<svg version="1.1" xmlns="http://www.w3.org/2000/svg" xmlns:xlink="http://www.w3.org/1999/xlink" width="32" height="32" viewBox="0 0 32 32">
<path fill="#444444" d="M1.333 6.667v19.992h29.363v-21.326h-29.363v1.333zM4 6.667l-1.333 1.333h26.697l-1.333-1.333v18.659l1.333-1.333h-26.697l1.333 1.333v-18.659z"></path>
<path fill="#444444" d="M17.333 20.036v-8.036h-1.333v8.036h1.333z"></path>
<path fill="#444444" d="M20.679 20.027v-7.362l-0.667 0.667c0.1 0 0.1 0 0.483 0 0.328 0 0.328 0 0.699 0 0.659 0 0.659 0 1.075 0 0.822 0 1.317 0.509 1.303 1.316-0.014 0.861-0.441 1.347-1.164 1.347l-0.507 0.005 0.015 1.333 0.5-0.005c1.49 0 2.464-1.109 2.49-2.658s-1.066-2.672-2.636-2.672c-0.416 0-0.416 0-1.076 0-0.371 0-0.371 0-0.699 0-0.383 0-0.383 0-0.483 0-0.368 0-0.667 0.298-0.667 0.667v7.362h1.333z"></path>
<path fill="#444444" d="M10.718 19.593c0.203 0.609 1.064 0.608 1.265-0.001l2.725-7.617h-1.341l-2.649 7.198 1.265-0.001-2.629-7.197h-1.386l2.75 7.618z"></path>
</svg>
