<?xml version="1.0" encoding="UTF-8" standalone="no"?>
<svg width="32px" height="32px" viewBox="0 0 32 32" version="1.1" xmlns="http://www.w3.org/2000/svg" xmlns:xlink="http://www.w3.org/1999/xlink">
    <!-- Generator: Sketch 47.1 (45422) - http://www.bohemiancoding.com/sketch -->
    <title>消息通知</title>
    <desc>Created with Sketch.</desc>
    <defs></defs>
    <g id="确定稿" stroke="none" stroke-width="1" fill="none" fill-rule="evenodd">
        <g id="Artboard" transform="translate(-101.000000, -32.000000)" fill-rule="nonzero" fill="#000000">
            <g id="Group-19-Copy" transform="translate(101.000000, 32.000000)">
                <path d="M6.47689191,6.99262608 L12.6943659,1.91668194 C14.1611712,0.719182443 16.321017,0.937497959 17.5185165,2.40430329 C18.0182485,3.01642012 18.2912019,3.78236601 18.2912019,4.57256794 L18.2912019,27.4275039 C18.2912019,29.3210516 16.7561782,30.8560753 14.8626305,30.8560753 C14.0724286,30.8560753 13.3064827,30.5831219 12.6943659,30.0833899 L6.47689191,25.0074457 C6.09678203,24.6971241 5.7387138,24.3654774 5.40388051,24.0142078 L3.02521008,24.0142078 C1.35443269,24.0142078 1.31187578e-15,22.6597751 9.04038749e-16,20.9889977 L-1.11022302e-16,11.0109549 C-3.14940817e-16,9.34017754 1.35443269,7.98574485 3.02521008,7.98574485 L5.40553476,7.98574485 C5.74134488,7.63272528 6.09915242,7.3010125 6.47689191,6.99262608 Z M5.91088803,10.2714591 L3.02521008,10.2714591 C2.61679783,10.2714591 2.28571429,10.6025427 2.28571429,11.0109549 L2.28571429,20.9889977 C2.28571429,21.3974099 2.61679783,21.7284935 3.02521008,21.7284935 L5.90852075,21.7284935 L6.77097588,22.1214882 C7.11961693,22.5224782 7.50411646,22.8953671 7.92240168,23.2368551 L14.1398756,28.3127992 C14.3439146,28.4793765 14.5992299,28.570361 14.8626305,28.570361 C15.4938131,28.570361 16.0054877,28.0586864 16.0054877,27.4275039 L16.0054877,4.57256794 C16.0054877,4.3091673 15.9145032,4.053852 15.7479258,3.84981306 C15.3487593,3.36087795 14.6288107,3.28810611 14.1398756,3.68727261 L7.92240168,8.76321674 C7.50844134,9.10117386 7.12427537,9.47399939 6.77411523,9.87757545 L5.91088803,10.2714591 Z M22.3596499,25.6134454 C21.7284673,25.6134454 21.2167928,25.1017708 21.2167928,24.4705882 C21.2167928,23.8394057 21.7284673,23.3277311 22.3596499,23.3277311 C26.406644,23.3277311 29.687381,20.0469941 29.687381,16 C29.687381,11.9530059 26.406644,8.67226891 22.3596499,8.67226891 C21.7284673,8.67226891 21.2167928,8.16059434 21.2167928,7.52941176 C21.2167928,6.89822919 21.7284673,6.38655462 22.3596499,6.38655462 C27.6690092,6.38655462 31.9730953,10.6906407 31.9730953,16 C31.9730953,21.3093593 27.6690092,25.6134454 22.3596499,25.6134454 Z M22.3596499,19.9663866 C21.7284673,19.9663866 21.2167928,19.454712 21.2167928,18.8235294 C21.2167928,18.1923468 21.7284673,17.6806723 22.3596499,17.6806723 C23.2878596,17.6806723 24.0403222,16.9282097 24.0403222,16 C24.0403222,15.0717903 23.2878596,14.3193277 22.3596499,14.3193277 C21.7284673,14.3193277 21.2167928,13.8076532 21.2167928,13.1764706 C21.2167928,12.545288 21.7284673,12.0336134 22.3596499,12.0336134 C24.5502247,12.0336134 26.3260365,13.8094252 26.3260365,16 C26.3260365,18.1905748 24.5502247,19.9663866 22.3596499,19.9663866 Z" id="Combined-Shape"></path>
            </g>
        </g>
    </g>
</svg>