<?xml version="1.0" encoding="UTF-8" standalone="no"?>
<svg width="80px" height="80px" viewBox="0 0 80 80" version="1.1" xmlns="http://www.w3.org/2000/svg" xmlns:xlink="http://www.w3.org/1999/xlink">
    <!-- Generator: Sketch 39.1 (31720) - http://www.bohemiancoding.com/sketch -->
    <title>公告 @2x</title>
    <desc>Created with Sketch.</desc>
    <defs>
        <path d="M23,42.0049774 L53.1987355,52.0712225 C55.2981159,52.7710159 57,51.5471607 57,49.3327361 L57,24.6772185 C57,22.4650007 55.3023021,21.2375432 53.1987355,21.9387321 L23,32.0049774 L21,32.0049774 C19.8954305,32.0049774 19,32.8924107 19,34.0045924 L19,40.0053624 C19,41.1097193 19.8877296,42.0049774 21,42.0049774 L23,42.0049774 Z" id="path-1"></path>
        <mask id="mask-2" maskContentUnits="userSpaceOnUse" maskUnits="objectBoundingBox" x="-2" y="-2" width="42" height="34.5300849">
            <rect x="17" y="19.7399998" width="42" height="34.5300849" fill="white"></rect>
            <use xlink:href="#path-1" fill="black"></use>
        </mask>
    </defs>
    <g id="icon-40/80/120" stroke="none" stroke-width="1" fill="none" fill-rule="evenodd">
        <g id="all" transform="translate(-573.000000, -745.000000)"></g>
        <g id="公告-@2x">
            <g id="Rectangle-2928-+-Rectangle-+-Rectangle-310">
                <rect id="Rectangle-2928" fill="#76C1ED" x="0" y="0" width="80" height="80" rx="40"></rect>
                <rect id="Rectangle" fill="#FFFFFF" x="34.239572" y="37.9867995" width="7.74193548" height="22.28125" rx="3.87096774"></rect>
                <g id="Rectangle-310">
                    <use fill="#FFFFFF" fill-rule="evenodd" xlink:href="#path-1"></use>
                    <use stroke="#76C1ED" mask="url(#mask-2)" stroke-width="4" xlink:href="#path-1"></use>
                </g>
            </g>
        </g>
    </g>
</svg>