<?xml version="1.0" encoding="UTF-8" standalone="no"?>
<svg width="120px" height="20px" viewBox="0 0 120 20" version="1.1" xmlns="http://www.w3.org/2000/svg" xmlns:xlink="http://www.w3.org/1999/xlink">
    <!-- Generator: Sketch 48.2 (47327) - http://www.bohemiancoding.com/sketch -->
    <title>星星</title>
    <desc>Created with Sketch.</desc>
    <defs></defs>
    <g id="Artboard" stroke="none" stroke-width="1" fill="none" fill-rule="evenodd" transform="translate(-405.000000, -453.000000)">
        <path d="M409.079405,465.096545 L405.234547,461.247203 C404.837303,460.849338 404.956877,460.451473 405.50071,460.363 L410.757935,459.511256 C411.302269,459.422783 411.942662,458.926499 412.181308,458.407704 L414.491725,453.39199 C414.730872,452.872671 415.129116,452.869007 415.377769,453.38309 L417.777741,458.351689 C418.025893,458.865772 418.675292,459.349492 419.220626,459.427495 L424.49186,460.178203 C425.037194,460.255682 425.163772,460.651452 424.773032,461.05717 L420.998217,464.978756 C420.607477,465.384473 420.36783,466.180203 420.46589,466.746637 L421.413471,472.226701 C421.511532,472.793659 421.190835,473.041801 420.701535,472.778477 L415.970132,470.232666 C415.480832,469.969342 414.683843,469.976671 414.199046,470.249941 L409.512671,472.88789 C409.027874,473.160637 408.703675,472.918253 408.791729,472.350249 L409.642251,466.853956 C409.730305,466.285428 409.476649,465.494933 409.079405,465.096545 Z M433.079405,465.096545 L429.234547,461.247203 C428.837303,460.849338 428.956877,460.451473 429.50071,460.363 L434.757935,459.511256 C435.302269,459.422783 435.942662,458.926499 436.181308,458.407704 L438.491725,453.39199 C438.730872,452.872671 439.129116,452.869007 439.377769,453.38309 L441.777741,458.351689 C442.025893,458.865772 442.675292,459.349492 443.220626,459.427495 L448.49186,460.178203 C449.037194,460.255682 449.163772,460.651452 448.773032,461.05717 L444.998217,464.978756 C444.607477,465.384473 444.36783,466.180203 444.46589,466.746637 L445.413471,472.226701 C445.511532,472.793659 445.190835,473.041801 444.701535,472.778477 L439.970132,470.232666 C439.480832,469.969342 438.683843,469.976671 438.199046,470.249941 L433.512671,472.88789 C433.027874,473.160637 432.703675,472.918253 432.791729,472.350249 L433.642251,466.853956 C433.730305,466.285428 433.476649,465.494933 433.079405,465.096545 Z M457.079405,465.096545 L453.234547,461.247203 C452.837303,460.849338 452.956877,460.451473 453.50071,460.363 L458.757935,459.511256 C459.302269,459.422783 459.942662,458.926499 460.181308,458.407704 L462.491725,453.39199 C462.730872,452.872671 463.129116,452.869007 463.377769,453.38309 L465.777741,458.351689 C466.025893,458.865772 466.675292,459.349492 467.220626,459.427495 L472.49186,460.178203 C473.037194,460.255682 473.163772,460.651452 472.773032,461.05717 L468.998217,464.978756 C468.607477,465.384473 468.36783,466.180203 468.46589,466.746637 L469.413471,472.226701 C469.511532,472.793659 469.190835,473.041801 468.701535,472.778477 L463.970132,470.232666 C463.480832,469.969342 462.683843,469.976671 462.199046,470.249941 L457.512671,472.88789 C457.027874,473.160637 456.703675,472.918253 456.791729,472.350249 L457.642251,466.853956 C457.730305,466.285428 457.476649,465.494933 457.079405,465.096545 Z M505.895287,465.096545 L501.281456,461.247203 C500.804764,460.849338 500.948252,460.451473 501.600852,460.363 L507.909522,459.511256 C508.562723,459.422783 509.331194,458.926499 509.61757,458.407704 L512.390071,453.39199 C512.677047,452.872671 513.15494,452.869007 513.453323,453.38309 L516.333289,458.351689 C516.631072,458.865772 517.41035,459.349492 518.064752,459.427495 L524.390232,460.178203 C525.044633,460.255682 525.196526,460.651452 524.727639,461.05717 L520.19786,464.978756 C519.728972,465.384473 519.441396,466.180203 519.559068,466.746637 L520.696166,472.226701 C520.813838,472.793659 520.429002,473.041801 519.841842,472.778477 L514.164159,470.232666 C513.576999,469.969342 512.620612,469.976671 512.038855,470.249941 L506.415205,472.88789 C505.833449,473.160637 505.44441,472.918253 505.550075,472.350249 L506.570701,466.853956 C506.676366,466.285428 506.371979,465.494933 505.895287,465.096545 Z M481.079405,465.096545 L477.234547,461.247203 C476.837303,460.849338 476.956877,460.451473 477.50071,460.363 L482.757935,459.511256 C483.302269,459.422783 483.942662,458.926499 484.181308,458.407704 L486.491725,453.39199 C486.730872,452.872671 487.129116,452.869007 487.377769,453.38309 L489.777741,458.351689 C490.025893,458.865772 490.675292,459.349492 491.220626,459.427495 L496.49186,460.178203 C497.037194,460.255682 497.163772,460.651452 496.773032,461.05717 L492.998217,464.978756 C492.607477,465.384473 492.36783,466.180203 492.46589,466.746637 L493.413471,472.226701 C493.511532,472.793659 493.190835,473.041801 492.701535,472.778477 L487.970132,470.232666 C487.480832,469.969342 486.683843,469.976671 486.199046,470.249941 L481.512671,472.88789 C481.027874,473.160637 480.703675,472.918253 480.791729,472.350249 L481.642251,466.853956 C481.730305,466.285428 481.476649,465.494933 481.079405,465.096545 Z" id="星星" fill="#000000"></path>
    </g>
</svg>