<?xml version="1.0" encoding="utf-8"?>
<!-- Generator: Adobe Illustrator 16.0.0, SVG Export Plug-In . SVG Version: 6.00 Build 0)  -->
<!DOCTYPE svg PUBLIC "-//W3C//DTD SVG 1.1//EN" "http://www.w3.org/Graphics/SVG/1.1/DTD/svg11.dtd">
<svg version="1.1" id="图层_1" xmlns="http://www.w3.org/2000/svg" xmlns:xlink="http://www.w3.org/1999/xlink" x="0px" y="0px"
	 width="32px" height="32px" viewBox="0 0 32 32" enable-background="new 0 0 32 32" xml:space="preserve">
<title>经营数据</title>
<desc>Created with Sketch.</desc>
<g>
	<path d="M29.991,7.532l-10.697,5.827c-0.552,0.301-1.495,0.389-2.095,0.191l-4.684-1.544c-0.593-0.195-1.532-0.106-2.081,0.205
		l-9.44,5.343C0.448,17.861,0,18.622,0,19.248v3.6c0,3.787,3.073,6.863,6.865,6.863h18.27c3.797,0,6.865-3.069,6.865-6.856V8.733
		C32,7.468,31.101,6.928,29.991,7.532z"/>
	<path d="M1.144,13.917c0.192,0,0.388-0.049,0.567-0.151l9.293-5.318c0.248-0.141,0.842-0.197,1.116-0.108l4.714,1.571
		c0.884,0.295,2.16,0.179,2.971-0.269l11.539-6.355c0.553-0.304,0.754-1,0.449-1.552c-0.305-0.553-1-0.754-1.553-0.45L18.702,7.64
		c-0.256,0.14-0.865,0.194-1.145,0.103l-4.714-1.571c-0.889-0.296-2.166-0.17-2.975,0.292l-9.294,5.318
		c-0.548,0.313-0.738,1.012-0.424,1.56C0.362,13.71,0.748,13.917,1.144,13.917z"/>
</g>
</svg>
