<?xml version="1.0" encoding="UTF-8" standalone="no"?>
<svg width="32px" height="32px" viewBox="0 0 32 32" version="1.1" xmlns="http://www.w3.org/2000/svg" xmlns:xlink="http://www.w3.org/1999/xlink">
    <!-- Generator: Sketch 39.1 (31720) - http://www.bohemiancoding.com/sketch -->
    <title>入驻流程 身份 @2x</title>
    <desc>Created with Sketch.</desc>
    <defs>
        <path d="M10.1020111,15.798251 C4.46120912,17.4264529 0.395299528,21.4940079 0.0272221904,27.5263158 L0.0243089392,28.0050784 C0.0108834828,30.2114127 1.78902751,32 4.0042577,32 L27.9957423,32 C30.2072328,32 32,30.2061587 32,28.0050784 L32,27.5263158 C31.6113483,21.4939016 27.5402741,17.4263095 21.8980881,15.7981649 C23.7983888,14.1480425 25,11.7143469 25,9 C25,4.02943725 20.9705627,0 16,0 C11.0294373,0 7,4.02943725 7,9 C7,11.7143942 8.20165306,14.1481272 10.1020111,15.798251 Z" id="path-1"></path>
        <mask id="mask-2" maskContentUnits="userSpaceOnUse" maskUnits="objectBoundingBox" x="0" y="0" width="31.9757666" height="32" fill="white">
            <use xlink:href="#path-1"></use>
        </mask>
    </defs>
    <g id="icon-16/32/48" stroke="none" stroke-width="1" fill="none" fill-rule="evenodd">
        <g id="all" transform="translate(-269.000000, -295.000000)"></g>
        <g id="入驻流程-身份-@2x" stroke="#3DC6B6" stroke-width="4">
            <use id="Oval-514" mask="url(#mask-2)" xlink:href="#path-1"></use>
        </g>
    </g>
</svg>