<?xml version="1.0" encoding="UTF-8" standalone="no"?>
<svg width="32px" height="32px" viewBox="0 0 32 32" version="1.1" xmlns="http://www.w3.org/2000/svg" xmlns:xlink="http://www.w3.org/1999/xlink">
    <!-- Generator: Sketch 47.1 (45422) - http://www.bohemiancoding.com/sketch -->
    <title>门店管理</title>
    <desc>Created with Sketch.</desc>
    <defs></defs>
    <g id="Page-1" stroke="none" stroke-width="1" fill="none" fill-rule="evenodd">
        <g id="门店管理" fill="#000000">
            <path d="M6.85714286,2.28571429 L9.14285714,2.28571429 L9.14285714,29.7142857 L6.85714286,29.7142857 L6.85714286,29.7142857 C4.33241257,29.7142857 2.28571429,27.6675874 2.28571429,25.1428571 L2.28571429,6.85714286 L2.28571429,6.85714286 C2.28571429,4.33241257 4.33241257,2.28571429 6.85714286,2.28571429 L6.85714286,2.28571429 Z M11.4285714,2.28571429 L25.1428571,2.28571429 C27.6675874,2.28571429 29.7142857,4.33241257 29.7142857,6.85714286 L29.7142857,9.14285714 L11.4285714,9.14285714 L11.4285714,2.28571429 Z M11.4285714,11.4285714 L29.7142857,11.4285714 L29.7142857,25.1428571 C29.7142857,27.6675874 27.6675874,29.7142857 25.1428571,29.7142857 L11.4285714,29.7142857 L11.4285714,11.4285714 Z" id="Combined-Shape"></path>
        </g>
    </g>
</svg>