<svg xmlns="http://www.w3.org/2000/svg" width="100" height="100" viewBox="0 0 100 100">
    <path fill-rule="evenodd" clip-rule="evenodd" fill="#040000" d="M59.115 93.742c-.292.353-.42.486-.946 1.02-1.164 1.268-4.57 5.22-8.146 5.228L50 100l-.025-.01c-3.566-.01-6.64-3.654-8.132-5.205-.5-.5-.665-.682-.962-1.043C30.15 80.616 10.5 56.227 10.5 39.847 10.5 16.97 30.876 0 50 0c19.834 0 39.5 16.97 39.5 39.847 0 16.916-19.643 40.916-30.385 53.895zM50 24.998c-8.393 0-15.196 6.993-15.196 15.62 0 8.63 6.803 15.627 15.196 15.627 8.394 0 15.195-6.997 15.195-15.627 0-8.627-6.8-15.62-15.195-15.62z"/>
</svg>
