<?xml version="1.0" encoding="utf-8"?>
<!-- Generator: Adobe Illustrator 16.0.0, SVG Export Plug-In . SVG Version: 6.00 Build 0)  -->
<!DOCTYPE svg PUBLIC "-//W3C//DTD SVG 1.1//EN" "http://www.w3.org/Graphics/SVG/1.1/DTD/svg11.dtd">
<svg version="1.1" id="图层_1" xmlns="http://www.w3.org/2000/svg" xmlns:xlink="http://www.w3.org/1999/xlink" x="0px" y="0px"
	 width="32px" height="32px" viewBox="0 0 32 32" enable-background="new 0 0 32 32" xml:space="preserve">
<title>口碑评价</title>
<desc>Created with Sketch.</desc>
<path id="Shape-Copy-11" d="M13.189,5.414c0.05-0.114,1.658-3.855,1.803-4.09C15.504,0.496,16.139,0,16.987,0
	c0.141,0.005,0.34,0.033,0.581,0.101c0.389,0.109,0.776,0.292,1.143,0.573c1.182,0.903,1.794,2.51,1.605,4.825
	c-0.146,1.8-0.588,3.594-1.229,5.324c-0.277,0.749-0.73,0.969-0.73,0.969s10.597-0.001,10.63,0c2.014,0.046,3.376,2.099,2.927,4.361
	l-2.455,12.649c-0.418,2.102-2.203,3.174-4.088,3.174L11.056,32c-1.977,0-3.438-1.229-3.438-3.49L7.63,12.005
	C11.313,8.887,12.149,7.781,13.189,5.414z M1.748,11.792c-1.062,0-1.892,1.178-1.727,2.521l1.571,14.872
	c0.146,1.187,1.278,1.891,2.22,1.891h2.062l0.032-19.283H1.748z"/>
</svg>
