<?xml version="1.0" encoding="utf-8"?>
<!-- Generator: Adobe Illustrator 16.0.0, SVG Export Plug-In . SVG Version: 6.00 Build 0)  -->
<!DOCTYPE svg PUBLIC "-//W3C//DTD SVG 1.1//EN" "http://www.w3.org/Graphics/SVG/1.1/DTD/svg11.dtd">
<svg version="1.1" id="图层_1" xmlns="http://www.w3.org/2000/svg" xmlns:xlink="http://www.w3.org/1999/xlink" x="0px" y="0px"
	 width="32px" height="32px" viewBox="0 0 32 32" enable-background="new 0 0 32 32" xml:space="preserve">
<title>推广产品</title>
<desc>Created with Sketch.</desc>
<g>
	<path d="M2.286,11.434v4.629c0,1.263,1.015,2.287,2.286,2.287h2.286V9.147H4.571C3.309,9.147,2.286,10.167,2.286,11.434z"/>
	<path d="M25.415,2.534L9.143,8.333v10.832l2.987,1.064l4.11,8.223c0.401,0.801,1.208,1.264,2.046,1.264
		c0.343,0,0.692-0.078,1.021-0.241c1.129-0.564,1.587-1.938,1.022-3.067l-1.98-3.961l7.065,2.518c2.374,0.846,4.3-0.512,4.3-3.041
		V5.575C29.715,3.049,27.785,1.69,25.415,2.534z"/>
</g>
</svg>
