<svg width="18" height="18" viewBox="0 0 18 18" xmlns="http://www.w3.org/2000/svg">
    <title>
        安保问题
    </title>
    <desc>
        Created with Sketch.
    </desc>
    <g fill="#999">
        <path d="M2 2.714v9.715C2 13.285 8.17 17 9.03 17c.86 0 6.97-3.714 6.97-4.57V2.713S13 1 9.066 1 2 2.714 2 2.714zm11.682.088C14.192 2.978 15 3.5 15 3.5v8.694s-1.867 1.47-2.698 1.997C10.808 15.138 9.152 16 9.03 16c-.126 0-1.797-.864-3.306-1.81-.84-.528-2.724-2-2.724-2V3.5s.852-.52 1.376-.695C5.873 2.302 7.463 2 9.066 2c1.6 0 3.162.3 4.616.802z"/>
        <path d="M8.02 11.726l4.852-5.392-.744-.668-4.136 4.62-2.138-2.14-.708.708 2.873 2.872z"/>
    </g>
</svg>
