<?xml version="1.0" encoding="utf-8"?>
<!-- Generator: Adobe Illustrator 15.0.0, SVG Export Plug-In . SVG Version: 6.00 Build 0)  -->
<!DOCTYPE svg PUBLIC "-//W3C//DTD SVG 1.1//EN" "http://www.w3.org/Graphics/SVG/1.1/DTD/svg11.dtd">
<svg version="1.1" id="Layer_1" xmlns:sketch="http://www.bohemiancoding.com/sketch/ns"
	 xmlns="http://www.w3.org/2000/svg" xmlns:xlink="http://www.w3.org/1999/xlink" x="0px" y="0px" width="18px" height="18px"
	 viewBox="0 0 18 18" enable-background="new 0 0 18 18" xml:space="preserve">
<title>问号</title>
<desc>Created with Sketch Beta.</desc>
<g id="经营效果" sketch:type="MSPage">
	<g id="问号" sketch:type="MSArtboardGroup">
		<g id="_xFF1F_" sketch:type="MSLayerGroup">
			<path id="Rectangle-709" sketch:type="MSShapeGroup" fill="#6F6F6F" d="M8.305,13.692v1.353h1.349v-1.353H8.305z M5.606,7.539
				C5.628,6.909,5.712,6.416,5.859,6.06C6.004,5.704,6.25,5.378,6.597,5.084c0.346-0.294,0.731-0.511,1.159-0.65
				c0.427-0.14,0.866-0.21,1.321-0.21c0.962,0,1.75,0.261,2.36,0.782c0.611,0.522,0.917,1.221,0.917,2.099
				c0,0.444-0.093,0.825-0.275,1.146c-0.184,0.32-0.584,0.754-1.2,1.301c-0.67,0.608-1.107,1.095-1.258,1.386v1.402H8.299
				c0.021-0.609-0.03-1.108,0.153-1.528C8.636,10.392,8.998,9.85,9.62,9.24c0.622-0.609,1.01-1.04,1.167-1.293
				c0.155-0.253,0.235-0.569,0.235-0.953c0-0.577-0.068-0.872-0.463-1.222c-0.394-0.351-0.91-0.445-1.58-0.445
				c-1.022,0-1.952,0.581-2.082,2.212H5.606z"/>
			<path id="Oval-151" sketch:type="MSShapeGroup" fill="#666666" d="M17.751,8.958c0-4.855-3.927-8.792-8.771-8.792
				S0.209,4.103,0.209,8.958c0,4.855,3.927,8.792,8.771,8.792S17.751,13.813,17.751,8.958z M1.559,8.958
				C1.559,4.85,4.88,1.52,8.98,1.52c4.098,0,7.421,3.33,7.421,7.439c0,4.108-3.323,7.439-7.421,7.439
				C4.88,16.397,1.559,13.066,1.559,8.958z"/>
		</g>
	</g>
</g>
</svg>
