<?xml version="1.0" encoding="utf-8"?>
<!-- Generator: Adobe Illustrator 16.0.0, SVG Export Plug-In . SVG Version: 6.00 Build 0)  -->
<!DOCTYPE svg PUBLIC "-//W3C//DTD SVG 1.1//EN" "http://www.w3.org/Graphics/SVG/1.1/DTD/svg11.dtd">
<svg version="1.1" id="图层_1" xmlns="http://www.w3.org/2000/svg" xmlns:xlink="http://www.w3.org/1999/xlink" x="0px" y="0px"
	 width="32px" height="32px" viewBox="0 0 32 32" enable-background="new 0 0 32 32" xml:space="preserve">
<title>问号－选中</title>
<desc>Created with Sketch.</desc>
<path d="M16,0C7.164,0,0,7.164,0,16c0,8.836,7.164,16,16,16c8.836,0,16-7.164,16-16C32,7.164,24.836,0,16,0z M17.23,25.846h-2.462
	v-2.461h2.462V25.846z M21.65,13.482c-0.335,0.583-1.064,1.372-2.189,2.367c-1.223,1.11-2.018,1.995-2.293,2.52v2.555h-2.411
	c0.04-1.109-0.055-2.021,0.281-2.783c0.335-0.76,0.995-1.75,2.13-2.858c1.133-1.109,1.844-1.893,2.129-2.354
	c0.287-0.46,0.43-1.038,0.43-1.733c0-1.052-0.123-1.587-0.843-2.226C18.164,8.331,17.223,8.16,16,8.16
	c-1.866,0-3.562,1.056-3.798,4.025H9.846c0.04-1.146,0.192-2.043,0.459-2.692c0.266-0.648,0.715-1.24,1.346-1.776
	c0.632-0.535,1.337-0.93,2.115-1.184c0.779-0.253,1.583-0.38,2.412-0.38c1.756,0,3.189,0.474,4.305,1.423
	c1.114,0.949,1.672,2.222,1.672,3.819C22.154,12.204,21.986,12.899,21.65,13.482z"/>
</svg>
