<?xml version="1.0" encoding="UTF-8" standalone="no"?>
<svg width="48px" height="48px" viewBox="0 0 48 48" version="1.1" xmlns="http://www.w3.org/2000/svg" xmlns:xlink="http://www.w3.org/1999/xlink">
    <!-- Generator: Sketch 39.1 (31720) - http://www.bohemiancoding.com/sketch -->
    <title>常见问题@2x</title>
    <desc>Created with Sketch.</desc>
    <defs></defs>
    <g id="icon-24/48/72" stroke="none" stroke-width="1" fill="none" fill-rule="evenodd">
        <g id="all" transform="translate(-136.000000, -1026.000000)"></g>
        <g id="常见问题@2x">
            <g id="Group" transform="translate(2.000000, 2.000000)">
                <rect id="Rectangle-2928-Copy-5" fill="#B48FE7" x="0" y="0" width="44" height="44" rx="22"></rect>
                <path d="M24.8284271,30 L31.008845,30 C32.1103261,30 33,29.1067681 33,28.0049107 L33,13.9950893 C33,12.8926228 32.1085295,12 31.008845,12 L12.991155,12 C11.8896739,12 11,12.8932319 11,13.9950893 L11,28.0049107 C11,29.1073772 11.8914705,30 12.991155,30 L19.1715729,30 L22,32.8284271 L24.8284271,30 Z" id="Rectangle-175-Copy" fill="#FFFFFF"></path>
                <path d="M18.2132007,20 L20.4458111,20 L20.5242657,19.0222445 C20.7142758,17.8973851 21.1896219,17.4155273 22.0273437,17.4155273 C22.4420122,17.4155273 22.7780809,17.547792 23.0623449,17.820069 C23.3445336,18.0903581 23.4755859,18.3816733 23.4755859,18.7202148 C23.4755859,18.8740437 23.4381932,19.0274303 23.3599903,19.1854322 C23.2846036,19.337744 23.0403968,19.6098601 22.6387581,19.9664169 C22.2802886,20.2782992 21.9968389,20.5439592 21.790302,20.7626453 C21.5653696,21.0008089 21.3810029,21.2573192 21.2384493,21.5316676 C21.0932717,21.8110661 20.9963625,22.1004092 20.9490647,22.3981073 C20.905252,22.6738696 21,24 21,24 L23,24 C23,24 23.1349412,22.6493464 23.2222996,22.4761622 C23.3164414,22.2895302 23.5976189,21.9758701 24.0552593,21.5681541 C24.756257,20.9499215 25.2104323,20.432286 25.4217996,19.9875913 C25.6287932,19.5520982 25.7333984,19.098356 25.7333984,18.6313477 C25.7333984,17.7008703 25.3672012,16.9118188 24.6529144,16.2999581 C23.9540207,15.7012831 23.066839,15.4038086 22.0136719,15.4038086 C20.9862289,15.4038086 20.125699,15.6954913 19.4554817,16.2832612 C18.782139,16.8737721 18.3879237,17.7032117 18.2697802,18.745956 L18.2132007,20 Z" id="Shape" fill="#B48FE7"></path>
                <polygon id="Path" fill="#B48FE7" points="23 27 21 27 21 25 23 25"></polygon>
            </g>
        </g>
    </g>
</svg>