<?xml version="1.0" encoding="utf-8"?>
<!-- Generator: Adobe Illustrator 16.0.0, SVG Export Plug-In . SVG Version: 6.00 Build 0)  -->
<!DOCTYPE svg PUBLIC "-//W3C//DTD SVG 1.1//EN" "http://www.w3.org/Graphics/SVG/1.1/DTD/svg11.dtd">
<svg version="1.1" id="图层_1" xmlns="http://www.w3.org/2000/svg" xmlns:xlink="http://www.w3.org/1999/xlink" x="0px" y="0px"
	 width="32px" height="32px" viewBox="0 0 32 32" enable-background="new 0 0 32 32" xml:space="preserve">
<title>排队</title>
<desc>Created with Sketch.</desc>
<g>
	<path d="M17.174,16.83c2.055-1.448,3.397-3.839,3.397-6.544c0-4.418-3.581-8-8-8c-4.418,0-8,3.582-8,8
		c0,2.705,1.342,5.096,3.397,6.544C3.303,18.583,0,22.924,0,28c0,0.947,0.804,1.715,1.796,1.715h3.367h7.408h7.408h3.368
		c0.991,0,1.795-0.768,1.795-1.715C25.143,22.924,21.84,18.583,17.174,16.83z"/>
	<path d="M24.725,15.368c1.357-1.551,2.133-3.564,2.133-5.654c0-3.211-1.771-6.127-4.623-7.61c-0.562-0.292-1.251-0.073-1.541,0.487
		c-0.291,0.56-0.073,1.25,0.486,1.542c2.093,1.087,3.393,3.227,3.393,5.582c0,2.01-0.929,3.852-2.546,5.052
		c-0.335,0.248-0.508,0.658-0.452,1.07c0.056,0.413,0.331,0.762,0.719,0.913c4.439,1.726,7.422,6.189,7.422,11.108
		c0,0.631,0.512,1.143,1.143,1.143S32,28.488,32,27.857C32,22.614,29.138,17.8,24.725,15.368z"/>
</g>
</svg>
