<?xml version="1.0" encoding="utf-8"?>
<!-- Generator: Adobe Illustrator 16.0.0, SVG Export Plug-In . SVG Version: 6.00 Build 0)  -->
<!DOCTYPE svg PUBLIC "-//W3C//DTD SVG 1.1//EN" "http://www.w3.org/Graphics/SVG/1.1/DTD/svg11.dtd">
<svg version="1.1" id="图层_1" xmlns="http://www.w3.org/2000/svg" xmlns:xlink="http://www.w3.org/1999/xlink" x="0px" y="0px"
	 width="32px" height="32px" viewBox="0 0 32 32" enable-background="new 0 0 32 32" xml:space="preserve">
<path d="M16,0C7.164,0,0,7.164,0,16c0,8.836,7.164,16,16,16c8.836,0,16-7.164,16-16C32,7.164,24.836,0,16,0z M22.096,17.981
	c0.631,0,1.143,0.512,1.143,1.143s-0.512,1.143-1.143,1.143h-4.953v2.667c0,0.631-0.512,1.143-1.143,1.143
	c-0.631,0-1.143-0.512-1.143-1.143v-2.667H9.905c-0.631,0-1.143-0.512-1.143-1.143s0.512-1.143,1.143-1.143h4.952v-2.286H9.905
	c-0.631,0-1.143-0.512-1.143-1.143s0.512-1.143,1.143-1.143h4.857L11.577,10c-0.431-0.461-0.406-1.185,0.055-1.615
	c0.46-0.432,1.184-0.406,1.615,0.055l2.782,2.977l2.685-2.878c0.432-0.462,1.154-0.486,1.615-0.057
	c0.462,0.431,0.487,1.154,0.057,1.615l-3.091,3.313h4.802c0.631,0,1.143,0.512,1.143,1.143s-0.512,1.143-1.143,1.143h-4.953v2.286
	H22.096z"/>
</svg>
