<?xml version="1.0" encoding="utf-8"?>
<!-- Generator: Adobe Illustrator 19.2.1, SVG Export Plug-In . SVG Version: 6.00 Build 0)  -->
<!DOCTYPE svg PUBLIC "-//W3C//DTD SVG 1.1//EN" "http://www.w3.org/Graphics/SVG/1.1/DTD/svg11.dtd">
<svg width="100px" height="100px" version="1.1" id="图层_1" xmlns="http://www.w3.org/2000/svg" xmlns:xlink="http://www.w3.org/1999/xlink" x="0px" y="0px"
	 viewBox="0 0 100 100" style="enable-background:new 0 0 100 100;" xml:space="preserve">
<style type="text/css">
	.st0{fill:#FFFFFF;}
</style>
<g id="图层_2">
</g>
<g>
	<path class="st0" d="M70.2,40.4c-7.1,0-13.7,2.5-18.8,6.7c-2.9-2.1-6.1-3.7-9.6-4.7c7.5-3.5,12.7-11.1,12.7-20c0-12.2-9.8-22-22-22
		s-22,9.8-22,22c0,8.8,5.2,16.5,12.7,20C9.8,46.3,0,58.8,0,73.5V100c0,0,68.4,0,70.2,0c16.5,0,29.8-13.3,29.8-29.8
		C100,53.7,86.7,40.4,70.2,40.4z M14.5,22.4c0-9.9,8.1-18,18-18s18,8.1,18,18c0,9.9-8.1,18-18,18S14.5,32.3,14.5,22.4z M5.1,95V75.8
		C5.1,59.3,17.4,46,32.5,46c5.5,0,10.7,1.8,15,4.8c-4.4,5.2-7.1,12-7.1,19.3c0,10.3,5.3,19.5,13.3,24.8H5.1z M70.2,95.2
		c-13.8,0-25-11.2-25-25c0-13.8,11.2-25,25-25s25,11.2,25,25C95.2,84,84,95.2,70.2,95.2z"/>
	<path class="st0" d="M83.7,74.3H72.2v-6h9.6c1.1,0,2-0.9,2-2s-0.9-2-2-2h-8.7L73,64.1l6.7-8.3c0.7-0.9,0.6-2.1-0.3-2.8
		c-0.9-0.7-2.1-0.6-2.8,0.3L70.4,61L64,53.4c-0.7-0.8-2-1-2.8-0.3c-0.8,0.7-1,2-0.3,2.8l7,8.3h-8.8c-1.1,0-2,0.9-2,2s0.9,2,2,2h9.1
		v6H56.8c-1.1,0-2,0.9-2,2s0.9,2,2,2h11.4v8.2c0,1.1,0.9,2,2,2s2-0.9,2-2v-8.2h11.5c1.1,0,2-0.9,2-2S84.8,74.3,83.7,74.3z"/>
</g>
</svg>
