<?xml version="1.0" encoding="utf-8"?>
<!-- Generator: Adobe Illustrator 19.2.1, SVG Export Plug-In . SVG Version: 6.00 Build 0)  -->
<!DOCTYPE svg PUBLIC "-//W3C//DTD SVG 1.1//EN" "http://www.w3.org/Graphics/SVG/1.1/DTD/svg11.dtd">
<svg width="100px" height="100px" version="1.1" id="图层_1" xmlns="http://www.w3.org/2000/svg" xmlns:xlink="http://www.w3.org/1999/xlink" x="0px" y="0px"
	 viewBox="0 0 100 100" style="enable-background:new 0 0 100 100;" xml:space="preserve">
<style type="text/css">
	.st0{fill-rule:evenodd;clip-rule:evenodd;fill:#FFFFFF;}
</style>
<g>
	<path class="st0" d="M80.2,0c0,0-60.1,0-60.2,0c-5.5,0-10,5-10,11.1v77.8C10,95,14.5,100,20,100c0,0,60.2,0,60.2,0
		c5.4-0.1,9.8-5,9.8-11.1V11.1C90,5,85.6,0.1,80.2,0z M84.8,89c0,3-2.4,5.4-5.3,5.4H20.7c-2.9,0-5.3-2.4-5.3-5.4V68.9h69.4V89z
		 M84.8,63.9H15.3V27.6h69.4V63.9z M84.8,22.6H15.3V11c0-3,2.4-5.4,5.3-5.4h58.8c2.9,0,5.3,2.4,5.3,5.4V22.6z"/>
	<path class="st0" d="M50,89.2c4.1,0,7.5-3.4,7.5-7.5c0-4.1-3.4-7.5-7.5-7.5c-4.1,0-7.5,3.4-7.5,7.5C42.5,85.8,45.9,89.2,50,89.2z
		 M50,77.2c2.5,0,4.5,2,4.5,4.5s-2,4.5-4.5,4.5c-2.5,0-4.5-2-4.5-4.5S47.5,77.2,50,77.2z"/>
</g>
</svg>
