<?xml version="1.0" encoding="utf-8"?>
<!-- Generator: Adobe Illustrator 19.2.1, SVG Export Plug-In . SVG Version: 6.00 Build 0)  -->
<!DOCTYPE svg PUBLIC "-//W3C//DTD SVG 1.1//EN" "http://www.w3.org/Graphics/SVG/1.1/DTD/svg11.dtd">
<svg width="100px" height="100px" version="1.1" id="图层_2" xmlns="http://www.w3.org/2000/svg" xmlns:xlink="http://www.w3.org/1999/xlink" x="0px" y="0px"
	 viewBox="0 0 100 100" style="enable-background:new 0 0 100 100;" xml:space="preserve">
<style type="text/css">
	.st0{fill:#FFFFFF;}
</style>
<path class="st0" d="M88.5,0h-23c-6.4,0-11.5,5.2-11.5,11.5v34.5h34.5c6.4,0,11.5-5.2,11.5-11.5v-23C100,5.2,94.8,0,88.5,0z
	 M59.1,12.9c0-4,3.1-7.3,7-7.7h21.7c3.9,0.3,7,3.7,7,7.7l0,20.9c-0.3,4-3.6,7.1-7.7,7.1c-0.3,0-28,0-28,0V12.9z"/>
<path class="st0" d="M0,11.5l0,23c0,6.4,5.2,11.5,11.5,11.5l34.5,0V11.5C46.1,5.2,40.9,0,34.5,0l-23,0C5.2,0,0,5.2,0,11.5z
	 M40.9,40.9c0,0-27.8,0-28,0c-4,0-7.4-3.1-7.7-7.1l0-20.9c0-4,3.1-7.3,7-7.7h21.7c3.9,0.3,7,3.7,7,7.7V40.9z"/>
<path class="st0" d="M100,88.5v-23c0-6.4-5.2-11.5-11.5-11.5l-34.5,0l0,34.5c0,6.4,5.2,11.5,11.5,11.5h23
	C94.8,100,100,94.8,100,88.5z M59.1,59.1c0,0,27.8,0,28,0c4,0,7.4,3.1,7.7,7.1l0,20.9c0,4-3.1,7.3-7,7.7H66.1c-3.9-0.3-7-3.7-7-7.7
	V59.1z"/>
<path class="st0" d="M11.5,100h23c6.4,0,11.5-5.2,11.5-11.5V53.9H11.5C5.2,53.9,0,59.1,0,65.4l0,23C0,94.8,5.2,100,11.5,100z
	 M40.9,87.1c0,4-3.1,7.3-7,7.7H12.2c-3.9-0.3-7-3.7-7-7.7l0-20.9c0.3-4,3.6-7.1,7.7-7.1c0.3,0,28,0,28,0V87.1z"/>
</svg>
