<?xml version="1.0" encoding="utf-8"?>
<!-- Generator: Adobe Illustrator 19.2.1, SVG Export Plug-In . SVG Version: 6.00 Build 0)  -->
<!DOCTYPE svg PUBLIC "-//W3C//DTD SVG 1.1//EN" "http://www.w3.org/Graphics/SVG/1.1/DTD/svg11.dtd">
<svg width="100px" height="100px" version="1.1" id="图层_2" xmlns="http://www.w3.org/2000/svg" xmlns:xlink="http://www.w3.org/1999/xlink" x="0px" y="0px"
	 viewBox="0 0 100 100" style="enable-background:new 0 0 100 100;" xml:space="preserve">
<style type="text/css">
	.st0{fill-rule:evenodd;clip-rule:evenodd;fill:#FFFFFF;}
</style>
<path class="st0" d="M21.9,70.3h56.3v5.5H21.9V70.3z M21.9,25.7h56.3v5.5H21.9V25.7z M21.9,48.5h56.3V54H21.9V48.5z M61.5,11.1H38.5
	c-3.2,0-5.7-2.5-5.7-5.5c0-3.1,2.6-5.5,5.7-5.5h22.9c3.2,0,5.7,2.5,5.7,5.5C67.2,8.6,64.6,11.1,61.5,11.1z M89,5.9H73.2v5.5h15.6
	c3.1,0,5.6,2.5,5.6,5.5c0,0-0.1,72.7-0.1,72.7c-0.4,2.7-2.7,4.8-5.5,4.8H11.1c-3.1,0-5.6-2.5-5.6-5.5V17c0-3.1,2.5-5.5,5.6-5.5h15.7
	V5.9H11.1C5,5.9,0,10.9,0,17v71.9C0,95,5,100,11.3,100H89c6.1-0.1,11-5,11-11.1V17C100,10.9,95.1,6,89,5.9z"/>
</svg>
