<?xml version="1.0" encoding="UTF-8" standalone="no"?>
<svg width="80px" height="80px" viewBox="0 0 80 80" version="1.1" xmlns="http://www.w3.org/2000/svg" xmlns:xlink="http://www.w3.org/1999/xlink">
    <!-- Generator: Sketch 39.1 (31720) - http://www.bohemiancoding.com/sketch -->
    <title>标签 本店 @2x</title>
    <desc>Created with Sketch.</desc>
    <defs>
        <path d="M41.8482414,20.2731036 L41.3442414,20.2731036 C40.1602355,24.5570129 37.4002631,28.4188434 33.0642414,31.8587111 C32.6642394,31.3172505 32.1602445,30.9350487 31.5522414,30.7120943 C33.5042512,29.5495464 35.2362339,28.0525894 36.7482414,26.2211784 C38.260249,24.3897674 39.4082375,22.4070956 40.1922414,20.2731036 C36.5602233,20.2731036 34.0802481,20.3129163 32.7522414,20.3925429 L32.7522414,18.935384 C34.4962502,19.0468612 37.5282198,19.102599 41.8482414,19.102599 C41.8482414,16.2997438 41.792242,14.524098 41.6802414,13.7756083 C42.384245,13.9348614 42.9282395,14.0144868 43.3122414,14.0144868 C43.6962434,14.0144868 43.8882414,14.0742058 43.8882414,14.1936457 C43.8882414,14.3130855 43.7802425,14.468355 43.5642414,14.6594588 C43.3482404,14.8505625 43.2402414,15.7821794 43.2402414,17.4543373 L43.2402414,19.102599 C47.4802626,19.102599 50.4802326,19.0468612 52.2402414,18.935384 L52.2402414,20.3925429 C50.9122348,20.3129163 48.4642593,20.2731036 44.8962414,20.2731036 C46.6882504,24.8755192 49.5522218,28.1720096 53.4882414,30.1626737 C52.9442387,30.4652547 52.4482437,30.9430069 52.0002414,31.5959448 C48.0802218,29.016044 45.3202494,25.2418014 43.7202414,20.2731036 L43.2402414,20.2731036 L43.2402414,29.2310476 C45.3682521,29.2151222 47.0082357,29.1354969 48.1602414,28.992169 L48.1602414,30.6165429 C47.0082357,30.4732151 45.3682521,30.3935897 43.2402414,30.3776644 C43.2562415,31.6835401 43.3362407,33.3795605 43.4802414,35.4657765 L41.6322414,35.4657765 C41.744242,33.7299174 41.8162413,32.033897 41.8482414,30.3776644 C39.768231,30.3935897 38.1522472,30.4732151 37.0002414,30.6165429 L37.0002414,28.992169 C38.1522472,29.1354969 39.768231,29.2151222 41.8482414,29.2310476 L41.8482414,20.2731036 Z M68.3682414,16.5704868 C72.7522634,16.5545615 75.4482364,16.4828987 76.4562414,16.3554962 L76.4562414,17.8843186 C75.6402374,17.7887667 73.5522582,17.7409915 70.1922414,17.7409915 L59.7282414,17.7409915 C59.7762417,20.0660872 59.8002414,22.375223 59.8002414,24.6684681 C59.8002414,26.9617132 59.6722427,28.9045723 59.4162414,30.4971036 C59.1602402,32.089635 58.672245,33.7378802 57.9522414,35.4418887 C57.5202393,35.0756065 56.9682448,34.7889551 56.2962414,34.5819261 C57.016245,33.4512288 57.5442398,32.0737099 57.8802414,30.4493279 C58.2162431,28.824946 58.3842414,26.8462555 58.3842414,24.5131971 C58.3842414,22.1801387 58.2882424,19.4609322 58.0962414,16.3554962 C58.8322451,16.498824 61.7042164,16.5704868 66.7122414,16.5704868 C66.2962394,15.917549 65.7122452,15.2248082 64.9602414,14.4922438 L66.4482414,13.7278326 C67.2002452,14.6196501 67.8402388,15.5671921 68.3682414,16.5704868 L68.3682414,16.5704868 Z M67.0002414,26.3645055 L67.0002414,20.4164307 C67.0002414,19.4927626 66.9362421,18.7920593 66.8082414,18.3142999 C66.8882418,18.3620758 67.5122356,18.3859634 68.6802414,18.3859634 C68.8562423,18.3859634 68.9442414,18.4257761 68.9442414,18.5054027 C68.9442414,18.5850293 68.8562423,18.6885422 68.6802414,18.8159448 C68.5042406,18.9433473 68.4162414,19.3494367 68.4162414,20.0342251 L68.4162414,21.8497018 L72.5682414,21.8497018 C74.0242487,21.8497018 75.2402366,21.7780389 76.2162414,21.6347111 L76.2162414,23.2590849 C75.2562366,23.1157571 74.0402488,23.0440943 72.5682414,23.0440943 L68.4162414,23.0440943 L68.4162414,26.3645055 C71.920259,26.3645055 74.0482377,26.3008052 74.8002414,26.1734027 C74.6722408,27.0333696 74.6082414,27.9012862 74.6082414,28.7771784 L74.6082414,31.6914962 C74.6082414,32.8699693 74.6722408,33.8971366 74.8002414,34.7730289 L73.1682414,34.7730289 L73.1682414,33.3636457 L63.4242414,33.3636457 L63.4242414,35.1313466 L61.7922414,35.1313466 C61.9522422,34.1758278 62.0322414,33.140698 62.0322414,32.0259261 L62.0322414,28.7771784 C62.0322414,27.996838 61.976242,27.1289215 61.8642414,26.1734027 C62.5362448,26.2848799 64.2482277,26.3485802 67.0002414,26.3645055 L67.0002414,26.3645055 Z M63.4242414,32.1214775 L73.1682414,32.1214775 L73.1682414,27.5827859 L63.4242414,27.5827859 L63.4242414,32.1214775 Z" id="path-1"></path>
        <filter x="-50%" y="-50%" width="200%" height="200%" filterUnits="objectBoundingBox" id="filter-2">
            <feOffset dx="0" dy="2" in="SourceAlpha" result="shadowOffsetOuter1"></feOffset>
            <feColorMatrix values="0 0 0 0 0.968627453   0 0 0 0 0.380392164   0 0 0 0 0.125490203  0 0 0 0.478232563 0" type="matrix" in="shadowOffsetOuter1"></feColorMatrix>
        </filter>
    </defs>
    <g id="icon-40/80/120" stroke="none" stroke-width="1" fill="none" fill-rule="evenodd">
        <g id="all" transform="translate(-941.000000, -578.000000)"></g>
        <g id="标签-本店-@2x">
            <g id="Rectangle-825-+-本店">
                <polygon id="Rectangle-825" fill="#FA942F" points="0 0 80 0 80 71"></polygon>
                <g id="本店" transform="translate(54.004241, 24.596805) rotate(-317.000000) translate(-54.004241, -24.596805) ">
                    <use fill="black" fill-opacity="1" filter="url(#filter-2)" xlink:href="#path-1"></use>
                    <use fill="#FFFFFF" fill-rule="evenodd" xlink:href="#path-1"></use>
                </g>
            </g>
        </g>
    </g>
</svg>