<svg xmlns="http://www.w3.org/2000/svg" width="100" height="100" viewBox="0 0 100 100">
    <path fill-rule="evenodd" clip-rule="evenodd" fill="#040000" d="M94 83.578v13.42H80.48l-.02.002H6V36.57C6 32.864 9.263 30 13 30h14V16c0-7.455 5.69-13 13.2-13h40.262C87.938 3 94 9.013 94 16.43v67.148zM86 85h-.1c.065-.323.1-.657.1-1V16c0-3.88-.938-5-5-5H40c-3.424 0-5 1.572-5 5v21H19c-3.97 0-5 1.116-5 5v47h67c.343 0 .677-.035 1-.1v.1h4v-4zM65 68h12v12H65V68zm0-24h12v12H65V44zm0-24h12v12H65V20zM44 68h12v12H44V68zm0-24h12v12H44V44zm0-24h12v12H44V20zM22 45h8v35h-8V45z"/>
</svg>
