<svg xmlns="http://www.w3.org/2000/svg" width="100" height="100" viewBox="0 0 100 100">
    <path fill-rule="evenodd" clip-rule="evenodd" fill="#040000" d="M91.604 69.318c-7.12 7.562-15.042 13.29-17.516 15.153-2.475 1.866-3.876 2.092-3.876 4.1S69.127 93.62 65 93.62c-1.932 0-5.238-.007-6.035-.007-2.437 0-4.233-1.254-4.233-3.532 0-2.276-1.204-15.788 3.034-20.088 4.463-4.527 16.656-17.64 19.332-20.522.15-.314.334-.617.585-.884 1.29-1.37 3.44-1.43 4.807-.14 1.366 1.292 1.43 3.448.14 4.816-.062.065-.134.113-.2.173l.083.078-11.188 11.882c-.72.764-.823 3.548 2.035 2.167 2.86-1.382 7.228-3.857 11.596-8.496 4.367-4.64 4.424-20.98 4.424-20.98h.055c.002-2.846 2.303-5.15 5.142-5.15 2.833 0 5.13 2.297 5.14 5.134h.018c-.003 0 .265 22.33-8.13 31.248zM50.278 56.792c-9.97-8.452-30.67-19.688-30.598-31.27.123-20.15 23.846-26.902 30.56-7.927 6.09-18.12 28.312-13.2 28.434 7.003.07 11.502-18.43 23.703-28.396 32.194zm-27.96-8.206c.242.258.42.55.568.852 2.686 2.815 15.284 16.01 19.765 20.555 4.24 4.3 3.035 17.812 3.035 20.09 0 2.277-1.797 3.53-4.234 3.53-.795 0-4.517.008-6.45.008-4.126 0-5.21-3.043-5.21-5.05s-1.402-2.232-3.876-4.098C23.44 82.608 15.518 76.88 8.398 69.32 0 60.4.268 38.07.268 38.07h.018c.01-2.838 2.306-5.136 5.14-5.136 2.84 0 5.14 2.306 5.142 5.15h.055s.056 16.343 4.424 20.98c4.368 4.64 8.736 7.115 11.595 8.497 2.858 1.382 2.754-1.402 2.036-2.166l-11.19-11.882.084-.078c-.065-.06-.137-.107-.2-.173-1.288-1.367-1.225-3.523.14-4.815 1.364-1.29 3.516-1.228 4.805.14z"/>
</svg>
