<?xml version="1.0" encoding="utf-8"?>
<!-- Generator: Adobe Illustrator 16.0.0, SVG Export Plug-In . SVG Version: 6.00 Build 0)  -->
<!DOCTYPE svg PUBLIC "-//W3C//DTD SVG 1.1//EN" "http://www.w3.org/Graphics/SVG/1.1/DTD/svg11.dtd">
<svg version="1.1" id="图层_1" xmlns="http://www.w3.org/2000/svg" xmlns:xlink="http://www.w3.org/1999/xlink" x="0px" y="0px"
	 width="32px" height="32px" viewBox="0 0 32 32" enable-background="new 0 0 32 32" xml:space="preserve">
<title>实物商品单</title>
<desc>Created with Sketch.</desc>
<path d="M25.139,2.286H6.861c-2.537,0-4.576,2.048-4.576,4.576v18.277c0,2.537,2.048,4.576,4.576,4.576h18.277
	c2.537,0,4.576-2.049,4.576-4.576V6.861C29.715,4.325,27.666,2.286,25.139,2.286z M23.993,11.573
	c-0.078,4.344-3.631,7.855-7.993,7.855s-7.915-3.511-7.993-7.855c-0.685-0.395-1.15-1.126-1.15-1.973
	c0-1.262,1.023-2.286,2.286-2.286c1.262,0,2.286,1.023,2.286,2.286c0,0.841-0.459,1.568-1.136,1.965
	c0.073,3.087,2.602,5.578,5.707,5.578c3.105,0,5.635-2.49,5.708-5.577c-0.677-0.397-1.137-1.124-1.137-1.965
	c0-1.262,1.023-2.286,2.286-2.286c1.262,0,2.285,1.023,2.285,2.286C25.143,10.447,24.677,11.178,23.993,11.573z"/>
</svg>
