<?xml version="1.0" encoding="utf-8"?>
<!-- Generator: Adobe Illustrator 16.0.3, SVG Export Plug-In . SVG Version: 6.00 Build 0)  -->
<!DOCTYPE svg PUBLIC "-//W3C//DTD SVG 1.1//EN" "http://www.w3.org/Graphics/SVG/1.1/DTD/svg11.dtd">
<svg version="1.1" id="图层_1" xmlns:sketch="http://www.bohemiancoding.com/sketch/ns"
	 xmlns="http://www.w3.org/2000/svg" xmlns:xlink="http://www.w3.org/1999/xlink" x="0px" y="0px" width="18px" height="18px"
	 viewBox="0 0 18 18" enable-background="new 0 0 18 18" xml:space="preserve">
<title>商家</title>
<desc>Created with Sketch.</desc>
<title>商家</title>
<desc>Created with Sketch.</desc>
<g>
	<path fill="none" d="M12.706,9.771c-0.39,0.379-1.024,0.377-1.412,0L10.5,9L9.706,9.771c-0.39,0.379-1.024,0.377-1.412,0L7.5,9
		L6.706,9.771c-0.39,0.379-1.024,0.377-1.412,0L4.5,9L4,9.486V15h10V9.486L13.5,9L12.706,9.771z"/>
	<path fill="#999999" d="M4.501,7.888c-0.214,0-0.429,0.11-0.594,0.335C4.073,7.998,4.288,7.887,4.501,7.888z"/>
	<path fill="#999999" d="M15,9.956c0.729-0.001,2-0.255,2-2.007c0-1.205-0.563-2.041-1-2.508V3.136C16,2.508,15.485,2,14.854,2
		H3.146C2.513,2,2,2.507,2,3.136v2.306C1.563,5.908,1,6.744,1,7.949c0,1.752,1.271,2.006,2,2.007V15H1v1h16v-1h-2V9.956z M3,3.136
		C3,3.062,3.062,3,3.146,3h11.709C14.936,3,15,3.063,15,3.136V5H3V3.136z M14,15H4V9.486L4.5,9l0.794,0.771
		c0.388,0.377,1.022,0.379,1.412,0L7.5,9l0.794,0.771c0.388,0.377,1.022,0.379,1.412,0L10.5,9l0.794,0.771
		c0.388,0.377,1.022,0.379,1.412,0L13.5,9L14,9.486V15z M14.093,8.223c-0.327-0.443-0.854-0.449-1.186,0l-0.314,0.425
		c-0.327,0.442-0.854,0.448-1.186,0l-0.314-0.425c-0.327-0.443-0.854-0.449-1.186,0L9.593,8.647c-0.327,0.442-0.854,0.448-1.186,0
		L8.093,8.223C7.929,8.001,7.716,7.889,7.501,7.888c-0.214,0-0.428,0.11-0.594,0.335L6.593,8.647
		C6.429,8.869,6.216,8.981,6.001,8.981c-0.214,0.001-0.429-0.11-0.594-0.334L5.093,8.223C4.929,8.001,4.716,7.889,4.501,7.888
		c-0.214,0-0.428,0.11-0.594,0.335L3.593,8.647C3.266,9.09,2.694,9.124,2.35,8.701c0,0-0.35-0.237-0.35-0.73C2,6.986,3,6,3,6h12
		c0,0,1,0.959,1,1.971c0,0.493-0.35,0.73-0.35,0.73c-0.359,0.414-0.912,0.395-1.243-0.054L14.093,8.223z"/>
	<path fill="#999999" d="M6.593,8.647C6.429,8.869,6.216,8.98,6.001,8.981C6.216,8.981,6.429,8.869,6.593,8.647z"/>
	<path fill="#999999" d="M7.501,7.888c-0.214,0-0.429,0.11-0.594,0.335C7.073,7.998,7.288,7.887,7.501,7.888z"/>
	<path fill="#999999" d="M6.001,8.981c-0.214,0-0.428-0.11-0.594-0.334C5.573,8.872,5.787,8.982,6.001,8.981z"/>
</g>
</svg>
