<?xml version="1.0" encoding="utf-8"?>
<!-- Generator: Adobe Illustrator 16.0.0, SVG Export Plug-In . SVG Version: 6.00 Build 0)  -->
<!DOCTYPE svg PUBLIC "-//W3C//DTD SVG 1.1//EN" "http://www.w3.org/Graphics/SVG/1.1/DTD/svg11.dtd">
<svg version="1.1" id="图层_1" xmlns="http://www.w3.org/2000/svg" xmlns:xlink="http://www.w3.org/1999/xlink" x="0px" y="0px"
	 width="96px" height="96px" viewBox="0 0 96 96" enable-background="new 0 0 96 96" xml:space="preserve">
<title>财务管理</title>
<desc>Created with Sketch.</desc>
<path fill="#3DC6B6" d="M86.418,43.484l-18-31L66.105,8.5H61.5h-28h-4.605l-2.313,3.982l-18,31L7.5,45.346V47.5v33v8h8h64h8v-8v-33
	v-2.153L86.418,43.484z M33.5,16.5h28l16.258,28H59v2c0,6.065-4.935,11-11,11s-11-4.935-11-11v-2H17.242L33.5,16.5z M15.5,80.5v-32
	h17.633c0.98,7.329,7.274,13,14.867,13c7.593,0,13.887-5.671,14.867-13H79.5v32H15.5z"/>
<g id="图层_2">
</g>
</svg>
