<?xml version="1.0" encoding="UTF-8" standalone="no"?>
<svg width="80px" height="80px" viewBox="0 0 80 80" version="1.1" xmlns="http://www.w3.org/2000/svg" xmlns:xlink="http://www.w3.org/1999/xlink">
    <!-- Generator: Sketch 39.1 (31720) - http://www.bohemiancoding.com/sketch -->
    <title>门店管理@2x</title>
    <desc>Created with Sketch.</desc>
    <defs></defs>
    <g id="icon-40/80/120" stroke="none" stroke-width="1" fill="none" fill-rule="evenodd">
        <g id="all" transform="translate(-573.000000, -117.000000)"></g>
        <g id="门店管理@2x">
            <g id="Group">
                <path d="M40,80 C62.09139,80 80,62.09139 80,40 C80,17.90861 62.09139,0 40,0 C17.90861,0 0,17.90861 0,40 C0,62.09139 17.90861,80 40,80 Z" id="Oval-261" fill="#84C7EF"></path>
                <path d="M44.6031648,34.0231324 C43.1101051,34.4534614 41.7018321,35.2568636 40.5253569,36.4333387 C36.8153762,40.1433195 36.8153762,46.1583868 40.5253569,49.8683676 C41.7018321,51.0448427 43.1101051,51.8482448 44.6031648,52.2785739 L44.6031648,59.40995 C44.6031648,60.5565527 45.5307904,61.4911249 46.6750747,61.4911249 L48.7534771,61.4911249 C49.8938575,61.4911249 50.825387,60.5593512 50.825387,59.40995 L50.825387,51.952123 C51.9661103,51.4883777 53.0349608,50.7937926 53.9603858,49.8683676 C57.6703666,46.1583868 57.6703666,40.1433195 53.9603858,36.4333387 C53.0349608,35.5079137 51.9661103,34.8133286 50.825387,34.3495833 L50.825387,37.55426 C50.825387,38.697525 49.8938575,39.6243244 48.7534771,39.6243244 L46.6750747,39.6243244 C45.5307904,39.6243244 44.6031648,38.7026946 44.6031648,37.55426 L44.6031648,34.0231324 Z" id="Oval-260" fill="#FFFFFF" transform="translate(47.242871, 47.757129) rotate(-315.000000) translate(-47.242871, -47.757129) "></path>
                <path d="M31.5,57 L26.0098624,57 C24.899846,57 24,56.1064573 24,54.9972399 L24,44" id="Rectangle-634" stroke="#FFFFFF" stroke-width="2" stroke-linecap="round"></path>
                <path d="M59,31.9999999 C59,27 56.2878248,24.2700903 56.2878248,24.2700903 C55.0242941,22.4640693 52.2078053,21 49.9981215,21 L29.0018785,21 C26.791702,21 23.9212302,22.4292602 22.7048737,24.2821179 C22.7048737,24.2821179 20,27 20,31.9999999 C20,37 23.5,39 26,39 C32.5,39 33,34 33,34 C33,34 33.3507665,37.5076654 36.990235,38.6471255 C37.6960077,38.8680918 38.5,39 38.5,39" id="Path-757" stroke="#FFFFFF" stroke-width="2" stroke-linecap="round" stroke-linejoin="round"></path>
            </g>
        </g>
    </g>
</svg>