<?xml version="1.0" encoding="UTF-8" standalone="no"?>
<svg width="32px" height="32px" viewBox="0 0 32 32" version="1.1" xmlns="http://www.w3.org/2000/svg" xmlns:xlink="http://www.w3.org/1999/xlink">
    <!-- Generator: Sketch 39.1 (31720) - http://www.bohemiancoding.com/sketch -->
    <title>筛选 店铺 灰色@2x</title>
    <desc>Created with Sketch.</desc>
    <defs></defs>
    <g id="icon-16/32/48" stroke="none" stroke-width="1" fill="none" fill-rule="evenodd">
        <g id="all" transform="translate(-75.000000, -231.000000)"></g>
        <g id="筛选-店铺-灰色@2x" stroke-linecap="round" stroke="#999999" stroke-width="2">
            <g id="店铺" transform="translate(3.000000, 3.000000)">
                <path d="M24.559938,3.44955807 C23.4406752,1.54441975 20.7395876,0 18.5363352,0 L7.4636648,0 C5.25618369,0 2.50100673,1.50864909 1.44006195,3.44955805 C1.44006195,3.44955805 0,4.90879105 0,8.27097662 C0,11.6331624 2.33333333,12.9780366 4,12.9780366 C8.33333333,12.9780366 8.66666667,9.61585096 8.66666667,9.61585096 C8.66666667,9.61585096 9,12.9780366 13,12.9780366 C17,12.9780366 17.3333333,9.61585096 17.3333333,9.61585096 C17.3333333,9.61585096 18.1673177,13.3172102 22.0836589,12.9780366 C26,12.638863 26,9.59475522 26,8.2709767 C26,4.90879105 24.559938,3.44955807 24.559938,3.44955807 Z" id="Path-757" stroke-linejoin="round"></path>
                <path d="M16,26 L5.00276013,26 C3.89666625,26 3,25.1041422 3,24.0026083 L3,17" id="Rectangle-634"></path>
                <path d="M23,26 L12.0027601,26 C10.8966663,26 10,25.1041422 10,24.0026083 L10,17" id="Rectangle-634-Copy" transform="translate(16.500000, 21.500000) scale(-1, 1) translate(-16.500000, -21.500000) "></path>
            </g>
        </g>
    </g>
</svg>