<?xml version="1.0" encoding="UTF-8" standalone="no"?>
<svg width="48px" height="48px" viewBox="0 0 48 48" version="1.1" xmlns="http://www.w3.org/2000/svg" xmlns:xlink="http://www.w3.org/1999/xlink">
    <!-- Generator: Sketch 39.1 (31720) - http://www.bohemiancoding.com/sketch -->
    <title>赞 灰色@2x</title>
    <desc>Created with Sketch.</desc>
    <defs>
        <path d="M16.7916304,21.0017136 C16.3508835,21.0296489 16,21.3956423 16,21.8430326 L16,35.4365219 C16,36.8581848 17.1431641,38 18.5533284,38 L34.0092049,38 C35.1017876,38 36.155388,37.1194679 36.3470689,36.0332765 L38.6529311,22.9667235 C38.8429309,21.8900584 38.1041826,21 36.9991358,21 L24.5220563,21 C24.4891863,20.7720062 24.5061138,20.6065066 24.5061138,20.6065066 C24.5061138,20.6065066 26.5175585,17.4900169 26.854954,13.7898021 C27.1923495,10.0895872 24.5061136,10 24.5061136,10 C23.252937,10 21.7409089,17.0006658 16.7916304,21.0017136 Z M9.14063612,22.9844528 C9.06296493,22.4407545 9.44371665,22 9.99980749,22 L13.1518182,22 C13.6202561,22 14,22.3744662 14,22.8546881 L14,35.1453119 C14,35.6173431 13.6200479,36 13.148345,36 L11.9989566,36 C11.4472481,36 10.9379508,35.5656559 10.8593639,35.0155472 L9.14063612,22.9844528 Z" id="path-1"></path>
        <mask id="mask-2" maskContentUnits="userSpaceOnUse" maskUnits="objectBoundingBox" x="-4" y="-4" width="37.5521281" height="36">
            <rect x="5.13058693" y="6" width="37.5521281" height="36" fill="white"></rect>
            <use xlink:href="#path-1" fill="black"></use>
        </mask>
    </defs>
    <g id="icon-24/48/72" stroke="none" stroke-width="1" fill="none" fill-rule="evenodd">
        <g id="all" transform="translate(-692.000000, -822.000000)"></g>
        <g id="赞-灰色@2x" stroke="#999999" stroke-width="8">
            <use id="Rectangle-73-Copy-2" mask="url(#mask-2)" xlink:href="#path-1"></use>
        </g>
    </g>
</svg>