<?xml version="1.0" encoding="UTF-8" standalone="no"?>
<svg width="32px" height="32px" viewBox="0 0 32 32" version="1.1" xmlns="http://www.w3.org/2000/svg" xmlns:xlink="http://www.w3.org/1999/xlink">
    <!-- Generator: Sketch 39.1 (31720) - http://www.bohemiancoding.com/sketch -->
    <title>清空@2x</title>
    <desc>Created with Sketch.</desc>
    <defs></defs>
    <g id="icon-16/32/48" stroke="none" stroke-width="1" fill="none" fill-rule="evenodd">
        <g id="all" transform="translate(-269.000000, -353.000000)"></g>
        <g id="清空@2x" fill="#9D9D9D">
            <path d="M12,6 L5.50909424,6 C4.66354084,6 4,6.67157288 4,7.5 C4,8.33420277 4.6756445,9 5.50909424,9 L25.4909058,9 C26.3364592,9 27,8.32842712 27,7.5 C27,6.66579723 26.3243555,6 25.4909058,6 L19,6 L19,4.0093689 C19,3.44335318 18.5509732,3 17.9970707,3 L13.0029293,3 C12.4378814,3 12,3.45190985 12,4.0093689 L12,6 Z M9,11 C9,11 8.99716834,25 8.99742191,25 L22.0025781,25 C22.0028284,25 22,11 22,11 L9,11 Z M6,11 L25,11 L25,26.0025781 C25,27.1057238 24.1090746,28 23.0025781,28 L7.99742191,28 C6.89427625,28 6,27.1090746 6,26.0025781 L6,11 Z M17,11 L19,11 L19,23 L17,23 L17,11 Z M12,11 L14,11 L14,23 L12,23 L12,11 Z" id="垃圾箱-@2x"></path>
        </g>
    </g>
</svg>