<svg xmlns="http://www.w3.org/2000/svg" width="100" height="100" viewBox="0 0 100 100">
    <path fill-rule="evenodd" clip-rule="evenodd" fill="#040000" d="M93 27h-7.5v65c0 4.418-3.582 8-8 8h-56c-4.418 0-8-3.582-8-8V27H7c-1.933 0-3.5-1.567-3.5-3.5v-1C3.5 20.567 5.067 19 7 19h14.57c-.042-.328-.07-.66-.07-1V8c0-4.418 3.582-8 8-8h40c4.418 0 8 3.582 8 8v10c0 .34-.028.672-.07 1H93c1.934 0 3.5 1.567 3.5 3.5v1c0 1.933-1.566 3.5-3.5 3.5zM21.5 88c0 2.21 1.79 4 4 4h48c2.21 0 4-1.79 4-4V27h-56v61zm48-71v-6c0-2.21-1.79-4-4-4h-32c-2.21 0-4 1.79-4 4v6c0 .732.21 1.41.555 2h38.89c.344-.59.555-1.268.555-2zM62 80h-1c-1.934 0-3.5-1.567-3.5-3.5v-40c0-1.934 1.566-3.5 3.5-3.5h1c1.934 0 3.5 1.566 3.5 3.5v40c0 1.933-1.566 3.5-3.5 3.5zm-24 0h-1c-1.933 0-3.5-1.567-3.5-3.5v-40c0-1.934 1.567-3.5 3.5-3.5h1c1.933 0 3.5 1.566 3.5 3.5v40c0 1.933-1.567 3.5-3.5 3.5z"/>
</svg>
