<?xml version="1.0" encoding="UTF-8" standalone="no"?>
<svg width="32px" height="32px" viewBox="0 0 32 32" version="1.1" xmlns="http://www.w3.org/2000/svg" xmlns:xlink="http://www.w3.org/1999/xlink">
    <!-- Generator: Sketch 39.1 (31720) - http://www.bohemiancoding.com/sketch -->
    <title>团 @2x</title>
    <desc>Created with Sketch.</desc>
    <defs>
        <rect id="path-1" x="1" y="1" width="30" height="30" rx="2"></rect>
        <mask id="mask-2" maskContentUnits="userSpaceOnUse" maskUnits="objectBoundingBox" x="0" y="0" width="30" height="30" fill="white">
            <use xlink:href="#path-1"></use>
        </mask>
    </defs>
    <g id="icon-16/32/48" stroke="none" stroke-width="1" fill="none" fill-rule="evenodd">
        <g id="all" transform="translate(-269.000000, -419.000000)"></g>
        <g id="团-@2x">
            <use id="Rectangle-41" stroke="#22CBBE" mask="url(#mask-2)" stroke-width="2" fill="#27CDC0" xlink:href="#path-1"></use>
            <path d="M9,8 L9,24 L24,24 L24,8 L9,8 Z M25.0052288,6 C25.5546258,6 26,6.45530558 26,6.99180311 L26,25.0081969 C26,25.5559546 25.5490746,26 25.0052288,26 L7.99477117,26 C7.44537422,26 7,25.5446944 7,25.0081969 L7,6.99180311 C7,6.44404538 7.45092539,6 7.99477117,6 L25.0052288,6 Z M15.3747628,14.0015568 L11,21 L13.6191056,21 L18,14 L15.3747628,14.0015568 Z M18,12 L11,12 L11,14 L18,14 L18,20 L16,20 L16,22 L20,22 L20,14 L22,14 L22,12 L20,12 L20,10 L18,10 L18,12 Z" id="团" fill="#FFFFFF"></path>
        </g>
    </g>
</svg>