<?xml version="1.0" encoding="UTF-8" standalone="no"?>
<svg width="48px" height="48px" viewBox="0 0 48 48" version="1.1" xmlns="http://www.w3.org/2000/svg" xmlns:xlink="http://www.w3.org/1999/xlink">
    <!-- Generator: Sketch 39.1 (31720) - http://www.bohemiancoding.com/sketch -->
    <title>导航－更多操作－灰色</title>
    <desc>Created with Sketch.</desc>
    <defs></defs>
    <g id="Page-1" stroke="none" stroke-width="1" fill="none" fill-rule="evenodd">
        <g id="导航－更多操作－灰色" fill="#666666">
            <path d="M26.1213203,14.1213203 C27.2928932,12.9497475 27.2928932,11.0502525 26.1213203,9.87867966 C24.9497475,8.70710678 23.0502525,8.70710678 21.8786797,9.87867966 C20.7071068,11.0502525 20.7071068,12.9497475 21.8786797,14.1213203 C23.0502525,15.2928932 24.9497475,15.2928932 26.1213203,14.1213203 L26.1213203,14.1213203 L26.1213203,14.1213203 Z" id="Path"></path>
            <path d="M26.1213203,26.1213203 C27.2928932,24.9497475 27.2928932,23.0502525 26.1213203,21.8786797 C24.9497475,20.7071068 23.0502525,20.7071068 21.8786797,21.8786797 C20.7071068,23.0502525 20.7071068,24.9497475 21.8786797,26.1213203 C23.0502525,27.2928932 24.9497475,27.2928932 26.1213203,26.1213203 L26.1213203,26.1213203 L26.1213203,26.1213203 Z" id="Path-Copy"></path>
            <path d="M26.1213203,38.1213203 C27.2928932,36.9497475 27.2928932,35.0502525 26.1213203,33.8786797 C24.9497475,32.7071068 23.0502525,32.7071068 21.8786797,33.8786797 C20.7071068,35.0502525 20.7071068,36.9497475 21.8786797,38.1213203 C23.0502525,39.2928932 24.9497475,39.2928932 26.1213203,38.1213203 L26.1213203,38.1213203 L26.1213203,38.1213203 Z" id="Path-Copy-2"></path>
        </g>
    </g>
</svg>