<?xml version="1.0" encoding="UTF-8" standalone="no"?>
<svg width="48px" height="48px" viewBox="0 0 48 48" version="1.1" xmlns="http://www.w3.org/2000/svg" xmlns:xlink="http://www.w3.org/1999/xlink">
    <!-- Generator: Sketch 39.1 (31720) - http://www.bohemiancoding.com/sketch -->
    <title>提示提醒1 @2x</title>
    <desc>Created with Sketch.</desc>
    <defs></defs>
    <g id="icon-24/48/72" stroke="none" stroke-width="1" fill="none" fill-rule="evenodd">
        <g id="all" transform="translate(-408.000000, -823.000000)"></g>
        <g id="提示提醒1-@2x">
            <g id="Oval-328-+-Shape-+-Shape" transform="translate(2.000000, 2.000000)">
                <ellipse id="Oval-328" fill="#FF9D3C" cx="22" cy="22" rx="22" ry="22"></ellipse>
                <path d="M20.732233,33.267767 C21.7085438,34.2440777 23.2914562,34.2440777 24.267767,33.267767 C25.2440777,32.2914562 25.2440777,30.7085438 24.267767,29.732233 C23.2914562,28.7559223 21.7085438,28.7559223 20.732233,29.732233 C19.7559223,30.7085438 19.7559223,32.2914562 20.732233,33.267767 L20.732233,33.267767 Z" id="Shape" fill="#FFFFFF"></path>
                <path d="M20,12.4285714 L20,24.5714286 C20,25.9126915 21.1192881,27 22.5,27 C23.8807119,27 25,25.9126915 25,24.5714286 L25,12.4285714 C25,11.0873085 23.8807119,10 22.5,10 C21.1192881,10 20,11.0873085 20,12.4285714 L20,12.4285714 Z" id="Shape" fill="#FFFFFF"></path>
            </g>
        </g>
    </g>
</svg>