<svg xmlns="http://www.w3.org/2000/svg" width="100" height="100" viewBox="0 0 100 100">
    <path fill-rule="evenodd" clip-rule="evenodd" fill="#040000" d="M98.636 27.794L63.92 64.42v23.85h13.173V97H41.965v-8.73H55.14V64.688L38.245 46.862c-4.034 2.807-8.817 4.335-13.844 4.335-13.36 0-24.232-10.81-24.232-24.1S11.038 3 24.4 3c11.038 0 20.37 7.378 23.284 17.434h47.758c1.75 0 3.335 1.036 4.03 2.636.695 1.6.367 3.456-.836 4.724zm-39.234 28.66l11.318-11.88H48.086l11.316 11.88zM24.35 11.785c-8.485 0-15.39 6.864-15.39 15.304S15.864 42.39 24.35 42.39c2.75 0 5.384-.726 7.7-2.063L20.17 27.794c-1.202-1.268-1.53-3.125-.835-4.725.694-1.6 2.28-2.637 4.03-2.637h14.82c-2.494-5.11-7.75-8.65-13.835-8.65zm9.188 17.518l6.23 6.54h39.27l6.23-6.54H33.54z"/>
</svg>
