<?xml version="1.0" encoding="utf-8"?>
<!-- Generator: Adobe Illustrator 16.0.0, SVG Export Plug-In . SVG Version: 6.00 Build 0)  -->
<!DOCTYPE svg PUBLIC "-//W3C//DTD SVG 1.1//EN" "http://www.w3.org/Graphics/SVG/1.1/DTD/svg11.dtd">
<svg version="1.1" id="图层_1" xmlns="http://www.w3.org/2000/svg" xmlns:xlink="http://www.w3.org/1999/xlink" x="0px" y="0px"
	 width="32px" height="32px" viewBox="0 0 32 32" enable-background="new 0 0 32 32" xml:space="preserve">
<title>Artboard</title>
<desc>Created with Sketch.</desc>
<path d="M28.331,0.842H3.693c-2.037,0-3.692,1.704-3.692,3.788v5.067c0,2.088,1.66,3.787,3.692,3.787h1.246v17.674
	c0.312,0,0.631-0.119,0.867-0.365l1.951-2.007c0.475-0.486,1.265-0.486,1.739,0l1.953,2.007c0.475,0.486,1.263,0.486,1.737,0
	l1.953-2.007c0.475-0.486,1.264-0.486,1.738,0l1.951,2.007c0.477,0.486,1.266,0.486,1.738,0l1.953-2.007
	c0.476-0.486,1.264-0.486,1.737,0l1.954,2.007c0.234,0.246,0.553,0.365,0.868,0.365V13.47h1.228c2.035,0,3.69-1.703,3.69-3.787
	V4.611C32.022,2.546,30.362,0.842,28.331,0.842z M24.03,20.143c0,0.805-0.651,1.457-1.456,1.457H9.468
	c-0.806,0-1.457-0.652-1.457-1.457v-0.291c0-0.804,0.651-1.455,1.457-1.455h13.106c0.805,0,1.456,0.651,1.456,1.455V20.143z
	 M24.03,13.736c0,0.803-0.651,1.455-1.456,1.455H9.468c-0.806,0-1.457-0.652-1.457-1.455v-0.293c0-0.805,0.651-1.456,1.457-1.456
	h13.106c0.805,0,1.456,0.651,1.456,1.456V13.736z M29.535,9.679c0,0.71-0.554,1.258-1.226,1.258h-1.228V8.421
	c0.336,0,0.647-0.143,0.867-0.366c0.217-0.222,0.354-0.548,0.354-0.892c0.006-0.706-0.549-1.276-1.22-1.276H4.939
	c-0.336,0-0.651,0.144-0.868,0.366C3.853,6.476,3.713,6.802,3.713,7.145c0,0.688,0.555,1.259,1.227,1.259v2.548H3.693
	c-0.694,0-1.227-0.567-1.227-1.258v-5.06c0-0.688,0.555-1.259,1.227-1.259h24.618c0.691,0,1.225,0.567,1.225,1.259L29.535,9.679
	L29.535,9.679z"/>
</svg>
